<svg width="100" height="100" viewBox="0 0 100 100" fill="none" xmlns="http://www.w3.org/2000/svg">
<path d="M93.4109 82.3473C84.9382 73.9273 80.6436 63.9618 80.6436 52.7273V36.3745C80.7218 23.9073 72.3382 15.6382 65.1345 12.3455C63.0709 11.4018 60.9436 10.6745 58.7818 10.1345V9.09091C58.7818 4.07818 54.7036 0 49.6909 0C44.6782 0 40.6 4.07818 40.6 9.09091V10.2927C38.6527 10.8182 36.7382 11.5036 34.88 12.3618C26.9182 16.0309 18.8527 24.8745 18.78 36.3636V52.7273C18.78 64.3418 14.6782 74.3073 6.58909 82.3473C6.10727 82.8273 5.93273 83.5345 6.13637 84.1836C6.34 84.8327 6.89091 85.3127 7.56182 85.4291L24.8182 88.4091C28.0327 88.9636 30.9927 89.4182 33.8091 89.7927C36.9836 96.0109 43.2145 100 50.0218 100C56.8309 100 63.0636 96.0073 66.2345 89.7855C69.04 89.4127 71.9855 88.96 75.1818 88.4073L92.4364 85.4273C93.1073 85.3127 93.6564 84.8309 93.8618 84.1818C94.0673 83.5345 93.8927 82.8273 93.4109 82.3473ZM44.2346 9.09091C44.2346 6.08364 46.6818 3.63636 49.6891 3.63636C52.6964 3.63636 55.1436 6.08364 55.1436 9.09091V9.42182C51.52 8.90182 47.8436 8.92364 44.2346 9.50727V9.09091ZM50.0218 96.3636C45.4182 96.3636 41.1164 94.0764 38.3545 90.3364C42.4182 90.7546 46.2109 90.9655 50.0018 90.9655C53.8073 90.9655 57.6127 90.7545 61.6927 90.3309C58.9291 94.0745 54.6255 96.3636 50.0218 96.3636ZM74.5636 84.8236C71.0745 85.4255 67.8764 85.9145 64.8545 86.3C64.8509 86.3 64.8473 86.3 64.8436 86.3C63.5127 86.4691 62.2182 86.6164 60.9509 86.7436C60.9382 86.7455 60.9236 86.7455 60.9109 86.7473C59.7527 86.8636 58.62 86.9564 57.5 87.0382C57.2873 87.0545 57.0764 87.0673 56.8636 87.0818C55.8927 87.1455 54.9327 87.1964 53.9782 87.2327C53.7818 87.24 53.5855 87.2509 53.3891 87.2564C51.1273 87.3327 48.8964 87.3327 46.6364 87.2582C46.4364 87.2509 46.2327 87.2418 46.0327 87.2327C45.0909 87.1964 44.1418 87.1473 43.1836 87.0836C42.9582 87.0691 42.7327 87.0545 42.5055 87.0382C41.4145 86.96 40.3109 86.8673 39.1818 86.7564C39.1418 86.7527 39.1036 86.7491 39.0655 86.7455C37.8073 86.62 36.5218 86.4727 35.2 86.3055C35.1946 86.3055 35.1891 86.3055 35.1836 86.3055C32.1509 85.9218 28.9418 85.4291 25.4364 84.8255L11.5073 82.4182C18.7491 74.1382 22.4164 64.1673 22.4164 52.7273V36.3745C22.4782 26.4927 29.4855 18.8527 36.4 15.6636C38.4564 14.7164 40.5891 14.0091 42.7582 13.5127C42.7764 13.5091 42.7964 13.5109 42.8145 13.5073C47.2945 12.5 52.0636 12.4545 56.5964 13.3836C56.62 13.3891 56.6436 13.3782 56.6673 13.3818C59.0382 13.8764 61.3727 14.6255 63.6218 15.6527C70.3291 18.72 77.0691 26.3091 77.0055 36.3655V52.7291C77.0055 63.6982 80.96 73.8982 88.4836 82.4218L74.5636 84.8236Z" fill="black"/>
<path d="M61.3564 20.6146C54.3109 17.3946 45.6836 17.3909 38.6855 20.6182C34.6945 22.4582 27.9255 27.8419 27.8709 36.3528C27.8655 37.3564 28.6727 38.1746 29.6782 38.1819C29.6818 38.1819 29.6855 38.1819 29.6891 38.1819C30.6873 38.1819 31.5018 37.3764 31.5073 36.3746C31.5491 29.6891 36.9964 25.4019 40.2073 23.92C46.2636 21.1255 53.7455 21.1328 59.8418 23.92C60.7545 24.3382 61.8345 23.9364 62.2527 23.0237C62.6709 22.1091 62.2691 21.0309 61.3564 20.6146Z" fill="black"/>
</svg>
