<svg width="100" height="100" viewBox="0 0 100 100" fill="none" xmlns="http://www.w3.org/2000/svg">
<path d="M68.9148 50.1315H56.6334C56.0075 47.7258 54.1245 45.8428 51.7188 45.2169V27.7767C51.7188 26.8257 50.9484 26.0571 49.9992 26.0571C49.05 26.0571 48.2796 26.8257 48.2796 27.7767V45.2169C45.3219 45.9855 43.1208 48.6544 43.1208 51.8511C43.1208 55.6445 46.2057 58.7295 49.9992 58.7295C53.1942 58.7295 55.8647 56.5284 56.6334 53.5707H68.9148C69.864 53.5707 70.6344 52.802 70.6344 51.8511C70.6344 50.9002 69.8657 50.1315 68.9148 50.1315ZM49.9992 55.2903C48.1025 55.2903 46.56 53.7478 46.56 51.8511C46.56 49.9544 48.1025 48.4119 49.9992 48.4119C51.8959 48.4119 53.4384 49.9544 53.4384 51.8511C53.4384 53.7478 51.8959 55.2903 49.9992 55.2903Z" fill="black"/>
<path d="M86.3034 16.7902L93.3469 23.8337C93.6702 24.157 94.107 24.3375 94.5626 24.3375C95.0183 24.3375 95.4568 24.157 95.7784 23.8337C101.224 18.3894 101.224 9.52831 95.7784 4.08405C90.3341 -1.36021 81.473 -1.36021 76.0288 4.08405C75.7055 4.40733 75.5249 4.84239 75.5249 5.29981C75.5249 5.75722 75.7055 6.194 76.0288 6.51557L83.8719 14.3587L80.9503 17.2803C72.7306 9.9135 61.8816 5.4219 50.0009 5.4219C38.1202 5.4219 27.2712 9.9135 19.0515 17.2803L16.1282 14.3587L23.9713 6.51557C24.2946 6.19228 24.4751 5.75722 24.4751 5.29981C24.4751 4.84239 24.2946 4.40561 23.9713 4.08405C18.527 -1.36021 9.6659 -1.36021 4.22165 4.08405C-1.22433 9.52831 -1.22433 18.3894 4.22165 23.8337C4.54493 24.157 4.98171 24.3375 5.4374 24.3375C5.8931 24.3375 6.3316 24.157 6.65316 23.8337L13.6967 16.7902L16.5787 19.6722C8.53269 28.0243 3.56992 39.3668 3.56992 51.8512C3.56992 68.8718 12.7818 83.7738 26.4767 91.8577L21.2698 97.0646C20.5974 97.737 20.5974 98.8238 21.2698 99.4962C21.6051 99.8315 22.0453 100 22.4855 100C22.9258 100 23.366 99.8315 23.7013 99.4962L29.6339 93.5635C35.7867 96.5797 42.6977 98.2804 49.9992 98.2804C57.3006 98.2804 64.2117 96.5797 70.3644 93.5635L76.297 99.4962C76.6324 99.8315 77.0726 100 77.5128 100C77.953 100 78.3932 99.8315 78.7286 99.4962C79.4009 98.8238 79.4009 97.737 78.7286 97.0646L73.5216 91.8577C87.2165 83.7738 96.4284 68.8718 96.4284 51.8512C96.4284 39.3668 91.4656 28.0243 83.4196 19.6722L86.3034 16.7902ZM93.3452 6.51557C97.0354 10.2058 97.4069 15.9768 94.4612 20.0884L79.7741 5.39954C83.8822 2.45387 89.6549 2.82358 93.3452 6.51557ZM5.53714 20.0867C2.59146 15.9768 2.9629 10.2058 6.65316 6.51557C10.3434 2.8253 16.1161 2.45559 20.2243 5.39954L5.53714 20.0867ZM49.9992 94.8412C26.2945 94.8412 7.00912 75.5559 7.00912 51.8512C7.00912 28.1464 26.2945 8.8611 49.9992 8.8611C73.7039 8.8611 92.9892 28.1464 92.9892 51.8512C92.9892 75.5559 73.7056 94.8412 49.9992 94.8412Z" fill="black"/>
<path d="M84.1883 32.0018C80.7319 26.0709 75.7794 21.1201 69.8503 17.6637C69.8227 17.6448 69.8055 17.6156 69.7763 17.5984C69.7454 17.5812 69.7127 17.5812 69.6817 17.5657C63.8815 14.2228 57.163 12.2986 50.0009 12.2986C42.8387 12.2986 36.1203 14.2211 30.32 17.5657C30.2891 17.5812 30.2547 17.5795 30.2255 17.5984C30.1962 17.6156 30.1808 17.6448 30.1515 17.6637C24.2206 21.1201 19.2699 26.0709 15.8135 32.0018C15.7946 32.031 15.7653 32.0465 15.7481 32.0757C15.7309 32.105 15.7309 32.1393 15.7172 32.1703C12.3743 37.9722 10.45 44.689 10.45 51.8511C10.45 59.0133 12.3743 65.7318 15.7172 71.532C15.7327 71.5629 15.7309 71.5956 15.7481 71.6266C15.7722 71.6696 15.8083 71.7005 15.8358 71.7401C19.2922 77.652 24.2344 82.589 30.1515 86.0385C30.179 86.0575 30.1962 86.0867 30.2255 86.1039C30.2702 86.1297 30.3183 86.14 30.363 86.1606C36.1547 89.4881 42.8559 91.402 50.0009 91.402C57.1458 91.402 63.8471 89.4881 69.6387 86.1606C69.6835 86.14 69.7316 86.1297 69.7763 86.1039C69.8055 86.0867 69.821 86.0575 69.8503 86.0385C75.7674 82.589 80.7095 77.6538 84.1659 71.7401C84.1935 71.7005 84.2296 71.6696 84.2536 71.6266C84.2708 71.5973 84.2708 71.5629 84.2846 71.532C87.6275 65.73 89.5517 59.0133 89.5517 51.8511C89.5517 44.689 87.6275 37.9705 84.2846 32.1703C84.2691 32.1393 84.2708 32.1067 84.2536 32.0757C84.2347 32.0465 84.2055 32.0293 84.1883 32.0018ZM69.5046 82.1952L68.6844 80.7748C68.208 79.9529 67.1574 79.6691 66.3354 80.1455C65.5134 80.6201 65.2314 81.6725 65.706 82.4944L66.5297 83.92C62.0536 86.2363 57.0375 87.6223 51.7205 87.8751V86.2432C51.7205 85.2922 50.9501 84.5236 50.0009 84.5236C49.0517 84.5236 48.2813 85.2922 48.2813 86.2432V87.8751C42.9643 87.624 37.9482 86.2363 33.4721 83.92L34.2958 82.4944C34.7704 81.6708 34.4884 80.6201 33.6664 80.1455C32.8393 79.6709 31.792 79.9546 31.3174 80.7748L30.4972 82.1952C26.1552 79.3957 22.458 75.6969 19.6585 71.3566L21.0789 70.5363C21.9009 70.0617 22.1829 69.0093 21.7083 68.1874C21.2319 67.3654 20.183 67.0782 19.3593 67.558L17.9337 68.3817C15.6174 63.9055 14.2314 58.8878 13.9787 53.5725H15.6106C16.5598 53.5725 17.3302 52.8038 17.3302 51.8529C17.3302 50.9019 16.5598 50.1333 15.6106 50.1333H13.9752C14.228 44.8163 15.614 39.7985 17.9303 35.3241L19.3559 36.1477C19.6276 36.3042 19.9233 36.3782 20.2139 36.3782C20.8089 36.3782 21.3867 36.0686 21.7048 35.5184C22.1794 34.6947 21.8974 33.644 21.0755 33.1694L19.6551 32.3457C22.4546 28.0054 26.1534 24.3066 30.4937 21.5071L31.314 22.9274C31.6338 23.4777 32.2099 23.7872 32.8049 23.7872C33.0955 23.7872 33.3913 23.7133 33.6629 23.5568C34.4849 23.0822 34.7669 22.0298 34.2923 21.2078L33.4686 19.7823C37.9448 17.466 42.9608 16.08 48.2778 15.8272V17.4591C48.2778 18.41 49.0482 19.1787 49.9974 19.1787C50.9467 19.1787 51.717 18.41 51.717 17.4591V15.8272C57.0341 16.0783 62.0501 17.466 66.5263 19.7823L65.7026 21.2078C65.228 22.0315 65.51 23.0822 66.3319 23.5568C66.6036 23.7133 66.8994 23.7872 67.19 23.7872C67.785 23.7872 68.3628 23.4777 68.6809 22.9274L69.5012 21.5071C73.8432 24.3066 77.5403 28.0054 80.3398 32.3457L78.9194 33.166C78.0975 33.6406 77.8154 34.693 78.2901 35.5149C78.6099 36.0652 79.186 36.3747 79.781 36.3747C80.0716 36.3747 80.3673 36.3008 80.639 36.1443L82.0646 35.3206C84.3809 39.7967 85.7669 44.8145 86.0197 50.1298H84.3878C83.4385 50.1298 82.6682 50.8985 82.6682 51.8494C82.6682 52.8004 83.4385 53.569 84.3878 53.569H86.0197C85.7669 58.886 84.3809 63.9038 82.0646 68.3782L80.639 67.5545C79.8136 67.0765 78.7647 67.3637 78.2901 68.1839C77.8154 69.0076 78.0975 70.0583 78.9194 70.5329L80.3398 71.3531C77.5437 75.6969 73.8466 79.394 69.5046 82.1952Z" fill="black"/>
</svg>
