<svg width="100" height="100" viewBox="0 0 100 100" fill="none" xmlns="http://www.w3.org/2000/svg">
<path fill-rule="evenodd" clip-rule="evenodd" d="M50 100C22.3858 100 0 77.6142 0 50C0 22.3858 22.3858 0 50 0C77.6142 0 100 22.3858 100 50C100 77.6142 77.6142 100 50 100ZM57.8258 26.4506L58.461 25.5167L59.0962 24.596L60.5117 22.5265C60.6877 22.271 60.6152 21.9283 60.3527 21.7604C60.094 21.589 59.7383 21.6596 59.5692 21.915L57.4081 25.0631L56.7592 26.0106C54.7052 25.2344 52.4165 24.801 50 24.801C47.5871 24.801 45.2948 25.2344 43.2408 26.0106L42.5952 25.0631L41.9567 24.1325L40.4377 21.915C40.2617 21.6596 39.9096 21.5925 39.6473 21.7604C39.3883 21.9283 39.3158 22.271 39.4883 22.5265L40.9038 24.596L41.539 25.5167L42.1775 26.4506C37.355 28.6379 34.0927 32.7804 34.0927 37.5212H65.9073C65.9073 32.7804 62.645 28.6379 57.8258 26.4506ZM34.0927 39.7319H34.3379H65.9073V64.0635C65.9073 65.9952 64.2985 67.5677 62.3102 67.5677H59.7106C59.8004 67.86 59.8523 68.1658 59.8523 68.4883V75.4933C59.8523 77.3246 58.3229 78.8096 56.4381 78.8096C54.5567 78.8096 53.0308 77.3246 53.0308 75.4933V68.4883C53.0308 68.1658 53.0792 67.86 53.1656 67.5677H46.8344C46.9208 67.86 46.9725 68.1658 46.9725 68.4883V75.4933C46.9725 77.3246 45.4433 78.8096 43.5619 78.8096C41.6804 78.8096 40.1512 77.3246 40.1512 75.4933V68.4883C40.1512 68.1658 40.1996 67.86 40.2894 67.5677H37.6933C35.705 67.5677 34.0927 65.9952 34.0927 64.0635V39.7319ZM28.4106 39.7319C26.5258 39.7319 25 41.2169 25 43.0479V57.2431C25 59.0742 26.5258 60.5592 28.4106 60.5592C30.2921 60.5592 31.8179 59.0742 31.8179 57.2431V43.0479C31.8179 41.2169 30.2921 39.7319 28.4106 39.7319ZM68.1821 43.0479C68.1821 41.2169 69.7079 39.7319 71.5927 39.7319C73.4742 39.7319 75 41.2169 75 43.0479V57.2431C75 59.0742 73.4742 60.5592 71.5927 60.5592C69.7079 60.5592 68.1821 59.0742 68.1821 57.2431V43.0479Z" fill="black"/>
<path d="M43.1821 33.0962C42.2398 33.0962 41.4769 32.3537 41.4769 31.4366C41.4769 30.5193 42.2398 29.7802 43.1821 29.7802C44.1246 29.7802 44.8875 30.5193 44.8875 31.4366C44.8875 32.3537 44.1246 33.0962 43.1821 33.0962Z" fill="black"/>
<path d="M56.8179 33.0962C55.8754 33.0962 55.1125 32.3537 55.1125 31.4366C55.1125 30.5193 55.8754 29.7802 56.8179 29.7802C57.7602 29.7802 58.5231 30.5193 58.5231 31.4366C58.5231 32.3537 57.7602 33.0962 56.8179 33.0962Z" fill="black"/>
</svg>
