<svg width="100" height="100" viewBox="0 0 100 100" fill="none" xmlns="http://www.w3.org/2000/svg">
<path fill-rule="evenodd" clip-rule="evenodd" d="M0 50C0 22.3858 22.3858 0 50 0C77.6142 0 100 22.3858 100 50C100 77.6142 77.6142 100 50 100C22.3858 100 0 77.6142 0 50ZM58.14 29.5031C60.049 27.0387 61.4962 23.5554 60.9727 20C57.8525 20.2168 54.2054 22.2131 52.0775 24.8152C50.1375 27.1729 48.5431 30.6802 49.1658 34.0842C52.5769 34.1908 56.0975 32.1465 58.14 29.5031ZM73.3065 39.6394C63.4806 45.0569 65.0715 59.1721 75 62.9479C73.635 65.9904 72.9779 67.35 71.2196 70.045C68.7664 73.8071 65.3075 78.4915 61.0173 78.5258C59.2535 78.545 58.0962 78.011 56.8481 77.4354C55.4015 76.7681 53.8331 76.0448 51.0579 76.0615C48.2987 76.076 46.7054 76.7908 45.2392 77.4483C43.9583 78.0229 42.7746 78.5537 40.9958 78.5362C36.709 78.4983 33.4315 74.2717 30.9783 70.5096C24.1152 59.9981 23.3933 47.659 27.6254 41.0954C30.6362 36.435 35.385 33.709 39.8462 33.709C42.2233 33.709 44.1387 34.3958 45.9642 35.0504C47.6252 35.6458 49.2117 36.2148 51.0031 36.2148C52.6608 36.2148 54.024 35.6956 55.5108 35.1292C57.295 34.4496 59.2577 33.7021 62.1223 33.7021C66.0979 33.7021 70.3094 35.8808 73.3065 39.6394Z" fill="black"/>
</svg>
