<svg width="100" height="100" viewBox="0 0 100 100" fill="none" xmlns="http://www.w3.org/2000/svg">
<path d="M52.6316 30.0374V76.3158C52.6316 77.7692 51.4534 78.9474 50 78.9474C48.5466 78.9474 47.3684 77.7692 47.3684 76.3158V30.0374L30.8082 46.5977C29.7805 47.6253 28.1143 47.6253 27.0866 46.5977C26.0589 45.57 26.0589 43.9037 27.0866 42.876L48.1392 21.8234C49.1669 20.7957 50.8331 20.7957 51.8608 21.8234L72.9134 42.876C73.9411 43.9037 73.9411 45.57 72.9134 46.5977C71.8857 47.6253 70.2195 47.6253 69.1918 46.5977L52.6316 30.0374ZM100 50C100 77.6142 77.6142 100 50 100C22.3858 100 0 77.6142 0 50C0 22.3858 22.3858 0 50 0C77.6142 0 100 22.3858 100 50ZM94.7368 50C94.7368 25.2925 74.7075 5.26316 50 5.26316C25.2925 5.26316 5.26316 25.2925 5.26316 50C5.26316 74.7075 25.2925 94.7368 50 94.7368C74.7075 94.7368 94.7368 74.7075 94.7368 50Z" fill="black"/>
</svg>
