<svg width="100" height="100" viewBox="0 0 100 100" fill="none" xmlns="http://www.w3.org/2000/svg">
<g clip-path="url(#clip0_5_776)">
<path d="M69.9736 47.3552L53.4194 30.801C52.3921 29.7737 52.3921 28.108 53.4194 27.0807C54.4467 26.0534 56.1123 26.0534 57.1396 27.0807L78.1846 48.1257C79.2119 49.153 79.2119 50.8186 78.1846 51.8459L57.1396 72.8909C56.1123 73.9182 54.4467 73.9182 53.4194 72.8909C52.3921 71.8635 52.3921 70.1979 53.4194 69.1706L69.9736 52.6164H23.7121C22.2593 52.6164 21.0815 51.4386 21.0815 49.9858C21.0815 48.5329 22.2593 47.3552 23.7121 47.3552H69.9736ZM86.8469 94.7063C91.2055 94.7063 94.7388 91.173 94.7388 86.8144V13.1571C94.7388 8.7986 91.2055 5.26529 86.8468 5.26529L13.1531 5.26124C8.79455 5.26124 5.26125 8.79454 5.26125 13.1531L5.29778 86.8134C5.29946 91.1708 8.83227 94.7022 13.1896 94.7022C13.2226 94.7022 37.775 94.7036 86.8469 94.7063ZM0.0365452 86.8157L1.52588e-05 13.1582C1.42592e-05 5.88884 5.88885 0 13.1532 0L86.8469 0.00405791C94.1112 0.00405791 100 5.8929 100 13.1571V86.8144C100 94.0787 94.1112 99.9675 86.8469 99.9675H13.1896C5.83858 99.8743 0.0393251 94.0228 0.0365452 86.8157Z" fill="black"/>
</g>
<defs>
<clipPath id="clip0_5_776">
<rect width="100" height="100" fill="white"/>
</clipPath>
</defs>
</svg>
