<svg width="100" height="100" viewBox="0 0 100 100" fill="none" xmlns="http://www.w3.org/2000/svg">
<path d="M50 100C22.3858 100 0 77.6142 0 50C0 22.3858 22.3858 0 50 0C77.6142 0 100 22.3858 100 50C100 77.6142 77.6142 100 50 100ZM50 94.7368C74.7075 94.7368 94.7368 74.7075 94.7368 50C94.7368 25.2925 74.7075 5.26316 50 5.26316C25.2925 5.26316 5.26316 25.2925 5.26316 50C5.26316 74.7075 25.2925 94.7368 50 94.7368ZM30.0374 47.3684H76.3158C77.7692 47.3684 78.9474 48.5466 78.9474 50C78.9474 51.4534 77.7692 52.6316 76.3158 52.6316H30.0374L46.5977 69.1918C47.6253 70.2195 47.6253 71.8857 46.5977 72.9134C45.57 73.9411 43.9037 73.9411 42.876 72.9134L21.8234 51.8608C20.7957 50.8331 20.7957 49.1669 21.8234 48.1392L42.876 27.0866C43.9037 26.0589 45.57 26.0589 46.5977 27.0866C47.6253 28.1143 47.6253 29.7805 46.5977 30.8082L30.0374 47.3684Z" fill="black"/>
</svg>
