<svg width="100" height="100" viewBox="0 0 100 100" fill="none" xmlns="http://www.w3.org/2000/svg">
<g clip-path="url(#clip0_5_778)">
<path d="M52.6335 30.0362V76.3127C52.6335 77.766 51.4553 78.9442 50.002 78.9442C48.5487 78.9442 47.3705 77.766 47.3705 76.3127V30.0362L30.811 46.5958C29.7833 47.6234 28.1172 47.6234 27.0895 46.5958C26.0619 45.5681 26.0619 43.9019 27.0895 42.8743L48.1413 21.8225C49.1689 20.7949 50.8351 20.7949 51.8628 21.8225L72.9145 42.8743C73.9422 43.9019 73.9422 45.5681 72.9145 46.5958C71.8869 47.6234 70.2207 47.6234 69.1931 46.5958L52.6335 30.0362ZM94.737 13.1574C94.737 8.79739 91.2026 5.26294 86.8426 5.26294H13.1614C8.80144 5.26294 5.26699 8.79739 5.26699 13.1575L5.26293 86.8751C5.26293 91.2351 8.79738 94.7695 13.1573 94.7695L86.8416 94.733C91.2004 94.7313 94.733 91.1974 94.733 86.8386C94.733 86.8056 94.7343 62.2452 94.737 13.1574ZM86.8439 99.9959L13.1624 100.032C5.89074 100.032 -1.52588e-05 94.1417 -1.52588e-05 86.875L0.00404397 13.1574C0.00404397 5.89075 5.89479 0 13.1614 0H86.8426C94.1092 0 100 5.89075 100 13.1574V86.8386C99.9067 94.192 94.0533 99.9932 86.8439 99.9959Z" fill="black"/>
</g>
<defs>
<clipPath id="clip0_5_778">
<rect width="100" height="100" fill="white"/>
</clipPath>
</defs>
</svg>
