<svg width="100" height="100" viewBox="0 0 100 100" fill="none" xmlns="http://www.w3.org/2000/svg">
<g clip-path="url(#clip0_5_774)">
<path d="M13.1561 0.0367859L86.8376 0.000244141C94.1092 0.000243141 100 5.89099 100 13.1577L99.9959 86.8754C99.9959 94.142 94.1052 100.033 86.8386 100.033H13.1574C5.89075 100.033 0 94.142 0 86.8754V13.1941C0.0932587 5.8407 5.9467 0.0395668 13.1561 0.0367859ZM5.26294 86.8754C5.26294 91.2353 8.7974 94.7698 13.1574 94.7698H86.8386C91.1986 94.7698 94.733 91.2353 94.733 86.8752L94.7371 13.1576C94.7371 8.79764 91.2026 5.26319 86.8426 5.26319L13.1584 5.29973C8.7996 5.30141 5.267 8.83537 5.267 13.1941C5.267 13.2271 5.26565 37.7875 5.26294 86.8754ZM52.6294 69.9965L69.189 53.437C70.2167 52.4093 71.8828 52.4093 72.9105 53.437C73.9381 54.4646 73.9381 56.1308 72.9105 57.1584L51.8587 78.2102C50.8311 79.2379 49.1649 79.2379 48.1372 78.2102L27.0855 57.1584C26.0578 56.1308 26.0578 54.4646 27.0855 53.437C28.1131 52.4093 29.7793 52.4093 30.8069 53.437L47.3665 69.9965V23.72C47.3665 22.2667 48.5446 21.0886 49.998 21.0886C51.4513 21.0886 52.6294 22.2667 52.6294 23.72V69.9965Z" fill="black"/>
</g>
<defs>
<clipPath id="clip0_5_774">
<rect width="100" height="100" fill="white"/>
</clipPath>
</defs>
</svg>
