<svg width="100" height="100" viewBox="0 0 100 100" fill="none" xmlns="http://www.w3.org/2000/svg">
<path d="M69.9626 47.3684L53.4024 30.8082C52.3747 29.7805 52.3747 28.1143 53.4024 27.0866C54.43 26.0589 56.0963 26.0589 57.124 27.0866L78.1766 48.1392C79.2043 49.1669 79.2043 50.8331 78.1766 51.8608L57.124 72.9134C56.0963 73.9411 54.43 73.9411 53.4024 72.9134C52.3747 71.8857 52.3747 70.2195 53.4024 69.1918L69.9626 52.6316H23.6842C22.2308 52.6316 21.0526 51.4534 21.0526 50C21.0526 48.5466 22.2308 47.3684 23.6842 47.3684H69.9626ZM50 100C22.3858 100 0 77.6142 0 50C0 22.3858 22.3858 0 50 0C77.6142 0 100 22.3858 100 50C100 77.6142 77.6142 100 50 100ZM50 94.7368C74.7075 94.7368 94.7368 74.7075 94.7368 50C94.7368 25.2925 74.7075 5.26316 50 5.26316C25.2925 5.26316 5.26316 25.2925 5.26316 50C5.26316 74.7075 25.2925 94.7368 50 94.7368Z" fill="black"/>
</svg>
