<svg width="100" height="100" viewBox="0 0 100 100" fill="none" xmlns="http://www.w3.org/2000/svg">
<g clip-path="url(#clip0_8_10555)">
<path d="M47.3684 69.9626V23.6842C47.3684 22.2308 48.5466 21.0526 50 21.0526C51.4534 21.0526 52.6316 22.2308 52.6316 23.6842V69.9626L69.1918 53.4023C70.2195 52.3747 71.8857 52.3747 72.9134 53.4023C73.9411 54.43 73.9411 56.0963 72.9134 57.124L51.8608 78.1766C50.8331 79.2043 49.1669 79.2043 48.1392 78.1766L27.0866 57.124C26.0589 56.0963 26.0589 54.43 27.0866 53.4023C28.1143 52.3747 29.7805 52.3747 30.8082 53.4023L47.3684 69.9626ZM0 50C0 22.3858 22.3858 0 50 0C77.6142 0 100 22.3858 100 50C100 77.6142 77.6142 100 50 100C22.3858 100 0 77.6142 0 50ZM5.26315 50C5.26315 74.7075 25.2925 94.7368 50 94.7368C74.7075 94.7368 94.7368 74.7075 94.7368 50C94.7368 25.2925 74.7075 5.26315 50 5.26315C25.2925 5.26315 5.26315 25.2925 5.26315 50Z" fill="black"/>
</g>
<defs>
<clipPath id="clip0_8_10555">
<rect width="100" height="100" fill="white" transform="translate(100 100) rotate(-180)"/>
</clipPath>
</defs>
</svg>
