<svg width="100" height="100" viewBox="0 0 100 100" fill="none" xmlns="http://www.w3.org/2000/svg">
<path d="M30.0264 52.6124L46.5806 69.1665C47.6079 70.1939 47.6079 71.8595 46.5806 72.8868C45.5533 73.9141 43.8877 73.9141 42.8604 72.8868L21.8154 51.8419C20.7881 50.8145 20.7881 49.1489 21.8154 48.1216L42.8604 27.0767C43.8877 26.0493 45.5533 26.0493 46.5806 27.0767C47.6079 28.104 47.6079 29.7696 46.5806 30.7969L30.0264 47.3511H76.2879C77.7408 47.3511 78.9185 48.5289 78.9185 49.9817C78.9185 51.4346 77.7408 52.6124 76.2879 52.6124H30.0264ZM13.1531 5.26124C8.79454 5.26124 5.26124 8.79454 5.26124 13.1531V86.8104C5.26124 91.1689 8.79454 94.7022 13.1532 94.7022L86.8469 94.7063C91.2055 94.7063 94.7388 91.173 94.7388 86.8144L94.7022 13.1541C94.7006 8.79674 91.1677 5.26529 86.8104 5.26529C86.7774 5.26529 62.225 5.26394 13.1531 5.26124ZM99.9635 13.1518L100 86.8094C100 94.0787 94.1112 99.9675 86.8468 99.9675L13.1531 99.9635C5.88884 99.9635 0 94.0746 0 86.8104V13.1531C0 5.88884 5.88884 0 13.1531 0H86.8104C94.1614 0.0932284 99.9607 5.94477 99.9635 13.1518Z" fill="black"/>
</svg>
