<svg width="100" height="100" viewBox="0 0 100 100" fill="none" xmlns="http://www.w3.org/2000/svg">
<path d="M50 77.7778C34.6588 77.7778 22.2222 65.3412 22.2222 50C22.2222 34.6588 34.6588 22.2222 50 22.2222C65.3412 22.2222 77.7778 34.6588 77.7778 50C77.7778 65.3412 65.3412 77.7778 50 77.7778ZM50 72.2222C62.273 72.2222 72.2222 62.273 72.2222 50C72.2222 37.727 62.273 27.7778 50 27.7778C37.727 27.7778 27.7778 37.727 27.7778 50C27.7778 62.273 37.727 72.2222 50 72.2222ZM78.5812 84.037C79.7555 83.0498 81.5078 83.2016 82.4949 84.3759C83.4821 85.5502 83.3304 87.3024 82.1561 88.2896C73.2135 95.8071 61.9261 100 50 100C22.3858 100 0 77.6142 0 50C0 22.3858 22.3858 0 50 0C77.6142 0 100 22.3858 100 50V63.8889C100 71.5595 93.7817 77.7778 86.1111 77.7778C78.4405 77.7778 72.2222 71.5595 72.2222 63.8889V30.5556C72.2222 29.0214 73.4659 27.7778 75 27.7778C76.5341 27.7778 77.7778 29.0214 77.7778 30.5556V63.8889C77.7778 68.4913 81.5087 72.2222 86.1111 72.2222C90.7135 72.2222 94.4444 68.4913 94.4444 63.8889V50C94.4444 25.454 74.546 5.55556 50 5.55556C25.454 5.55556 5.55556 25.454 5.55556 50C5.55556 74.546 25.454 94.4444 50 94.4444C60.6059 94.4444 70.6307 90.7206 78.5812 84.037Z" fill="black"/>
</svg>
