<svg width="100" height="100" viewBox="0 0 100 100" fill="none" xmlns="http://www.w3.org/2000/svg">
<g clip-path="url(#clip0_5_804)">
<path d="M1.7 63.1435C4.7 62.044 7.8 61.4944 11.1 61.4944C17.8 61.4944 23.65 63.5933 28.65 67.7912L12.95 83.4833C7.65 77.4865 3.9 70.6398 1.7 63.1435ZM67.8 39.0054C77.65 46.3519 88.3 48.1508 99.7 44.4027C99.85 45.4523 100 47.3513 100 50C100 55.1475 98.75 60.8946 96.4 67.2415C94.05 73.5383 91.15 78.6358 87.75 82.484L56.1 50.9496L67.8 39.0054ZM33.85 73.1885C39.15 80.8348 40.25 89.1806 37.1 98.276C30 96.2271 23.65 93.0285 18.35 88.6308L33.85 73.1885ZM50.95 56.0969L82.5 87.7312C71.65 97.2267 58.9 101.225 44.4 99.6754C45.45 96.3771 46 92.7787 46 88.8806C46 85.7823 45.3 82.1342 43.9 77.986C42.5 73.8381 40.85 70.4398 39 67.7912L50.95 56.0969ZM34.05 62.4937C29.4 58.3458 24 55.7471 17.9 54.5477C11.8 53.3983 5.95 53.7481 0.3 55.6473C0.15 54.5477 0 52.6487 0 50C0 44.8525 1.25 39.1054 3.6 32.7585C5.95 26.4617 8.85 21.3642 12.25 17.5161L45.55 50.9496L34.05 62.4937ZM67.8 28.6606C61.1 20.4147 59.55 11.4191 63.15 1.72394C66.25 2.52354 69.8 4.02281 73.8 6.32167C77.75 8.57054 81 10.8194 83.5 12.9684L67.8 28.6606ZM98.3 36.9065C95.3 37.956 92.2 38.5056 88.9 38.5056C83.45 38.5056 78.2 36.9065 73.2 33.6081L88.65 18.3657C93.05 23.8629 96.25 30.01 98.3 36.9065ZM50.95 45.5523L17.5 12.2687C28.35 2.77342 41.1 -1.22459 55.65 0.324638C54.55 3.623 54 7.22121 54 11.1193C54 14.7175 54.8 18.7655 56.45 23.3133C58.1 27.811 60 31.4092 62.5 34.0579L50.95 45.5523Z" fill="black"/>
</g>
<defs>
<clipPath id="clip0_5_804">
<rect width="100" height="100" fill="white"/>
</clipPath>
</defs>
</svg>
