<svg width="100" height="100" viewBox="0 0 100 100" fill="none" xmlns="http://www.w3.org/2000/svg">
<g clip-path="url(#clip0_5_1306)">
<path d="M93.8186 25.9149C93.8186 25.9149 93.8186 25.9149 93.8186 25.8944C93.6341 25.5461 93.4292 25.2182 93.2448 24.8698C79.5536 1.36349 49.5688 -6.85454 25.9171 6.17947C25.9171 6.17947 25.8966 6.17947 25.8966 6.19997C25.8761 6.19997 25.8761 6.22046 25.8557 6.22046C25.5278 6.40488 25.1997 6.58931 24.8718 6.77374C1.36344 20.4637 -6.85521 50.4461 6.18004 74.0959V74.1164C6.18004 74.1164 6.18004 74.1369 6.20053 74.1369C6.38496 74.4647 6.56938 74.7926 6.75402 75.1205C13.4561 86.6379 24.2776 94.8764 37.2102 98.299C41.4938 99.426 45.8386 100 50.1427 100C58.4638 100 66.662 97.9096 74.102 93.8108C74.102 93.8108 74.1225 93.8108 74.1225 93.7903L74.1429 93.7698C74.4708 93.5854 74.7989 93.401 75.1268 93.2166C86.5427 86.5766 94.7204 75.8994 98.2046 63.1522C98.2251 63.0908 98.2456 63.0293 98.2661 62.9473C98.2866 62.8858 98.2866 62.8448 98.3071 62.7834C101.627 50.2412 100.029 37.1866 93.8186 25.9149ZM63.5059 6.15898C73.8766 9.33542 83.1405 16.1805 89.1866 26.0994L64.9405 39.4409C59.6116 29.2555 59.0788 16.7543 63.5059 6.15898ZM59.5091 5.09341C57.2751 10.6473 56.2298 16.7133 56.4348 22.8C56.6602 29.3375 58.3614 35.7315 61.3536 41.4084L50.7985 47.2082L29.6677 8.82312C39.1981 4.1096 49.7124 3.00304 59.5091 5.09341ZM26.0811 10.811L47.2118 49.1959L36.3698 55.1596C33.0085 49.9338 28.4585 45.4045 23.1093 42.0026C18.0061 38.7647 12.2673 36.5922 6.38496 35.67C9.68475 25.6485 16.4278 16.7133 26.0811 10.811ZM5.2782 39.6664C16.5302 41.2649 26.5731 47.659 32.7626 57.1475L8.82389 70.325C3.98701 60.5291 2.96221 49.7082 5.2782 39.6664ZM37.0872 94.0157C26.0606 90.7776 16.7966 83.6869 10.812 73.9114L34.8532 60.6725C40.0999 70.5914 40.9403 83.0311 37.0872 94.0157ZM41.0837 94.9996C43.0718 89.1383 43.8915 82.8262 43.4817 76.5961C43.0513 70.243 41.3091 64.0949 38.4399 58.6846L49.1794 52.7823L70.3102 91.1467C61.2514 95.6553 51.0651 96.9875 41.0837 94.9996ZM73.897 89.1793L52.7866 50.8149L63.4852 44.9332C66.8259 49.8106 71.2325 54.0938 76.3768 57.3934C81.6032 60.7545 87.5264 63.0703 93.6134 64.1768C90.2319 74.6492 83.3249 83.4205 73.897 89.1793ZM94.7204 60.201C83.4274 58.2746 73.3641 51.983 67.0925 42.9248L91.1747 29.6858C95.8682 39.1541 97.1184 49.8313 94.7204 60.201Z" fill="black"/>
</g>
<defs>
<clipPath id="clip0_5_1306">
<rect width="100" height="100" fill="white"/>
</clipPath>
</defs>
</svg>
