<svg width="100" height="101" viewBox="0 0 100 101" fill="none" xmlns="http://www.w3.org/2000/svg">
<path fill-rule="evenodd" clip-rule="evenodd" d="M81.1321 38.3018C81.1321 41.162 82.2006 43.7656 83.9581 45.7629C86.0368 48.1288 89.0696 49.6226 92.4528 49.6226H96.5019V53.3962H92.4528C87.9308 53.3962 83.884 51.395 81.1249 48.2558C78.7919 45.6041 77.3585 42.1246 77.3585 38.3018V34.2613L81.1321 34.2603V38.3018Z" fill="black"/>
<path fill-rule="evenodd" clip-rule="evenodd" d="M56.8096 34.4815C64.587 37.9166 71.6038 42.8046 77.4623 48.8127C85.2343 56.7829 91.0149 66.7442 93.9813 77.8232L90.336 78.7991C87.5402 68.3574 82.0906 58.964 74.7606 51.4474C69.2381 45.784 62.6207 41.1736 55.2851 37.9332L56.8096 34.4815Z" fill="black"/>
<path fill-rule="evenodd" clip-rule="evenodd" d="M39.6226 60.9434C39.6226 44.2706 53.1385 30.7547 69.8113 30.7547C86.4841 30.7547 100 44.2706 100 60.9434C100 77.6162 86.4841 91.1321 69.8113 91.1321C53.1385 91.1321 39.6226 77.6162 39.6226 60.9434ZM69.8113 34.5283C55.2226 34.5283 43.3962 46.3547 43.3962 60.9434C43.3962 75.5321 55.2226 87.3585 69.8113 87.3585C84.4 87.3585 96.2264 75.5321 96.2264 60.9434C96.2264 46.3547 84.4 34.5283 69.8113 34.5283Z" fill="black"/>
<path fill-rule="evenodd" clip-rule="evenodd" d="M45.4107 62.0453C44.599 62.7223 43.7226 63.4534 42.7645 64.2396L40.3706 61.3226C41.2824 60.5743 42.1387 59.8545 42.9545 59.1689C48.4149 54.5796 52.0677 51.5094 58.4902 51.5094C62.596 51.5094 66.3645 52.9691 69.3011 55.3943C73.0651 58.5053 75.4713 63.2174 75.4713 68.4906C75.4713 69.2379 75.4634 69.8889 75.3422 70.7051C75.2247 71.4989 75.0081 72.4002 74.6404 73.7C74.1915 75.2872 73.48 77.5955 72.3628 81.2198C71.6623 83.4923 70.8023 86.2821 69.7475 89.736L66.1385 88.6338C67.2128 85.1158 68.0804 82.3017 68.7815 80.0272C69.8813 76.46 70.5719 74.22 71.0092 72.673C71.3651 71.4153 71.5281 70.7006 71.6096 70.1519C71.6875 69.6257 71.6977 69.2074 71.6977 68.4906C71.6977 64.3906 69.8319 60.7289 66.8981 58.3038L58.4902 55.283L45.4107 62.0453ZM45.4107 62.0453C50.9972 57.3862 53.519 55.283 58.4902 55.283L45.4107 62.0453ZM58.4902 55.283C61.686 55.283 64.6123 56.416 66.8981 58.3038L58.4902 55.283Z" fill="black"/>
<path fill-rule="evenodd" clip-rule="evenodd" d="M65.4715 57.0112C73.2164 49.2663 82.0109 43.7025 90.5802 40.651L91.8462 44.2057C83.8532 47.0523 75.527 52.2923 68.1398 59.6795C60.9245 66.8948 55.7579 75.0071 52.8681 82.8312L49.3281 81.5237C52.4232 73.1441 57.9056 64.5769 65.4715 57.0112Z" fill="black"/>
<path fill-rule="evenodd" clip-rule="evenodd" d="M0 13.7736C0 11.69 1.69003 10 3.77358 10H71.6981C73.7817 10 75.4717 11.69 75.4717 13.7736V23.2075C75.4717 25.2911 73.7817 26.9811 71.6981 26.9811H60.3774V23.2075H71.6981V13.7736H3.77358V23.2075H56.6038V26.9811H3.77358C1.69003 26.9811 0 25.2911 0 23.2075V13.7736Z" fill="black"/>
<path fill-rule="evenodd" clip-rule="evenodd" d="M35.8491 40.1887V25.0943H39.6226V40.1887H35.8491Z" fill="black"/>
<path fill-rule="evenodd" clip-rule="evenodd" d="M28.6808 79.6353L22.2411 25.3164L25.9883 24.8723L32.4279 79.1911L28.6808 79.6353Z" fill="black"/>
<path fill-rule="evenodd" clip-rule="evenodd" d="M49.0566 30.7547V25.0943H52.8302V30.7547H49.0566Z" fill="black"/>
<path fill-rule="evenodd" clip-rule="evenodd" d="M14.7884 44.3712C13.4789 43.7316 12.0995 42.8043 11.5449 41.4111L15.0508 40.0152C15.0489 40.0105 15.0479 40.0082 15.0479 40.0082C15.0485 40.0078 15.0995 40.1067 15.3113 40.2848C15.5484 40.4841 15.9158 40.7222 16.4449 40.9807C17.5054 41.4988 19.0236 42.0063 20.9559 42.4552C24.8064 43.3499 30.0302 43.9509 35.8862 44.055C37.02 44.0754 38.1821 44.0771 39.3453 44.0586L39.4053 47.8318C38.1989 47.851 36.9945 47.849 35.8191 47.8278L14.7884 44.3712ZM14.7884 44.3712C16.2015 45.0616 18.0215 45.6475 20.1017 46.1309L14.7884 44.3712ZM20.1017 46.1309C24.276 47.1009 29.7753 47.7205 35.8191 47.8278L20.1017 46.1309Z" fill="black"/>
<path fill-rule="evenodd" clip-rule="evenodd" d="M16.5457 55.8118C15.3104 55.1723 14.0686 54.2814 13.496 53.0076L16.9377 51.4605C16.9708 51.5339 17.2471 51.9257 18.2805 52.4607C19.2409 52.9578 20.6 53.4476 22.3243 53.8844C25.7623 54.7554 30.4013 55.3531 35.6136 55.4799L35.5219 59.2523C30.1058 59.1207 25.1753 58.4995 21.3975 57.5425C19.5141 57.0654 17.854 56.4891 16.5457 55.8118Z" fill="black"/>
<path fill-rule="evenodd" clip-rule="evenodd" d="M18.0966 66.8962C16.953 66.2485 15.8058 65.3404 15.3125 64.0591L18.834 62.7032C18.834 62.7032 18.8437 62.7277 18.8783 62.776C18.914 62.826 18.9723 62.896 19.0638 62.9832C19.2506 63.1611 19.5389 63.3762 19.9562 63.6126C20.7959 64.0881 22.004 64.5642 23.5587 64.9926C26.6576 65.8464 30.8696 66.4396 35.6228 66.5744L35.516 70.3464C30.5449 70.2057 26.0191 69.5847 22.5562 68.6306C20.83 68.1549 19.3013 67.5785 18.0966 66.8962Z" fill="black"/>
<path fill-rule="evenodd" clip-rule="evenodd" d="M8.83497 25.4045L12.5573 24.7845L20.7158 73.7622C20.7864 74.0022 21.0289 74.416 21.7662 74.9294C22.5362 75.4658 23.6872 75.9945 25.2328 76.4551C28.316 77.3739 32.6379 77.9247 37.7357 77.9247C38.8962 77.9247 40.0306 77.8917 41.1311 77.8296L41.3439 81.5972C40.1728 81.6634 38.9675 81.6983 37.7357 81.6983C32.4126 81.6983 27.7006 81.1283 24.1551 80.0715C22.3862 79.5445 20.8241 78.8719 19.6098 78.0262C18.4065 77.1885 17.3763 76.0583 17.0306 74.5809L17.0167 74.5215L8.83497 25.4045Z" fill="black"/>
<path fill-rule="evenodd" clip-rule="evenodd" d="M20.1177 31.163C24.6828 32.073 30.8768 32.6417 37.7358 32.6417C40.1036 32.6417 42.5238 32.5728 44.9266 32.4264L45.1564 36.1928C42.6724 36.3445 40.1756 36.4153 37.7358 36.4153C30.6968 36.4153 24.2464 35.8339 19.38 34.8637C16.9552 34.3803 14.8524 33.7868 13.2463 33.0843C12.4438 32.7334 11.7063 32.33 11.1015 31.8581C10.5107 31.3971 9.92076 30.7726 9.62388 29.9445L13.1761 28.6709C13.1665 28.6441 13.1591 28.6311 13.1594 28.6309C13.1602 28.6305 13.2146 28.7205 13.4229 28.8832C13.6958 29.096 14.1285 29.3515 14.7583 29.627C16.0168 30.1773 17.8266 30.7062 20.1177 31.163Z" fill="black"/>
</svg>
