<svg width="100" height="100" viewBox="0 0 100 100" fill="none" xmlns="http://www.w3.org/2000/svg">
<path d="M95 6.66667H83.3333V1.66667C83.3333 0.745 82.5883 0 81.6667 0H70C69.0783 0 68.3333 0.745 68.3333 1.66667V6.66667H31.6667V1.66667C31.6667 0.745 30.9217 0 30 0H18.3333C17.4117 0 16.6667 0.745 16.6667 1.66667V6.66667H4.99999C4.07833 6.66667 3.33333 7.41167 3.33333 8.33333V26.6667V98.3333C3.33333 99.255 4.07833 100 4.99999 100H95C95.9217 100 96.6667 99.255 96.6667 98.3333V26.6667V8.33333C96.6667 7.41167 95.9217 6.66667 95 6.66667ZM71.6667 3.33333H80V8.33333V13.3333H71.6667V8.33333V3.33333ZM20 3.33333H28.3333V8.33333V13.3333H20V8.33333V3.33333ZM6.66666 10H16.6667V15C16.6667 15.9217 17.4117 16.6667 18.3333 16.6667H30C30.9217 16.6667 31.6667 15.9217 31.6667 15V10H68.3333V15C68.3333 15.9217 69.0783 16.6667 70 16.6667H81.6667C82.5883 16.6667 83.3333 15.9217 83.3333 15V10H93.3333V25H6.66666V10ZM6.66666 96.6667V28.3333H93.3333V96.6667H6.66666Z" fill="black"/>
<path d="M63.3333 38.3334H51.6667H48.3333H36.6667H33.3333H18.3333V53.3334V56.6667V68.3334V71.6667V86.6667H33.3333H36.6667H48.3333H51.6667H63.3333H66.6667H81.6667V71.6667V68.3334V56.6667V53.3334V38.3334H66.6667H63.3333ZM51.6667 41.6667H63.3333V53.3334H51.6667V41.6667ZM63.3333 68.3334H51.6667V56.6667H63.3333V68.3334ZM36.6667 56.6667H48.3333V68.3334H36.6667V56.6667ZM36.6667 41.6667H48.3333V53.3334H36.6667V41.6667ZM21.6667 41.6667H33.3333V53.3334H21.6667V41.6667ZM21.6667 56.6667H33.3333V68.3334H21.6667V56.6667ZM33.3333 83.3334H21.6667V71.6667H33.3333V83.3334ZM48.3333 83.3334H36.6667V71.6667H48.3333V83.3334ZM63.3333 83.3334H51.6667V71.6667H63.3333V83.3334ZM78.3333 83.3334H66.6667V71.6667H78.3333V83.3334ZM78.3333 68.3334H66.6667V56.6667H78.3333V68.3334ZM78.3333 41.6667V53.3334H66.6667V41.6667H78.3333Z" fill="black"/>
</svg>
