<svg width="100" height="100" viewBox="0 0 100 100" fill="none" xmlns="http://www.w3.org/2000/svg">
<g clip-path="url(#clip0_5_2032)">
<path d="M92.0533 71.84C97.2567 64.5767 100 56.175 100 47.5C100 22.6867 77.57 2.5 50 2.5C22.43 2.5 0 22.6867 0 47.5C0 72.3133 22.43 92.5 50 92.5C57.1033 92.5 63.9633 91.1833 70.405 88.5867C81.7467 95.1317 97.4267 97.3883 98.1017 97.4833C98.18 97.495 98.2567 97.5 98.3333 97.5C98.9583 97.5 99.5417 97.1483 99.825 96.5767C100.145 95.935 100.018 95.16 99.5117 94.655C95.6783 90.8217 93.0383 82.735 92.0533 71.84ZM71.3983 85.3033C71.3967 85.3033 71.3967 85.3033 71.3967 85.3033C67.88 83.1317 63.9533 80.6133 63.04 79.8883C62.545 79.1667 61.5683 78.95 60.81 79.405C60.31 79.705 59.995 80.26 59.9917 80.84C59.9867 81.8217 60.0017 82.1233 66.7933 86.3667C61.4417 88.2183 55.8117 89.1667 50 89.1667C24.2683 89.1667 3.33333 70.475 3.33333 47.5C3.33333 24.525 24.2683 5.83333 50 5.83333C75.7317 5.83333 96.6667 24.525 96.6667 47.5C96.6667 55.6617 94.015 63.5733 88.9983 70.375C88.7583 70.7 88.645 71.1017 88.68 71.5033C89.2633 78.4617 90.745 87.3217 94.4133 93.4383C88.86 92.3083 78.85 89.8033 71.3983 85.3033Z" fill="black"/>
</g>
<defs>
<clipPath id="clip0_5_2032">
<rect width="100" height="100" fill="white"/>
</clipPath>
</defs>
</svg>
