<svg width="100" height="100" viewBox="0 0 100 100" fill="none" xmlns="http://www.w3.org/2000/svg">
<g clip-path="url(#clip0_5_2015)">
<path d="M93.1567 61.7367C97.6367 55.45 100 48.1867 100 40.69C100 19.1717 80.5617 1.66669 56.6667 1.66669C40.2167 1.66669 25.0033 10.2367 17.76 23.5234C7.00166 30.6317 -2.93829e-06 42.09 -2.93829e-06 55C-2.93829e-06 62.4984 2.36333 69.76 6.84333 76.045C5.99333 85.3417 3.74333 92.2317 0.48833 95.4884C-0.0183363 95.995 -0.145003 96.7684 0.174997 97.41C0.459997 97.9817 1.04166 98.3334 1.66666 98.3334C1.74333 98.3334 1.82166 98.3284 1.9 98.3167C2.48166 98.235 15.9533 96.295 25.7617 90.675C31.3117 92.8967 37.2183 94.0234 43.335 94.0234C57.5433 94.0234 70.175 87.8334 78.0817 78.2917C87.2683 82.4367 97.645 83.9434 98.1017 84.0084C98.18 84.0184 98.2583 84.025 98.335 84.025C98.96 84.025 99.5417 83.6734 99.8267 83.1017C100.147 82.46 100.02 81.6867 99.5133 81.18C96.255 77.9217 94.005 71.0317 93.1567 61.7367ZM43.3333 90.69C38.515 90.69 33.8417 89.9267 29.3917 88.4434C34.9517 84.9584 34.955 84.685 34.95 83.7417C34.9467 83.16 34.6317 82.6067 34.1333 82.3084C33.385 81.8584 32.425 82.065 31.9233 82.7617C31.1033 83.4034 27.7533 85.55 24.7667 87.3934C18.5983 91.1184 10.3583 93.255 5.50166 94.2717C8.49666 88.9817 9.72666 81.5667 10.2183 75.7117C10.2517 75.31 10.1383 74.9084 9.89833 74.5834C5.60333 68.7584 3.33333 61.9867 3.33333 55C3.33333 42.9717 10.0433 32.3234 20.2917 25.8534C20.9433 25.4417 21.605 25.0467 22.28 24.6717C22.4233 24.5917 22.565 24.51 22.71 24.4317C23.415 24.0517 24.1333 23.6984 24.86 23.36C25.1217 23.2384 25.3833 23.1167 25.65 22.9984C26.3833 22.675 27.1233 22.3684 27.875 22.085C28.14 21.985 28.4117 21.8967 28.68 21.8017C29.2683 21.595 29.8617 21.4 30.46 21.2184C30.7417 21.1317 31.0233 21.0417 31.3083 20.9617C32.0867 20.7417 32.875 20.5467 33.6683 20.37C33.9533 20.3067 34.2417 20.25 34.53 20.1917C35.2317 20.0517 35.9367 19.925 36.6467 19.8184C36.8317 19.79 37.0133 19.755 37.2 19.73C38.0683 19.61 38.945 19.5234 39.8267 19.455C40.0733 19.435 40.3217 19.42 40.57 19.405C41.465 19.35 42.3633 19.3134 43.2683 19.3117C43.2917 19.3117 43.3133 19.31 43.3367 19.31C64.0133 19.31 81.0783 33.3817 83.13 51.355C83.2633 52.555 83.3333 53.77 83.3333 55C83.3333 55.805 83.2917 56.6067 83.2317 57.405C83.2167 57.6134 83.1983 57.82 83.1783 58.0284C83.1083 58.7667 83.02 59.5017 82.9 60.23C82.89 60.2917 82.8833 60.355 82.8733 60.4184C82.7433 61.18 82.575 61.9334 82.39 62.6834C82.3333 62.9134 82.2733 63.1417 82.2117 63.3684C82.0333 64.03 81.8367 64.6867 81.6167 65.3367C81.56 65.505 81.5017 65.6717 81.4417 65.8384C81.2133 66.475 80.9617 67.105 80.6933 67.7317C80.5867 67.9784 80.4783 68.225 80.3667 68.47C80.0667 69.125 79.7517 69.775 79.4067 70.4134C79.31 70.5934 79.2033 70.77 79.1017 70.95C78.8 71.485 78.4833 72.015 78.1517 72.5367C78.0067 72.765 77.8617 72.9934 77.7117 73.2184C77.3 73.8334 76.8717 74.44 76.4167 75.0367C69.215 84.475 57.0733 90.69 43.3333 90.69ZM80.1567 75.5717C80.2283 75.4684 80.2883 75.3584 80.36 75.255C80.7433 74.69 81.11 74.115 81.4617 73.53C81.6667 73.1884 81.8583 72.84 82.0517 72.4934C82.2517 72.1367 82.445 71.7784 82.6317 71.4167C82.8117 71.0684 82.9917 70.72 83.16 70.3684C83.4017 69.8634 83.6283 69.35 83.845 68.8334C84.0183 68.4217 84.1817 68.0067 84.34 67.59C84.5167 67.125 84.6867 66.6567 84.845 66.1834C84.95 65.865 85.0517 65.5467 85.1467 65.2267C85.3033 64.7067 85.4467 64.18 85.58 63.6517C85.64 63.4134 85.7083 63.1784 85.7633 62.9384C85.9367 62.19 86.08 61.4334 86.205 60.67C86.2433 60.4334 86.2717 60.1967 86.305 59.9584C86.3883 59.365 86.4583 58.7684 86.5117 58.1684C86.5333 57.9267 86.5567 57.6867 86.5733 57.4434C86.6283 56.635 86.6667 55.8217 86.6667 55C86.6667 33.4817 67.2283 15.9767 43.3333 15.9767C43.24 15.9767 43.15 15.9834 43.0567 15.9834C42.3583 15.9867 41.6633 16.0034 40.9733 16.0367C40.65 16.0517 40.33 16.0817 40.0083 16.1034C39.5517 16.135 39.095 16.165 38.6417 16.21C38.26 16.2467 37.8817 16.295 37.5017 16.3417C37.12 16.3884 36.7383 16.435 36.3583 16.49C35.9417 16.55 35.5267 16.62 35.1133 16.69C34.7867 16.7467 34.46 16.8067 34.1367 16.87C33.69 16.9567 33.245 17.0484 32.8033 17.1484C32.5317 17.21 32.265 17.2767 31.995 17.3417C31.5133 17.4584 31.0333 17.5784 30.5567 17.71C30.3867 17.7567 30.22 17.81 30.0517 17.86C28.2783 18.375 26.545 18.9917 24.855 19.7134C24.7383 19.7634 24.62 19.81 24.5033 19.86C24.3517 19.9267 24.1967 19.9834 24.0467 20.0517C31.47 10.7517 43.6433 5.00002 56.6667 5.00002C78.7217 5.00002 96.6667 21.01 96.6667 40.69C96.6667 47.675 94.3967 54.4467 90.1017 60.2734C89.8617 60.5984 89.7483 61 89.7833 61.4017C90.2733 67.2567 91.5017 74.67 94.4983 79.96C90.8533 79.195 85.3083 77.7984 80.1567 75.5717Z" fill="black"/>
</g>
<defs>
<clipPath id="clip0_5_2015">
<rect width="100" height="100" fill="white"/>
</clipPath>
</defs>
</svg>
