<svg width="100" height="100" viewBox="0 0 100 100" fill="none" xmlns="http://www.w3.org/2000/svg">
<g clip-path="url(#clip0_5_2081)">
<path d="M50 99.9998C22.3858 99.9998 1.52588e-05 77.614 1.52588e-05 49.9998C1.52588e-05 22.3855 22.3858 -0.000244141 50 -0.000244141C77.6143 -0.000244141 100 22.3855 100 49.9998C100 77.614 77.6143 99.9998 50 99.9998ZM50 94.9997C74.8528 94.9997 95 74.8526 95 49.9998C95 25.1469 74.8528 4.99976 50 4.99976C25.1472 4.99976 5.00001 25.1469 5.00001 49.9998C5.00001 74.8526 25.1472 94.9997 50 94.9997ZM65.7322 35.732C66.7085 34.7557 68.2915 34.7557 69.2678 35.732C70.2441 36.7083 70.2441 38.2912 69.2678 39.2675L44.2678 64.2675C43.2915 65.2438 41.7086 65.2438 40.7322 64.2675L30.7322 54.2675C29.7559 53.2912 29.7559 51.7083 30.7322 50.732C31.7086 49.7557 33.2915 49.7557 34.2678 50.732L42.5 58.9642L65.7322 35.732Z" fill="black"/>
</g>
<defs>
<clipPath id="clip0_5_2081">
<rect width="100" height="100" fill="white"/>
</clipPath>
</defs>
</svg>
