<svg width="100" height="100" viewBox="0 0 100 100" fill="none" xmlns="http://www.w3.org/2000/svg">
<path d="M81.746 11.2038C83.8427 9.4067 86.9992 9.64951 88.7963 11.7461C90.5934 13.8428 90.3506 16.9993 88.254 18.7964L53.254 48.7963C51.3815 50.4013 48.6185 50.4013 46.7461 48.7963L11.7461 18.7964C9.64951 16.9993 9.4067 13.8428 11.2038 11.7461C13.0009 9.64951 16.1574 9.4067 18.254 11.2038L50 38.4147L81.746 11.2038ZM81.746 51.2038C83.8427 49.4066 86.9992 49.6495 88.7963 51.7461C90.5934 53.8427 90.3506 56.9992 88.254 58.7963L53.254 88.7963C51.3815 90.4012 48.6185 90.4012 46.7461 88.7963L11.7461 58.7963C9.64951 56.9992 9.4067 53.8427 11.2038 51.7461C13.0009 49.6495 16.1574 49.4066 18.254 51.2038L50 78.4146L81.746 51.2038Z" fill="black"/>
</svg>
