<svg width="100" height="100" viewBox="0 0 100 100" fill="none" xmlns="http://www.w3.org/2000/svg">
<path d="M51.2037 18.254C49.4066 16.1574 49.6494 13.0009 51.746 11.2038C53.8427 9.4067 56.9992 9.64951 58.7963 11.7461L88.7962 46.7461C90.4012 48.6185 90.4012 51.3815 88.7962 53.2539L58.7963 88.2539C56.9992 90.3505 53.8427 90.5933 51.746 88.7962C49.6494 86.9991 49.4066 83.8426 51.2037 81.746L78.4146 50L51.2037 18.254ZM11.2038 18.254C9.4067 16.1574 9.64951 13.0009 11.7461 11.2038C13.8428 9.4067 16.9992 9.64951 18.7964 11.7461L48.7963 46.7461C50.4012 48.6185 50.4012 51.3815 48.7963 53.2539L18.7964 88.2539C16.9992 90.3505 13.8428 90.5933 11.7461 88.7962C9.64951 86.9991 9.4067 83.8426 11.2038 81.746L38.4146 50L11.2038 18.254Z" fill="black"/>
</svg>
