<svg width="100" height="100" viewBox="0 0 100 100" fill="none" xmlns="http://www.w3.org/2000/svg">
<path d="M88.7961 81.7461C90.5932 83.8427 90.3504 86.9992 88.2538 88.7963C86.1572 90.5934 83.0007 90.3506 81.2036 88.254L51.2036 53.2541C49.5987 51.3816 49.5987 48.6186 51.2036 46.7462L81.2036 11.7463C83.0007 9.64963 86.1572 9.40682 88.2538 11.2039C90.3504 13.001 90.5932 16.1575 88.7961 18.2541L61.5853 50.0001L88.7961 81.7461ZM48.7962 81.7461C50.5933 83.8427 50.3505 86.9992 48.2539 88.7963C46.1572 90.5934 43.0008 90.3506 41.2036 88.254L11.2037 53.2541C9.59876 51.3816 9.59876 48.6186 11.2037 46.7462L41.2036 11.7463C43.0008 9.64963 46.1572 9.40682 48.2539 11.2039C50.3505 13.001 50.5933 16.1575 48.7962 18.2541L21.5854 50.0001L48.7962 81.7461Z" fill="black"/>
</svg>
