<svg width="100" height="100" viewBox="0 0 100 100" fill="none" xmlns="http://www.w3.org/2000/svg">
<path d="M18.254 48.7962C16.1574 50.5933 13.0009 50.3505 11.2038 48.2539C9.4067 46.1573 9.64951 43.0008 11.7461 41.2037L46.7461 11.2037C48.6185 9.59876 51.3815 9.59876 53.254 11.2037L88.254 41.2037C90.3506 43.0008 90.5934 46.1573 88.7963 48.2539C86.9992 50.3505 83.8427 50.5933 81.746 48.7962L50 21.5854L18.254 48.7962ZM18.254 88.7962C16.1574 90.5933 13.0009 90.3505 11.2038 88.2539C9.4067 86.1572 9.64951 83.0007 11.7461 81.2036L46.7461 51.2037C48.6185 49.5987 51.3815 49.5987 53.254 51.2037L88.254 81.2036C90.3506 83.0007 90.5934 86.1572 88.7963 88.2539C86.9992 90.3505 83.8427 90.5933 81.746 88.7962L50 61.5853L18.254 88.7962Z" fill="black"/>
</svg>
