<svg width="100" height="100" viewBox="0 0 100 100" fill="none" xmlns="http://www.w3.org/2000/svg">
<path d="M50 0C22.43 0 0 22.43 0 50C0 77.57 22.43 100 50 100C77.57 100 100 77.57 100 50C100 22.43 77.57 0 50 0ZM50 96.6667C24.2683 96.6667 3.33333 75.7317 3.33333 50C3.33333 24.2683 24.2683 3.33333 50 3.33333C75.7317 3.33333 96.6667 24.2683 96.6667 50C96.6667 75.7317 75.7317 96.6667 50 96.6667Z" fill="black"/>
<path d="M51.6667 43.3683V26.465C51.6667 25.5433 50.92 24.7983 50 24.7983C49.08 24.7983 48.3333 25.5433 48.3333 26.465V43.3683C46.0017 43.975 44.1767 45.8 43.57 48.1317H31.6667C30.7467 48.1317 30 48.8767 30 49.7983C30 50.72 30.7467 51.465 31.6667 51.465H43.57C44.315 54.3317 46.9033 56.465 50 56.465C53.6767 56.465 56.6667 53.475 56.6667 49.7983C56.6667 46.7 54.5333 44.1133 51.6667 43.3683ZM50 53.1317C48.1617 53.1317 46.6667 51.6367 46.6667 49.7983C46.6667 47.96 48.1617 46.465 50 46.465C51.8383 46.465 53.3333 47.96 53.3333 49.7983C53.3333 51.6367 51.8383 53.1317 50 53.1317Z" fill="black"/>
<path d="M50 16.465C50.92 16.465 51.6667 15.72 51.6667 14.7983V13.1316C51.6667 12.21 50.92 11.465 50 11.465C49.08 11.465 48.3333 12.21 48.3333 13.1316V14.7983C48.3333 15.72 49.08 16.465 50 16.465Z" fill="black"/>
<path d="M50 83.1317C49.08 83.1317 48.3333 83.8767 48.3333 84.7984V86.465C48.3333 87.3867 49.08 88.1317 50 88.1317C50.92 88.1317 51.6667 87.3867 51.6667 86.465V84.7984C51.6667 83.8767 50.92 83.1317 50 83.1317Z" fill="black"/>
<path d="M86.6667 48.1317H85C84.08 48.1317 83.3333 48.8767 83.3333 49.7984C83.3333 50.72 84.08 51.465 85 51.465H86.6667C87.5867 51.465 88.3333 50.72 88.3333 49.7984C88.3333 48.8767 87.5867 48.1317 86.6667 48.1317Z" fill="black"/>
<path d="M15 48.1317H13.3333C12.4133 48.1317 11.6667 48.8767 11.6667 49.7984C11.6667 50.72 12.4133 51.465 13.3333 51.465H15C15.92 51.465 16.6667 50.72 16.6667 49.7984C16.6667 48.8767 15.92 48.1317 15 48.1317Z" fill="black"/>
<path d="M74.7483 22.6917L73.57 23.8701C72.9183 24.5217 72.9183 25.5751 73.57 26.2267C73.895 26.5517 74.3217 26.7151 74.7483 26.7151C75.175 26.7151 75.6017 26.5517 75.9267 26.2267L77.105 25.0484C77.7567 24.3967 77.7567 23.3434 77.105 22.6917C76.4533 22.0401 75.4 22.0417 74.7483 22.6917Z" fill="black"/>
<path d="M24.0733 73.3684L22.895 74.5467C22.2433 75.1984 22.2433 76.2517 22.895 76.9034C23.22 77.2284 23.6467 77.3917 24.0733 77.3917C24.5 77.3917 24.9266 77.2284 25.2516 76.9034L26.43 75.725C27.0816 75.0734 27.0816 74.02 26.43 73.3684C25.7783 72.7167 24.7233 72.7184 24.0733 73.3684Z" fill="black"/>
<path d="M75.9267 73.3683C75.275 72.7166 74.2217 72.7166 73.57 73.3683C72.9183 74.0199 72.9183 75.0733 73.57 75.7249L74.7483 76.9033C75.0733 77.2283 75.5 77.3916 75.9267 77.3916C76.3533 77.3916 76.78 77.2283 77.105 76.9033C77.7567 76.2516 77.7567 75.1983 77.105 74.5466L75.9267 73.3683Z" fill="black"/>
<path d="M25.2516 22.6916C24.6 22.04 23.5467 22.04 22.895 22.6916C22.2433 23.3433 22.2433 24.3966 22.895 25.0483L24.0733 26.2266C24.3983 26.5516 24.825 26.715 25.2516 26.715C25.6783 26.715 26.105 26.5516 26.43 26.2266C27.0816 25.575 27.0816 24.5216 26.43 23.87L25.2516 22.6916Z" fill="black"/>
</svg>
