<svg width="100" height="101" viewBox="0 0 100 101" fill="none" xmlns="http://www.w3.org/2000/svg">
<g clip-path="url(#clip0_5_2245)">
<path d="M85.3554 14.9371C75.9114 5.4933 63.3556 0.29248 50 0.29248C36.6444 0.29248 24.0886 5.4933 14.6446 14.9371C5.20114 24.381 0 36.9369 0 50.2925C0 63.648 5.20114 76.2039 14.6446 85.6479C24.0886 95.0917 36.6444 100.292 50 100.292C63.3556 100.292 75.9114 95.0917 85.3554 85.6479C94.799 76.2039 100 63.648 100 50.2925C100 36.9369 94.799 24.381 85.3554 14.9371ZM83.141 83.4333C74.2887 92.2858 62.519 97.1609 50 97.1609C37.481 97.1609 25.7113 92.2858 16.8588 83.4333C8.0067 74.5812 3.13154 62.8114 3.13154 50.2925C3.13154 37.7735 8.0067 26.0038 16.8588 17.1516C25.7113 8.29918 37.481 3.42402 50 3.42402C62.519 3.42402 74.2887 8.29918 83.141 17.1516C91.9933 26.0038 96.8685 37.7735 96.8685 50.2925C96.8685 62.8114 91.9933 74.5812 83.141 83.4333ZM51.5657 20.2299H48.4342V11.8791H51.5657V20.2299ZM48.4342 80.3551H51.5657V88.7057H48.4342V80.3551ZM19.9374 51.8582H11.5866V48.7266H19.9373V51.8582H19.9374ZM88.4134 48.7266V51.8582H80.0628V48.7266H88.4134ZM31.9422 22.1484L29.4369 17.8093L32.1489 16.2435L34.6541 20.5825L31.9422 22.1484ZM68.0552 78.4392L70.5605 82.7783L67.8484 84.344L65.3431 80.0049L68.0552 78.4392ZM20.2877 65.6387L21.8536 68.3507L17.5145 70.8559L15.9487 68.144L20.2877 65.6387ZM79.7111 34.9449L78.1453 32.233L82.4845 29.7278L84.0502 32.4397L79.7111 34.9449ZM68.0559 22.1469L65.344 20.581L67.8492 16.242L70.5611 17.8078L68.0559 22.1469ZM31.943 78.4395L34.6549 80.0052L32.1497 84.3444L29.4377 82.7786L31.943 78.4395ZM79.7129 65.6397L84.0521 68.1449L82.4863 70.8569L78.1472 68.3516L79.7129 65.6397ZM17.5165 29.7307L21.8556 32.2359L20.2897 34.9479L15.9507 32.4426L17.5165 29.7307ZM54.906 50.2925C54.906 48.1348 53.5052 46.2993 51.5657 45.6441V23.5701H48.4342V45.644C46.4946 46.299 45.094 48.1345 45.094 50.2923C45.094 52.9975 47.2948 55.1984 50 55.1984C51.2418 55.1984 52.3766 54.7335 53.2418 53.9701L72.3768 65.0096L73.9417 62.2972L54.8098 51.2593C54.8726 50.9471 54.906 50.6235 54.906 50.2925ZM50 52.067C49.0216 52.067 48.2255 51.2709 48.2255 50.2925C48.2255 49.314 49.0216 48.518 50 48.518C50.9784 48.518 51.7745 49.314 51.7745 50.2925C51.7745 51.2709 50.9784 52.067 50 52.067ZM50 8.64313C27.0345 8.64313 8.35065 27.327 8.35065 50.2925C8.35065 73.258 27.0343 91.9418 50 91.9418C72.9655 91.9418 91.6493 73.258 91.6493 50.2925C91.6493 27.327 72.9655 8.64313 50 8.64313ZM50 88.8103C28.7613 88.8103 11.4822 71.531 11.4822 50.2925C11.4822 29.0539 28.7613 11.7747 50 11.7747C71.2387 11.7747 88.5178 29.0539 88.5178 50.2925C88.5178 71.531 71.2387 88.8103 50 88.8103Z" fill="black"/>
</g>
<defs>
<clipPath id="clip0_5_2245">
<rect width="100" height="100" fill="white" transform="translate(0 0.29248)"/>
</clipPath>
</defs>
</svg>
