<svg width="100" height="100" viewBox="0 0 100 100" fill="none" xmlns="http://www.w3.org/2000/svg">
<path fill-rule="evenodd" clip-rule="evenodd" d="M50 0C22.3858 0 0 22.3858 0 50C0 77.6142 22.3858 100 50 100C77.6142 100 100 77.6142 100 50C100 22.3858 77.6142 0 50 0ZM71.48 46.4883C71.48 47.036 71.4227 47.5721 71.3312 48.0952C76.2512 48.9365 80 53.2108 80 58.3696C80 64.1321 75.3279 68.8044 69.5652 68.8044H30.4348C24.6721 68.8044 20 64.1321 20 58.3696C20 53.486 23.36 49.3969 27.8927 48.2596C27.8587 47.8279 27.826 47.396 27.826 46.9565C27.826 37.5913 35.4173 30 44.7827 30C50.7656 30 56.0131 33.1069 59.0312 37.7869C60.0252 37.4244 61.0935 37.2169 62.2087 37.2169C67.3283 37.2169 71.48 41.3673 71.48 46.4883Z" fill="black"/>
</svg>
