<svg width="100" height="100" viewBox="0 0 100 100" fill="none" xmlns="http://www.w3.org/2000/svg">
<g clip-path="url(#clip0_5_2545)">
<path d="M99.9966 19.0826C99.897 10.5953 95.5536 5.92084 87.7662 5.92084C84.7522 5.92084 81.848 6.6224 79.9494 7.20776C80.1384 3.73862 80.1412 1.59722 80.1412 1.49077L80.1414 0.00561523H19.86V1.49058C19.86 1.54136 19.8651 3.71654 20.0564 7.2095C18.1579 6.62376 15.2509 5.92084 12.2339 5.92084C4.44676 5.92084 0.103211 10.5951 0.00360151 19.0826C-0.0944454 27.4321 1.80985 34.8647 5.66318 41.1737C9.44638 47.3681 14.2819 51.1007 17.6724 53.1407C23.1026 56.4087 28.5298 57.0947 32.1266 57.0947C33.0134 57.0947 33.8676 57.0529 34.6666 56.9705C34.7196 56.9649 34.7686 56.9587 34.8204 56.9531C36.5594 58.8259 38.4342 60.3261 40.4376 61.4409C41.9144 62.2627 42.9414 63.6957 43.2934 65.3427C41.3022 65.9625 39.8524 67.8229 39.8524 70.0151C39.8524 72.2567 41.3686 74.1499 43.4286 74.7261V80.9585H35.393V87.4627H27.4634V99.9953H72.5378V87.4627H64.608V80.9585H56.5726V74.7261C58.6328 74.1497 60.149 72.2567 60.149 70.0151C60.149 67.8227 58.6992 65.9625 56.7078 65.3427C57.0598 63.6957 58.0868 62.2629 59.5638 61.4409C61.5622 60.3291 63.4498 58.8207 65.1846 56.9539C65.7994 57.0221 66.721 57.0945 67.8734 57.0945C71.4698 57.0945 76.8976 56.4081 82.3274 53.1405C85.7176 51.1003 90.5534 47.3679 94.3366 41.1735C98.1906 34.8647 100.095 27.4319 99.9966 19.0826ZM77.147 2.97552C77.1336 3.51868 77.1126 4.2015 77.0802 5.00072H22.9272C22.8936 4.2017 22.8712 3.5179 22.8568 2.97552H77.147ZM79.1668 16.6109C81.179 15.9411 83.7868 15.2658 86.123 15.2658C88.0818 15.2658 89.492 15.7443 90.315 16.688C91.2606 17.7728 91.5656 19.5951 91.2206 22.1049C89.7844 32.5591 85.2514 40.7197 78.4562 45.0827C76.0892 46.6027 73.54 47.2307 71.4036 47.4537C75.9226 37.9555 78.1096 26.0383 79.1668 16.6109ZM22.3624 26.9553C23.8232 34.7901 25.84 41.5183 28.3572 46.9525C28.435 47.1213 28.5144 47.2875 28.5932 47.4537C26.4578 47.2301 23.91 46.6023 21.544 45.0831C14.7489 40.7199 10.2157 32.5595 8.77958 22.1053C8.43486 19.5953 8.73954 17.7728 9.68544 16.6884C10.5083 15.7447 11.9188 15.2663 13.8774 15.2663C16.2155 15.2663 18.8257 15.9427 20.8386 16.6129C21.1982 19.8281 21.6898 23.3475 22.3624 26.9553ZM32.1266 54.1247C28.9064 54.1247 24.0498 53.5125 19.204 50.5963C14.2479 47.6139 2.745 38.5759 2.97352 19.1175C3.05438 12.2361 6.08348 8.89096 12.2339 8.89096C15.5231 8.89096 18.7718 9.88256 20.2568 10.4056C20.3308 11.4019 20.4138 12.4011 20.5056 13.3962C18.487 12.8033 16.1087 12.2958 13.8774 12.2958C11.0224 12.2958 8.85888 13.1167 7.44676 14.7359C5.9118 16.4962 5.3702 19.1115 5.837 22.5089C6.6366 28.3295 8.3077 33.4739 10.804 37.7993C13.187 41.9287 16.2606 45.2201 19.9391 47.5817C23.5322 49.8891 27.4182 50.4709 30.1904 50.5265C30.1996 50.5429 30.2092 50.5585 30.2186 50.5747C30.3706 50.8409 30.5242 51.1027 30.6792 51.3611C30.7274 51.4417 30.776 51.5219 30.8246 51.6017C30.9726 51.8447 31.1216 52.0853 31.2722 52.3211C31.3288 52.4097 31.3862 52.4963 31.4432 52.5841C31.5458 52.7417 31.649 52.8981 31.7528 53.0525C31.8532 53.2019 31.954 53.3497 32.0554 53.4961C32.1548 53.6393 32.2544 53.7815 32.3548 53.9221C32.4018 53.9881 32.4482 54.0565 32.4952 54.1219C32.3756 54.1237 32.2528 54.1247 32.1266 54.1247ZM69.568 90.4329V97.0253H30.4336V90.4329H69.568ZM61.6382 83.9289V87.4629H38.3634V83.9289H61.6382ZM46.3988 80.9587V74.9075H53.6028V80.9587H46.3988ZM57.1792 70.0151C57.1792 71.0751 56.3166 71.9375 55.257 71.9375H44.7448C43.6848 71.9375 42.8226 71.0751 42.8226 70.0151C42.8226 68.9553 43.6848 68.0929 44.7448 68.0929H55.257C56.3168 68.0929 57.1792 68.9553 57.1792 70.0151ZM64.6076 53.0379C64.5912 53.0591 64.5748 53.0805 64.5584 53.1017C64.4124 53.2907 64.2652 53.4751 64.117 53.6569C64.0808 53.7013 64.045 53.7465 64.0084 53.7905C63.8458 53.9883 63.6818 54.1815 63.5168 54.3703C63.5088 54.3793 63.5014 54.3887 63.4934 54.3977C61.8374 56.2869 60.0296 57.7831 58.12 58.8457C55.7662 60.1551 54.166 62.4807 53.7256 65.1229H46.276C45.8356 62.4805 44.2352 60.1551 41.8816 58.8457C40.0386 57.8205 38.3742 56.4499 36.8704 54.8123L36.5072 54.3979C35.0306 52.7139 33.6388 50.6735 32.3706 48.3343L31.9822 47.6173C25.596 35.2781 23.6644 17.4439 23.082 7.97064H76.9306C76.9058 8.38276 76.8786 8.80834 76.8486 9.25032C76.8472 9.27084 76.8456 9.29194 76.8442 9.31244C76.8114 9.79134 76.7762 10.2716 76.739 10.7523C76.738 10.7663 76.7368 10.7804 76.7358 10.7947C76.617 12.3181 76.4764 13.8472 76.3162 15.3581L76.219 16.2718C75.14 25.9453 72.8608 38.2689 68.0548 47.5517L67.6304 48.3341C66.686 50.0755 65.6732 51.6509 64.6076 53.0379ZM80.7964 50.5963C75.95 53.5127 71.0946 54.1247 67.8744 54.1247C67.7482 54.1247 67.6244 54.1237 67.5048 54.1219L67.5106 54.1135C67.7034 53.8475 67.8932 53.5775 68.0802 53.3039C68.103 53.2705 68.1254 53.2363 68.1484 53.2029C68.3064 52.9701 68.462 52.7341 68.6158 52.4959C68.6556 52.4347 68.6952 52.3733 68.7344 52.3119C68.9048 52.0445 69.0734 51.7753 69.2386 51.5015C69.2646 51.4587 69.2898 51.4147 69.3156 51.3717C69.4508 51.1455 69.5846 50.9171 69.7166 50.6867C69.7476 50.6327 69.7794 50.5813 69.8104 50.5269C72.5826 50.4713 76.4686 49.8895 80.0616 47.5821C83.7402 45.2201 86.8138 41.9287 89.1968 37.7997C91.6928 33.4743 93.364 28.3299 94.1638 22.5093C94.6302 19.1117 94.0888 16.4964 92.554 14.7363C91.142 13.1169 88.9784 12.296 86.1234 12.296C83.8922 12.296 81.5136 12.8031 79.4952 13.3962C79.5888 12.3816 79.669 11.4083 79.7378 10.4833C79.7398 10.4576 79.7418 10.4316 79.7438 10.406C81.2292 9.88276 84.4776 8.89134 87.7666 8.89134C93.917 8.89134 96.9462 12.2365 97.0272 19.1175C97.255 38.5759 85.7524 47.6137 80.7964 50.5963Z" fill="black"/>
<path d="M37.5696 48.0935L35.089 49.7277C35.936 51.0135 36.846 52.1817 37.7944 53.1997L39.9678 51.1751C39.1324 50.2783 38.3256 49.2415 37.5696 48.0935Z" fill="black"/>
<path d="M31.1948 31.6252L28.299 32.2858C29.7232 38.529 31.6246 43.77 33.95 47.863L36.5324 46.396C34.3504 42.555 32.5544 37.5856 31.1948 31.6252Z" fill="black"/>
<path d="M86.6536 65.1379L86.6514 62.1677L84.1442 62.1693L84.1424 59.6621L81.1724 59.6641L81.1742 62.1715L78.667 62.1733L78.6688 65.1433L81.176 65.1417L81.1778 67.6487L84.148 67.6467L84.1462 65.1395L86.6536 65.1379Z" fill="black"/>
<path d="M22.0282 80.562L22.025 77.5918L19.9211 77.594L19.9189 75.49L16.9488 75.493L16.951 77.597L14.8467 77.599L14.85 80.5692L16.9539 80.567L16.956 82.6714L19.9262 82.6682L19.924 80.5642L22.0282 80.562Z" fill="black"/>
<path d="M12.3418 56.2812H9.5401V59.2514H12.3418V56.2812Z" fill="black"/>
<path d="M30.3484 65.0696H27.5466V68.0398H30.3484V65.0696Z" fill="black"/>
<path d="M75.5078 74.0054H72.706V76.9756H75.5078V74.0054Z" fill="black"/>
</g>
<defs>
<clipPath id="clip0_5_2545">
<rect width="100" height="100" fill="white"/>
</clipPath>
</defs>
</svg>
