<svg width="100" height="100" viewBox="0 0 100 100" fill="none" xmlns="http://www.w3.org/2000/svg">
<g clip-path="url(#clip0_5_2657)">
<path d="M57.5 45.9645L70.7322 32.7322C71.7085 31.7559 73.2914 31.7559 74.2677 32.7322C75.244 33.7085 75.244 35.2915 74.2677 36.2678L61.0355 49.5L74.2677 62.7322C75.244 63.7085 75.244 65.2915 74.2677 66.2678C73.2914 67.2441 71.7085 67.2441 70.7322 66.2678L57.5 53.0355L44.2677 66.2678C43.2914 67.2441 41.7085 67.2441 40.7322 66.2678C39.7559 65.2915 39.7559 63.7085 40.7322 62.7322L53.9644 49.5L40.7322 36.2678C39.7559 35.2915 39.7559 33.7085 40.7322 32.7322C41.7085 31.7559 43.2914 31.7559 44.2677 32.7322L57.5 45.9645ZM26.422 74.3014C27.847 76.0113 29.9579 77 32.1837 77H87.4999C91.6421 77 94.9999 73.6421 94.9999 69.5V29.5C94.9999 25.3579 91.6421 22 87.4999 22H32.1837C29.9579 22 27.847 22.9887 26.422 24.6986L5.75422 49.5L26.422 74.3014ZM0.579401 47.8995L22.5809 21.4977C24.9559 18.6478 28.474 17 32.1837 17H87.4999C94.4035 17 100 22.5964 100 29.5V69.5C100 76.4036 94.4035 82 87.4999 82H32.1837C28.474 82 24.9559 80.3522 22.5809 77.5023L0.579401 51.1005C-0.193195 50.1733 -0.193195 48.8267 0.579401 47.8995Z" fill="black"/>
</g>
<defs>
<clipPath id="clip0_5_2657">
<rect width="100" height="100" fill="white"/>
</clipPath>
</defs>
</svg>
