<svg width="100" height="100" viewBox="0 0 100 100" fill="none" xmlns="http://www.w3.org/2000/svg">
<path d="M52.6471 61.7859L69.3047 45.1282C70.3385 44.0945 72.0145 44.0945 73.0482 45.1282C74.082 46.162 74.082 47.838 73.0482 48.8718L51.8718 70.0482C50.838 71.082 49.162 71.082 48.1282 70.0482L26.9518 48.8718C25.918 47.838 25.918 46.162 26.9518 45.1282C27.9855 44.0945 29.6615 44.0945 30.6953 45.1282L47.3529 61.7859L47.3529 4.64706C47.3529 3.18513 48.5381 2 50 2C51.4619 2 52.6471 3.18513 52.6471 4.64706L52.6471 61.7859ZM89.7059 68.1765C89.7059 66.7145 90.891 65.5294 92.3529 65.5294C93.8149 65.5294 95 66.7145 95 68.1765V84.0588C95 91.3685 89.0744 97.2941 81.7647 97.2941H18.2353C10.9256 97.2941 5 91.3685 5 84.0588V68.1765C5 66.7145 6.18513 65.5294 7.64706 65.5294C9.10899 65.5294 10.2941 66.7145 10.2941 68.1765V84.0588C10.2941 88.4446 13.8495 92 18.2353 92H81.7647C86.1505 92 89.7059 88.4446 89.7059 84.0588V68.1765Z" fill="black"/>
</svg>
