<svg width="100" height="100" viewBox="0 0 100 100" fill="none" xmlns="http://www.w3.org/2000/svg">
<g clip-path="url(#clip0_13_415)">
<path d="M95.2362 4.76199C88.8833 -1.58733 78.5502 -1.58733 72.1973 4.76199L6.9267 70.0326C6.89593 70.0634 6.87783 70.1014 6.85068 70.1339C6.81267 70.1774 6.78009 70.2244 6.7457 70.2715C6.64977 70.4054 6.57557 70.5484 6.51946 70.7041C6.50317 70.7511 6.47964 70.7928 6.46697 70.8398C6.46154 70.8579 6.45068 70.876 6.44525 70.8941L0.0470588 97.772C0.0180995 97.8932 0.0108597 98.0163 0.00723982 98.1376C0.00723982 98.1611 0 98.1828 0 98.2063C0.00180995 98.4127 0.0470588 98.6136 0.117647 98.8072C0.133937 98.8525 0.152036 98.8923 0.171946 98.9358C0.260633 99.1294 0.371041 99.3158 0.526697 99.4715C0.698643 99.6434 0.901358 99.7756 1.12036 99.8661C1.33937 99.9566 1.57285 100.002 1.80633 100.002C1.9457 100.002 2.08688 99.9855 2.22443 99.9529L29.1023 93.5548C29.1511 93.5439 29.1946 93.5167 29.2416 93.5005C29.3032 93.4805 29.3611 93.457 29.4208 93.4299C29.5511 93.3701 29.6724 93.2959 29.7846 93.2073C29.8281 93.1729 29.8733 93.1475 29.9149 93.1095C29.9294 93.095 29.9475 93.0878 29.962 93.0733L95.2344 27.8009C101.587 21.448 101.587 11.1131 95.2362 4.76199ZM92.6769 7.32127C97.1801 11.8262 97.5638 18.8995 93.8534 23.8588L76.1394 6.1448C81.1005 2.43439 88.1738 2.8181 92.6769 7.32127ZM83.7177 34.1991L65.7991 16.2805L68.3584 13.7213L86.2769 31.6398L83.7177 34.1991ZM8.97919 91.019C8.27149 90.3113 7.1276 90.3113 6.41991 91.019L5.04977 92.3891L9.6724 72.972L17.676 72.0833L16.6462 81.3539C16.6389 81.4226 16.6643 81.486 16.6643 81.5529C16.6643 81.6217 16.6389 81.6833 16.6462 81.752C16.6534 81.8118 16.6842 81.8606 16.6968 81.9186C16.7186 82.0235 16.7493 82.1195 16.7873 82.2172C16.8344 82.3348 16.8905 82.4416 16.9593 82.5448C17.0154 82.6281 17.0715 82.7023 17.1403 82.7747C17.2271 82.867 17.3213 82.9448 17.4244 83.0172C17.5059 83.0733 17.5837 83.1258 17.6742 83.1692C17.7937 83.2253 17.9186 83.2579 18.0489 83.2887C18.1176 83.305 18.1738 83.343 18.2443 83.352C18.3095 83.3593 18.3747 83.3629 18.4416 83.3629H18.4434H18.4452H18.4471H18.4489C18.514 83.3629 18.581 83.3593 18.6462 83.352L27.9167 82.3222L27.0281 90.3258L7.60905 94.9484L8.97919 93.5783C9.68507 92.8724 9.68507 91.7267 8.97919 91.019ZM31.6941 81.1023L72.1973 40.5973C72.905 39.8896 72.905 38.7457 72.1973 38.038C71.4896 37.3303 70.3457 37.3303 69.638 38.038L29.1348 78.543L20.4959 79.5023L21.4552 70.8634L61.962 30.3602C62.6697 29.6525 62.6697 28.5086 61.962 27.8009C61.2543 27.0932 60.1104 27.0932 59.4027 27.8009L18.8959 68.3041L13.1348 68.9448L63.2398 18.8398L81.1584 36.7584L31.0534 86.8634L31.6941 81.1023ZM88.8362 29.0805L70.9176 11.162L73.4787 8.6009L91.3973 26.5195L88.8362 29.0805Z" fill="black"/>
</g>
<defs>
<clipPath id="clip0_13_415">
<rect width="100" height="100" fill="white"/>
</clipPath>
</defs>
</svg>
