<svg width="100" height="100" viewBox="0 0 100 100" fill="none" xmlns="http://www.w3.org/2000/svg">
<path d="M25 58.3334H75C75.6183 58.3334 76.185 57.9917 76.4733 57.4451C76.7633 56.9001 76.725 56.2384 76.3767 55.7284L51.3767 19.0617C50.755 18.1501 49.245 18.1501 48.6233 19.0617L23.6233 55.7284C23.275 56.2401 23.2383 56.9001 23.5267 57.4451C23.815 57.9917 24.3817 58.3334 25 58.3334ZM50 22.9584L71.845 55.0001H28.155L50 22.9584Z" fill="black"/>
<path d="M50 0C22.43 0 0 22.43 0 50C0 77.57 22.43 100 50 100C77.57 100 100 77.57 100 50C100 22.43 77.57 0 50 0ZM50 96.6667C24.2683 96.6667 3.33333 75.7317 3.33333 50C3.33333 24.2683 24.2683 3.33333 50 3.33333C75.7317 3.33333 96.6667 24.2683 96.6667 50C96.6667 75.7317 75.7317 96.6667 50 96.6667Z" fill="black"/>
<path d="M23.3333 75H76.6667V63.3333H23.3333V75ZM26.6667 66.6667H73.3333V71.6667H26.6667V66.6667Z" fill="black"/>
</svg>
