<svg width="100" height="100" viewBox="0 0 100 100" fill="none" xmlns="http://www.w3.org/2000/svg">
<path d="M0 14.1666V17.985V82.015V85.8333H100V82.015V17.985V14.1666H0ZM61.0417 50.94L51.965 60.06C50.8617 61.085 49.135 61.0833 48.0783 60.1033L38.9567 50.94L39.0367 50.8616L6.07833 17.5H93.9433L60.9617 50.8633L61.0417 50.94ZM34.2067 50.8883L3.33333 80.5916V19.8716L34.2067 50.8883ZM36.5567 53.25L45.7617 62.4983C46.9433 63.6 48.46 64.1533 49.9833 64.1533C51.5217 64.1533 53.0667 63.5883 54.285 62.4533L63.445 53.25L93.84 82.5H6.14333L36.5567 53.25ZM65.795 50.89L96.6667 19.87V80.5916L65.795 50.89Z" fill="black"/>
</svg>
