<svg width="100" height="100" viewBox="0 0 100 100" fill="none" xmlns="http://www.w3.org/2000/svg">
<path d="M90 86.4645V72.5C90 71.1193 91.1193 70 92.5 70C93.8807 70 95 71.1193 95 72.5V92.5C95 93.8807 93.8807 95 92.5 95H72.5C71.1193 95 70 93.8807 70 92.5C70 91.1193 71.1193 90 72.5 90H86.4645L60.7322 64.2678C59.7559 63.2915 59.7559 61.7085 60.7322 60.7322C61.7085 59.7559 63.2915 59.7559 64.2678 60.7322L90 86.4645ZM10 13.5355V27.5C10 28.8807 8.88071 30 7.5 30C6.11929 30 5 28.8807 5 27.5V7.5C5 6.11929 6.11929 5 7.5 5H27.5C28.8807 5 30 6.11929 30 7.5C30 8.88071 28.8807 10 27.5 10H13.5355L39.2678 35.7322C40.2441 36.7085 40.2441 38.2915 39.2678 39.2678C38.2915 40.2441 36.7085 40.2441 35.7322 39.2678L10 13.5355ZM13.5355 90H27.5C28.8807 90 30 91.1193 30 92.5C30 93.8807 28.8807 95 27.5 95H7.5C6.11929 95 5 93.8807 5 92.5V72.5C5 71.1193 6.11929 70 7.5 70C8.88071 70 10 71.1193 10 72.5V86.4645L35.7322 60.7322C36.7085 59.7559 38.2915 59.7559 39.2678 60.7322C40.2441 61.7085 40.2441 63.2915 39.2678 64.2678L13.5355 90ZM86.4645 10H72.5C71.1193 10 70 8.88071 70 7.5C70 6.11929 71.1193 5 72.5 5H92.5C93.8807 5 95 6.11929 95 7.5V27.6556C95 29.0364 93.8807 30.1556 92.5 30.1556C91.1193 30.1556 90 29.0364 90 27.6556V13.5355L64.2678 39.2678C63.2915 40.2441 61.7085 40.2441 60.7322 39.2678C59.7559 38.2915 59.7559 36.7085 60.7322 35.7322L86.4645 10Z" fill="black"/>
</svg>
