<svg width="100" height="100" viewBox="0 0 100 100" fill="none" xmlns="http://www.w3.org/2000/svg">
<path d="M52.1429 87.6838L61.3419 78.4848C62.1787 77.6479 63.5355 77.6479 64.3724 78.4848C65.2092 79.3216 65.2092 80.6784 64.3724 81.5152L51.5152 94.3724C50.6784 95.2092 49.3216 95.2092 48.4848 94.3724L35.6276 81.5152C34.7908 80.6784 34.7908 79.3216 35.6276 78.4848C36.4645 77.6479 37.8213 77.6479 38.6581 78.4848L47.8571 87.6838V62.8571C47.8571 61.6737 48.8165 60.7143 50 60.7143C51.1835 60.7143 52.1429 61.6737 52.1429 62.8571V87.6838ZM12.3162 52.1429L21.5152 61.3419C22.3521 62.1787 22.3521 63.5355 21.5152 64.3724C20.6784 65.2092 19.3216 65.2092 18.4848 64.3724L5.62763 51.5152C4.79079 50.6784 4.79079 49.3216 5.62763 48.4848L18.4848 35.6276C19.3216 34.7908 20.6784 34.7908 21.5152 35.6276C22.3521 36.4645 22.3521 37.8213 21.5152 38.6581L12.3162 47.8571H37.1429C38.3263 47.8571 39.2857 48.8165 39.2857 50C39.2857 51.1835 38.3263 52.1429 37.1429 52.1429H12.3162ZM87.6838 47.8571L78.4848 38.6581C77.6479 37.8213 77.6479 36.4645 78.4848 35.6276C79.3216 34.7908 80.6784 34.7908 81.5152 35.6276L94.3724 48.4848C95.2092 49.3216 95.2092 50.6784 94.3724 51.5152L81.5152 64.3724C80.6784 65.2092 79.3216 65.2092 78.4848 64.3724C77.6479 63.5355 77.6479 62.1787 78.4848 61.3419L87.6838 52.1429H62.8571C61.6737 52.1429 60.7143 51.1835 60.7143 50C60.7143 48.8165 61.6737 47.8571 62.8571 47.8571H87.6838ZM52.1429 12.3162V37.1429C52.1429 38.3263 51.1835 39.2857 50 39.2857C48.8165 39.2857 47.8571 38.3263 47.8571 37.1429V12.3162L38.6581 21.5152C37.8213 22.3521 36.4645 22.3521 35.6276 21.5152C34.7908 20.6784 34.7908 19.3216 35.6276 18.4848L48.4848 5.62763C49.3216 4.79079 50.6784 4.79079 51.5152 5.62763L64.3724 18.4848C65.2092 19.3216 65.2092 20.6784 64.3724 21.5152C63.5355 22.3521 62.1787 22.3521 61.3419 21.5152L52.1429 12.3162Z" fill="black"/>
</svg>
