<svg width="100" height="100" viewBox="0 0 100 100" fill="none" xmlns="http://www.w3.org/2000/svg">
<path d="M92.605 48.6234L55.9383 23.6234C55.4283 23.2767 54.7667 23.2384 54.2217 23.5267C53.675 23.815 53.3333 24.3817 53.3333 25V46.8467L19.2717 23.6234C18.7617 23.2767 18.1 23.2384 17.555 23.5267C17.0083 23.815 16.6667 24.3817 16.6667 25V75C16.6667 75.6184 17.0083 76.185 17.555 76.4734C17.8 76.6034 18.0667 76.6667 18.3333 76.6667C18.6617 76.6667 18.9917 76.5684 19.2717 76.3767L53.3333 53.1534V75C53.3333 75.6184 53.675 76.185 54.2217 76.4734C54.4667 76.6034 54.7333 76.6667 55 76.6667C55.3283 76.6667 55.6583 76.5684 55.9383 76.3767L92.605 51.3767C93.0617 51.0667 93.3333 50.5517 93.3333 50C93.3333 49.4484 93.0617 48.9334 92.605 48.6234ZM20 71.845V28.155L52.0417 50L20 71.845ZM56.6667 71.845V28.155L88.7083 50L56.6667 71.845Z" fill="black"/>
<path d="M50 0C22.43 0 0 22.43 0 50C0 77.57 22.43 100 50 100C77.57 100 100 77.57 100 50C100 22.43 77.57 0 50 0ZM50 96.6667C24.2683 96.6667 3.33333 75.7317 3.33333 50C3.33333 24.2683 24.2683 3.33333 50 3.33333C75.7317 3.33333 96.6667 24.2683 96.6667 50C96.6667 75.7317 75.7317 96.6667 50 96.6667Z" fill="black"/>
</svg>
