<svg width="100" height="100" viewBox="0 0 100 100" fill="none" xmlns="http://www.w3.org/2000/svg">
<path d="M55.1053 9.43917H42.6053V25.0642H55.1053V9.43917ZM52.1402 22.099H45.5705V12.4043H52.1402V22.099Z" fill="black"/>
<path d="M64.0625 73.5017H32.8125C31.9488 73.5017 31.25 74.2004 31.25 75.0642C31.25 75.9278 31.9488 76.6267 32.8125 76.6267H64.0625C64.9261 76.6267 65.625 75.9278 65.625 75.0642C65.625 74.2004 64.9261 73.5017 64.0625 73.5017Z" fill="black"/>
<path d="M64.0625 61.0017H32.8125C31.9488 61.0017 31.25 61.7004 31.25 62.5642C31.25 63.4278 31.9488 64.1267 32.8125 64.1267H64.0625C64.9261 64.1267 65.625 63.4278 65.625 62.5642C65.625 61.7004 64.9261 61.0017 64.0625 61.0017Z" fill="black"/>
<path d="M18.75 87.5642H78.125V46.9392H18.75V87.5642ZM21.875 50.0642H75V84.4392H21.875V50.0642Z" fill="black"/>
<path d="M77.1581 0.0642188L77.1267 0H10.9375C7.48563 0 4.6875 2.79828 4.6875 6.25V93.75C4.6875 97.2019 7.48563 100 10.9375 100H89.0625C92.5142 100 95.3125 97.2019 95.3125 93.75V18.2755L77.1581 0.0642188ZM62.4383 3.25078V31.2525H21.9366V3.25078H62.4383ZM92.1875 93.75C92.1875 95.4731 90.7856 96.875 89.0625 96.875H10.9375C9.21438 96.875 7.8125 95.4731 7.8125 93.75V6.25C7.8125 4.52688 9.21438 3.125 10.9375 3.125H18.75V34.4392H65.625V3.125H75.7969L92.1875 19.567V93.75Z" fill="black"/>
</svg>
