<svg width="100" height="100" viewBox="0 0 100 100" fill="none" xmlns="http://www.w3.org/2000/svg">
<path d="M72.7164 37.5398L68.4777 37.1615L64.0585 86.4364L68.2971 86.8146L72.7164 37.5398Z" fill="black"/>
<path d="M52.1276 37.3509H47.8724V86.6258H52.1276V37.3509Z" fill="black"/>
<path d="M35.9418 86.4364L31.5223 37.1615L27.2835 37.5398L31.7031 86.8146L35.9418 86.4364Z" fill="black"/>
<path d="M90.4191 13.3894H67.2565C66.7942 5.94273 59.2298 0 50 0C40.7681 0 33.2038 5.94273 32.7415 13.3894H9.58069C8.40479 13.3894 7.45306 14.3409 7.45306 15.517V26.0991C7.45306 27.275 8.40479 28.2267 9.58069 28.2267H13.3861L19.7368 98.0653C19.8366 99.1604 20.755 99.9998 21.8562 99.9998H78.1416C79.243 99.9998 80.1614 99.1604 80.261 98.0653L86.6118 28.2267H90.4193C91.5954 28.2267 92.547 27.275 92.547 26.0991V15.517C92.547 14.3407 91.5955 13.3894 90.4191 13.3894ZM76.1989 95.7445H23.7991L17.6593 28.2311H82.3389L76.1989 95.7445ZM50 4.25525C56.8608 4.25525 62.4979 8.29043 62.9883 13.3892H37.0097C37.5001 8.29043 43.1392 4.25525 50 4.25525ZM88.2915 23.9715H11.7083V17.6447H88.2915V23.9715Z" fill="black"/>
</svg>
