<svg width="100" height="100" viewBox="0 0 100 100" fill="none" xmlns="http://www.w3.org/2000/svg">
<path fill-rule="evenodd" clip-rule="evenodd" d="M0 50C0 77.6142 22.3858 100 50 100C77.6142 100 100 77.6142 100 50C100 22.3858 77.6142 0 50 0C22.3858 0 0 22.3858 0 50ZM50.0575 80C50.0575 80 36.6352 59.9262 31.884 48.766C30.6754 46.1648 30 43.2606 30 40.1973C30 29.0427 38.9544 20 50 20C61.0456 20 70 29.0427 70 40.1973C70 42.6519 69.5665 45.0042 68.7723 47.1804H68.7935C65.6098 55.6475 50.0575 80 50.0575 80Z" fill="black"/>
<path d="M50 51.6662C56.4433 51.6662 61.6666 46.4429 61.6666 39.9996C61.6666 33.5562 56.4433 28.3329 50 28.3329C43.5566 28.3329 38.3333 33.5562 38.3333 39.9996C38.3333 46.4429 43.5566 51.6662 50 51.6662Z" fill="black"/>
</svg>
