<svg width="100" height="100" viewBox="0 0 100 100" fill="none" xmlns="http://www.w3.org/2000/svg">
<g clip-path="url(#clip0_5_3750)">
<path d="M95.7219 41.7267H91.6815V37.6858C91.6815 35.3269 89.7623 33.4077 87.4033 33.4077H79.2598C76.9008 33.4077 74.9817 35.3269 74.9817 37.6858V41.7267H70.941C68.582 41.7267 66.6629 43.646 66.6629 46.005V54.1485C66.6629 56.5075 68.582 58.4267 70.941 58.4267H74.9817V62.4675C74.9817 64.8265 76.9008 66.7456 79.2598 66.7456H87.4033C89.7623 66.7456 91.6815 64.8265 91.6815 62.4675V58.4267H95.7219C98.0809 58.4267 100 56.5075 100 54.1485V46.005C100 43.6458 98.0809 41.7267 95.7219 41.7267ZM96.016 54.1485C96.016 54.3106 95.8842 54.4425 95.7221 54.4425H89.6895C88.5893 54.4425 87.6975 55.3343 87.6975 56.4345V62.4673C87.6975 62.6294 87.5656 62.7612 87.4035 62.7612H79.2598C79.0977 62.7612 78.9658 62.6294 78.9658 62.4673V56.4345C78.9658 55.3343 78.074 54.4425 76.9738 54.4425H70.9412C70.7791 54.4425 70.6473 54.3106 70.6473 54.1485V46.005C70.6473 45.8429 70.7791 45.7108 70.9412 45.7108H76.9738C78.074 45.7108 78.9658 44.819 78.9658 43.7188V37.686C78.9658 37.5239 79.0977 37.3921 79.2598 37.3921H87.4033C87.5654 37.3921 87.6973 37.5239 87.6973 37.686V43.7188C87.6973 44.819 88.5891 45.7108 89.6893 45.7108H95.7217C95.8838 45.7108 96.0156 45.8429 96.0156 46.005V54.1485H96.016Z" fill="black"/>
<path d="M64.7338 47.7672C64.6908 47.1807 64.4558 45.8776 64.3777 45.4543C64.0371 43.3751 62.267 41.8694 60.1564 41.8694H33.7379C31.3787 41.8694 29.4596 43.7885 29.4596 46.1475V55.2864C29.4596 57.6454 31.3789 59.5645 33.7379 59.5645H43.5908C43.3795 59.8221 43.1568 60.0774 42.9236 60.3295C40.6168 62.8243 37.1494 64.2553 33.4101 64.2553C29.5578 64.2553 25.8779 62.7553 23.3135 60.1395C17.94 54.6598 18.001 45.112 23.4435 39.7077C25.9881 37.1817 29.4912 35.7333 33.0543 35.7333C35.4363 35.7333 37.7232 36.3686 39.6701 37.5708L42.2281 39.3209C43.9183 40.4776 46.2006 40.2706 47.6551 38.8297L55.223 31.3327C56.1324 30.4319 56.5881 29.184 56.473 27.91C56.3596 26.6442 55.6967 25.5053 54.6537 24.7803C54.2449 24.4862 51.2941 22.3668 50.1158 21.6741C48.9256 20.9745 46.4974 19.8034 45.2021 19.2266C41.6402 17.6411 37.6156 16.8704 32.8982 16.8704C24.2191 16.8704 16.0312 20.202 9.84315 26.2516C3.55663 32.3971 0.0611197 40.7465 0.000768157 49.7608C-0.0597787 58.7774 3.32401 67.1745 9.52909 73.4051C15.682 79.5844 24.3996 83.1284 33.4463 83.1284C42.4244 83.1284 50.8635 79.6262 56.5992 73.5196C61.5012 68.3012 64.293 61.8286 64.6734 54.8014C64.7533 53.3272 64.873 49.6676 64.7338 47.7672ZM60.6949 54.5866C60.366 60.6635 57.9455 66.2674 53.6951 70.7926C48.7092 76.1006 41.3285 79.145 33.4459 79.145C25.4514 79.145 17.7629 76.0284 12.3519 70.5946C6.90292 65.1225 3.93143 57.7333 3.98475 49.7878C4.03788 41.8444 7.10741 34.4973 12.6281 29.1002C18.0674 23.7825 25.266 20.854 32.8978 20.854C37.0457 20.854 40.5402 21.512 43.5818 22.8659C44.7607 23.3909 47.0473 24.4915 48.0973 25.1083C48.974 25.6239 51.4576 27.3876 52.3404 28.0237C52.3529 28.0327 52.3656 28.0417 52.3781 28.0502C52.451 28.1001 52.4971 28.1788 52.5051 28.267C52.5129 28.3545 52.4816 28.4401 52.4191 28.502L44.8512 35.9991C44.751 36.0981 44.5939 36.112 44.4779 36.0327L41.883 34.2571C41.8594 34.2409 41.8351 34.2252 41.8107 34.2098C39.2236 32.5999 36.1959 31.7489 33.0543 31.7489C28.4478 31.7489 23.9219 33.619 20.6365 36.8801C17.315 40.1782 15.392 44.9124 15.3599 49.869C15.3281 54.8254 17.1902 59.5856 20.4685 62.9286C23.7771 66.3034 28.4941 68.2391 33.41 68.2391C38.2564 68.2391 42.7902 66.342 45.8484 63.0346C47.2103 61.5622 48.3066 59.9592 49.0183 58.3991C49.2996 57.7823 49.248 57.0651 48.8814 56.495C48.5146 55.9249 47.8834 55.5803 47.2057 55.5803H33.7373C33.5752 55.5803 33.4432 55.4485 33.4432 55.2864V46.1475C33.4432 45.9854 33.5752 45.8536 33.7373 45.8536H60.156C60.3017 45.8536 60.4238 45.9579 60.4463 46.1018C60.449 46.12 60.4521 46.1381 60.4555 46.1559C60.5867 46.8665 60.7406 47.796 60.7598 48.0585C60.8732 49.6016 60.7881 52.8663 60.6949 54.5866Z" fill="black"/>
</g>
<defs>
<clipPath id="clip0_5_3750">
<rect width="100" height="100" fill="white"/>
</clipPath>
</defs>
</svg>
