<svg width="100" height="100" viewBox="0 0 100 100" fill="none" xmlns="http://www.w3.org/2000/svg">
<path d="M99.1399 45.6301L84.2662 31.8187V9.19215H67.1327V15.9102L49.9991 0L0.860095 45.6301C0.167899 46.2743 0.126778 47.3589 0.771 48.0528C1.41351 48.745 2.49806 48.7844 3.19368 48.1419L8.88031 42.8613V100H36.294H63.7077H91.1214V42.8596L96.808 48.1402C97.137 48.4468 97.5567 48.5976 97.9748 48.5976C98.4357 48.5976 98.8932 48.4143 99.229 48.0511C99.8732 47.3589 99.8321 46.2743 99.1399 45.6301ZM70.5594 12.6189H80.8395V28.637L70.5594 19.0919V12.6189ZM39.719 96.5733V60.4849C39.719 59.5991 40.4386 58.8795 41.3244 58.8795H58.6738C59.5597 58.8795 60.2793 59.5991 60.2793 60.4849V96.5733H39.719V96.5733ZM87.6929 96.5733H63.706V60.4849C63.706 57.7092 61.4495 55.4528 58.6738 55.4528H41.3244C38.5488 55.4528 36.2923 57.7092 36.2923 60.4849V96.5733H12.3053V39.6779L49.9991 4.67575L74.4659 27.3948L84.2662 36.4945L87.6929 39.6762V96.5733V96.5733Z" fill="black"/>
</svg>
