<svg width="100" height="101" viewBox="0 0 100 101" fill="none" xmlns="http://www.w3.org/2000/svg">
<g clip-path="url(#clip0_5_832)">
<path fill-rule="evenodd" clip-rule="evenodd" d="M34.6043 6.51182C34.1005 6.51182 33.6497 6.71271 33.3186 7.04383L4.17825 36.1842C3.84526 36.5163 3.64255 36.9703 3.64255 37.4735C3.64255 37.9456 3.81902 38.3705 4.11031 38.6927L14.5704 50.2729L11.8673 52.7145L1.40816 41.1354C1.4083 41.1356 1.40799 41.1352 1.40816 41.1354C0.534108 40.1681 0 38.8806 0 37.4735C0 35.9628 0.616466 34.5924 1.60515 33.606C1.60484 33.6062 1.60547 33.6057 1.60515 33.606L30.743 4.46815C31.7305 3.48067 33.0973 2.86927 34.6043 2.86927C35.8788 2.86927 37.0533 3.30778 37.9825 4.03809L37.9844 4.03946L98.0865 51.3926C99.3514 52.3911 100.17 53.9424 100.17 55.6863C100.17 57.1952 99.5568 58.5639 98.5677 59.5512C98.5678 59.5512 98.5675 59.5514 98.5677 59.5512C98.5671 59.5518 98.5664 59.5525 98.5658 59.553L60.319 97.7999L60.3172 97.8017C59.3308 98.7853 57.965 99.3969 56.4596 99.3969C54.849 99.3969 53.4018 98.6972 52.4056 97.5948L45.6155 90.078L48.3186 87.6364L55.108 95.1524C55.4449 95.5251 55.9248 95.7544 56.4596 95.7544C56.9604 95.7544 57.4116 95.5542 57.7434 95.2242C57.7439 95.2235 57.7447 95.2229 57.7452 95.2224L95.9938 56.9737C96.3259 56.6426 96.5276 56.1908 96.5276 55.6863C96.5276 55.1068 96.2603 54.5922 95.8321 54.2539L34.6043 6.51182ZM95.8321 54.2539L35.7318 6.90201C35.7318 6.90207 35.7316 6.90194 35.7318 6.90201C35.4189 6.65623 35.0306 6.51182 34.6043 6.51182" fill="black"/>
<path fill-rule="evenodd" clip-rule="evenodd" d="M66.7806 97.4242L81.6349 82.5717L84.2105 85.1475L69.3562 100L66.7806 97.4242Z" fill="black"/>
<path fill-rule="evenodd" clip-rule="evenodd" d="M38.6207 70.4095C38.0202 69.0002 37.2455 67.6803 36.3259 66.479L39.2181 64.2647C40.3202 65.7042 41.2501 67.2875 41.9719 68.9816L38.6207 70.4095Z" fill="black"/>
<path fill-rule="evenodd" clip-rule="evenodd" d="M40.0681 50.2225C40.0681 45.1932 44.1452 41.1161 49.1745 41.1161C54.2037 41.1161 58.2808 45.1932 58.2808 50.2225C58.2808 55.2517 54.2037 59.3288 49.1745 59.3288C44.1452 59.3288 40.0681 55.2517 40.0681 50.2225ZM49.1745 44.7586C46.157 44.7586 43.7106 47.205 43.7106 50.2225C43.7106 53.2399 46.157 55.6863 49.1745 55.6863C52.192 55.6863 54.6383 53.2399 54.6383 50.2225C54.6383 47.205 52.192 44.7586 49.1745 44.7586Z" fill="black"/>
<path fill-rule="evenodd" clip-rule="evenodd" d="M16.392 64.7925C16.392 62.6831 15.9449 60.6839 15.1415 58.8779L18.4694 57.3972C19.4764 59.66 20.0346 62.163 20.0346 64.7925C20.0346 74.7331 12.0695 82.8132 2.17339 83.0013L2.10412 79.3595C10.0201 79.2088 16.392 72.7442 16.392 64.7925Z" fill="black"/>
<path fill-rule="evenodd" clip-rule="evenodd" d="M10.9274 73.8991C8.08112 73.8991 5.35596 74.4001 2.83215 75.3189L1.58585 71.8964C4.50401 70.8337 7.65064 70.2565 10.9274 70.2565C23.9396 70.2565 34.8239 79.3532 37.5753 91.5319L34.0223 92.3347C31.6377 81.7803 22.2003 73.8991 10.9274 73.8991Z" fill="black"/>
<path fill-rule="evenodd" clip-rule="evenodd" d="M21.8553 95.7544C21.8553 85.6033 30.5108 77.5416 40.9787 77.5416C41.2778 77.5416 41.5796 77.5476 41.885 77.5618L41.7152 81.2004C41.4743 81.1891 41.2297 81.1842 40.9787 81.1842C32.3342 81.1842 25.4979 87.7983 25.4979 95.7544C25.4979 96.2543 25.5252 96.7493 25.5769 97.238L21.9548 97.6219C21.8899 97.0103 21.8553 96.3873 21.8553 95.7544Z" fill="black"/>
<path fill-rule="evenodd" clip-rule="evenodd" d="M38.2907 57.5509L42.2702 53.5733L44.8451 56.1496L40.8656 60.1273L38.2907 57.5509Z" fill="black"/>
<path fill-rule="evenodd" clip-rule="evenodd" d="M52.5253 43.3179L66.9425 28.9006L69.5181 31.4763L55.1009 45.8935L52.5253 43.3179Z" fill="black"/>
<path fill-rule="evenodd" clip-rule="evenodd" d="M28.079 2.57565L11.3178 19.3369L8.74213 16.7612L25.5033 0L28.079 2.57565Z" fill="black"/>
<path fill-rule="evenodd" clip-rule="evenodd" d="M89.4879 65.727C87.5819 63.2519 84.9844 61.3388 81.988 60.2723L83.2094 56.8406C86.8752 58.1454 90.0472 60.4832 92.3739 63.5047L89.4879 65.727Z" fill="black"/>
<path fill-rule="evenodd" clip-rule="evenodd" d="M76.4942 59.3288C75.4708 59.3288 74.4704 59.4225 73.5025 59.6009L72.8418 56.0188C74.0267 55.8003 75.2482 55.6863 76.4942 55.6863C76.9418 55.6863 77.389 55.7001 77.8372 55.7305L77.5917 59.3647C77.2312 59.3405 76.8661 59.3288 76.4942 59.3288Z" fill="black"/>
<path fill-rule="evenodd" clip-rule="evenodd" d="M67.7367 61.862C63.1444 64.7695 60.1021 69.89 60.1021 75.7203C60.1021 81.0107 62.6055 85.7154 66.5005 88.7145L64.2781 91.6005C59.5257 87.941 56.4596 82.188 56.4596 75.7203C56.4596 68.5903 60.1852 62.3315 65.7883 58.7844L67.7367 61.862Z" fill="black"/>
<path fill-rule="evenodd" clip-rule="evenodd" d="M7.69877 30.6626C10.2825 34.7584 14.8414 37.4732 20.0346 37.4732V41.1158C13.5388 41.1158 7.84049 37.7147 4.61794 32.6059L7.69877 30.6626Z" fill="black"/>
<path fill-rule="evenodd" clip-rule="evenodd" d="M25.4928 36.4174C26.7283 35.9176 27.8808 35.2525 28.9224 34.449L31.1473 37.3331C29.8467 38.3363 28.4057 39.1683 26.8584 39.794L25.4928 36.4174Z" fill="black"/>
<path fill-rule="evenodd" clip-rule="evenodd" d="M34.6044 22.9032C34.6044 17.7071 31.8849 13.1448 27.7841 10.5627L29.7249 7.48022C34.8398 10.7008 38.247 16.403 38.247 22.9032C38.247 26.3727 37.2755 29.6213 35.5867 32.3855L32.4785 30.4862C33.8275 28.2783 34.6044 25.6842 34.6044 22.9032Z" fill="black"/>
<path fill-rule="evenodd" clip-rule="evenodd" d="M24.4333 22.1503L20.0344 17.7512L22.61 15.1755L27.0103 19.5757C28.3243 20.8921 29.141 22.7147 29.141 24.7246C29.141 28.7484 25.8796 32.0098 21.8559 32.0098C19.8413 32.0098 18.0153 31.1898 16.6985 29.8688C16.6982 29.8685 16.6976 29.8679 16.6973 29.8676L12.3085 25.4788L14.8842 22.9032L19.2777 27.2967C19.9388 27.9601 20.8478 28.3672 21.8559 28.3672C23.8678 28.3672 25.4984 26.7366 25.4984 24.7246C25.4984 23.7188 25.0934 22.8116 24.4333 22.1503C24.4331 22.1499 24.4337 22.1505 24.4333 22.1503Z" fill="black"/>
<path fill-rule="evenodd" clip-rule="evenodd" d="M67.3872 73.8991C67.3872 69.8753 70.6486 66.614 74.6723 66.614C76.6841 66.614 78.5101 67.4313 79.8275 68.7509C79.8273 68.7507 79.8276 68.751 79.8275 68.7509L83.3108 72.2342L80.7352 74.8099L77.2511 71.3258C76.5905 70.6639 75.6801 70.2565 74.6723 70.2565C72.6604 70.2565 71.0298 71.8871 71.0298 73.8991C71.0298 74.9049 71.4343 75.8116 72.0943 76.4731C72.0941 76.4729 72.0945 76.4732 72.0943 76.4731L75.5832 79.9619L73.0075 82.5375L69.5179 79.048C68.2039 77.7316 67.3872 75.909 67.3872 73.8991Z" fill="black"/>
<path fill-rule="evenodd" clip-rule="evenodd" d="M21.8553 59.3288C11.7969 59.3288 3.64255 67.4832 3.64255 77.5416C3.64255 83.4269 6.43419 88.6601 10.7655 91.9898L31.5494 62.1194C28.743 60.3511 25.4199 59.3288 21.8553 59.3288ZM13.865 93.9125L36.5667 61.2863L35.1942 60.2273C31.5043 57.3799 26.8738 55.6863 21.8553 55.6863C9.78521 55.6863 0 65.4715 0 77.5416C0 89.6117 9.78521 99.3969 21.8553 99.3969C33.9255 99.3969 43.7106 89.6117 43.7106 77.5416C43.7106 76.2869 43.6055 75.0536 43.4007 73.8515L39.8098 74.4638C39.9801 75.4619 40.0681 76.4905 40.0681 77.5416C40.0681 87.6 31.9137 95.7544 21.8553 95.7544C18.9892 95.7544 16.2775 95.0921 13.865 93.9125Z" fill="black"/>
</g>
<defs>
<clipPath id="clip0_5_832">
<rect width="100" height="100" fill="white" transform="translate(0 0.292358)"/>
</clipPath>
</defs>
</svg>
