<svg width="100" height="100" viewBox="0 0 100 100" fill="none" xmlns="http://www.w3.org/2000/svg">
<path fill-rule="evenodd" clip-rule="evenodd" d="M50 0C22.3858 0 0 22.3858 0 50C0 77.6142 22.3858 100 50 100C77.6142 100 100 77.6142 100 50C100 22.3858 77.6142 0 50 0ZM39.0069 23.4944C41.8512 23.365 42.7602 23.3333 50.0025 23.3333H49.9942C57.2387 23.3333 58.1442 23.365 60.9887 23.4944C63.8277 23.6244 65.7665 24.074 67.4667 24.7333C69.2221 25.414 70.7054 26.325 72.1888 27.8083C73.6723 29.2906 74.5833 30.7783 75.2667 32.5323C75.9223 34.2279 76.3723 36.1656 76.5056 39.0046C76.6333 41.8492 76.6667 42.7579 76.6667 50.0002C76.6667 57.2425 76.6333 58.1492 76.5056 60.9937C76.3723 63.8315 75.9223 65.7698 75.2667 67.466C74.5833 69.2194 73.6723 70.7071 72.1888 72.1894C70.7071 73.6727 69.2217 74.586 67.4683 75.2673C65.7715 75.9267 63.8315 76.376 60.9927 76.506C58.1481 76.6356 57.2421 76.6673 49.9992 76.6673C42.7575 76.6673 41.8492 76.6356 39.0046 76.506C36.1662 76.376 34.2279 75.9267 32.5312 75.2673C30.7783 74.586 29.2906 73.6727 27.809 72.1894C26.326 70.7071 25.415 69.2194 24.7333 67.4654C24.0744 65.7698 23.625 63.8321 23.4944 60.9931C23.3656 58.1487 23.3333 57.2425 23.3333 50.0002C23.3333 42.7579 23.3667 41.8485 23.494 39.004C23.6217 36.1663 24.0717 34.2279 24.7327 32.5317C25.416 30.7783 26.3273 29.2906 27.8106 27.8083C29.2929 26.3256 30.7806 25.4144 32.5346 24.7333C34.2302 24.074 36.1679 23.6244 39.0069 23.4944Z" fill="black"/>
<path fill-rule="evenodd" clip-rule="evenodd" d="M47.6102 28.1395C48.0748 28.1386 48.5744 28.1389 49.1138 28.1393L50.0025 28.1395C57.1225 28.1395 57.9665 28.1649 60.7781 28.2928C63.3781 28.4116 64.7894 28.8461 65.7294 29.2111C66.9738 29.6945 67.8611 30.2722 68.7938 31.2055C69.7271 32.1389 70.305 33.0278 70.7894 34.2722C71.1544 35.2111 71.5894 36.6224 71.7077 39.2224C71.8354 42.0334 71.8633 42.878 71.8633 49.9947C71.8633 57.1113 71.8354 57.9559 71.7077 60.767C71.5888 63.367 71.1544 64.7782 70.7894 65.717C70.3061 66.9616 69.7271 67.8476 68.7938 68.7803C67.8604 69.7138 66.9744 70.2916 65.7294 70.7749C64.7904 71.1416 63.3781 71.5749 60.7781 71.6938C57.9671 71.8216 57.1225 71.8493 50.0025 71.8493C42.8819 71.8493 42.0379 71.8216 39.2269 71.6938C36.6269 71.5738 35.2156 71.1393 34.275 70.7743C33.0306 70.2909 32.1417 69.7132 31.2083 68.7799C30.275 67.8466 29.6973 66.9599 29.2129 65.7149C28.8479 64.7759 28.4129 63.3649 28.2946 60.7647C28.1667 57.9536 28.1413 57.1093 28.1413 49.988C28.1413 42.8668 28.1667 42.0268 28.2946 39.2157C28.4133 36.6157 28.8479 35.2045 29.2129 34.2645C29.6963 33.0201 30.275 32.1311 31.2083 31.1978C32.1417 30.2645 33.0306 29.6868 34.275 29.2022C35.2152 28.8355 36.6269 28.4022 39.2269 28.2828C41.6869 28.1716 42.6402 28.1382 47.6102 28.1328V28.1395ZM64.2371 32.5672C62.4704 32.5672 61.0371 33.9989 61.0371 35.7661C61.0371 37.5328 62.4704 38.9661 64.2371 38.9661C66.0038 38.9661 67.4371 37.5328 67.4371 35.7661C67.4371 33.9995 66.0038 32.5661 64.2371 32.5661V32.5672ZM36.3079 50.0007C36.3079 42.438 42.4394 36.3066 50.0019 36.3061C57.5648 36.3061 63.6948 42.438 63.6948 50.0007C63.6948 57.5636 57.5654 63.6926 50.0025 63.6926C42.4396 63.6926 36.3079 57.5636 36.3079 50.0007Z" fill="black"/>
<path d="M50.0025 41.1123C54.9114 41.1123 58.8914 45.0919 58.8914 50.0013C58.8914 54.9102 54.9114 58.8904 50.0025 58.8904C45.0931 58.8904 41.1135 54.9102 41.1135 50.0013C41.1135 45.0919 45.0931 41.1123 50.0025 41.1123Z" fill="black"/>
</svg>
