<svg width="280" height="120" viewBox="0 0 280 120" fill="none" xmlns="http://www.w3.org/2000/svg">
<g clip-path="url(#clip0_17_289)">
<path d="M169.61 76.9975L169.597 82.644L172.075 82.6441C173.659 82.6442 174.8 82.4381 175.497 82.026C176.181 81.6139 176.524 80.8857 176.526 79.8416C176.529 78.8662 176.223 78.1449 175.61 77.6778C174.996 77.2244 173.809 76.9976 172.047 76.9976L169.61 76.9975ZM169.633 66.5494L169.621 71.7837L172.059 71.7838C173.711 71.7839 174.797 71.5435 175.317 71.0627C175.81 70.5818 176.057 69.9499 176.059 69.1668C176.061 68.4936 175.837 67.8891 175.387 67.3533C174.938 66.8175 173.703 66.5495 171.682 66.5494H169.633ZM172.204 88.9295L156.084 88.9289L156.1 82.0665L158.578 82.0666L158.612 67.126L156.134 67.1259L156.149 60.2635L173.56 60.2642C176.974 60.2643 179.616 60.4636 181.486 60.8621C183.328 61.2743 184.774 62.0918 185.822 63.3145C186.871 64.5648 187.393 66.0211 187.39 67.6834C187.386 69.3046 186.885 70.596 185.886 71.5576C184.859 72.5468 183.615 73.2336 182.153 73.6183C184.159 74.2228 185.7 75.1571 186.776 76.4211C187.865 77.7125 188.408 79.162 188.404 80.7694C188.4 82.6928 187.782 84.3276 186.55 85.674C185.318 87.0065 183.629 87.8789 181.485 88.291C179.367 88.7168 176.274 88.9296 172.204 88.9295Z" fill="#060606"/>
<path d="M203.715 67.5398L201.014 75.4736L206.114 75.4738L203.715 67.5398ZM200.983 88.9305L189.697 88.9301L189.712 82.0677L191.884 82.0678L197.264 67.1274L194.97 67.1273L194.985 60.2649L215.468 60.2657L215.453 67.128L213.159 67.1279L218.573 82.0687L220.662 82.0688L220.647 88.9312L205.776 88.9307L205.79 82.6453L208.289 82.6454L207.212 79.039L199.92 79.0387L198.662 82.645L200.997 82.6451L200.983 88.9305Z" fill="#060606"/>
<path d="M249.712 88.9322L222.593 88.9313L222.608 82.0689L225.169 82.069L225.203 67.1284L222.642 67.1283L222.658 60.2659L238.942 60.2665L238.926 67.1289L236.222 67.1288L236.188 82.0694L242.927 82.0696L242.938 77.4741L249.738 77.4743L249.712 88.9322Z" fill="#060606"/>
<path d="M279.003 88.9333L251.883 88.9323L251.899 82.0699L254.459 82.07L254.493 67.1294L251.933 67.1293L251.949 60.267L268.233 60.2675L268.217 67.1299L265.513 67.1298L265.479 82.0704L272.218 82.0707L272.229 77.4751L279.029 77.4754L279.003 88.9333Z" fill="#060606"/>
<path d="M-0.210938 97.394L-0.194946 90.3667C0.241774 90.4767 0.644482 90.5316 1.01317 90.5316C1.88712 90.5317 2.44768 90.2294 2.69485 89.625C2.9284 89.0067 3.04782 87.5299 3.05314 85.1943L3.09426 67.1213L0.472438 67.1212L0.488052 60.2589L16.5672 60.2594L16.5516 67.1218L14.1141 67.1217L14.0759 83.917C14.0688 87.0357 13.9819 89.2338 13.8151 90.5115C13.6483 91.8029 13.1744 93.0325 12.3934 94.2002C11.585 95.3817 10.5452 96.2678 9.27393 96.8585C8.00263 97.4492 6.24042 97.7445 3.98729 97.7445C2.69003 97.7444 1.29062 97.6276 -0.210938 97.394Z" fill="#060606"/>
<path d="M21.2422 67.122L19.0505 67.1219L19.0661 60.2595L33.6501 60.26L33.6345 67.1224H32.2826L32.2606 76.7874C32.2553 79.0955 32.4702 80.6685 32.9053 81.5066C33.3404 82.3309 34.1246 82.7431 35.258 82.7431C36.2003 82.7432 36.8838 82.3929 37.3087 81.6922C37.7336 81.0053 37.9485 79.5971 37.9533 77.4677L37.9769 67.1226L36.5431 67.1225L36.5587 60.2601L47.2713 60.2605L47.2557 67.1229L45.0025 67.1228L44.9789 77.5091C44.9729 80.1607 44.5856 82.3313 43.817 84.0211C43.0485 85.6972 41.7756 87.0092 39.9982 87.9571C38.2209 88.905 36.035 89.3789 33.4404 89.3788C31.3512 89.3787 29.5014 89.1245 27.8913 88.6161C26.2537 88.1214 24.9582 87.3658 24.0046 86.3491C23.051 85.3462 22.3506 84.1303 21.9032 82.7015C21.4421 81.3138 21.2148 79.1844 21.2213 76.313L21.2422 67.122Z" fill="#060606"/>
<path d="M61.237 88.9264L50.1966 88.926L50.2122 82.0636L52.4039 82.0637L52.4379 67.1231L50.1848 67.123L50.2004 60.2606L67.3856 60.2613L71.5595 71.3278L75.8861 60.2616L92.969 60.2622L92.9533 67.1245H90.7207L90.6867 82.0651H92.9808L92.9652 88.9275L78.0945 88.927L78.1101 82.0646L80.3837 82.0647L80.4202 66.0525L71.7652 88.9268L67.5048 88.9266L59.0354 66.2578L58.9994 82.0639L61.2526 82.064L61.237 88.9264Z" fill="#060606"/>
<path d="M110.386 66.5481L110.373 71.9268H112.524C114.026 71.9269 115.119 71.7483 115.803 71.3912C116.459 71.034 116.788 70.3402 116.791 69.3098C116.792 68.6366 116.616 68.0665 116.262 67.5994C115.922 67.146 115.465 66.8574 114.892 66.7338C114.346 66.6101 113.417 66.5483 112.106 66.5482L110.386 66.5481ZM113.202 88.9282L96.5498 88.9277L96.5654 82.0653L99.3306 82.0654L99.3646 67.1248L96.5994 67.1247L96.615 60.2623L114.087 60.2629C118.102 60.2631 121.037 60.6547 122.892 61.4379C124.747 62.2348 126.11 63.3202 126.981 64.694C127.852 66.0679 128.286 67.5723 128.282 69.2072C128.277 71.2267 127.755 72.9028 126.714 74.2354C125.673 75.5818 124.298 76.5571 122.59 77.1616C120.909 77.7523 118.314 78.0475 114.804 78.0474L110.36 78.0473L110.35 82.0658L113.218 82.0659L113.202 88.9282Z" fill="#060606"/>
<path fill-rule="evenodd" clip-rule="evenodd" d="M138.54 0.786586C137.189 1.68207 136.183 2.64778 136.183 3.05052C136.183 3.20641 136.078 3.38025 135.949 3.43717C135.635 3.57574 134.654 6.81528 134.654 7.71602C134.654 8.48747 135.468 11.555 135.9 12.4131C136.455 13.5118 136.713 16.6257 136.474 19.3156C136.059 23.9879 136.131 27.3676 136.675 28.7437C136.945 29.4277 137.256 29.9872 137.365 29.9872C137.474 29.9872 137.513 30.6226 137.452 31.399C137.302 33.3103 137.917 37.4784 138.672 39.6678C139.173 41.121 139.228 41.6428 138.96 42.4207C138.778 42.9484 138.629 43.9513 138.629 44.6491C138.629 46.3665 137.811 50.2144 137.418 50.3471C137.243 50.4059 137.1 50.5822 137.1 50.739C137.1 50.8959 136.756 51.7456 136.336 52.6271C135.915 53.5087 135.571 54.3572 135.571 54.5121C135.571 54.6671 135.386 55.2329 135.159 55.7689C134.932 56.305 134.5 57.5092 134.199 58.4449C133.898 59.3806 133.533 60.2782 133.388 60.44C133.244 60.6015 133.125 60.9782 133.125 61.2767C133.125 61.5752 132.816 62.1388 132.437 62.5295C130.475 64.5521 129.726 67.4449 130.386 70.454C130.617 71.5048 130.9 72.3644 131.015 72.3644C131.13 72.3644 131.311 72.7124 131.416 73.1377C131.522 73.563 131.743 73.911 131.908 73.911C132.073 73.911 132.208 74.0576 132.208 74.237C132.208 74.4164 132.62 75.0081 133.124 75.5516C133.628 76.0954 134.04 76.7011 134.041 76.8975C134.042 77.0939 133.432 77.6163 132.687 78.0587C131.041 79.0343 130.225 80.1398 129.546 82.3153C129.263 83.2222 128.739 84.4511 128.381 85.0466C128.023 85.642 127.634 86.3903 127.518 86.7095C127.109 87.8265 124.711 90.8683 124.105 91.0378C122.961 91.3586 121.2 93.3915 121.2 94.3921C121.2 95.3489 120.377 97.4195 119.997 97.4195C119.877 97.4195 119.466 98.0551 119.083 98.8321C118.077 100.87 118.364 102.634 119.832 103.434C120.839 103.982 120.947 103.985 122.041 103.486C123.406 102.864 124.255 101.514 124.267 99.9463C124.274 99.001 124.555 98.5129 125.949 97.0254C127.463 95.4086 127.621 95.1085 127.621 93.8548C127.621 93.0933 127.748 92.4703 127.903 92.4703C128.057 92.4703 128.406 91.7938 128.678 90.9667C129.055 89.8176 129.421 89.327 130.231 88.8859C130.814 88.5682 131.291 88.2011 131.291 88.0696C131.291 87.9381 131.511 87.8305 131.781 87.8305C132.186 87.8305 132.238 88.0628 132.077 89.1451C131.559 92.6445 131.543 93.1156 131.928 93.5839C132.356 94.106 132.275 94.2019 130.648 95.0952C129.444 95.7565 127.98 97.5927 127.105 99.5399C126.673 100.5 126.2 101.332 126.053 101.389C125.907 101.446 125.787 101.689 125.787 101.93C125.787 102.172 125.658 102.369 125.502 102.369C125.345 102.369 125.135 102.63 125.035 102.949C124.934 103.268 124.358 104.044 123.753 104.674C122.707 105.763 122.584 105.809 121.207 105.617C119.712 105.41 117.656 106.005 117.164 106.789C117.035 106.995 116.927 108.573 116.924 110.296C116.921 112.371 116.765 113.804 116.461 114.539C116.001 115.652 115.84 118.593 116.188 119.511C116.318 119.853 116.772 120 117.699 120C119.3 120 119.637 119.601 120.631 116.533C121.145 114.948 121.657 114.055 122.562 113.167C123.239 112.502 123.898 111.958 124.026 111.958C124.153 111.958 124.258 111.215 124.258 110.307C124.258 108.671 124.276 108.639 126.323 106.673C127.459 105.581 129.326 103.853 130.471 102.833C131.616 101.812 133.002 100.559 133.552 100.049C134.101 99.5383 135.073 98.6722 135.712 98.1238C136.956 97.0563 137.712 95.8459 137.712 94.9217C137.712 94.6077 137.93 94.1713 138.197 93.9517C139.496 92.8857 140.464 91.7858 140.464 91.3772C140.464 91.1276 140.601 90.9237 140.77 90.9237C140.938 90.9237 141.075 90.7786 141.075 90.6017C141.075 90.4245 141.626 89.1435 142.298 87.7553C142.971 86.3668 143.521 85.0621 143.521 84.8551C143.521 84.6485 143.625 84.4332 143.751 84.3763C144.392 84.0883 145.961 79.9966 146.151 78.1174C146.354 76.1146 146.375 76.0762 147.253 76.0762C147.745 76.0762 148.403 75.9386 148.714 75.77C149.341 75.4304 149.94 73.1312 149.947 71.0346C149.951 69.7772 150.821 66.4232 151.257 65.9821C151.375 65.863 151.471 65.572 151.471 65.3356C151.471 65.0993 151.884 64.0643 152.389 63.0355C152.893 62.007 153.306 60.9708 153.306 60.7329C153.306 60.4954 153.415 60.3008 153.549 60.3008C153.682 60.3008 154.054 59.5006 154.375 58.5222C154.696 57.5441 155.059 56.5348 155.181 56.2796C155.588 55.4265 156.364 52.6135 156.364 51.9884C156.364 51.6487 156.507 50.9902 156.681 50.5253L156.999 49.6796L157.675 50.5825C158.047 51.079 159.044 52.1811 159.89 53.0317C164.504 57.6685 166.012 58.0254 167.441 54.819C169.438 50.3403 169.814 49.4414 169.996 48.7096C170.102 48.2796 170.312 47.9279 170.462 47.9279C170.612 47.9279 170.735 47.6903 170.735 47.3999C170.735 47.1098 171.304 46.0509 172 45.0472C173.294 43.1807 174.859 39.1948 174.37 39.0092C174.221 38.9523 174.098 38.5975 174.098 38.2201C174.098 37.8431 173.926 37.1598 173.716 36.7017C172.96 35.0555 170.735 35.9627 170.735 37.9176C170.735 38.4246 170.533 39.1094 170.286 39.4398C169.859 40.0111 169.836 39.9953 169.822 39.1122C169.815 38.6018 169.682 37.9826 169.528 37.7364C169.307 37.3822 169.215 37.4468 169.091 38.0457C168.701 39.9214 168.547 41.1364 168.408 43.4427C168.325 44.8038 168.093 46.2653 167.891 46.6906C167.439 47.6443 165.844 50.1105 165.34 50.6345C164.931 51.0607 164.314 51.1535 164.313 50.7891C164.313 50.6617 163.954 50.1396 163.515 49.6292C163.076 49.1188 162.353 48.2177 161.91 47.6266C159.52 44.4431 157.678 43.1152 153.918 41.864C152.993 41.5562 152.078 41.1887 151.884 41.047C151.321 40.6338 151.741 38.2712 152.497 37.6086C153.064 37.1115 153.168 36.637 153.259 34.1331C153.349 31.6736 153.267 31.0284 152.719 29.8845C152.014 28.4112 151.09 27.822 149.484 27.822C147.282 27.822 146.117 29.0512 145.77 31.7405C145.664 32.5623 145.444 33.4074 145.28 33.6177C144.885 34.1253 145.188 35.2559 145.937 36.0691C146.426 36.6005 146.472 36.8223 146.176 37.2319C145.852 37.6801 145.634 37.5687 144.268 36.26C142.957 35.0044 142.662 34.5021 142.304 32.9258C142.073 31.905 141.577 30.3739 141.202 29.5232C140.681 28.3416 140.479 27.1476 140.345 24.464C140.17 20.9847 139.769 18.056 139.209 16.1775C139.016 15.5317 139.028 14.9603 139.246 14.4763C139.55 13.8001 139.719 13.7555 141.599 13.8539C143.21 13.938 143.897 13.8227 144.95 13.2903C147.238 12.1344 149.016 9.35821 149.016 6.94272C149.016 4.69116 147.474 2.03965 145.443 0.798649C144.317 0.110408 143.763 -0.0142493 141.904 0.00121678C140.091 0.0160643 139.494 0.155568 138.54 0.786586Z" fill="#060606"/>
<path d="M-6 51C-6 50.4477 -5.55228 50 -5 50H131.371C132.117 50 132.601 50.7872 132.263 51.4524L131.249 53.4524C131.078 53.7883 130.733 54 130.357 54H-5C-5.55228 54 -6 53.5523 -6 53V51Z" fill="#060606"/>
<path d="M172.794 50.5397C172.966 50.2081 173.308 50 173.682 50H282C282.552 50 283 50.4477 283 51V53C283 53.5523 282.552 54 282 54H172.645C171.895 54 171.412 53.2053 171.757 52.5397L172.794 50.5397Z" fill="#060606"/>
<path d="M16.7063 94.47C16.8891 94.1776 17.2095 94 17.5543 94H115.565C116.261 94 116.744 94.6936 116.503 95.3466L115.764 97.3466C115.619 97.7392 115.244 98 114.826 98H16.3043C15.5189 98 15.0401 97.136 15.4563 96.47L16.7063 94.47Z" fill="#060606"/>
<path d="M143.792 94.641C143.94 94.2548 144.311 94 144.725 94H281.5C282.052 94 282.5 94.4477 282.5 95V97C282.5 97.5523 282.052 98 281.5 98H143.956C143.254 98 142.771 97.296 143.023 96.641L143.792 94.641Z" fill="#060606"/>
</g>
<defs>
<clipPath id="clip0_17_289">
<rect width="280" height="120" fill="white"/>
</clipPath>
</defs>
</svg>
