<svg width="294" height="120" viewBox="0 0 294 120" fill="none" xmlns="http://www.w3.org/2000/svg">
<g clip-path="url(#clip0_15_203)">
<path d="M35.2505 117.394L35.2665 110.367C35.7032 110.477 36.1059 110.532 36.4746 110.532C37.3485 110.532 37.9091 110.229 38.1563 109.625C38.3898 109.007 38.5092 107.53 38.5145 105.194L38.5557 87.1213L35.9338 87.1212L35.9495 80.2589L52.0286 80.2594L52.013 87.1218L49.5755 87.1217L49.5373 103.917C49.5302 107.036 49.4433 109.234 49.2765 110.511C49.1097 111.803 48.6358 113.032 47.8548 114.2C47.0464 115.382 46.0066 116.268 44.7353 116.859C43.464 117.449 41.7018 117.745 39.4487 117.744C38.1514 117.744 36.752 117.628 35.2505 117.394Z" fill="white"/>
<path d="M56.7036 87.122L54.512 87.1219L54.5276 80.2595L69.1115 80.26L69.0959 87.1224L67.744 87.1224L67.722 96.7874C67.7168 99.0955 67.9317 100.669 68.3667 101.507C68.8018 102.331 69.5861 102.743 70.7195 102.743C71.6617 102.743 72.3453 102.393 72.7702 101.692C73.195 101.005 73.4099 99.5971 73.4148 97.4677L73.4383 87.1226L72.0045 87.1225L72.0201 80.2601L82.7327 80.2605L82.7171 87.1229L80.464 87.1228L80.4403 97.5091C80.4343 100.161 80.047 102.331 79.2785 104.021C78.51 105.697 77.237 107.009 75.4597 107.957C73.6823 108.905 71.4964 109.379 68.9019 109.379C66.8126 109.379 64.9629 109.124 63.3527 108.616C61.7152 108.121 60.4196 107.366 59.4661 106.349C58.5125 105.346 57.812 104.13 57.3646 102.701C56.9035 101.314 56.6762 99.1844 56.6827 96.313L56.7036 87.122Z" fill="white"/>
<path d="M96.6984 108.926L85.658 108.926L85.6736 102.064L87.8653 102.064L87.8993 87.1231L85.6462 87.123L85.6618 80.2606L102.847 80.2613L107.021 91.3278L111.348 80.2616L128.43 80.2622L128.415 87.1245L126.182 87.1245L126.148 102.065L128.442 102.065L128.427 108.928L113.556 108.927L113.572 102.065L115.845 102.065L115.882 86.0525L107.227 108.927L102.966 108.927L94.4968 86.2578L94.4609 102.064L96.714 102.064L96.6984 108.926Z" fill="white"/>
<path d="M145.847 86.5481L145.835 91.9268L147.986 91.9268C149.488 91.9269 150.581 91.7483 151.264 91.3912C151.92 91.034 152.25 90.3402 152.252 89.3098C152.254 88.6366 152.077 88.0665 151.723 87.5994C151.383 87.146 150.926 86.8574 150.353 86.7338C149.807 86.6101 148.879 86.5483 147.568 86.5482L145.847 86.5481ZM148.664 108.928L132.011 108.928L132.027 102.065L134.792 102.065L134.826 87.1248L132.061 87.1247L132.076 80.2623L149.548 80.2629C153.563 80.2631 156.498 80.6547 158.353 81.4379C160.209 82.2348 161.572 83.3202 162.443 84.694C163.313 86.0679 163.747 87.5723 163.743 89.2072C163.739 91.2267 163.216 92.9028 162.175 94.2354C161.134 95.5818 159.76 96.5571 158.051 97.1616C156.37 97.7523 153.775 98.0475 150.266 98.0474L145.821 98.0473L145.812 102.066L148.679 102.066L148.664 108.928Z" fill="white"/>
<path d="M180.071 96.9975L180.058 102.644L182.537 102.644C184.121 102.644 185.261 102.438 185.959 102.026C186.642 101.614 186.985 100.886 186.988 99.8416C186.99 98.8662 186.684 98.1449 186.071 97.6778C185.458 97.2244 184.27 96.9976 182.509 96.9976L180.071 96.9975ZM180.095 86.5494L180.083 91.7837L182.52 91.7838C184.173 91.7839 185.259 91.5435 185.779 91.0627C186.271 90.5818 186.519 89.9499 186.521 89.1668C186.522 88.4936 186.298 87.8891 185.849 87.3533C185.399 86.8175 184.164 86.5495 182.143 86.5494L180.095 86.5494ZM182.666 108.929L166.546 108.929L166.561 102.067L169.04 102.067L169.074 87.126L166.595 87.1259L166.611 80.2635L184.021 80.2642C187.435 80.2643 190.077 80.4636 191.947 80.8621C193.789 81.2743 195.235 82.0918 196.284 83.3145C197.332 84.5648 197.855 86.0211 197.851 87.6834C197.847 89.3046 197.346 90.596 196.347 91.5576C195.321 92.5468 194.076 93.2336 192.614 93.6183C194.62 94.2228 196.161 95.1571 197.237 96.4211C198.327 97.7125 198.87 99.162 198.866 100.769C198.862 102.693 198.243 104.328 197.011 105.674C195.779 107.007 194.091 107.879 191.946 108.291C189.828 108.717 186.735 108.93 182.666 108.929Z" fill="white"/>
<path d="M214.176 87.5398L211.475 95.4736L216.575 95.4738L214.176 87.5398ZM211.444 108.93L200.158 108.93L200.174 102.068L202.345 102.068L207.725 87.1274L205.431 87.1273L205.447 80.2649L225.93 80.2657L225.914 87.128L223.62 87.1279L229.034 102.069L231.124 102.069L231.108 108.931L216.237 108.931L216.252 102.645L218.751 102.645L217.673 99.039L210.381 99.0387L209.124 102.645L211.459 102.645L211.444 108.93Z" fill="white"/>
<path d="M260.174 108.932L233.054 108.931L233.07 102.069L235.63 102.069L235.664 87.1284L233.104 87.1283L233.119 80.2659L249.403 80.2665L249.388 87.1289L246.684 87.1288L246.65 102.069L253.389 102.07L253.399 97.4741L260.2 97.4743L260.174 108.932Z" fill="white"/>
<path d="M289.464 108.933L262.345 108.932L262.36 102.07L264.921 102.07L264.955 87.1294L262.394 87.1293L262.41 80.267L278.694 80.2675L278.678 87.1299L275.975 87.1298L275.941 102.07L282.68 102.071L282.69 97.4751L289.49 97.4754L289.464 108.933Z" fill="white"/>
</g>
<path fill-rule="evenodd" clip-rule="evenodd" d="M22.5405 0.786586C21.1887 1.68207 20.183 2.64778 20.183 3.05052C20.183 3.20641 20.0778 3.38025 19.9494 3.43717C19.6348 3.57574 18.6542 6.81528 18.6542 7.71602C18.6542 8.48747 19.4681 11.555 19.9005 12.4131C20.4545 13.5118 20.7132 16.6257 20.4741 19.3156C20.0586 23.9879 20.1307 27.3676 20.675 28.7437C20.9453 29.4277 21.2559 29.9872 21.3651 29.9872C21.4743 29.9872 21.5134 30.6226 21.4522 31.399C21.3021 33.3103 21.917 37.4784 22.6723 39.6678C23.1734 41.121 23.2278 41.6428 22.96 42.4207C22.7781 42.9484 22.6291 43.9513 22.6291 44.6491C22.6291 46.3664 21.8112 50.2144 21.4177 50.3471C21.2431 50.4059 21.1003 50.5822 21.1003 50.739C21.1003 50.8959 20.7563 51.7456 20.3359 52.6271C19.9154 53.5087 19.5715 54.3572 19.5715 54.5121C19.5715 54.6671 19.3859 55.2329 19.1593 55.7689C18.9324 56.305 18.5004 57.5092 18.1992 58.4449C17.898 59.3806 17.5329 60.2782 17.3883 60.44C17.2436 60.6015 17.1253 60.9782 17.1253 61.2767C17.1253 61.5752 16.8156 62.1388 16.4367 62.5295C14.4749 64.5521 13.7264 67.4449 14.3862 70.454C14.6168 71.5048 14.8996 72.3644 15.0149 72.3644C15.1302 72.3644 15.3109 72.7124 15.4164 73.1377C15.5219 73.563 15.7432 73.911 15.908 73.911C16.0732 73.911 16.208 74.0576 16.208 74.237C16.208 74.4164 16.6202 75.0081 17.1238 75.5516C17.6277 76.0954 18.0405 76.7011 18.0411 76.8975C18.042 77.0939 17.4323 77.6163 16.6865 78.0587C15.0406 79.0343 14.2251 80.1398 13.5463 82.3153C13.2631 83.2222 12.7388 84.4511 12.3807 85.0466C12.0226 85.642 11.6343 86.3903 11.5175 86.7095C11.109 87.8265 8.71117 90.8683 8.10513 91.0378C6.96064 91.3586 5.20033 93.3915 5.20033 94.3921C5.20033 95.3489 4.3772 97.4195 3.99652 97.4195C3.87727 97.4195 3.46601 98.0551 3.08258 98.8321C2.0766 100.87 2.36402 102.634 3.83171 103.434C4.83922 103.982 4.94746 103.985 6.04119 103.486C7.40615 102.864 8.25465 101.514 8.26688 99.9463C8.27422 99.001 8.55523 98.5129 9.94861 97.0254C11.4631 95.4086 11.6215 95.1085 11.6215 93.8548C11.6215 93.0933 11.7481 92.4703 11.9028 92.4703C12.0572 92.4703 12.4061 91.7938 12.6776 90.9667C13.0549 89.8176 13.4209 89.327 14.2309 88.8859C14.8137 88.5682 15.2907 88.2011 15.2907 88.0696C15.2907 87.9381 15.5115 87.8305 15.7815 87.8305C16.1857 87.8305 16.238 88.0628 16.0774 89.1451C15.5592 92.6445 15.5433 93.1156 15.9276 93.5839C16.356 94.106 16.2747 94.2019 14.648 95.0952C13.4436 95.7565 11.9801 97.5927 11.1047 99.5399C10.6733 100.5 10.2 101.332 10.0535 101.389C9.90672 101.446 9.78686 101.689 9.78686 101.93C9.78686 102.172 9.65844 102.369 9.50158 102.369C9.34472 102.369 9.13466 102.63 9.03467 102.949C8.93438 103.268 8.358 104.044 7.75319 104.674C6.70746 105.763 6.58363 105.809 5.20706 105.617C3.71215 105.41 1.65647 106.005 1.16418 106.789C1.03484 106.995 0.926906 108.573 0.924154 110.296C0.921096 112.371 0.764849 113.804 0.460914 114.539C0.00134398 115.652 -0.160408 118.593 0.187863 119.511C0.317509 119.853 0.772492 120 1.69928 120C3.29967 120 3.63663 119.601 4.63099 116.533C5.14468 114.948 5.65684 114.055 6.56161 113.167C7.23889 112.502 7.89782 111.958 8.02563 111.958C8.15344 111.958 8.25802 111.215 8.25802 110.307C8.25802 108.671 8.27636 108.639 10.3235 106.673C11.4594 105.581 13.3258 103.853 14.4709 102.833C15.616 101.812 17.0024 100.559 17.5516 100.049C18.1007 99.5383 19.0731 98.6722 19.7121 98.1238C20.956 97.0563 21.7118 95.8459 21.7118 94.9217C21.7118 94.6077 21.9305 94.1713 22.1974 93.9517C23.4957 92.8857 24.4638 91.7858 24.4638 91.3772C24.4638 91.1275 24.6014 90.9237 24.7695 90.9237C24.9377 90.9237 25.0753 90.7786 25.0753 90.6017C25.0753 90.4245 25.6257 89.1435 26.2984 87.7553C26.9711 86.3668 27.5214 85.0621 27.5214 84.8551C27.5214 84.6485 27.6248 84.4332 27.7508 84.3763C28.3917 84.0883 29.9609 79.9966 30.1511 78.1174C30.3541 76.1146 30.3746 76.0762 31.2531 76.0762C31.7453 76.0762 32.4027 75.9386 32.7137 75.77C33.3408 75.4304 33.9398 73.1312 33.9472 71.0346C33.9515 69.7772 34.8211 66.4232 35.2571 65.9821C35.3751 65.863 35.4714 65.572 35.4714 65.3356C35.4714 65.0993 35.8842 64.0643 36.3887 63.0355C36.8933 62.007 37.306 60.9708 37.306 60.7329C37.306 60.4954 37.4152 60.3008 37.5485 60.3008C37.6818 60.3008 38.0537 59.5006 38.375 58.5222C38.6961 57.5441 39.0587 56.5348 39.1807 56.2796C39.5883 55.4265 40.3637 52.6135 40.3637 51.9884C40.3637 51.6487 40.5068 50.9902 40.6814 50.5253L40.9991 49.6796L41.6752 50.5825C42.047 51.079 43.0438 52.1811 43.8902 53.0317C48.5036 57.6685 50.012 58.0254 51.4414 54.819C53.4384 50.3403 53.8142 49.4414 53.9958 48.7096C54.1022 48.2796 54.3123 47.9279 54.4621 47.9279C54.6123 47.9279 54.7349 47.6903 54.7349 47.3999C54.7349 47.1098 55.3042 46.0509 56.0001 45.0472C57.2945 43.1807 58.8588 39.1948 58.3698 39.0092C58.2206 38.9523 58.0983 38.5975 58.0983 38.2201C58.0983 37.8431 57.9265 37.1598 57.7161 36.7017C56.9603 35.0555 54.7349 35.9627 54.7349 37.9176C54.7349 38.4246 54.5328 39.1094 54.286 39.4398C53.8588 40.0111 53.8362 39.9953 53.8225 39.1122C53.8148 38.6018 53.6821 37.9826 53.528 37.7364C53.3066 37.3822 53.2152 37.4468 53.0908 38.0457C52.7009 39.9214 52.5474 41.1364 52.4077 43.4427C52.3251 44.8038 52.0927 46.2653 51.8912 46.6906C51.4387 47.6443 49.8438 50.1105 49.3405 50.6345C48.9311 51.0607 48.314 51.1535 48.3134 50.7891C48.3131 50.6617 47.9538 50.1396 47.5147 49.6292C47.0757 49.1188 46.3534 48.2177 45.9098 47.6266C43.5199 44.4431 41.6779 43.1152 37.9176 41.864C36.9926 41.5562 36.0778 41.1887 35.8842 41.047C35.3207 40.6338 35.7414 38.2712 36.4967 37.6086C37.0636 37.1115 37.1675 36.637 37.259 34.1331C37.3489 31.6736 37.2669 31.0284 36.7193 29.8845C36.0145 28.4112 35.0901 27.822 33.4839 27.822C31.2821 27.822 30.1168 29.0512 29.7701 31.7405C29.664 32.5623 29.4435 33.4074 29.2796 33.6177C28.8849 34.1253 29.1882 35.2559 29.937 36.0691C30.4263 36.6005 30.4718 36.8223 30.1758 37.2319C29.852 37.6801 29.6337 37.5687 28.2675 36.26C26.9573 35.0044 26.6616 34.5021 26.3042 32.9258C26.0727 31.905 25.5768 30.3739 25.2019 29.5232C24.6812 28.3416 24.4787 27.1476 24.3445 24.464C24.1702 20.9847 23.7687 18.056 23.2086 16.1775C23.0159 15.5317 23.0285 14.9603 23.2459 14.4763C23.5498 13.8001 23.7189 13.7555 25.5991 13.8539C27.2096 13.938 27.8966 13.8227 28.9503 13.2903C31.2378 12.1344 33.0161 9.35821 33.0161 6.94272C33.0161 4.69116 31.4741 2.03965 29.4426 0.798649C28.3168 0.110408 27.7633 -0.0142493 25.9036 0.00121679C24.091 0.0160643 23.4936 0.155568 22.5405 0.786586Z" fill="white"/>
<defs>
<clipPath id="clip0_15_203">
<rect width="265" height="40" fill="white" transform="translate(28.4614 80)"/>
</clipPath>
</defs>
</svg>
