<svg width="300" height="120" viewBox="0 0 300 120" fill="none" xmlns="http://www.w3.org/2000/svg">
<g clip-path="url(#clip0_15_211)">
<path d="M40.789 97.394L40.805 90.3667C41.2418 90.4767 41.6445 90.5316 42.0132 90.5316C42.8871 90.5317 43.4477 90.2294 43.6948 89.625C43.9284 89.0067 44.0478 87.5299 44.0531 85.1943L44.0942 67.1213L41.4724 67.1212L41.488 60.2589L57.5672 60.2594L57.5516 67.1218L55.1141 67.1217L55.0759 83.917C55.0688 87.0357 54.9819 89.2338 54.8151 90.5115C54.6483 91.8029 54.1744 93.0325 53.3934 94.2002C52.585 95.3817 51.5452 96.2678 50.2739 96.8585C49.0026 97.4492 47.2404 97.7445 44.9873 97.7445C43.69 97.7444 42.2906 97.6276 40.789 97.394Z" fill="white"/>
<path d="M62.2422 67.122L60.0505 67.1219L60.0661 60.2595L74.6501 60.26L74.6345 67.1224L73.2826 67.1224L73.2606 76.7874C73.2553 79.0955 73.4702 80.6685 73.9053 81.5066C74.3404 82.3309 75.1246 82.7431 76.258 82.7431C77.2003 82.7432 77.8838 82.3929 78.3087 81.6922C78.7336 81.0053 78.9485 79.5971 78.9533 77.4677L78.9769 67.1226L77.5431 67.1225L77.5587 60.2601L88.2713 60.2605L88.2557 67.1229L86.0025 67.1228L85.9789 77.5091C85.9729 80.1607 85.5856 82.3313 84.817 84.0211C84.0485 85.6972 82.7756 87.0092 80.9982 87.9571C79.2209 88.905 77.035 89.3789 74.4404 89.3788C72.3512 89.3787 70.5014 89.1245 68.8913 88.6161C67.2537 88.1214 65.9582 87.3658 65.0046 86.3491C64.051 85.3462 63.3506 84.1303 62.9032 82.7015C62.4421 81.3138 62.2148 79.1844 62.2213 76.313L62.2422 67.122Z" fill="white"/>
<path d="M102.237 88.9264L91.1966 88.926L91.2122 82.0636L93.4039 82.0637L93.4379 67.1231L91.1848 67.123L91.2004 60.2606L108.386 60.2613L112.559 71.3278L116.886 60.2616L133.969 60.2622L133.953 67.1245L131.721 67.1245L131.687 82.0651L133.981 82.0651L133.965 88.9275L119.094 88.927L119.11 82.0646L121.384 82.0647L121.42 66.0525L112.765 88.9268L108.505 88.9266L100.035 66.2578L99.9994 82.0639L102.253 82.064L102.237 88.9264Z" fill="white"/>
<path d="M151.386 66.5481L151.373 71.9268L153.524 71.9268C155.026 71.9269 156.119 71.7483 156.803 71.3912C157.459 71.034 157.788 70.3402 157.791 69.3098C157.792 68.6366 157.616 68.0665 157.262 67.5994C156.922 67.146 156.465 66.8574 155.892 66.7338C155.346 66.6101 154.417 66.5483 153.106 66.5482L151.386 66.5481ZM154.202 88.9282L137.55 88.9277L137.565 82.0653L140.331 82.0654L140.365 67.1248L137.599 67.1247L137.615 60.2623L155.087 60.2629C159.102 60.2631 162.037 60.6547 163.892 61.4379C165.747 62.2348 167.11 63.3202 167.981 64.694C168.852 66.0679 169.286 67.5723 169.282 69.2072C169.277 71.2267 168.755 72.9028 167.714 74.2354C166.673 75.5818 165.298 76.5571 163.59 77.1616C161.909 77.7523 159.314 78.0475 155.804 78.0474L151.36 78.0473L151.35 82.0658L154.218 82.0659L154.202 88.9282Z" fill="white"/>
<path d="M185.61 76.9975L185.597 82.644L188.075 82.6441C189.659 82.6442 190.8 82.4381 191.497 82.026C192.181 81.6139 192.524 80.8857 192.526 79.8416C192.529 78.8662 192.223 78.1449 191.61 77.6778C190.996 77.2244 189.809 76.9976 188.047 76.9976L185.61 76.9975ZM185.633 66.5494L185.621 71.7837L188.059 71.7838C189.711 71.7839 190.797 71.5435 191.317 71.0627C191.81 70.5818 192.057 69.9499 192.059 69.1668C192.061 68.4936 191.837 67.8891 191.387 67.3533C190.938 66.8175 189.703 66.5495 187.682 66.5494L185.633 66.5494ZM188.204 88.9295L172.084 88.9289L172.1 82.0665L174.578 82.0666L174.612 67.126L172.134 67.1259L172.149 60.2635L189.56 60.2642C192.974 60.2643 195.616 60.4636 197.486 60.8621C199.328 61.2743 200.774 62.0918 201.822 63.3145C202.871 64.5648 203.393 66.0211 203.39 67.6834C203.386 69.3046 202.885 70.596 201.886 71.5576C200.859 72.5468 199.615 73.2336 198.153 73.6183C200.159 74.2228 201.7 75.1571 202.776 76.4211C203.865 77.7125 204.408 79.162 204.404 80.7694C204.4 82.6928 203.782 84.3276 202.55 85.674C201.318 87.0065 199.629 87.8789 197.485 88.291C195.367 88.7168 192.274 88.9296 188.204 88.9295Z" fill="white"/>
<path d="M219.715 67.5398L217.014 75.4736L222.114 75.4738L219.715 67.5398ZM216.983 88.9305L205.697 88.9301L205.712 82.0677L207.884 82.0678L213.264 67.1274L210.97 67.1273L210.985 60.2649L231.468 60.2657L231.453 67.128L229.159 67.1279L234.573 82.0687L236.662 82.0688L236.647 88.9312L221.776 88.9307L221.79 82.6453L224.289 82.6454L223.212 79.039L215.92 79.0387L214.662 82.645L216.997 82.6451L216.983 88.9305Z" fill="white"/>
<path d="M265.712 88.9322L238.593 88.9313L238.608 82.0689L241.169 82.069L241.203 67.1284L238.642 67.1283L238.658 60.2659L254.942 60.2665L254.926 67.1289L252.222 67.1288L252.188 82.0694L258.927 82.0696L258.938 77.4741L265.738 77.4743L265.712 88.9322Z" fill="white"/>
<path d="M295.003 88.9333L267.883 88.9323L267.899 82.0699L270.459 82.07L270.493 67.1294L267.933 67.1293L267.949 60.267L284.233 60.2675L284.217 67.1299L281.513 67.1298L281.479 82.0704L288.218 82.0707L288.229 77.4751L295.029 77.4754L295.003 88.9333Z" fill="white"/>
</g>
<path fill-rule="evenodd" clip-rule="evenodd" d="M152.54 0.786586C151.189 1.68207 150.183 2.64778 150.183 3.05052C150.183 3.20641 150.078 3.38025 149.949 3.43717C149.635 3.57574 148.654 6.81528 148.654 7.71602C148.654 8.48747 149.468 11.555 149.9 12.4131C150.455 13.5118 150.713 16.6257 150.474 19.3156C150.059 23.9879 150.131 27.3676 150.675 28.7437C150.945 29.4277 151.256 29.9872 151.365 29.9872C151.474 29.9872 151.513 30.6226 151.452 31.399C151.302 33.3103 151.917 37.4784 152.672 39.6678C153.173 41.121 153.228 41.6428 152.96 42.4207C152.778 42.9484 152.629 43.9513 152.629 44.6491C152.629 46.3664 151.811 50.2144 151.418 50.3471C151.243 50.4059 151.1 50.5822 151.1 50.739C151.1 50.8959 150.756 51.7456 150.336 52.6271C149.915 53.5087 149.571 54.3572 149.571 54.5121C149.571 54.6671 149.386 55.2329 149.159 55.7689C148.932 56.305 148.5 57.5092 148.199 58.4449C147.898 59.3806 147.533 60.2782 147.388 60.44C147.244 60.6015 147.125 60.9782 147.125 61.2767C147.125 61.5752 146.816 62.1388 146.437 62.5295C144.475 64.5521 143.726 67.4449 144.386 70.454C144.617 71.5048 144.9 72.3644 145.015 72.3644C145.13 72.3644 145.311 72.7124 145.416 73.1377C145.522 73.563 145.743 73.911 145.908 73.911C146.073 73.911 146.208 74.0576 146.208 74.237C146.208 74.4164 146.62 75.0081 147.124 75.5516C147.628 76.0954 148.04 76.7011 148.041 76.8975C148.042 77.0939 147.432 77.6163 146.687 78.0587C145.041 79.0343 144.225 80.1398 143.546 82.3153C143.263 83.2222 142.739 84.4511 142.381 85.0466C142.023 85.642 141.634 86.3903 141.518 86.7095C141.109 87.8265 138.711 90.8683 138.105 91.0378C136.961 91.3586 135.2 93.3915 135.2 94.3921C135.2 95.3489 134.377 97.4195 133.997 97.4195C133.877 97.4195 133.466 98.0551 133.083 98.8321C132.077 100.87 132.364 102.634 133.832 103.434C134.839 103.982 134.947 103.985 136.041 103.486C137.406 102.864 138.255 101.514 138.267 99.9463C138.274 99.001 138.555 98.5129 139.949 97.0254C141.463 95.4086 141.621 95.1085 141.621 93.8548C141.621 93.0933 141.748 92.4703 141.903 92.4703C142.057 92.4703 142.406 91.7938 142.678 90.9667C143.055 89.8176 143.421 89.327 144.231 88.8859C144.814 88.5682 145.291 88.2011 145.291 88.0696C145.291 87.9381 145.511 87.8305 145.781 87.8305C146.186 87.8305 146.238 88.0628 146.077 89.1451C145.559 92.6445 145.543 93.1156 145.928 93.5839C146.356 94.106 146.275 94.2019 144.648 95.0952C143.444 95.7565 141.98 97.5927 141.105 99.5399C140.673 100.5 140.2 101.332 140.053 101.389C139.907 101.446 139.787 101.689 139.787 101.93C139.787 102.172 139.658 102.369 139.502 102.369C139.345 102.369 139.135 102.63 139.035 102.949C138.934 103.268 138.358 104.044 137.753 104.674C136.707 105.763 136.584 105.809 135.207 105.617C133.712 105.41 131.656 106.005 131.164 106.789C131.035 106.995 130.927 108.573 130.924 110.296C130.921 112.371 130.765 113.804 130.461 114.539C130.001 115.652 129.84 118.593 130.188 119.511C130.318 119.853 130.772 120 131.699 120C133.3 120 133.637 119.601 134.631 116.533C135.145 114.948 135.657 114.055 136.562 113.167C137.239 112.502 137.898 111.958 138.026 111.958C138.153 111.958 138.258 111.215 138.258 110.307C138.258 108.671 138.276 108.639 140.323 106.673C141.459 105.581 143.326 103.853 144.471 102.833C145.616 101.812 147.002 100.559 147.552 100.049C148.101 99.5383 149.073 98.6722 149.712 98.1238C150.956 97.0563 151.712 95.8459 151.712 94.9217C151.712 94.6077 151.93 94.1713 152.197 93.9517C153.496 92.8857 154.464 91.7858 154.464 91.3772C154.464 91.1275 154.601 90.9237 154.77 90.9237C154.938 90.9237 155.075 90.7786 155.075 90.6017C155.075 90.4245 155.626 89.1435 156.298 87.7553C156.971 86.3668 157.521 85.0621 157.521 84.8551C157.521 84.6485 157.625 84.4332 157.751 84.3763C158.392 84.0883 159.961 79.9966 160.151 78.1174C160.354 76.1146 160.375 76.0762 161.253 76.0762C161.745 76.0762 162.403 75.9386 162.714 75.77C163.341 75.4304 163.94 73.1312 163.947 71.0346C163.951 69.7772 164.821 66.4232 165.257 65.9821C165.375 65.863 165.471 65.572 165.471 65.3356C165.471 65.0993 165.884 64.0643 166.389 63.0355C166.893 62.007 167.306 60.9708 167.306 60.7329C167.306 60.4954 167.415 60.3008 167.549 60.3008C167.682 60.3008 168.054 59.5006 168.375 58.5222C168.696 57.5441 169.059 56.5348 169.181 56.2796C169.588 55.4265 170.364 52.6135 170.364 51.9884C170.364 51.6487 170.507 50.9902 170.681 50.5253L170.999 49.6796L171.675 50.5825C172.047 51.079 173.044 52.1811 173.89 53.0317C178.504 57.6685 180.012 58.0254 181.441 54.819C183.438 50.3403 183.814 49.4414 183.996 48.7096C184.102 48.2796 184.312 47.9279 184.462 47.9279C184.612 47.9279 184.735 47.6903 184.735 47.3999C184.735 47.1098 185.304 46.0509 186 45.0472C187.294 43.1807 188.859 39.1948 188.37 39.0092C188.221 38.9523 188.098 38.5975 188.098 38.2201C188.098 37.8431 187.926 37.1598 187.716 36.7017C186.96 35.0555 184.735 35.9627 184.735 37.9176C184.735 38.4246 184.533 39.1094 184.286 39.4398C183.859 40.0111 183.836 39.9953 183.822 39.1122C183.815 38.6018 183.682 37.9826 183.528 37.7364C183.307 37.3822 183.215 37.4468 183.091 38.0457C182.701 39.9214 182.547 41.1364 182.408 43.4427C182.325 44.8038 182.093 46.2653 181.891 46.6906C181.439 47.6443 179.844 50.1105 179.34 50.6345C178.931 51.0607 178.314 51.1535 178.313 50.7891C178.313 50.6617 177.954 50.1396 177.515 49.6292C177.076 49.1188 176.353 48.2177 175.91 47.6266C173.52 44.4431 171.678 43.1152 167.918 41.864C166.993 41.5562 166.078 41.1887 165.884 41.047C165.321 40.6338 165.741 38.2712 166.497 37.6086C167.064 37.1115 167.168 36.637 167.259 34.1331C167.349 31.6736 167.267 31.0284 166.719 29.8845C166.014 28.4112 165.09 27.822 163.484 27.822C161.282 27.822 160.117 29.0512 159.77 31.7405C159.664 32.5623 159.444 33.4074 159.28 33.6177C158.885 34.1253 159.188 35.2559 159.937 36.0691C160.426 36.6005 160.472 36.8223 160.176 37.2319C159.852 37.6801 159.634 37.5687 158.268 36.26C156.957 35.0044 156.662 34.5021 156.304 32.9258C156.073 31.905 155.577 30.3739 155.202 29.5232C154.681 28.3416 154.479 27.1476 154.345 24.464C154.17 20.9847 153.769 18.056 153.209 16.1775C153.016 15.5317 153.028 14.9603 153.246 14.4763C153.55 13.8001 153.719 13.7555 155.599 13.8539C157.21 13.938 157.897 13.8227 158.95 13.2903C161.238 12.1344 163.016 9.35821 163.016 6.94272C163.016 4.69116 161.474 2.03965 159.443 0.798649C158.317 0.110408 157.763 -0.0142493 155.904 0.00121679C154.091 0.0160643 153.494 0.155568 152.54 0.786586Z" fill="white"/>
<g clip-path="url(#clip1_15_211)">
<path d="M9.78904 97.394L9.80503 90.3667C10.2418 90.4767 10.6445 90.5316 11.0132 90.5316C11.8871 90.5317 12.4477 90.2294 12.6948 89.625C12.9284 89.0067 13.0478 87.5299 13.0531 85.1943L13.0942 67.1213L10.4724 67.1212L10.488 60.2589L26.5672 60.2594L26.5516 67.1218L24.1141 67.1217L24.0759 83.917C24.0688 87.0357 23.9819 89.2338 23.8151 90.5115C23.6483 91.8029 23.1744 93.0325 22.3934 94.2002C21.585 95.3817 20.5452 96.2678 19.2739 96.8585C18.0026 97.4492 16.2404 97.7445 13.9873 97.7445C12.69 97.7444 11.2906 97.6276 9.78904 97.394Z" fill="white"/>
<path d="M31.2422 67.122L29.0505 67.1219L29.0661 60.2595L43.6501 60.26L43.6345 67.1224L42.2826 67.1224L42.2606 76.7874C42.2553 79.0955 42.4702 80.6685 42.9053 81.5066C43.3404 82.3309 44.1246 82.7431 45.258 82.7431C46.2003 82.7432 46.8838 82.3929 47.3087 81.6922C47.7336 81.0053 47.9485 79.5971 47.9533 77.4677L47.9769 67.1226L46.5431 67.1225L46.5587 60.2601L57.2713 60.2605L57.2557 67.1229L55.0025 67.1228L54.9789 77.5091C54.9729 80.1607 54.5856 82.3313 53.817 84.0211C53.0485 85.6972 51.7756 87.0092 49.9982 87.9571C48.2209 88.905 46.035 89.3789 43.4404 89.3788C41.3512 89.3787 39.5014 89.1245 37.8913 88.6161C36.2537 88.1214 34.9582 87.3658 34.0046 86.3491C33.051 85.3462 32.3506 84.1303 31.9032 82.7015C31.4421 81.3138 31.2148 79.1844 31.2213 76.313L31.2422 67.122Z" fill="white"/>
<path d="M71.237 88.9264L60.1966 88.926L60.2122 82.0636L62.4039 82.0637L62.4379 67.1231L60.1848 67.123L60.2004 60.2606L77.3856 60.2613L81.5595 71.3278L85.8861 60.2616L102.969 60.2622L102.953 67.1245L100.721 67.1245L100.687 82.0651L102.981 82.0651L102.965 88.9275L88.0945 88.927L88.1101 82.0646L90.3837 82.0647L90.4202 66.0525L81.7652 88.9268L77.5048 88.9266L69.0354 66.2578L68.9994 82.0639L71.2526 82.064L71.237 88.9264Z" fill="white"/>
<path d="M120.386 66.5481L120.373 71.9268L122.524 71.9268C124.026 71.9269 125.119 71.7483 125.803 71.3912C126.459 71.034 126.788 70.3402 126.791 69.3098C126.792 68.6366 126.616 68.0665 126.262 67.5994C125.922 67.146 125.465 66.8574 124.892 66.7338C124.346 66.6101 123.417 66.5483 122.106 66.5482L120.386 66.5481ZM123.202 88.9282L106.55 88.9277L106.565 82.0653L109.331 82.0654L109.365 67.1248L106.599 67.1247L106.615 60.2623L124.087 60.2629C128.102 60.2631 131.037 60.6547 132.892 61.4379C134.747 62.2348 136.11 63.3202 136.981 64.694C137.852 66.0679 138.286 67.5723 138.282 69.2072C138.277 71.2267 137.755 72.9028 136.714 74.2354C135.673 75.5818 134.298 76.5571 132.59 77.1616C130.909 77.7523 128.314 78.0475 124.804 78.0474L120.36 78.0473L120.35 82.0658L123.218 82.0659L123.202 88.9282Z" fill="white"/>
<path d="M154.61 76.9975L154.597 82.644L157.075 82.6441C158.659 82.6442 159.8 82.4381 160.497 82.026C161.181 81.6139 161.524 80.8857 161.526 79.8416C161.529 78.8662 161.223 78.1449 160.61 77.6778C159.996 77.2244 158.809 76.9976 157.047 76.9976L154.61 76.9975ZM154.633 66.5494L154.621 71.7837L157.059 71.7838C158.711 71.7839 159.797 71.5435 160.317 71.0627C160.81 70.5818 161.057 69.9499 161.059 69.1668C161.061 68.4936 160.837 67.8891 160.387 67.3533C159.938 66.8175 158.703 66.5495 156.682 66.5494L154.633 66.5494ZM157.204 88.9295L141.084 88.9289L141.1 82.0665L143.578 82.0666L143.612 67.126L141.134 67.1259L141.149 60.2635L158.56 60.2642C161.974 60.2643 164.616 60.4636 166.486 60.8621C168.328 61.2743 169.774 62.0918 170.822 63.3145C171.871 64.5648 172.393 66.0211 172.39 67.6834C172.386 69.3046 171.885 70.596 170.886 71.5576C169.859 72.5468 168.615 73.2336 167.153 73.6183C169.159 74.2228 170.7 75.1571 171.776 76.4211C172.865 77.7125 173.408 79.162 173.404 80.7694C173.4 82.6928 172.782 84.3276 171.55 85.674C170.318 87.0065 168.629 87.8789 166.485 88.291C164.367 88.7168 161.274 88.9296 157.204 88.9295Z" fill="white"/>
<path d="M188.715 67.5398L186.014 75.4736L191.114 75.4738L188.715 67.5398ZM185.983 88.9305L174.697 88.9301L174.712 82.0677L176.884 82.0678L182.264 67.1274L179.97 67.1273L179.985 60.2649L200.468 60.2657L200.453 67.128L198.159 67.1279L203.573 82.0687L205.662 82.0688L205.647 88.9312L190.776 88.9307L190.79 82.6453L193.289 82.6454L192.212 79.039L184.92 79.0387L183.662 82.645L185.997 82.6451L185.983 88.9305Z" fill="white"/>
<path d="M234.712 88.9322L207.593 88.9313L207.608 82.0689L210.169 82.069L210.203 67.1284L207.642 67.1283L207.658 60.2659L223.942 60.2665L223.926 67.1289L221.222 67.1288L221.188 82.0694L227.927 82.0696L227.938 77.4741L234.738 77.4743L234.712 88.9322Z" fill="white"/>
<path d="M264.003 88.9333L236.883 88.9323L236.899 82.0699L239.459 82.07L239.493 67.1294L236.933 67.1293L236.949 60.267L253.233 60.2675L253.217 67.1299L250.513 67.1298L250.479 82.0704L257.218 82.0707L257.229 77.4751L264.029 77.4754L264.003 88.9333Z" fill="white"/>
</g>
<defs>
<clipPath id="clip0_15_211">
<rect width="130" height="40" fill="white" transform="translate(170 60)"/>
</clipPath>
<clipPath id="clip1_15_211">
<rect width="140" height="40" fill="white" transform="translate(0 60)"/>
</clipPath>
</defs>
</svg>
