<svg width="100" height="100" viewBox="0 0 100 100" fill="none" xmlns="http://www.w3.org/2000/svg">
<path d="M99.8346 31.2364C98.3749 15.1701 87.0031 3.51364 72.7715 3.51364C63.2902 3.51364 54.6089 8.61586 49.724 16.7933C44.8834 8.51008 36.5579 3.51172 27.2285 3.51172C12.9988 3.51172 1.6251 15.1682 0.16732 31.2345C0.0519286 31.9441 -0.421176 35.679 1.01737 41.7697C3.09057 50.5548 7.8793 58.5457 14.8624 64.8729L49.7009 96.4882L85.1376 64.8749C92.1207 58.5457 96.9094 50.5567 98.9826 41.7697C100.421 35.6809 99.9481 31.9461 99.8346 31.2364ZM95.2382 40.8889C93.3458 48.9124 88.959 56.2224 82.5644 62.0151L49.724 91.3149L17.4472 62.0228C11.041 56.2186 6.65616 48.9105 4.76182 40.887C3.4002 35.1232 3.95985 31.8672 3.96177 31.846L3.99062 31.6518C5.24069 17.576 15.0124 7.35809 27.2285 7.35809C36.2425 7.35809 44.1776 12.8969 47.9432 21.8109L49.7144 26.0092L51.4857 21.8109C55.1916 13.0334 63.546 7.36002 72.7734 7.36002C84.9876 7.36002 94.7612 17.5779 96.0363 31.8364C96.0402 31.8672 96.5998 35.1251 95.2382 40.8889Z" fill="black"/>
</svg>
