<svg width="100" height="101" viewBox="0 0 100 101" fill="none" xmlns="http://www.w3.org/2000/svg">
<g clip-path="url(#clip0_5_4775)">
<path d="M24.342 31.4275H5.06663C3.11448 31.4275 1.526 33.0158 1.526 34.9681V96.8916C1.526 98.8437 3.11428 100.432 5.06663 100.432H24.342C26.2944 100.432 27.8826 98.8439 27.8826 96.8914V34.9681C27.8826 33.016 26.2944 31.4275 24.342 31.4275ZM23.8989 96.4482H5.51018V35.4115H23.8989V96.4482Z" fill="black"/>
<path d="M25.1023 4.95271C22.3229 2.17439 18.6326 0.643921 14.7113 0.643921C6.59941 0.643921 0 7.23728 0 15.3414C0 23.4486 6.59941 30.0443 14.7113 30.0443C22.8176 30.0443 29.4125 23.4486 29.4125 15.3416C29.4127 11.4211 27.882 7.73162 25.1023 4.95271ZM14.7113 26.0601C8.79648 26.0601 3.98398 21.2515 3.98398 15.3414C3.98398 9.43396 8.79629 4.6281 14.7113 4.6281C17.5687 4.6281 20.2588 5.74412 22.2855 7.77048C24.3123 9.79665 25.4283 12.4855 25.4283 15.3414C25.4285 21.2517 20.6209 26.0601 14.7113 26.0601Z" fill="black"/>
<path d="M95.5467 40.6335C91.3414 33.503 83.8803 29.8876 73.3705 29.8876C66.5996 29.8876 61.6797 32.1981 58.406 34.5819C58.2135 32.8102 56.7082 31.4264 54.8861 31.4264H36.4265C34.4744 31.4264 32.8859 33.0147 32.8859 34.9671V96.8905C32.8859 98.8426 34.4742 100.431 36.4265 100.431H55.6598C57.6121 100.431 59.2004 98.8428 59.2004 96.8905V66.2532C59.2004 55.8675 62.015 53.8989 67.2096 53.8989C72.2881 53.8989 73.6785 56.6686 73.6785 66.7844V96.8915C73.6785 98.8438 75.2668 100.432 77.2191 100.432H96.4594C98.4115 100.432 100 98.8438 100 96.8915V62.9251C100 56.0622 99.4937 47.3266 95.5467 40.6335ZM96.016 96.4477H77.6627V66.7842C77.6627 62.7489 77.5506 58.546 76.2121 55.4038C74.6607 51.7616 71.6318 49.9147 67.2098 49.9147C56.6414 49.9147 55.2166 58.1739 55.2166 66.2532V96.4473H36.8701V35.4106H54.4428V38.9891C54.4428 39.8102 54.9467 40.5473 55.7121 40.8454C56.4775 41.1436 57.3471 40.9413 57.9023 40.3362C60.1185 37.9221 65.075 33.8718 73.3705 33.8718C93.2726 33.8718 96.0162 47.8354 96.0162 62.9251V96.4477H96.016Z" fill="black"/>
</g>
<defs>
<clipPath id="clip0_5_4775">
<rect width="100" height="100" fill="white" transform="translate(0 0.53772)"/>
</clipPath>
</defs>
</svg>
