<svg width="100" height="100" viewBox="0 0 100 100" fill="none" xmlns="http://www.w3.org/2000/svg">
<path d="M79.6296 37.2463V26.8519C79.6296 12.0463 66.337 0 50 0C33.663 0 20.3704 12.0463 20.3704 26.8519V37.2463C14.0722 38.3315 9.25926 43.8204 9.25926 50.4259V86.6148C9.25926 93.9944 15.2648 100 22.6463 100H77.3537C84.7352 100 90.7407 93.9944 90.7407 86.613V50.4241C90.7407 43.8204 85.9278 38.3315 79.6296 37.2463ZM24.0741 26.8519C24.0741 14.087 35.7037 3.7037 50 3.7037C64.2963 3.7037 75.9259 14.087 75.9259 26.8519V37.037H24.0741V26.8519ZM87.037 86.613C87.037 91.9518 82.6926 96.2963 77.3537 96.2963H22.6463C17.3074 96.2963 12.963 91.9518 12.963 86.613V50.4241C12.963 45.0852 17.3074 40.7407 22.6463 40.7407H77.3537C82.6926 40.7407 87.037 45.0852 87.037 50.4241V86.613Z" fill="black"/>
<path d="M50 51.8518C45.9148 51.8518 42.5926 55.174 42.5926 59.2592V70.3703C42.5926 74.4555 45.9148 77.7777 50 77.7777C54.0852 77.7777 57.4074 74.4555 57.4074 70.3703V59.2592C57.4074 55.174 54.0852 51.8518 50 51.8518ZM53.7037 70.3703C53.7037 72.4129 52.0426 74.074 50 74.074C47.9574 74.074 46.2963 72.4129 46.2963 70.3703V59.2592C46.2963 57.2166 47.9574 55.5555 50 55.5555C52.0426 55.5555 53.7037 57.2166 53.7037 59.2592V70.3703Z" fill="black"/>
</svg>
