<svg width="100" height="100" viewBox="0 0 100 100" fill="none" xmlns="http://www.w3.org/2000/svg">
<path fill-rule="evenodd" clip-rule="evenodd" d="M50 0C22.3858 0 0 22.3858 0 50C0 77.6142 22.3858 100 50 100C77.6142 100 100 77.6142 100 50C100 22.3858 77.6142 0 50 0ZM28.1773 33.2579C33.394 28.2979 45.5106 28.2979 50.7273 38.2179C55.944 28.2979 68.0606 28.2979 73.2773 33.2579C78.494 38.2179 80.1606 48.1362 74.944 58.0579C71.6248 64.8177 60.794 71.5912 52.9673 76.4858C52.1873 76.9737 51.4373 77.4427 50.7273 77.8912C50.0175 77.4427 49.2675 76.9737 48.4875 76.4858C40.6608 71.5912 29.83 64.8177 26.5106 58.0579C21.294 48.1362 22.9606 38.2179 28.1773 33.2579Z" fill="black"/>
</svg>
