<svg width="100" height="100" viewBox="0 0 100 100" fill="none" xmlns="http://www.w3.org/2000/svg">
<path fill-rule="evenodd" clip-rule="evenodd" d="M50 0C22.3858 0 0 22.3858 0 50C0 77.6142 22.3858 100 50 100C77.6142 100 100 77.6142 100 50C100 22.3858 77.6142 0 50 0ZM20.8333 49.9173C20.8333 33.8804 33.9171 20.8333 49.9996 20.8333C66.0821 20.8333 79.166 33.8804 79.166 49.9173C79.166 52.1892 78.9765 54.0283 78.5517 55.8744L78.5454 55.905C78.5444 55.9104 78.3335 56.7615 78.2171 57.1327C77.4962 59.4317 76.1912 61.3465 74.4427 62.6698C72.7471 63.9535 70.6446 64.6606 68.5229 64.6606C68.2608 64.6606 67.9969 64.65 67.7383 64.6294C64.7254 64.3881 62.0762 62.8071 60.4517 60.286C57.6577 63.0875 53.9508 64.6287 49.9996 64.6287C41.8648 64.6287 35.2467 58.0292 35.2467 49.9173C35.2467 41.8054 41.8648 35.206 49.9996 35.206C58.1344 35.206 64.7525 41.8054 64.7525 49.9173V54.6596C64.7646 57.4267 66.6267 58.5577 68.2175 58.6856C69.8002 58.8075 71.9067 57.8881 72.6404 54.8877C73.0023 53.2421 73.1862 51.5694 73.1862 49.9173C73.1862 37.1681 62.7848 26.796 49.9996 26.796C37.2144 26.796 26.8131 37.1681 26.8131 49.9173C26.8131 62.6662 37.2144 73.0385 49.9996 73.0385C54.45 73.0385 58.7783 71.771 62.5165 69.3731L62.5835 69.33L66.5127 73.8854L66.4283 73.9429C61.5727 77.2523 55.8917 79.0015 49.9996 79.0015C33.9171 79.0015 20.8333 65.9544 20.8333 49.9173Z" fill="black"/>
<path fill-rule="evenodd" clip-rule="evenodd" d="M58.7727 49.918C58.7727 54.742 54.8371 58.6665 49.9996 58.6665C45.1619 58.6665 41.2264 54.742 41.2264 49.918C41.2264 45.0941 45.1619 41.1697 49.9996 41.1697C54.8371 41.1697 58.7727 45.0941 58.7727 49.918Z" fill="black"/>
</svg>
