<svg width="100" height="100" viewBox="0 0 100 100" fill="none" xmlns="http://www.w3.org/2000/svg">
<g clip-path="url(#clip0_5_5053)">
<path d="M67.8046 18.9511C57.9872 9.13414 42.0134 9.13414 32.1956 18.9511C22.3787 28.7685 22.3787 44.7423 32.1956 54.5596C37.1044 59.468 43.5523 61.9225 50.0001 61.9225C56.448 61.9225 62.8958 59.4682 67.8046 54.5596C77.6215 44.7425 77.6215 28.7685 67.8046 18.9511ZM35.013 51.7427C26.749 43.4786 26.749 30.0323 35.013 21.7685C43.2773 13.5046 56.7239 13.5046 64.9876 21.7683C73.2514 30.0323 73.2514 43.4788 64.9876 51.7427C56.7233 60.0063 43.2767 60.0063 35.013 51.7427Z" fill="black"/>
<path d="M76.0022 62.7579C90.3397 48.4204 90.3397 25.0914 76.0022 10.7535C61.6645 -3.58398 38.3355 -3.58437 23.9976 10.7535C9.66014 25.0912 9.66014 48.4202 23.9976 62.7579C29.0294 67.7895 35.2976 71.2001 42.2111 72.6842V74.1526H40.1054C35.8105 74.1526 32.3165 77.6469 32.3165 81.9414C32.3165 86.236 35.8107 89.7301 40.1054 89.7301H42.2111V92.2113C42.2111 96.5063 45.7052 100 49.9999 100C54.2946 100 57.7888 96.5061 57.7886 92.2113V89.7301H59.8942C64.1891 89.7301 67.6831 86.2364 67.6831 81.9414C67.6831 77.6465 64.1889 74.1526 59.8942 74.1526H57.7886V72.6842C64.7022 71.1999 70.9704 67.7895 76.0022 62.7579ZM55.797 78.1368H59.8946C61.9927 78.1368 63.6995 79.8436 63.6995 81.9416C63.6995 84.0395 61.9925 85.7463 59.8946 85.7463H55.797C54.697 85.7463 53.805 86.6381 53.805 87.7383V92.2117C53.805 94.3098 52.0981 96.0166 50.0001 96.0166C47.9021 96.0166 46.1952 94.3098 46.1952 92.2117V87.7383C46.1952 86.6381 45.3032 85.7463 44.2032 85.7463H40.1056C38.0075 85.7463 36.3007 84.0395 36.3007 81.9416C36.3007 79.8436 38.0077 78.1368 40.1056 78.1368H44.2034C45.3034 78.1368 46.1954 77.245 46.1954 76.1448V71.0374C46.1954 70.0645 45.4923 69.2339 44.5327 69.0727C37.7845 67.9413 31.6579 64.7835 26.8154 59.9407C14.031 47.1566 14.031 26.355 26.8154 13.5709C39.5995 0.786326 60.4013 0.786716 73.1852 13.5709C85.9696 26.355 85.9696 47.1566 73.1852 59.9407C68.3428 64.7833 62.2161 67.9411 55.4677 69.0727C54.5079 69.2335 53.805 70.0641 53.805 71.0374V76.1448C53.805 77.245 54.697 78.1368 55.797 78.1368Z" fill="black"/>
</g>
<defs>
<clipPath id="clip0_5_5053">
<rect width="100" height="100" fill="white"/>
</clipPath>
</defs>
</svg>
