<svg width="100" height="100" viewBox="0 0 100 100" fill="none" xmlns="http://www.w3.org/2000/svg">
<path fill-rule="evenodd" clip-rule="evenodd" d="M17.6801 3.26087L25.8079 13.7373C26.1759 14.2116 26.8587 14.2978 27.333 13.9298C27.8073 13.5618 27.8935 12.879 27.5255 12.4047L20.4316 3.26087H39.4285L61.8483 31.3565H57.3833L48.0476 19.6578C47.6733 19.1885 46.9894 19.1117 46.52 19.4861C46.0509 19.8605 45.9741 20.5445 46.3485 21.0137L54.602 31.3565L35.6609 31.3567L14.3619 3.26087H17.6801ZM18.2224 1.08696C18.2153 1.0869 18.2083 1.0869 18.2013 1.08696H12.1739C11.7612 1.08696 11.3841 1.32071 11.2005 1.69033C11.0168 2.05995 11.0584 2.50168 11.3077 2.83057L30.5537 28.2182L29.5203 29.2543C29.317 29.4582 29.2029 29.7341 29.2029 30.0219V41.0063C21.8359 46.9771 17.1256 56.1106 17.1256 66.3456C17.1256 84.3295 31.6684 98.913 49.6135 98.913C67.5587 98.913 82.1015 84.3295 82.1015 66.3456C82.1015 57.2786 78.405 49.0763 72.4396 43.171V30.0219C72.4396 29.7341 72.3254 29.458 72.1224 29.2543L69.7287 26.8547L89.1065 2.85678C89.3696 2.531 89.4222 2.0831 89.2417 1.70529C89.0611 1.32748 88.6796 1.08696 88.2609 1.08696H59.2754C58.9448 1.08696 58.632 1.23749 58.4259 1.49595L49.6135 12.5392L40.8013 1.49595C40.595 1.23749 40.2824 1.08696 39.9517 1.08696H18.2224ZM62.4996 28.6874H67.7296C67.7335 28.6874 67.7376 28.6874 67.7417 28.6874H68.4863L70.2657 30.4713V41.2041C69.0487 40.1982 67.7572 39.2793 66.4009 38.4571V32.9276C66.4009 32.3274 65.9144 31.8406 65.3139 31.8406C65.2172 31.8406 65.1233 31.8534 65.0339 31.8771C65.0104 31.8387 64.9846 31.8013 64.9559 31.7656L62.4996 28.6874ZM64.227 33.5239C64.1872 33.5282 64.147 33.5304 64.1063 33.5304H56.8694C56.8635 33.5306 56.8576 33.5306 56.8517 33.5304L36.2078 33.5306V36.6713C40.2946 34.813 44.8333 33.7782 49.6135 33.7782C54.87 33.7782 59.8346 35.0293 64.227 37.2508V33.5239ZM64.227 39.7104C59.893 37.315 54.9117 35.9521 49.6135 35.9521C44.8009 35.9521 40.2498 37.0767 36.2078 39.0782V39.7082C36.2078 40.3087 35.7211 40.7952 35.1209 40.7952C34.6967 40.7952 34.3296 40.5523 34.1502 40.1982C33.1904 40.7702 32.2646 41.3937 31.3768 42.065V43.3406H29.8018C23.3701 48.9134 19.2995 57.1521 19.2995 66.3456C19.2995 83.1341 32.8741 96.7391 49.6135 96.7391C66.353 96.7391 79.9276 83.1341 79.9276 66.3456C79.9276 58.4045 76.8904 51.1758 71.918 45.7621H70.2657V44.0965C68.8996 42.8213 67.4159 41.6708 65.8326 40.6637C65.6785 40.7476 65.5017 40.7952 65.3139 40.7952C64.7146 40.7952 64.2283 40.3097 64.227 39.7104ZM31.3768 39.3893C32.2341 38.8054 33.1207 38.2615 34.0339 37.7602V32.8091L31.8796 29.9674L31.3768 30.4715V39.3893ZM67.2102 26.5134H60.9991L51.0102 14.2741L59.7987 3.26087H85.9861L67.2102 26.5134ZM25.2322 68.0534C24.6941 54.1304 35.8361 42.6273 49.6146 42.6273C56.3489 42.6273 62.7163 45.3884 67.3174 50.253C68.3209 51.3141 68.2089 52.9991 67.0967 53.9271C66.0676 54.7858 64.5609 54.6823 63.6491 53.7195C59.9985 49.8641 54.9533 47.678 49.6144 47.678C38.69 47.678 29.8449 56.8026 30.2719 67.8552C30.661 77.9276 38.8076 86.0913 48.8485 86.4813C59.8663 86.9091 68.9715 78.046 68.9715 67.0871C68.9715 64.1615 68.3122 61.2728 67.057 58.661C66.4831 57.4665 66.9261 56.0254 68.0837 55.3676C69.3702 54.6365 70.9785 55.1713 71.6072 56.4815C73.1872 59.7739 74.0154 63.4082 74.0154 67.0876C74.0154 80.8934 62.5461 92.068 48.6511 91.5289C35.9815 91.0369 25.7227 80.7491 25.2322 68.0534ZM49.6146 44.8013C37.07 44.8013 26.914 55.2787 27.4045 67.9695C27.8514 79.5352 37.205 88.9089 48.7354 89.3565C61.387 89.8476 71.8415 79.6704 71.8415 67.0873C71.8415 63.733 71.0861 60.4204 69.6472 57.4219C69.5515 57.2226 69.3248 57.1628 69.1578 57.2576C68.9998 57.3474 68.9341 57.5482 69.0165 57.7195C70.4133 60.626 71.1454 63.8365 71.1454 67.0871C71.1454 79.2691 61.0254 89.1297 48.7641 88.6537C37.5839 88.2193 28.5324 79.1415 28.0996 67.9391C27.625 55.6543 37.4561 45.5041 49.6144 45.5041C55.5528 45.5041 61.168 47.9376 65.2276 52.2247C65.3602 52.365 65.567 52.3721 65.7037 52.2582C65.8624 52.1258 65.8722 51.8887 65.738 51.7467C61.5459 47.3147 55.7489 44.8013 49.6146 44.8013ZM47.3987 54.9913C46.4004 54.9913 45.4917 55.1995 44.6572 55.6087C44.0163 55.9228 43.2791 56.4787 42.4487 57.323L43.4748 58.4056C43.922 57.9743 44.3485 57.6258 44.752 57.3797C45.4257 56.9687 46.1661 56.7571 46.9528 56.7571C47.8987 56.7571 48.7372 57.1037 49.3663 57.8165C50.0313 58.5571 50.2689 59.5591 50.2689 60.6252C50.2689 61.5165 50.1513 62.3871 49.9152 63.2345L49.9141 63.2384C49.6794 64.068 49.3213 64.92 48.8507 65.7926L48.8478 65.798C48.3759 66.6613 47.5363 67.9456 46.3563 69.626L42.2607 75.4376V77.3665H53.032V75.5345H45.1228V73.9404L45.3537 73.6454C47.8798 70.4163 49.4161 68.3913 49.9974 67.5334C50.5785 66.665 51.0515 65.8447 51.4213 65.0721L51.4239 65.0667C51.8 64.2921 52.0746 63.5332 52.2528 62.7889C52.4294 62.051 52.5202 61.2593 52.5202 60.41C52.5202 58.566 52.0274 57.2708 51.1715 56.3782L51.1676 56.3743C50.3289 55.491 49.1226 54.9913 47.3987 54.9913ZM43.7004 53.6567C44.8472 53.0945 46.085 52.8173 47.3987 52.8173C49.5702 52.8173 51.4017 53.4647 52.7422 54.8756C54.0865 56.2782 54.6941 58.1717 54.6941 60.41C54.6941 61.4147 54.5865 62.3776 54.367 63.295C54.1491 64.2052 53.8187 65.1115 53.3811 66.0132C52.9589 66.8947 52.4311 67.8054 51.8026 68.745L51.7991 68.7502C51.2817 69.5141 50.1196 71.0578 48.332 73.3606H55.2059V79.5404H40.0867V74.7486L44.5772 68.3767C45.7515 66.7043 46.5293 65.5065 46.9387 64.7582C47.3476 63.9993 47.6383 63.2967 47.8217 62.6487C48.0035 61.9958 48.095 61.3223 48.095 60.6252C48.095 59.8397 47.9152 59.4537 47.7474 59.2676L47.7378 59.2569C47.5528 59.0463 47.3254 58.931 46.9528 58.931C46.5726 58.931 46.223 59.0287 45.8844 59.2354C45.513 59.4621 44.98 59.9267 44.2759 60.7076L43.4885 61.5806L39.4872 57.358L40.143 56.6128C41.3444 55.248 42.5283 54.2313 43.7004 53.6567Z" fill="black"/>
</svg>
