<svg width="100" height="100" viewBox="0 0 100 100" fill="none" xmlns="http://www.w3.org/2000/svg">
<path d="M77.4519 0H22.5481C10.1148 0 0 10.1148 0 22.5481V77.4519C0 89.8852 10.1148 100 22.5481 100H77.4519C89.8852 100 100 89.8852 100 77.4519V22.5481C100 10.1148 89.8852 0 77.4519 0ZM96.2963 77.4519C96.2963 87.8444 87.8426 96.2963 77.4519 96.2963H22.5481C12.1574 96.2963 3.7037 87.8444 3.7037 77.4519V22.5481C3.7037 12.1556 12.1574 3.7037 22.5481 3.7037H77.4519C87.8426 3.7037 96.2963 12.1556 96.2963 22.5481V77.4519Z" fill="black"/>
<path d="M79.3907 16.4184L38.65 21.7073C37.7278 21.8277 37.037 22.6129 37.037 23.5444V31.4814V37.0369V68.0314C34.4982 65.5721 30.8778 64.0221 26.8519 64.0221C19.1926 64.0221 12.963 69.6018 12.963 76.4573C12.963 83.3129 19.1926 88.8888 26.8519 88.8888C34.5111 88.8888 40.7407 83.311 40.7407 76.4555V38.6629L77.7778 33.8518V56.0906C75.2648 53.6518 71.6945 52.1166 67.7241 52.1166C60.1389 52.1166 53.9685 57.6962 53.9685 64.5518C53.9685 71.4073 60.1407 76.9851 67.7241 76.9851C75.3093 76.9851 81.4815 71.4073 81.4815 64.5518V31.7462V26.1906V18.2536C81.4815 17.7203 81.2519 17.2129 80.8519 16.8629C80.45 16.5129 79.9148 16.3462 79.3907 16.4184ZM26.8519 85.1851C21.2352 85.1851 16.6667 81.2703 16.6667 76.4555C16.6667 71.6406 21.2352 67.724 26.8519 67.724C32.4685 67.724 37.037 71.6406 37.037 76.4555C37.037 81.2703 32.4685 85.1851 26.8519 85.1851ZM40.7407 34.9277V31.4814V25.1721L77.7778 20.3629V26.1888V30.1166L40.7407 34.9277ZM67.7241 73.2795C62.1815 73.2795 57.6722 69.3647 57.6722 64.5499C57.6722 59.7351 62.1815 55.8184 67.7241 55.8184C73.2667 55.8184 77.7778 59.7369 77.7778 64.5499C77.7778 69.3629 73.2667 73.2795 67.7241 73.2795Z" fill="black"/>
</svg>
