<svg width="100" height="100" viewBox="0 0 100 100" fill="none" xmlns="http://www.w3.org/2000/svg">
<path fill-rule="evenodd" clip-rule="evenodd" d="M0 50C0 22.3858 22.3858 0 50 0C77.6142 0 100 22.3858 100 50C100 77.6142 77.6142 100 50 100C22.3858 100 0 77.6142 0 50ZM49.966 50.8027C57.3392 50.8027 63.3325 45.0165 63.3325 37.9033C63.3325 30.7877 57.3392 25 49.966 25C42.5946 25 36.5996 30.7877 36.5996 37.9033C36.5996 45.0165 42.5946 50.8027 49.966 50.8027ZM63.17 58.2312C60.7531 59.6965 58.129 60.7356 55.4083 61.334L62.8804 68.5475C64.4112 70.0221 64.4112 72.4169 62.8804 73.8929C61.3512 75.369 58.8729 75.369 57.3452 73.8929L49.9985 66.8044L42.6583 73.8929C41.8929 74.6302 40.89 74.9992 39.8871 74.9992C38.8858 74.9992 37.8846 74.6302 37.1192 73.8929C35.59 72.4169 35.59 70.0238 37.1175 68.5475L44.5906 61.334C41.8698 60.7356 39.2458 59.695 36.829 58.2312C34.9998 57.1181 34.4504 54.7858 35.6029 53.0187C36.7521 51.2492 39.169 50.7167 41.0012 51.8298C46.4733 55.1525 53.5225 55.1533 58.9977 51.8298C60.8298 50.7167 63.246 51.2492 64.3977 53.0187C65.55 54.7842 64.999 57.1181 63.17 58.2312Z" fill="black"/>
<path d="M49.966 32.561C53.0179 32.561 55.5004 34.9565 55.5004 37.9025C55.5004 40.846 53.0179 43.2431 49.966 43.2431C46.9165 43.2431 44.4317 40.846 44.4317 37.9025C44.4317 34.9565 46.9165 32.561 49.966 32.561Z" fill="black"/>
</svg>
