<svg width="100" height="100" viewBox="0 0 100 100" fill="none" xmlns="http://www.w3.org/2000/svg">
<path d="M69.8702 60.5754L60.9048 67.2536L59.0889 73.0863C45.8848 65.1738 34.8262 54.1152 26.9137 40.9111L32.7464 39.0953L39.4246 30.1298L18.0679 0L7.98237 4.77725L0 24.163L0.205225 24.7889C5.92037 42.2117 15.7945 58.2742 28.76 71.2397C41.7256 84.2053 57.7881 94.0794 75.2108 99.7945L75.8367 99.9998L95.2227 92.0174L99.9998 81.9321L69.8702 60.5754ZM35.0157 30.0777L31.6988 34.5304L12.0522 6.79644L16.8891 4.50544L35.0157 30.0777ZM75.6995 96.1989C59.0465 90.6277 43.6994 81.1345 31.2824 68.7176C18.8655 56.3006 9.37234 40.9535 3.8013 24.3003L9.78541 9.76733L28.7879 36.5919L21.6012 38.8294L22.6937 40.7544C31.3502 56.0105 43.99 68.6503 59.2461 77.3068L61.1713 78.3993L63.4086 71.2126L90.2331 90.2148L75.6995 96.1989ZM93.2036 87.9479L65.4694 68.3012L69.9221 64.9843L95.4946 83.1109L93.2036 87.9479Z" fill="black"/>
</svg>
