<svg width="100" height="100" viewBox="0 0 100 100" fill="none" xmlns="http://www.w3.org/2000/svg">
<path fill-rule="evenodd" clip-rule="evenodd" d="M50 0C22.3858 0 0 22.3858 0 50C0 77.6142 22.3858 100 50 100C77.6142 100 100 77.6142 100 50C100 22.3858 77.6142 0 50 0ZM34.9746 25C35.1225 25.1173 35.2398 25.1173 35.3571 25.1021C35.9644 25.051 36.4848 25.199 36.8215 25.7552C36.8808 25.8515 36.9402 25.9477 36.9998 26.0442C37.696 27.1725 38.3933 28.3029 39.0562 29.4592C39.536 30.2952 39.9937 31.1448 40.4519 31.9952C40.7879 32.6188 41.1242 33.2429 41.4696 33.8625C41.6031 34.1135 41.7702 34.35 41.9373 34.5867C42.0317 34.7202 42.126 34.8537 42.2144 34.99C42.4275 35.329 42.6312 35.6771 42.8304 36.0169L42.8623 36.0717C43.291 36.8829 43.2706 37.6992 42.6327 38.3471C41.9615 39.0335 41.24 39.6837 40.5198 40.3327C40.2656 40.5617 40.0117 40.7904 39.7602 41.0206C39.4477 41.3075 39.1304 41.59 38.8133 41.8721C38.3127 42.3175 37.8127 42.7625 37.3317 43.2248C36.7194 43.8167 36.5612 44.5565 36.9746 45.3371C37.0127 45.4087 37.051 45.4804 37.0892 45.5519C37.6885 46.6742 38.2869 47.795 38.944 48.8933C41.5358 53.2148 44.8471 56.8883 49.0308 59.72C50.6431 60.8169 52.3217 61.8221 54.0156 62.7812C55.6125 63.6844 56.235 63.5312 57.4748 62.1485C58.1298 61.4212 58.7715 60.6875 59.414 59.9527C59.9027 59.3935 60.3921 58.8337 60.8881 58.276C61.1637 57.9648 61.4954 57.6894 61.8169 57.424C62.4698 56.8729 63.1842 56.8117 63.9342 57.1894C63.9812 57.2123 64.029 57.2346 64.0769 57.2571C64.2423 57.3348 64.4092 57.4129 64.5515 57.5158C65.8819 58.4677 67.3173 59.2323 68.7508 59.996C69.4612 60.3746 70.1715 60.7529 70.8679 61.1537C71.586 61.5665 72.2919 61.9977 72.9956 62.4279C73.3969 62.6731 73.7977 62.9179 74.1996 63.1587C74.7967 63.5108 75.0365 64.0262 74.9956 64.7354C74.8833 66.7302 74.5517 68.6896 73.3935 70.3731C72.9087 71.0723 72.22 71.6844 71.526 72.1794C69.6027 73.5262 67.4546 74.3579 65.169 74.8681C63.0923 75.3325 61.0208 75.1642 59.031 74.5417C55.1892 73.3579 51.4033 72.0008 47.9185 69.9446C44.7552 68.0721 41.8777 65.8119 39.2144 63.2865C35.8419 60.0771 32.8317 56.5771 30.3979 52.5923C28.811 50.0056 27.6785 47.2198 26.6529 44.3779C26.0304 42.6635 25.4181 40.9646 25.1427 39.1481C24.8265 37.0921 25.0458 35.1125 25.704 33.1633C26.2958 31.4031 27.0356 29.7194 28.1529 28.2144C29.0304 27.046 30.1275 26.1887 31.5458 25.806C32.3473 25.5942 33.1537 25.4125 33.96 25.2308C34.2983 25.1546 34.6367 25.0783 34.9746 25Z" fill="black"/>
</svg>
