<svg width="100" height="100" viewBox="0 0 100 100" fill="none" xmlns="http://www.w3.org/2000/svg">
<path d="M92.0017 25.8333H77.795L71.1283 9.16663H28.8717L22.205 25.8333H20V17.5H10V25.8333H7.99833C3.58667 25.8333 0 29.42 0 33.8316V82.7783C0 87.22 3.61333 90.8333 8.055 90.8333H91.945C96.3867 90.8333 100 87.22 100 82.7783V33.8316C100 29.42 96.4133 25.8333 92.0017 25.8333ZM13.3333 20.8333H16.6667V25.8333H13.3333V20.8333ZM96.6667 82.7783C96.6667 85.3833 94.5483 87.5 91.945 87.5H8.055C5.45167 87.5 3.33333 85.3816 3.33333 82.7783V33.8316C3.33333 31.26 5.42667 29.1666 7.99833 29.1666H10H20H24.4617L31.1283 12.5H68.8717L75.5383 29.1666H92.0017C94.5733 29.1666 96.6667 31.26 96.6667 33.8316V82.7783Z" fill="black"/>
<path d="M50 24.1666C33.4583 24.1666 20 37.625 20 54.1666C20 70.7083 33.4583 84.1666 50 84.1666C66.5417 84.1666 80 70.7083 80 54.1666C80 37.625 66.5417 24.1666 50 24.1666ZM50 80.8333C35.2967 80.8333 23.3333 68.87 23.3333 54.1666C23.3333 39.4633 35.2967 27.5 50 27.5C64.7033 27.5 76.6667 39.4633 76.6667 54.1666C76.6667 68.87 64.7033 80.8333 50 80.8333Z" fill="black"/>
<path d="M50 34.1666C38.9717 34.1666 30 43.1383 30 54.1666C30 65.195 38.9717 74.1666 50 74.1666C61.0283 74.1666 70 65.195 70 54.1666C70 43.1383 61.0283 34.1666 50 34.1666ZM50 70.8333C40.81 70.8333 33.3333 63.3566 33.3333 54.1666C33.3333 44.9766 40.81 37.5 50 37.5C59.19 37.5 66.6667 44.9766 66.6667 54.1666C66.6667 63.3566 59.19 70.8333 50 70.8333Z" fill="black"/>
<path d="M86.6667 32.5C82.99 32.5 80 35.49 80 39.1667C80 42.8433 82.99 45.8333 86.6667 45.8333C90.3433 45.8333 93.3333 42.8433 93.3333 39.1667C93.3333 35.49 90.3433 32.5 86.6667 32.5ZM86.6667 42.5C84.8283 42.5 83.3333 41.005 83.3333 39.1667C83.3333 37.3283 84.8283 35.8333 86.6667 35.8333C88.505 35.8333 90 37.3283 90 39.1667C90 41.005 88.505 42.5 86.6667 42.5Z" fill="black"/>
</svg>
