<svg width="100" height="100" viewBox="0 0 100 100" fill="none" xmlns="http://www.w3.org/2000/svg">
<path d="M98.2759 10.3448H1.72414C0.772414 10.3448 0 11.1155 0 12.069V87.931C0 88.8845 0.772414 89.6552 1.72414 89.6552H98.2759C99.2276 89.6552 100 88.8845 100 87.931V12.069C100 11.1155 99.2276 10.3448 98.2759 10.3448ZM96.5517 86.2069H3.44828V13.7931H96.5517V86.2069Z" fill="black"/>
<path d="M27.5862 48.5138C32.881 48.5138 37.1879 44.2069 37.1879 38.9138C37.1879 33.6172 32.881 29.3103 27.5862 29.3103C22.2914 29.3103 17.9845 33.6172 17.9845 38.9121C17.9845 44.2069 22.2914 48.5138 27.5862 48.5138ZM27.5862 32.7586C30.9793 32.7586 33.7397 35.5207 33.7397 38.9121C33.7397 42.3035 30.9793 45.0655 27.5862 45.0655C24.1931 45.0655 21.4328 42.3052 21.4328 38.9138C21.4328 35.5224 24.1931 32.7586 27.5862 32.7586Z" fill="black"/>
<path d="M12.069 79.3104C12.4724 79.3104 12.8793 79.169 13.2069 78.8811L41.3327 54.119L59.0948 71.8793C59.769 72.5535 60.8586 72.5535 61.5327 71.8793C62.2069 71.2052 62.2069 70.1155 61.5327 69.4414L53.2448 61.1535L69.0741 43.819L88.4896 61.6173C89.1914 62.2604 90.2827 62.2121 90.9258 61.5104C91.569 60.8086 91.5224 59.7173 90.819 59.0742L70.1293 40.1086C69.7914 39.8 69.3414 39.6466 68.8879 39.6569C68.431 39.6776 68 39.8793 67.6914 40.2173L50.8052 58.7121L42.6276 50.5345C41.9827 49.8914 40.9517 49.8586 40.269 50.4586L10.9293 76.2914C10.2138 76.9207 10.1448 78.0104 10.7741 78.7259C11.1155 79.1138 11.5914 79.3104 12.069 79.3104Z" fill="black"/>
</svg>
