<svg width="100" height="100" viewBox="0 0 100 100" fill="none" xmlns="http://www.w3.org/2000/svg">
<path d="M50 16.6674C40.81 16.6674 33.3334 24.1441 33.3334 33.334C33.3334 42.5238 40.81 50.0008 50 50.0008C59.19 50.0008 66.6666 42.524 66.6666 33.3342C66.6666 24.1443 59.19 16.6674 50 16.6674ZM50 46.6674C42.6484 46.6674 36.6666 40.6857 36.6666 33.334C36.6666 25.9822 42.6482 20.0006 50 20.0006C57.3518 20.0006 63.3334 25.9822 63.3334 33.334C63.3334 40.6857 57.3518 46.6674 50 46.6674Z" fill="black"/>
<path d="M50 0C31.6199 0 16.6666 14.9533 16.6666 33.3334C16.6666 43.7184 23.3416 53.8283 23.615 54.2385L48.6033 92.5768C48.9117 93.0484 49.4367 93.3334 50 93.3334C50.5633 93.3334 51.0883 93.0484 51.3967 92.5768L76.3133 54.375C76.6 53.9449 83.3332 43.7184 83.3332 33.3334C83.3334 14.9533 68.3801 0 50 0ZM73.5301 52.54L50 88.615L26.3967 52.4018C26.3334 52.3068 20 42.7184 20 33.3334C20 16.7918 33.4584 3.3334 50 3.3334C66.5416 3.3334 80 16.7918 80 33.3334C80 42.6949 73.6033 52.4301 73.5301 52.54Z" fill="black"/>
</svg>
