<svg width="100" height="100" viewBox="0 0 100 100" fill="none" xmlns="http://www.w3.org/2000/svg">
<g clip-path="url(#clip0_5_6232)">
<path d="M52.381 47.6188H69.0476C70.3626 47.6188 71.4286 48.6848 71.4286 49.9998C71.4286 51.3147 70.3626 52.3807 69.0476 52.3807H52.381V69.0474C52.381 70.3623 51.315 71.4283 50 71.4283C48.6851 71.4283 47.6191 70.3623 47.6191 69.0474V52.3807H30.9524C29.6374 52.3807 28.5714 51.3147 28.5714 49.9998C28.5714 48.6848 29.6374 47.6188 30.9524 47.6188H47.6191V30.9521C47.6191 29.6372 48.6851 28.5712 50 28.5712C51.315 28.5712 52.381 29.6372 52.381 30.9521V47.6188ZM50 99.9998C22.3858 99.9998 1.52588e-05 77.614 1.52588e-05 49.9998C1.52588e-05 22.3855 22.3858 -0.000244141 50 -0.000244141C77.6143 -0.000244141 100 22.3855 100 49.9998C100 77.614 77.6143 99.9998 50 99.9998ZM50 95.2378C74.9843 95.2378 95.2381 74.9841 95.2381 49.9998C95.2381 25.0154 74.9843 4.76166 50 4.76166C25.0157 4.76166 4.76192 25.0154 4.76192 49.9998C4.76192 74.9841 25.0157 95.2378 50 95.2378Z" fill="black"/>
</g>
<defs>
<clipPath id="clip0_5_6232">
<rect width="100" height="100" fill="white"/>
</clipPath>
</defs>
</svg>
