<svg width="100" height="100" viewBox="0 0 100 100" fill="none" xmlns="http://www.w3.org/2000/svg">
<path d="M52.6316 47.3684H71.0526C72.506 47.3684 73.6842 48.5466 73.6842 50C73.6842 51.4534 72.506 52.6316 71.0526 52.6316H52.6316V71.0526C52.6316 72.506 51.4534 73.6842 50 73.6842C48.5466 73.6842 47.3684 72.506 47.3684 71.0526V52.6316H28.9474C27.494 52.6316 26.3158 51.4534 26.3158 50C26.3158 48.5466 27.494 47.3684 28.9474 47.3684H47.3684V28.9474C47.3684 27.494 48.5466 26.3158 50 26.3158C51.4534 26.3158 52.6316 27.494 52.6316 28.9474V47.3684ZM0 13.1579C0 5.89099 5.89099 0 13.1579 0H86.8421C94.109 0 100 5.89099 100 13.1579V86.8421C100 94.109 94.109 100 86.8421 100H13.1579C5.89099 100 0 94.109 0 86.8421V13.1579ZM5.26316 13.1579V86.8421C5.26316 91.2023 8.79775 94.7368 13.1579 94.7368H86.8421C91.2023 94.7368 94.7368 91.2023 94.7368 86.8421V13.1579C94.7368 8.79775 91.2023 5.26316 86.8421 5.26316H13.1579C8.79775 5.26316 5.26316 8.79775 5.26316 13.1579Z" fill="black"/>
</svg>
