<svg width="100" height="100" viewBox="0 0 100 100" fill="none" xmlns="http://www.w3.org/2000/svg">
<path d="M75.7783 23.5267C75.235 23.2367 74.5733 23.2767 74.06 23.6233L37.3933 48.6233C36.94 48.9333 36.6667 49.4483 36.6667 50C36.6667 50.5517 36.94 51.0667 37.395 51.3767L74.0617 76.3767C74.3433 76.5683 74.6717 76.6667 75 76.6667C75.2667 76.6667 75.535 76.6033 75.7783 76.4733C76.325 76.185 76.6667 75.6183 76.6667 75V25C76.6667 24.3817 76.325 23.815 75.7783 23.5267ZM73.3333 71.845L41.2917 50L73.3333 28.155V71.845Z" fill="black"/>
<path d="M50 0C22.43 0 0 22.43 0 50C0 77.57 22.43 100 50 100C77.57 100 100 77.57 100 50C100 22.43 77.57 0 50 0ZM50 96.6667C24.2683 96.6667 3.33333 75.7317 3.33333 50C3.33333 24.2683 24.2683 3.33333 50 3.33333C75.7317 3.33333 96.6667 24.2683 96.6667 50C96.6667 75.7317 75.7317 96.6667 50 96.6667Z" fill="black"/>
<path d="M21.6667 76.6666H33.3333V23.3333H21.6667V76.6666ZM25 26.6666H30V73.3332H25V26.6666Z" fill="black"/>
</svg>
