<svg width="100" height="100" viewBox="0 0 100 100" fill="none" xmlns="http://www.w3.org/2000/svg">
<g clip-path="url(#clip0_5_6283)">
<path d="M0 13.8843C0 6.21623 6.21623 0 13.8843 0H47.2068C47.9433 0 48.6496 0.292563 49.1703 0.813327L95.2827 46.9257C101.572 53.2154 101.572 63.4131 95.2827 69.7028L69.7028 95.2827C63.4131 101.572 53.2154 101.572 46.9257 95.2827L0.813327 49.1703C0.292563 48.6496 0 47.9433 0 47.2068V13.8843ZM46.0566 5.55374H13.8843C9.28348 5.55374 5.55374 9.28348 5.55374 13.8843V46.0566L50.8528 91.3556C54.9736 95.4765 61.6549 95.4765 65.7757 91.3556L91.3556 65.7757C95.4765 61.6549 95.4765 54.9736 91.3556 50.8528L46.0566 5.55374ZM27.7687 22.215C24.7015 22.215 22.215 24.7015 22.215 27.7687C22.215 30.8359 24.7015 33.3224 27.7687 33.3224C30.8359 33.3224 33.3224 30.8359 33.3224 27.7687C33.3224 24.7015 30.8359 22.215 27.7687 22.215ZM27.7687 16.6612C33.9032 16.6612 38.8762 21.6342 38.8762 27.7687C38.8762 33.9032 33.9032 38.8762 27.7687 38.8762C21.6342 38.8762 16.6612 33.9032 16.6612 27.7687C16.6612 21.6342 21.6342 16.6612 27.7687 16.6612Z" fill="black"/>
</g>
<defs>
<clipPath id="clip0_5_6283">
<rect width="100" height="100" fill="white"/>
</clipPath>
</defs>
</svg>
