<svg width="100" height="100" viewBox="0 0 100 100" fill="none" xmlns="http://www.w3.org/2000/svg">
<path d="M90.2939 21.9238H82.0312V9.32617C82.0312 5.8743 79.233 3.07617 75.7812 3.07617H24.2188C20.7669 3.07617 17.9688 5.8743 17.9688 9.32617V21.9238H9.70609C4.35484 21.9238 0 26.2787 0 31.6299V72.6776C0 78.0288 4.35484 82.3837 9.70609 82.3837H13.4247C14.2883 82.3837 14.9872 81.6849 14.9872 80.8212C14.9872 79.9576 14.2883 79.2587 13.4247 79.2587H9.70609C6.0775 79.2587 3.125 76.3062 3.125 72.6776V31.6299C3.125 28.0013 6.0775 25.0488 9.70609 25.0488H90.2939C93.9223 25.0488 96.875 28.0013 96.875 31.6299V72.6776C96.875 76.3062 93.9223 79.2587 90.2939 79.2587H87.5C86.6363 79.2587 85.9375 79.9576 85.9375 80.8212C85.9375 81.6849 86.6363 82.3837 87.5 82.3837H90.2939C95.6452 82.3837 100 78.0288 100 72.6776V31.6299C100 26.2787 95.6452 21.9238 90.2939 21.9238ZM21.0938 9.32617C21.0938 7.60305 22.4956 6.20117 24.2188 6.20117H75.7812C77.5044 6.20117 78.9062 7.60305 78.9062 9.32617V21.8262H21.0938V9.32617Z" fill="black"/>
<path d="M68.75 70.3623H31.25C30.3878 70.3623 29.6891 71.0611 29.6891 71.9232C29.6891 72.7854 30.3878 73.4842 31.25 73.4842H68.75C69.612 73.4842 70.311 72.7854 70.311 71.9232C70.311 71.0611 69.612 70.3623 68.75 70.3623Z" fill="black"/>
<path d="M68.75 81.2998H31.25C30.3878 81.2998 29.6891 81.9986 29.6891 82.8607C29.6891 83.7229 30.3878 84.4217 31.25 84.4217H68.75C69.612 84.4217 70.311 83.7229 70.311 82.8607C70.311 81.9986 69.612 81.2998 68.75 81.2998Z" fill="black"/>
<path d="M12.4361 37.2505C14.162 37.2505 15.5611 35.8514 15.5611 34.1255C15.5611 32.3996 14.162 31.0005 12.4361 31.0005C10.7102 31.0005 9.3111 32.3996 9.3111 34.1255C9.3111 35.8514 10.7102 37.2505 12.4361 37.2505Z" fill="black"/>
<path d="M22.3214 37.2505C24.0473 37.2505 25.4464 35.8514 25.4464 34.1255C25.4464 32.3996 24.0473 31.0005 22.3214 31.0005C20.5955 31.0005 19.1964 32.3996 19.1964 34.1255C19.1964 35.8514 20.5955 37.2505 22.3214 37.2505Z" fill="black"/>
<path d="M32.2066 37.2505C33.9325 37.2505 35.3316 35.8514 35.3316 34.1255C35.3316 32.3996 33.9325 31.0005 32.2066 31.0005C30.4807 31.0005 29.0816 32.3996 29.0816 34.1255C29.0816 35.8514 30.4807 37.2505 32.2066 37.2505Z" fill="black"/>
<path d="M17.1875 96.9238H82.8125V56.2988H17.1875V96.9238ZM20.9433 60.0546H79.0567V93.168H20.9433V60.0546Z" fill="black"/>
</svg>
