<svg width="100" height="101" viewBox="0 0 100 101" fill="none" xmlns="http://www.w3.org/2000/svg">
<path fill-rule="evenodd" clip-rule="evenodd" d="M58.6191 2.48686C59.2009 2.11455 59.9632 2.19725 60.4518 2.68564L98.0988 40.3328C98.5944 40.8284 98.6712 41.6049 98.2824 42.1884L75.115 76.9393C74.6862 77.5825 73.8329 77.784 73.1618 77.4005L53.8135 66.3443L40.1241 78.6646C39.8541 78.9078 39.5035 79.0422 39.1403 79.0422H30.475V89.1781H21.7873V99.3137H2.94118C2.12899 99.3137 1.47059 98.6552 1.47059 97.8431V80.4675C1.47059 80.0664 1.63463 79.6822 1.92467 79.4049L34.3788 48.3616L21.9516 27.6495C21.5423 26.9673 21.7498 26.0832 22.4199 25.6543L58.6191 2.48686ZM25.2087 27.3614L37.5053 47.8558C37.8588 48.4449 37.7574 49.2002 37.2609 49.6752L4.41176 81.0961V87.2446L20.7672 72.1472C21.364 71.5963 22.2944 71.6334 22.8453 72.2302C23.3962 72.8269 23.359 73.7575 22.7622 74.3084L4.41176 91.2472V96.3725H18.8461V86.2369H27.5339V76.1011H38.5759L52.6362 63.4469C53.1079 63.0225 53.7985 62.9484 54.3494 63.2631L73.4291 74.1658L95.1665 41.5599L59.2082 5.60174L25.2087 27.3614ZM61.6676 16.9937C62.0762 16.9764 62.4735 17.13 62.7641 17.4176L82.43 36.8731C82.6938 37.134 82.8491 37.4852 82.865 37.8561L82.9876 40.7493C83.0041 41.139 82.8653 41.5193 82.6015 41.8066L78.4456 46.3308C78.1818 46.6178 77.8147 46.7887 77.425 46.8052L74.5315 46.9278C74.2562 46.9396 73.9832 46.8737 73.7435 46.7375L61.8632 39.9952C61.6279 39.8616 61.4338 39.6658 61.3029 39.429L53.4559 25.2693C53.345 25.0696 53.2823 24.8469 53.2726 24.6189L53.15 21.7255C53.1291 21.2343 53.3553 20.7651 53.7524 20.4753L57.9697 17.3978C58.2041 17.2267 58.4841 17.1288 58.7741 17.1165L61.6676 16.9937ZM59.3438 20.0361L56.1218 22.3872L56.1965 24.1473L63.6747 37.6416L74.8282 43.9714L76.6918 43.8925L80.0232 40.2655L79.9509 38.5578L61.1515 19.9594L59.3438 20.0361ZM38.1718 27.234C38.7829 26.6992 39.7121 26.7611 40.2471 27.3724L70.6541 62.1234C71.1891 62.7346 71.1271 63.6637 70.5159 64.1987C69.9047 64.7334 68.9756 64.6713 68.4406 64.0602L38.0335 29.3091C37.4985 28.6979 37.5606 27.7688 38.1718 27.234ZM32.9403 62.0522C33.5147 62.6264 33.5147 63.5575 32.9403 64.1319L27.1485 69.9237C26.5741 70.4981 25.643 70.4981 25.0687 69.9237C24.4944 69.3493 24.4944 68.4184 25.0687 67.844L30.8606 62.0522C31.435 61.4778 32.3659 61.4778 32.9403 62.0522Z" fill="black"/>
</svg>
