<svg width="89" height="101" viewBox="0 0 89 101" fill="none" xmlns="http://www.w3.org/2000/svg">
<path fill-rule="evenodd" clip-rule="evenodd" d="M30.5881 1.79977C30.8381 1.71655 31.1067 1.70625 31.3625 1.77007L37.0122 3.17968C37.2747 3.24515 37.5122 3.38573 37.6958 3.5842L50.8239 17.7781V14.3946C50.8239 14.0258 50.9706 13.6721 51.2317 13.4115L55.4689 9.18268C55.7294 8.92282 56.0822 8.77684 56.45 8.77684H60.6875C61.0553 8.77684 61.4081 8.92282 61.6686 9.18268L67.3183 14.8211C67.5233 15.0258 67.6592 15.2896 67.7069 15.5755L69.1194 24.0331C69.1319 24.1088 69.1383 24.1853 69.1383 24.2619V39.7677C69.1383 39.8254 69.1347 39.8832 69.1278 39.9404L67.8453 50.179L86.6572 58.2254C87.1683 58.444 87.5 58.9465 87.5 59.5024V97.5621C87.5 98.0085 87.2856 98.4277 86.9236 98.6885C86.5617 98.9496 86.0961 99.021 85.6728 98.8799L72.9608 94.651C72.935 94.6427 72.9094 94.6332 72.8844 94.6232L66.07 91.9029H55.2692L49.9475 93.7288L45.8111 95.9646C45.6083 96.0743 45.3814 96.1318 45.1506 96.1318H35.2636C35.1725 96.1318 35.0814 96.1227 34.9917 96.1049L27.9297 94.6952C27.8089 94.6713 27.6917 94.631 27.5814 94.576L21.9317 91.7568C21.8802 91.731 21.8303 91.7021 21.7824 91.6704L13.3079 86.0318C13.2318 85.9813 13.1608 85.9232 13.0961 85.8585L8.85881 81.6299C8.79406 81.5652 8.73583 81.4943 8.68503 81.4182L5.86017 77.1893C5.78025 77.0696 5.71942 76.9385 5.67983 76.8002L4.26739 71.8665C4.14342 71.4332 4.23717 70.9671 4.51894 70.6154L7.34381 67.0915C7.53386 66.8543 7.79644 66.686 8.09128 66.6127L8.423 66.5299H7.01508C6.64719 66.5299 6.29433 66.3838 6.03397 66.124L3.20911 63.3046C3.03075 63.1268 2.90417 62.9035 2.84294 62.659L1.43052 57.0207C1.33527 56.6404 1.40513 56.2377 1.62287 55.9115L4.44772 51.6829C4.49856 51.6068 4.55678 51.536 4.62153 51.4713L17.3334 38.7846C17.5564 38.5621 17.8483 38.4221 18.1614 38.3874L27.9967 37.2965L27.3798 36.681L24.8081 35.3977L17.887 32.6349L12.3286 31.2479C12.1743 31.2096 12.0278 31.1449 11.8954 31.0568L7.65814 28.2374C7.58203 28.1868 7.51111 28.1288 7.44639 28.0642L6.03397 26.6546C5.77289 26.3941 5.62619 26.0404 5.62619 25.6715V21.4427C5.62619 21.1681 5.70761 20.8996 5.86017 20.6712L8.68503 16.4423C8.94272 16.0566 9.376 15.825 9.83994 15.825H12.6648C12.7411 15.825 12.8174 15.8312 12.8927 15.8438L21.3672 17.2534C21.4189 17.262 21.4699 17.2735 21.5202 17.2878L31.385 20.1007L32.1422 20.2896L27.2204 15.3777C27.1147 15.2721 27.0267 15.1503 26.9598 15.0167L24.1349 9.37823C23.9696 9.04832 23.9424 8.66615 24.0593 8.31612L25.4717 4.08729C25.6102 3.67262 25.9359 3.3474 26.3507 3.2094L30.5881 1.79977ZM36.1922 24.163L30.6903 22.7903L30.6456 22.7783L20.834 19.9806L12.5501 18.6027H10.5824L8.40397 21.8639V25.0954L9.31131 26.001L13.2341 28.611L18.6507 29.9624C18.7115 29.9776 18.7713 29.9968 18.8294 30.0202L25.8916 32.8393C25.9273 32.8535 25.9624 32.8693 25.9968 32.8865L28.8217 34.296C28.9553 34.3627 29.0769 34.4504 29.1825 34.5557L31.6008 36.9693H47.4597L46.6711 34.6079L44.0581 28.0881L36.1922 24.163ZM48.3875 39.7471H31.1031L18.9512 41.0946L6.68114 53.3401L4.27461 56.9427L5.44392 61.6107L7.58956 63.7521H11.0274L14.5993 62.5638L17.1596 58.731C17.2614 58.5785 17.3925 58.4477 17.5452 58.346L21.7824 55.5268C21.8177 55.5035 21.8541 55.4815 21.8913 55.4613L26.1286 53.1707C26.1557 53.156 26.1833 53.1424 26.2114 53.1296L30.4486 51.1913C30.63 51.1082 30.8269 51.0654 31.0264 51.0654H36.6761C37.14 51.0654 37.5733 51.2971 37.8311 51.6829L40.6558 55.9115C40.6878 55.9596 40.7169 56.0096 40.7428 56.061L43.5675 61.6996C43.6644 61.8927 43.7147 62.1057 43.7147 62.3215V67.9602C43.7147 68.2349 43.6333 68.5032 43.4808 68.7315L40.6558 72.9604C40.5539 73.1129 40.4231 73.2438 40.2703 73.3454L36.0331 76.1646C35.805 76.3163 35.5375 76.3971 35.2636 76.3971H28.2014C27.9014 76.3971 27.6095 76.2999 27.3693 76.1201L21.7195 71.8913C21.6669 71.8518 21.6172 71.8088 21.5707 71.7624L17.74 67.9393H14.2479L9.21822 69.1943L7.13558 71.7924L8.29058 75.8268L10.9184 79.7607L14.961 83.7954L23.2492 89.3099L28.6556 92.0077L35.4008 93.354H44.7992L48.7275 91.2304C48.7947 91.194 48.865 91.1632 48.9372 91.1385L54.5869 89.2002C54.7319 89.1504 54.8844 89.1252 55.0378 89.1252H66.3372C66.5136 89.1252 66.6883 89.1588 66.8519 89.224L73.8764 92.0282L84.7222 95.6363V60.419L65.7908 52.3215C65.4522 52.1768 65.185 51.9032 65.0478 51.5613L59.4197 37.5188L52.4717 23.6507L35.9378 5.77454L31.0817 4.56295L27.8864 5.62593L26.8766 8.64937L29.3422 13.5708L37.4978 21.7101L45.7708 25.8384C46.0753 25.9903 46.3133 26.2487 46.44 26.5645L49.2647 33.6126C49.2747 33.6379 49.2842 33.6635 49.2928 33.6893L52.0694 42.0021L56.2281 48.9193L53.8472 50.3507L49.61 43.3027C49.5578 43.2157 49.5153 43.1232 49.4831 43.0271L48.3875 39.7471ZM15.59 65.1615H18.3145C18.6824 65.1615 19.0352 65.3077 19.2956 65.5674L23.4631 69.7265L28.6636 73.6193H34.8439L38.5003 71.1865L40.9369 67.5388V62.6502L38.2981 57.3827L35.9336 53.8432H31.3289L27.4089 55.6363L23.2682 57.8746L19.3151 60.5049L16.6446 64.5027C16.4731 64.7593 16.221 64.9518 15.9281 65.049L15.59 65.1615ZM65.6269 45.5393L61.9767 36.4318C61.9622 36.396 61.9464 36.3607 61.9292 36.3263L54.8669 22.2302C54.8083 22.1133 54.7336 22.0052 54.645 21.9092L53.6017 20.7814V14.9707L57.0247 11.5546H60.1128L65.0406 16.4725L66.3606 24.3771V39.681L65.6269 45.5393Z" fill="black"/>
</svg>
