<svg width="100" height="89" viewBox="0 0 100 89" fill="none" xmlns="http://www.w3.org/2000/svg">
<path fill-rule="evenodd" clip-rule="evenodd" d="M50 2.08301L50.0374 2.08395C60.9309 2.35998 76.2691 6.5719 86.7877 18.4439C97.3803 30.3992 102.809 49.801 94.4324 79.8428C94.255 80.4787 93.6759 80.9184 93.0156 80.9184H6.98435C6.3243 80.9184 5.74509 80.4787 5.5678 79.8428C-2.80879 49.801 2.6198 30.3992 13.2122 18.4439C23.7308 6.5719 39.0691 2.35998 49.9627 2.08395L50 2.08301ZM7.80209 76.8322C5.69583 68.7434 4.64624 61.5216 4.44632 55.0822H13.357C14.1692 55.0822 14.8276 54.424 14.8276 53.6116C14.8276 52.7995 14.1692 52.141 13.357 52.141H4.41385C4.49227 43.8713 6.02588 36.9713 8.52309 31.2392L15.6172 36.9916C16.248 37.5031 17.1741 37.4063 17.6857 36.7754C18.1972 36.1445 18.1004 35.2184 17.4696 34.7069L9.82818 28.5111C11.4314 25.446 13.3239 22.753 15.4137 20.3943C17.9317 17.5524 20.7542 15.1745 23.7341 13.2053L28.0233 20.4508L30.5541 18.9526L26.2395 11.6639C34.2421 7.08716 43.0441 5.20728 50 5.02513C50.0409 5.02622 50.0818 5.02734 50.1227 5.02851V14.8574C50.1227 15.6696 50.7809 16.328 51.5932 16.328C52.4053 16.328 53.0638 15.6696 53.0638 14.8574V5.20798C59.4368 5.79484 66.8929 7.73637 73.7606 11.664L69.4459 18.9526L71.9768 20.4508L76.2659 13.2053C79.2459 15.1746 82.0682 17.5524 84.5865 20.3943C86.6762 22.753 88.5685 25.446 90.1718 28.5111L82.5306 34.7069C81.8997 35.2184 81.803 36.1445 82.3144 36.7754C82.8259 37.4063 83.7521 37.5031 84.383 36.9916L91.4768 31.2392C93.9741 36.9713 95.5077 43.8713 95.5862 52.141H86.643C85.8309 52.141 85.1724 52.7995 85.1724 53.6116C85.1724 54.424 85.8309 55.0822 86.643 55.0822H95.5538C95.3538 61.5216 94.3041 68.7434 92.198 76.8322L84.4056 70.2504C83.785 69.7266 82.8571 69.8045 82.3332 70.4251C81.8091 71.0457 81.8874 71.9734 82.5077 72.4975L88.9956 77.9772H11.0045L17.4923 72.4975C18.1128 71.9734 18.191 71.0457 17.6669 70.4251C17.1428 69.8045 16.215 69.7266 15.5945 70.2504L7.80209 76.8322ZM57.663 38.0428L74.6341 37.464L66.6497 52.4507L62.9344 46.4945L57.62 49.8092C58.2321 50.9398 58.5794 52.2363 58.5794 53.6116C58.5794 57.9725 55.0865 61.5413 50.7362 61.5413C46.3859 61.5413 42.8929 57.9725 42.8929 53.6116C42.8929 49.251 46.3859 45.6819 50.7362 45.6819C52.6462 45.6819 54.3909 46.3698 55.7474 47.5107L61.378 43.999L57.663 38.0428ZM53.2756 49.3445C52.533 48.8863 51.6629 48.6231 50.7362 48.6231C48.0477 48.6231 45.8341 50.8378 45.8341 53.6116C45.8341 56.3854 48.0477 58.6001 50.7362 58.6001C53.425 58.6001 55.6382 56.3854 55.6382 53.6116C55.6382 52.8034 55.4503 52.0425 55.1177 51.3701L54.7012 51.6298L53.2756 49.3445ZM33.2115 71.5184H65.0747C65.8871 71.5184 66.5453 72.1766 66.5453 72.989C66.5453 73.801 65.8871 74.4595 65.0747 74.4595H33.2115V71.5184ZM4.657 85.9069C4.657 85.0948 5.31538 84.4363 6.12759 84.4363H93.7521C94.5641 84.4363 95.2227 85.0948 95.2227 85.9069C95.2227 86.7189 94.5641 87.3775 93.7521 87.3775H6.12759C5.31538 87.3775 4.657 86.7189 4.657 85.9069Z" fill="black"/>
</svg>
