<svg width="77" height="101" viewBox="0 0 77 101" fill="none" xmlns="http://www.w3.org/2000/svg">
<path fill-rule="evenodd" clip-rule="evenodd" d="M39.4576 2.25488H44.9326L48.6035 5.51797L50.5062 8.90053L47.6156 28.1713H50.9144L56.5856 31.5319V32.8352L57.8721 32.2634H63.0009L68.3806 33.8575L70.3965 37.4408V49.4419L75 53.534V85.8337L73.2979 90.3728L66.5921 99.3137H20.7964L10.8711 90.4914L4.53962 70.7931V61.6502L12.9697 55.2272L1.39151 15.9458L3.22656 11.0524L6.98559 7.71097H12.5513L17.9565 10.914L28.4807 40.1481L33.7559 7.32521L35.6579 3.94365L39.4576 2.25488ZM15.4737 53.3193L16.1956 52.7693L38.2991 50.7014V33.3487L40.315 29.7653L44.5923 28.4979L47.4476 9.46259L46.2815 7.38909L43.8144 5.19606H40.0818L37.7435 6.23535L36.5765 8.30988L30.48 46.2437L27.6444 46.5084L15.5473 12.9052L11.7453 10.6521H8.10385L5.72476 12.7669L4.49074 16.0576L15.4737 53.3193ZM46.1212 31.1125L42.2938 32.2466L41.2403 34.1193V50.4261L46.1538 49.9664L49.7832 51.5793L52.0462 53.5908L53.6444 52.1699V33.2078L50.1085 31.1125H46.1212ZM53.6444 56.1052L53.5168 56.2187V63.2164L47.9365 66.5234L37.5729 67.9405L42.4682 72.3602L44.3094 75.6334V80.1108H41.3682V76.404L40.1406 74.2211L33.7612 68.4616L28.417 69.1925L27.9092 70.0952L32.9129 73.4311L31.2815 75.8784L24.0089 71.0299L26.5701 66.4766L46.9485 63.6899L50.5756 61.5405V56.2187L48.1709 54.0814L45.6621 52.9664L17.3082 55.6193L7.48076 63.1069V70.3322L13.4255 88.8266L21.9146 96.3725H65.1215L70.692 88.9452L72.0588 85.3002V54.8549L70.3965 53.3769V58.9469L64.8815 63.849H59.4065L55.6068 62.1605L53.6444 58.6716V56.1052ZM56.5856 36.0537V57.9014L57.6923 59.8687L60.0309 60.9078H63.7632L67.4553 57.6261V38.2113L66.4018 36.3387L62.5744 35.2046H58.4962L56.5856 36.0537Z" fill="black"/>
</svg>
