<svg width="100" height="100" viewBox="0 0 100 100" fill="none" xmlns="http://www.w3.org/2000/svg">
<path d="M57.3086 29.4436H42.6912C41.7789 29.4436 41.0393 30.1831 41.0393 31.0956V89.5598C41.0393 90.4721 41.7789 91.2116 42.6912 91.2116H57.3086C58.2209 91.2116 58.9605 90.4721 58.9605 89.5596V31.0956C58.9605 30.1831 58.2209 29.4436 57.3086 29.4436ZM55.6566 87.9079H44.3432V32.7475H55.6566V87.9079Z" fill="black"/>
<path d="M30.6769 47.7065H16.0592C15.1469 47.7065 14.4072 48.446 14.4072 49.3585V59.5833C14.4072 60.4958 15.1469 61.2353 16.0592 61.2353C16.9715 61.2353 17.7111 60.4958 17.7111 59.5833V51.0104H29.0248V87.9057H17.7113V66.227C17.7113 65.3145 16.9717 64.5751 16.0594 64.5751C15.1471 64.5751 14.4074 65.3145 14.4074 66.227V89.5579C14.4074 90.4702 15.1471 91.2097 16.0594 91.2097H30.6769C31.5892 91.2097 32.3289 90.4702 32.3289 89.5577V49.3585C32.3289 48.446 31.5892 47.7065 30.6769 47.7065Z" fill="black"/>
<path d="M98.348 94.2939H1.65195C0.739649 94.2939 0 95.0334 0 95.9459C0 96.8584 0.739649 97.5978 1.65195 97.5978H98.348C99.2604 97.5978 100 96.8584 100 95.9459C100 95.0334 99.2604 94.2939 98.348 94.2939Z" fill="black"/>
<path d="M91.8557 16.9544L77.7881 2.88701C77.143 2.24209 76.0969 2.24209 75.4519 2.88701L61.3844 16.9544C60.9119 17.4271 60.7705 18.1374 61.0262 18.7548C61.2818 19.3722 61.8842 19.7745 62.5523 19.7745H67.6592V38.6784C67.6592 39.5909 68.3988 40.3304 69.3111 40.3304C70.2234 40.3304 70.9631 39.5909 70.9631 38.6784V18.1228C70.9631 17.2103 70.2234 16.4708 69.3111 16.4708H66.5406L76.6199 6.3915L86.6992 16.4708H83.9287C83.0164 16.4708 82.2768 17.2103 82.2768 18.1228V87.9075H70.9633V45.3241C70.9633 44.4116 70.2236 43.6722 69.3113 43.6722C68.399 43.6722 67.6594 44.4116 67.6594 45.3241V89.5597C67.6594 90.4722 68.399 91.2116 69.3113 91.2116H83.9287C84.841 91.2116 85.5807 90.4722 85.5807 89.5597V19.7747H90.6875C91.3559 19.7747 91.958 19.3724 92.2137 18.755C92.4693 18.1376 92.3281 17.4272 91.8557 16.9544Z" fill="black"/>
</svg>
