<svg width="77" height="101" viewBox="0 0 77 101" fill="none" xmlns="http://www.w3.org/2000/svg">
<path fill-rule="evenodd" clip-rule="evenodd" d="M38.2353 1.646L74.5694 37.9802C74.845 38.2558 75 38.6299 75 39.0199V44.9023C75 45.7146 74.3415 46.3729 73.5294 46.3729H60.2941V71.3728C60.2941 71.7628 60.1391 72.137 59.8635 72.4129L55.4518 76.8246C55.1759 77.1002 54.8018 77.2552 54.4118 77.2552H22.0588C21.6688 77.2552 21.2947 77.1002 21.019 76.8246L16.6072 72.4129C16.3314 72.137 16.1765 71.7628 16.1765 71.3728V46.3729H2.94118C2.12899 46.3729 1.47059 45.7146 1.47059 44.9023V39.0199C1.47059 38.6299 1.62552 38.2558 1.90131 37.9802L38.2353 1.646ZM4.41176 39.629V43.4317H19.1176V70.7637L22.668 74.314H53.8026L57.3529 70.7637V43.4317H72.0588V39.629L38.2353 5.80544L4.41176 39.629ZM38.2353 7.52835L48.0988 17.3917C48.6729 17.966 48.6729 18.8972 48.0988 19.4715C47.5244 20.0458 46.5932 20.0458 46.0188 19.4715L38.2353 11.6878L30.4518 19.4715C29.8773 20.0458 28.9462 20.0458 28.3719 19.4715C27.7976 18.8972 27.7976 17.966 28.3719 17.3917L38.2353 7.52835ZM54.4118 71.3728C54.4118 72.1852 53.7532 72.8434 52.9412 72.8434H23.5294C22.7172 72.8434 22.0588 72.1852 22.0588 71.3728C22.0588 70.5608 22.7172 69.9023 23.5294 69.9023H52.9412C53.7532 69.9023 54.4118 70.5608 54.4118 71.3728ZM21.019 79.1567C21.2947 78.8808 21.6688 78.7258 22.0588 78.7258H54.4118C54.8018 78.7258 55.1759 78.8808 55.4518 79.1567L58.3929 82.0979C58.6685 82.3734 58.8235 82.7476 58.8235 83.1376V97.8434C58.8235 98.6558 58.165 99.314 57.3529 99.314H19.1176C18.3055 99.314 17.6471 98.6558 17.6471 97.8434V83.1376C17.6471 82.7476 17.802 82.3734 18.0778 82.0979L21.019 79.1567ZM22.668 81.667L20.5882 83.7467V86.0787H23.5294C24.3416 86.0787 25 86.7373 25 87.5493V91.9611C25 92.7734 24.3416 93.4317 23.5294 93.4317H20.5882V96.3728H55.8823V93.4317H52.9412C52.1291 93.4317 51.4706 92.7734 51.4706 91.9611V87.5493C51.4706 86.7373 52.1291 86.0787 52.9412 86.0787H55.8823V83.7467L53.8026 81.667H22.668ZM55.8823 89.0199H54.4118V90.4905H55.8823V89.0199ZM20.5882 90.4905H22.0588V89.0199H20.5882V90.4905ZM29.4118 86.0787H33.8235C34.6356 86.0787 35.2941 86.7373 35.2941 87.5493V91.9611C35.2941 92.7734 34.6356 93.4317 33.8235 93.4317H29.4118C28.5996 93.4317 27.9412 92.7734 27.9412 91.9611V87.5493C27.9412 86.7373 28.5996 86.0787 29.4118 86.0787ZM30.8824 89.0199V90.4905H32.3529V89.0199H30.8824ZM41.1765 87.5493C41.1765 86.7373 41.835 86.0787 42.6471 86.0787H47.0588C47.8709 86.0787 48.5294 86.7373 48.5294 87.5493V91.9611C48.5294 92.7734 47.8709 93.4317 47.0588 93.4317H42.6471C41.835 93.4317 41.1765 92.7734 41.1765 91.9611V87.5493ZM44.1176 89.0199V90.4905H45.5882V89.0199H44.1176Z" fill="black"/>
</svg>
