<svg width="100" height="101" viewBox="0 0 100 101" fill="none" xmlns="http://www.w3.org/2000/svg">
<g clip-path="url(#clip0_5_6481)">
<path fill-rule="evenodd" clip-rule="evenodd" d="M22.2771 0.292358H77.723L78.077 0.499183C79.537 1.35194 81.5594 3.02183 82.1867 5.27169C82.3633 5.90639 82.4242 6.57412 82.337 7.25448C82.8673 7.07884 83.4042 6.91893 83.9454 6.77815C86.6227 6.08139 89.5203 5.82042 92.147 6.56712C94.8464 7.33451 97.1427 9.1376 98.5364 12.2955C99.8982 15.3819 100.363 19.6745 99.7048 25.4398C99.667 25.7703 99.5215 26.0793 99.2906 26.3189L75.2051 51.3287C73.6494 53.0345 71.97 55.2257 71.0476 57.1205C70.8694 57.649 70.6649 58.2142 70.4345 58.8084C70.3524 59.2278 70.3767 59.4848 70.4185 59.6221C70.4482 59.7205 70.4942 59.8039 70.6648 59.8972C70.8803 60.0157 71.3188 60.1548 72.1267 60.1657C72.9239 60.1763 73.9909 60.0615 75.3861 59.7596C76.2039 59.5827 77.0103 60.1024 77.1873 60.9202C77.3642 61.7381 76.8445 62.5445 76.0267 62.7215C74.4945 63.053 73.1864 63.2105 72.0855 63.1957C70.9949 63.1808 70.0112 62.9957 69.2061 62.5536C69.0976 62.4939 68.9936 62.4302 68.8939 62.3627C67.4597 65.3605 65.5297 68.6799 63.1524 71.6205C61.55 73.6027 59.7027 75.4633 57.6255 76.9296H58.0333C58.87 76.9296 59.5485 77.6081 59.5485 78.4448V86.3139H69.6412C69.977 86.3139 70.303 86.4254 70.5685 86.6305L76.6333 91.3227C77.0042 91.6096 77.2215 92.0521 77.2215 92.5211V100.292H22.7785V92.5211C22.7785 92.0521 22.9957 91.6096 23.3666 91.3227L29.4315 86.6305C29.697 86.4254 30.0231 86.3139 30.3588 86.3139H40.4515V78.4448C40.4515 77.6081 41.13 76.9296 41.9667 76.9296H42.3748C40.2973 75.4633 38.45 73.6027 36.8479 71.6205C34.4703 68.6799 32.5403 65.3605 31.1061 62.3627C31.0064 62.4302 30.9024 62.4939 30.7939 62.5536C29.9887 62.9957 29.0052 63.1808 27.9145 63.1957C26.8135 63.2105 25.5055 63.053 23.9733 62.7215C23.1555 62.5445 22.6359 61.7381 22.8128 60.9202C22.9897 60.1024 23.7962 59.5827 24.6141 59.7596C26.0091 60.0615 27.076 60.1763 27.8735 60.1657C28.6813 60.1548 29.1197 60.0157 29.3353 59.8972C29.5057 59.8039 29.5518 59.7205 29.5816 59.6221C29.6232 59.4848 29.6476 59.2278 29.5653 58.8084C29.3351 58.2142 29.1305 57.649 28.9525 57.1205C28.0301 55.2257 26.3506 53.0345 24.7948 51.3287L0.709255 26.3189C0.478452 26.0793 0.332955 25.7703 0.295224 25.4398C-0.362812 19.6745 0.101756 15.3819 1.46378 12.2955C2.85736 9.1376 5.15376 7.33451 7.85309 6.56712C10.4796 5.82042 13.3772 6.08139 16.0547 6.77815C16.5957 6.91893 17.1328 7.07884 17.6629 7.25448C17.5759 6.57412 17.6366 5.90639 17.8135 5.27169C18.4405 3.02183 20.4629 1.35194 21.9229 0.499183L22.2771 0.292358ZM21.1518 12.066C19.3975 11.1149 17.3577 10.2485 15.2915 9.71078C12.8979 9.0879 10.594 8.9383 8.68173 9.48193C6.84224 10.0049 5.26258 11.193 4.23612 13.5189C3.21097 15.842 2.71025 19.3729 3.25079 24.5895L26.0362 48.2493C21.9646 33.7078 21.0452 19.128 21.1518 12.066ZM32.4727 57.923C32.3139 57.2666 32.0591 56.6008 31.7527 55.9518C25.5353 39.7021 24.1217 21.2252 24.1754 12.7068H75.8245C75.8782 21.2252 74.4649 39.7021 68.2473 55.9518C67.9409 56.6008 67.6861 57.2666 67.5273 57.923C66.1609 61.3954 63.8579 65.9275 60.7958 69.7154C57.7267 73.5117 54.0673 76.3521 50 76.9169C45.9327 76.3521 42.2733 73.5117 39.2042 69.7154C36.1421 65.9275 33.8391 61.3954 32.4727 57.923ZM73.9639 48.2493C78.0355 33.7078 78.9548 19.128 78.8482 12.066C80.6024 11.1149 82.6424 10.2485 84.7085 9.71078C87.1021 9.0879 89.4061 8.9383 91.3182 9.48193C93.1579 10.0049 94.7373 11.193 95.7639 13.5189C96.7891 15.842 97.2897 19.3729 96.7491 24.5895L73.9639 48.2493ZM76.8909 9.67651H23.1091C21.8717 8.90199 21.2354 8.19572 20.9288 7.63487C20.6179 7.06642 20.5984 6.56645 20.7325 6.08527C21.0142 5.07478 22.022 4.03745 23.1168 3.32266H76.8833C77.9779 4.03745 78.9858 5.07478 79.2676 6.08527C79.4015 6.56645 79.3821 7.06642 79.0712 7.63487C78.7645 8.19572 78.1282 8.90199 76.8909 9.67651ZM43.4818 86.3139H56.5182V79.9599H43.4818V86.3139ZM30.8764 89.3442L25.8088 93.2645V97.2621H74.1912V93.2645L69.1236 89.3442H30.8764ZM30.303 92.7166C30.303 91.8799 30.9815 91.2014 31.8182 91.2014H68.1818C69.0185 91.2014 69.697 91.8799 69.697 92.7166C69.697 93.5533 69.0185 94.2318 68.1818 94.2318H31.8182C30.9815 94.2318 30.303 93.5533 30.303 92.7166Z" fill="black"/>
<path d="M52.98 65.4477H47.4285V47.6744C47.4285 45.7408 47.5251 43.5174 47.7185 41.0041C47.6218 41.1423 47.2627 41.5635 46.6412 42.2677C46.0336 42.972 44.8391 44.2356 43.0576 46.0587L39.9088 42.6199L47.967 35.1626H52.98V65.4477Z" fill="black"/>
</g>
<defs>
<clipPath id="clip0_5_6481">
<rect width="100" height="100" fill="white" transform="translate(0 0.292358)"/>
</clipPath>
</defs>
</svg>
