<svg width="100" height="96" viewBox="0 0 100 96" fill="none" xmlns="http://www.w3.org/2000/svg">
<path fill-rule="evenodd" clip-rule="evenodd" d="M68.7097 2.32527C71.6347 2.63052 74.3042 3.66888 75.9058 4.55252L76.0311 4.62154L76.1394 4.71463C81.9467 9.69793 83.0075 17.7122 82.2233 25.2783C81.4492 32.748 78.8439 40.1905 76.6239 44.896V53.1344C91.7817 56.2747 97.5803 68.9416 98.5925 75.0841C98.7172 75.841 98.205 76.5558 97.448 76.6805C96.6911 76.8052 95.9764 76.2927 95.8517 75.536C94.935 69.9724 89.4705 58.111 75.0028 55.6552L73.8461 55.4588V44.2666L73.9828 43.9816C76.1317 39.5033 78.7111 32.2199 79.4603 24.992C80.2094 17.7623 79.0944 11.0004 74.4392 6.91682C73.0922 6.1964 70.8436 5.34082 68.4214 5.08802C65.9258 4.82757 63.4192 5.21954 61.4625 6.83868L61.4319 6.86396L61.4 6.88746C57.7269 9.58915 51.1392 21.075 60.3994 44.0635L60.5 44.3133V52.6688C60.5 53.4358 59.8783 54.0577 59.1111 54.0577C58.3442 54.0577 57.7222 53.4358 57.7222 52.6688V44.8505C48.3853 21.4695 54.6242 8.45821 59.7219 4.67352C62.4503 2.43325 65.7928 2.02082 68.7097 2.32527ZM25.5607 6.91685C20.9053 11.0004 19.7904 17.7623 20.5396 24.992C21.2887 32.2199 23.8682 39.5033 26.017 43.9816L26.1537 44.2666V55.4588L24.9973 55.6552C10.5294 58.111 5.06494 69.9724 4.14814 75.5358C4.02342 76.2927 3.30875 76.8052 2.5519 76.6805C1.79505 76.5558 1.28261 75.841 1.40733 75.0841C2.41958 68.9416 8.21814 56.2747 23.3759 53.1344V44.896C21.156 40.1905 18.5507 32.748 17.7766 25.2783C16.9926 17.7122 18.0532 9.69793 23.8604 4.71463L23.9688 4.62154L24.094 4.55252C25.6957 3.66888 28.3653 2.63052 31.29 2.32527C34.2072 2.02082 37.5497 2.43325 40.2781 4.67352C45.3755 8.45827 51.6144 21.4695 42.2775 44.8505V52.6688C42.2775 53.4358 41.6558 54.0577 40.8886 54.0577C40.1217 54.0577 39.4997 53.4358 39.4997 52.6688V44.3133L39.6005 44.0635C48.8608 21.075 42.2731 9.58915 38.6 6.88746L38.568 6.86396L38.5375 6.83868C36.5808 5.21954 34.0739 4.82757 31.5783 5.08802C29.1564 5.34082 26.9076 6.1964 25.5607 6.91685ZM62.1011 65.2294C60.0917 65.2294 58.6283 65.8255 57.5564 66.9116C56.4992 67.9955 55.9047 69.5116 55.9047 71.6241C55.9047 72.743 56.0581 73.668 56.3308 74.4238C56.6306 75.2166 57.0428 75.9288 57.5683 76.5674C58.0997 77.1844 58.9242 77.8888 60.0939 78.6722C61.5564 79.6427 62.7108 80.5935 63.4603 81.5341C64.263 82.528 64.6917 83.6769 64.6917 84.9405C64.6917 86.1463 64.3486 87.2649 63.5222 88.1285C62.6625 89.0419 61.4694 89.3816 60.2097 89.3816C58.7325 89.3816 57.2156 88.9991 55.6683 88.2905V90.2144C57.0481 90.808 58.7078 91.1252 60.6825 91.1252C62.995 91.1252 64.5444 90.5052 65.5597 89.4647L65.5644 89.4599C66.5969 88.4122 67.2139 86.8144 67.2139 84.4444C67.2139 83.038 66.893 81.836 66.2828 80.7991L66.2772 80.7899C65.6942 79.7816 64.5864 78.6805 62.8064 77.5227C61.3772 76.6083 60.2492 75.718 59.5428 74.8433L59.5328 74.8308C58.7767 73.8719 58.4072 72.7438 58.4072 71.5097C58.4072 70.3391 58.6908 69.2352 59.4225 68.3649L59.4247 68.3622C60.2106 67.4319 61.3022 67.0302 62.495 67.0302C63.4497 67.0302 64.3642 67.2002 65.2239 67.5519C65.2253 67.5524 65.2269 67.553 65.2283 67.5535L64.7017 68.8388L65.2197 67.5502C65.2211 67.5508 65.2225 67.5513 65.2239 67.5519C65.4853 67.6569 65.7428 67.7672 65.9961 67.8824L65.4139 69.248L66.6917 69.7927L67.3747 68.5833C66.9292 68.3316 66.4694 68.098 65.9961 67.8824L66.6855 66.2652C67.0458 66.433 67.4044 66.6216 67.7614 66.8313L68.4647 65.6338L67.1872 65.0891L66.6855 66.2652C65.1908 65.5685 63.6658 65.2294 62.1011 65.2294ZM55.5758 64.9638C57.2619 63.2535 59.4886 62.4516 62.1011 62.4516C64.5722 62.4516 66.9344 63.1244 69.168 64.436L70.2214 65.0547L67.3603 71.7655L66.0086 71.0019C65.433 70.6769 64.8253 70.3852 64.1836 70.1274L64.1753 70.1241C63.6703 69.9172 63.115 69.808 62.495 69.808C61.9553 69.808 61.7072 69.9652 61.5475 70.1538C61.36 70.3774 61.185 70.7741 61.185 71.5097C61.185 72.1547 61.3653 72.666 61.7094 73.1047C62.1333 73.6272 62.9597 74.3235 64.3072 75.1852L64.3161 75.1908C66.288 76.473 67.7917 77.8622 68.6794 79.3949C69.5644 80.9005 69.9917 82.5969 69.9917 84.4444C69.9917 87.2874 69.2433 89.6824 67.5458 91.4069C65.8553 93.1377 63.4914 93.903 60.6825 93.903C58.0003 93.903 55.6261 93.393 53.6178 92.3044L52.8905 91.9105V83.431L55.0214 84.7774C57.0414 86.0535 58.7606 86.6038 60.2097 86.6038C60.9961 86.6038 61.3369 86.3983 61.5011 86.223L61.513 86.2102C61.7333 85.981 61.9139 85.6138 61.9139 84.9405C61.9139 84.3488 61.7267 83.8077 61.2972 83.2766L61.29 83.2677C60.8053 82.6585 59.9264 81.8947 58.5553 80.9849L58.5505 80.9816C57.258 80.1163 56.2072 79.2472 55.4517 78.3661L55.435 78.3466C54.7053 77.4635 54.1364 76.4774 53.7286 75.3952L53.7225 75.3794C53.3142 74.2541 53.1269 72.9941 53.1269 71.6241C53.1269 68.956 53.8978 66.6827 55.5711 64.9685L55.5758 64.9638ZM29.6328 62.8522H37.9111L41.5814 79.4683L45.213 62.8522H53.4961L46.0439 93.5216H37.0419L29.6328 62.8522ZM33.1617 65.6299L39.2286 90.7438H43.8603L49.9625 65.6299H47.4492L43.9644 81.5741L43.9622 81.5841C43.5544 83.3855 43.2136 85.4169 42.9422 87.681L40.1844 87.683C39.8581 84.9905 39.5306 82.9708 39.2067 81.5958L39.2022 81.5772L35.68 65.6299H33.1617Z" fill="black"/>
</svg>
