<svg width="100" height="101" viewBox="0 0 100 101" fill="none" xmlns="http://www.w3.org/2000/svg">
<g clip-path="url(#clip0_5_6491)">
<path fill-rule="evenodd" clip-rule="evenodd" d="M0 15H100V86.4286H0V15ZM2.85714 17.8571V22.3504C8.14271 22.1136 15.339 23.0829 21.48 26.7553C28.3551 30.8669 33.7663 38.2917 33.7663 50.7143C33.7663 63.1369 28.3551 70.5617 21.48 74.6731C15.339 78.3457 8.14271 79.3149 2.85714 79.0783V83.5714H48.5714V62.4571C47.0094 62.2031 45.1646 61.5197 43.5549 60.1503C41.3629 58.2851 39.7403 55.2614 39.7403 50.7143C39.7403 46.1671 41.3629 43.1434 43.5549 41.2784C45.1646 39.9088 47.0094 39.2255 48.5714 38.9715V17.8571H2.85714ZM51.4286 17.8571V38.9715C52.9906 39.2255 54.8354 39.9088 56.4451 41.2784C58.6371 43.1434 60.2597 46.1671 60.2597 50.7143C60.2597 55.2614 58.6371 58.2851 56.4451 60.1503C54.8354 61.5197 52.9906 62.2031 51.4286 62.4571V83.5714H97.1429V79.0783C91.8574 79.3152 84.6609 78.3457 78.52 74.6731C71.6449 70.5617 66.2337 63.1369 66.2337 50.7143C66.2337 38.2917 71.6449 30.8669 78.52 26.7553C84.6609 23.0829 91.8574 22.1136 97.1429 22.3504V17.8571H51.4286ZM97.1429 25.2105C92.2617 24.9698 85.5817 25.8613 79.9866 29.2074C73.9829 32.7977 69.0909 39.286 69.0909 50.7143C69.0909 62.1426 73.9829 68.6309 79.9866 72.2211C85.5817 75.5672 92.2617 76.4589 97.1429 76.218V59.5963H86.9111C85.2283 59.8566 82.734 59.7649 80.5786 58.5569C78.2471 57.2503 76.5369 54.7603 76.5369 50.7143C76.5369 46.6683 78.2471 44.1783 80.5786 42.8717C82.734 41.6639 85.2283 41.5721 86.9111 41.8323H97.1429V25.2105ZM97.1429 44.6894H88.2251V56.7391H97.1429V44.6894ZM85.368 56.8586V44.57C84.28 44.5631 83.03 44.7731 81.9754 45.3643C80.6274 46.1197 79.394 47.6051 79.394 50.7143C79.394 53.8234 80.6274 55.3089 81.9754 56.0643C83.03 56.6554 84.28 56.8654 85.368 56.8586ZM51.4286 59.5474C52.4349 59.3166 53.5834 58.8334 54.5937 57.974C56.0814 56.7086 57.4026 54.5151 57.4026 50.7143C57.4026 46.9134 56.0814 44.72 54.5937 43.4546C53.5834 42.5951 52.4349 42.1119 51.4286 41.8811V59.5474ZM48.5714 41.8811C47.5651 42.1119 46.4166 42.5951 45.4063 43.4546C43.9186 44.72 42.5974 46.9134 42.5974 50.7143C42.5974 54.5151 43.9186 56.7086 45.4063 57.974C46.4166 58.8334 47.5651 59.3166 48.5714 59.5474V41.8811ZM2.85714 76.218C7.73817 76.4589 14.4183 75.5672 20.0135 72.2211C26.017 68.6309 30.9091 62.1426 30.9091 50.7143C30.9091 39.286 26.017 32.7977 20.0135 29.2074C14.4183 25.8613 7.73817 24.9698 2.85714 25.2105V41.8323H13.0889C14.7718 41.5721 17.2659 41.6639 19.4213 42.8717C21.7529 44.1783 23.4632 46.6683 23.4632 50.7143C23.4632 54.7603 21.7529 57.2503 19.4213 58.5569C17.2659 59.7649 14.7718 59.8566 13.0889 59.5963H2.85714V76.218ZM2.85714 56.7391H11.7749V44.6894H2.85714V56.7391ZM14.632 44.57V56.8586C15.7199 56.8654 16.97 56.6554 18.0245 56.0643C19.3726 55.3089 20.6061 53.8234 20.6061 50.7143C20.6061 47.6051 19.3726 46.1197 18.0245 45.3643C16.97 44.7731 15.7199 44.5631 14.632 44.57Z" fill="black"/>
</g>
<defs>
<clipPath id="clip0_5_6491">
<rect width="100" height="100" fill="white" transform="translate(0 0.29248)"/>
</clipPath>
</defs>
</svg>
