<svg width="95" height="101" viewBox="0 0 95 101" fill="none" xmlns="http://www.w3.org/2000/svg">
<path fill-rule="evenodd" clip-rule="evenodd" d="M47.0588 5.25966C41.6815 5.25966 36.7647 10.9431 36.7647 18.7284C36.7647 26.5137 41.6815 32.197 47.0588 32.197C52.4362 32.197 57.3529 26.5137 57.3529 18.7284C57.3529 10.9431 52.4362 5.25966 47.0588 5.25966ZM33.8235 18.7284C33.8235 10.0122 39.4412 2.31848 47.0588 2.31848C54.6765 2.31848 60.2941 10.0122 60.2941 18.7284C60.2941 24.0373 58.21 28.9668 54.8594 32.0097L62.3971 32.2138L69.1176 39.0411V70.1244L65.3218 73.9805H60.2941V95.5211L56.4982 99.3773H50.8547L48.5294 97.0152V68.9305L47.0588 68.1835L45.5882 68.9305V97.0152L43.2629 99.3773H37.6194L33.8235 95.5211V73.9805H28.7959L25 70.1244V39.0411L31.7129 32.2214L39.1641 31.9235C35.8685 28.8742 33.8235 23.9874 33.8235 18.7284ZM43.8968 34.6776L32.9929 35.1138L27.9412 40.2458V68.9197L30.0276 71.0394H33.8235V50.1008H36.7647V94.3164L38.8512 96.4361H42.0312L42.6471 95.8105V67.1255L47.0588 64.8847L51.4706 67.1255V95.8105L52.0865 96.4361H55.2665L57.3529 94.3164V50.1008H60.2941V71.0394H64.09L66.1765 68.9197V40.2458L61.1324 35.1217L49.7265 34.8129C48.8709 35.0258 47.9794 35.1382 47.0588 35.1382C45.9594 35.1382 44.9018 34.9782 43.8968 34.6776ZM1.47064 11.2472C1.47704 10.435 2.1406 9.78178 2.95276 9.78819L16.1876 9.89239C16.9998 9.89878 17.653 10.5624 17.6466 11.3745C17.6402 12.1867 16.9766 12.8399 16.1645 12.8335L6.47979 12.7572L21.6363 28.1542C22.206 28.7331 22.1987 29.6642 21.6199 30.2339C21.0411 30.8038 20.11 30.7964 19.5402 30.2175L4.38376 14.8205L4.3075 24.5052C4.30112 25.3173 3.63756 25.9705 2.82539 25.9642C2.01323 25.9577 1.36003 25.2942 1.36643 24.482L1.47064 11.2472ZM91.165 9.78819C91.9771 9.78178 92.6406 10.435 92.6471 11.2472L92.7512 24.482C92.7577 25.2942 92.1044 25.9577 91.2924 25.9642C90.48 25.9705 89.8165 25.3173 89.81 24.5052L89.7338 14.8205L74.5773 30.2175C74.0076 30.7964 73.0765 30.8038 72.4976 30.2339C71.9188 29.6642 71.9118 28.7331 72.4815 28.1542L87.6379 12.7572L77.9532 12.8335C77.1409 12.8399 76.4774 12.1867 76.4712 11.3745C76.4647 10.5624 77.1179 9.89878 77.93 9.89239L91.165 9.78819ZM21.6199 77.4376C22.1987 78.0073 22.206 78.9385 21.6363 79.5173L6.47982 94.9144L16.1645 94.8379C16.9766 94.8317 17.6402 95.485 17.6466 96.297C17.653 97.1091 16.9998 97.7726 16.1876 97.7791L2.95276 97.8835C2.1406 97.8897 1.47704 97.2364 1.47064 96.4244L1.36643 83.1894C1.36003 82.3773 2.01323 81.7138 2.82539 81.7073C3.63756 81.7008 4.30112 82.3541 4.3075 83.1664L4.38376 92.8511L19.5402 77.4541C20.11 76.8752 21.0411 76.8679 21.6199 77.4376ZM72.4976 77.4376C73.0765 76.8679 74.0076 76.8752 74.5773 77.4541L89.7338 92.8511L89.81 83.1664C89.8165 82.3541 90.48 81.7008 91.2924 81.7073C92.1044 81.7138 92.7577 82.3773 92.7512 83.1894L92.6471 96.4244C92.6406 97.2364 91.9771 97.8897 91.165 97.8835L77.93 97.7791C77.1179 97.7726 76.4647 97.1091 76.4712 96.297C76.4774 95.485 77.1409 94.8317 77.9532 94.8379L87.6379 94.9144L72.4815 79.5173C71.9118 78.9385 71.9188 78.0073 72.4976 77.4376Z" fill="black"/>
</svg>
