<svg width="100" height="101" viewBox="0 0 100 101" fill="none" xmlns="http://www.w3.org/2000/svg">
<g clip-path="url(#clip0_5_4604)">
<path d="M50 0.339844C29.336 0.339844 12.5245 17.1514 12.5245 37.8154C12.5245 45.6185 14.9 53.0976 19.3943 59.4443C23.6053 65.3909 29.3599 69.9299 36.0808 72.6169L37.6787 94.0776H42.1722H44.1573L45.7229 100.34H54.2771L55.8427 94.0776H57.8278H62.3213L63.9192 72.6169C70.6401 69.9299 76.3947 65.3909 80.6057 59.4443C85.1 53.0976 87.4755 45.6185 87.4755 37.8154C87.4755 17.1514 70.664 0.339844 50 0.339844ZM46.4164 72.3555L37.7663 41.4622C37.9877 41.6291 38.2078 41.8246 38.4534 42.043C39.4233 42.906 40.6301 43.9798 42.9479 43.9798C45.2671 43.9798 46.4748 42.9062 47.445 42.0434C48.2544 41.3238 48.789 40.8486 49.992 40.8486C51.1963 40.8486 51.7315 41.324 52.5415 42.0438C53.5123 42.9064 54.7207 43.9798 57.0409 43.9798C59.3611 43.9798 60.5693 42.9064 61.5401 42.0438C61.7883 41.8232 62.0108 41.6259 62.2346 41.4578L53.5836 72.3555H46.4164ZM60.7765 75.2909L60.5288 78.6177H39.4712L39.2235 75.2909H60.7765ZM39.6896 81.5532H60.3102L60.0624 84.88H39.9374L39.6896 81.5532ZM51.9851 97.4044H48.0149L47.1832 94.0776H52.8168L51.9851 97.4044ZM57.8278 91.1422H53.5507H46.4493H42.1722H40.4035L40.1558 87.8154H59.8438L59.5961 91.1422H57.8278ZM78.21 57.7479C74.1585 63.4694 68.5579 67.7772 62.0137 70.2056L61.1305 70.5332L60.9951 72.3555H56.6319L67.0691 35.08L64.2425 34.2884L63.2115 37.97C61.4501 38.2003 60.4309 39.1031 59.591 39.8492C58.7808 40.5688 58.2456 41.0443 57.0413 41.0443C55.837 41.0443 55.3016 40.5688 54.4916 39.8492C53.5205 38.9866 52.3121 37.9132 49.9922 37.9132C47.673 37.9132 46.4654 38.9868 45.4949 39.8496C44.6855 40.569 44.1509 41.0443 42.9479 41.0443C41.747 41.0443 41.2129 40.5692 40.4045 39.85C39.5656 39.1036 38.5478 38.2007 36.7885 37.9702L35.7575 34.2886L32.9309 35.0802L43.3683 72.3555H39.0051L38.8695 70.5332L37.9863 70.2056C31.4421 67.7772 25.8415 63.4694 21.79 57.7479C17.6487 51.8999 15.4599 45.0074 15.4599 37.8154C15.4599 18.77 30.9546 3.27526 50 3.27526C69.0454 3.27526 84.5401 18.77 84.5401 37.8154C84.5401 45.0074 82.3513 51.8999 78.21 57.7479Z" fill="black"/>
<path d="M57.4481 10.5283C58.9708 10.943 60.4693 11.4908 61.902 12.1565L63.1389 9.49428C61.5566 8.75906 59.9014 8.15397 58.2194 7.69604L57.4481 10.5283Z" fill="black"/>
<path d="M66.837 11.5283L65.2515 13.9988C71.5681 18.0526 76.0875 24.5643 77.6507 31.8641L80.5209 31.2495C78.7953 23.19 73.8076 16.0019 66.837 11.5283Z" fill="black"/>
</g>
<defs>
<clipPath id="clip0_5_4604">
<rect width="100" height="100" fill="white" transform="translate(0 0.339844)"/>
</clipPath>
</defs>
</svg>
