<svg width="95" height="101" viewBox="0 0 95 101" fill="none" xmlns="http://www.w3.org/2000/svg">
<g clip-path="url(#clip0_5_6493)">
<path fill-rule="evenodd" clip-rule="evenodd" d="M29.6709 11.2059C37.3069 8.31844 43.214 4.15939 46.1617 1.25841L47.1211 0.8479L48.124 1.25841C51.0717 4.15939 56.9789 8.31844 64.6149 11.2059C72.236 14.0876 81.486 15.668 91.1637 13.5516C91.7511 13.4232 92.3334 13.5543 92.8049 13.9027C93.2226 14.2115 93.4783 14.6328 93.6411 14.9934C93.9654 15.7113 94.132 16.6656 94.2154 17.6985C94.386 19.8124 94.2451 22.8213 93.8043 26.4064C92.9197 33.6013 90.7946 43.3742 87.2757 53.4876C83.7583 63.5962 78.8246 74.1125 72.2906 82.7485C65.7589 91.3813 57.5517 98.2322 47.4746 100.803L47.1211 100.848L46.8111 100.803C36.734 98.2322 28.5269 91.3813 21.9952 82.7485C15.4611 74.1125 10.5275 63.5962 7.01006 53.4876C3.49103 43.3742 1.36603 33.6013 0.481454 26.4064C0.0406924 22.8213 -0.100279 19.8124 0.070272 17.6985C0.153612 16.6656 0.320249 15.7113 0.644609 14.9934C0.80754 14.6328 1.06308 14.2115 1.48093 13.9027C1.95239 13.5543 2.53451 13.4232 3.12197 13.5516C12.7997 15.668 22.0497 14.0876 29.6709 11.2059ZM47.1429 97.9368C56.2126 95.5065 63.7971 89.2373 70.0106 81.025C76.3071 72.703 81.1191 62.4828 84.5757 52.549C88.0308 42.6196 90.1083 33.0442 90.9671 26.0579C91.398 22.5523 91.5143 19.7623 91.3663 17.9282C91.3126 17.2623 91.2286 16.7887 91.142 16.4763C81.0243 18.5362 71.4366 16.8401 63.6037 13.8782C56.3931 11.1518 50.5931 7.32453 47.1429 4.25136C43.6926 7.32453 37.8926 11.1518 30.682 13.8782C22.8491 16.8401 13.2615 18.5362 3.14357 16.4763C3.05726 16.7887 2.9732 17.2623 2.91949 17.9282C2.7715 19.7623 2.88757 22.5523 3.31857 26.0579C4.17749 33.0442 6.25483 42.6196 9.70989 52.549C13.1665 62.4828 17.9787 72.703 24.2751 81.025C30.4886 89.2373 38.0731 95.5065 47.1429 97.9368Z" fill="black"/>
<path fill-rule="evenodd" clip-rule="evenodd" d="M31.9483 17.7057C37.9649 15.3957 42.6188 12.0685 44.9414 9.74771L45.6971 9.41931L46.4871 9.74771C48.8097 12.0685 53.4637 15.3957 59.4803 17.7057C65.4846 20.011 72.7726 21.2754 80.3974 19.5823C80.8603 19.4795 81.3189 19.5845 81.6903 19.8632C82.0194 20.1102 82.2209 20.4472 82.3491 20.7357C82.6049 21.31 82.736 22.0734 82.8017 22.8998C82.9363 24.5909 82.8251 26.998 82.4777 29.8662C81.7809 35.6222 80.1066 43.4405 77.334 51.531C74.5629 59.6182 70.6757 68.031 65.5274 74.9399C60.3814 81.8462 53.9151 87.3267 45.9757 89.3836L45.6971 89.4193L45.4529 89.3836C37.5134 87.3267 31.0471 81.8462 25.901 74.9399C20.7529 68.031 16.8659 59.6182 14.0945 51.531C11.3219 43.4405 9.64771 35.6222 8.95077 29.8662C8.60348 26.998 8.49242 24.5909 8.6268 22.8998C8.69245 22.0734 8.82374 21.31 9.07931 20.7357C9.20768 20.4472 9.409 20.1102 9.73822 19.8632C10.1097 19.5845 10.5683 19.4795 11.0312 19.5823C18.6561 21.2754 25.9439 20.011 31.9483 17.7057ZM45.7143 87.0905C52.86 85.1462 58.836 80.1307 63.7314 73.561C68.692 66.9036 72.4834 58.7273 75.2068 50.7802C77.9291 42.8367 79.5657 35.1765 80.2426 29.5873C80.582 26.7828 80.6734 24.5509 80.5569 23.0835C80.5146 22.5508 80.4483 22.172 80.3803 21.922C72.4086 23.5699 64.8549 22.213 58.6834 19.8435C53.0023 17.6624 48.4329 14.6006 45.7143 12.1421C42.9957 14.6006 38.4263 17.6624 32.7451 19.8435C26.5737 22.213 19.0199 23.5699 11.0482 21.922C10.9802 22.172 10.9139 22.5508 10.8716 23.0835C10.755 24.5509 10.8465 26.7828 11.1861 29.5873C11.8628 35.1765 13.4995 42.8367 16.2216 50.7802C18.945 58.7273 22.7365 66.9036 27.6973 73.561C32.5926 80.1307 38.5686 85.1462 45.7143 87.0905Z" fill="black"/>
<path d="M24.2051 40.0049H50.4844C53.4824 40.0049 55.8359 40.2197 57.5449 40.6494C59.2637 41.0693 60.9434 41.8457 62.584 42.9785C65.748 45.1953 67.3301 47.6416 67.3301 50.3174C67.3301 53.1787 65.7041 55.5078 62.4521 57.3047C59.2002 59.1016 54.9814 60 49.7959 60H24.2051L31.5439 55.3711V44.6631L24.2051 40.0049ZM41.8711 56.0449H46.7783C50.2354 56.0449 52.5303 55.6689 53.6631 54.917C54.8057 54.1553 55.377 52.6318 55.377 50.3467C55.377 45.8154 52.5449 43.5498 46.8809 43.5498H41.8711V56.0449Z" fill="black"/>
</g>
<defs>
<clipPath id="clip0_5_6493">
<rect width="94.2857" height="100" fill="white" transform="translate(0 0.8479)"/>
</clipPath>
</defs>
</svg>
