<svg width="78" height="101" viewBox="0 0 78 101" fill="none" xmlns="http://www.w3.org/2000/svg">
<path fill-rule="evenodd" clip-rule="evenodd" d="M46.8872 5.43021C43.14 3.26121 37.8364 5.00488 35.1814 10.0045C32.5186 15.0187 33.9069 20.7337 37.7069 22.9333C41.4542 25.1023 46.7578 23.3586 49.4128 18.359C52.0758 13.3448 50.6875 7.62977 46.8872 5.43021ZM32.7281 8.70163C35.9117 2.70684 42.8114 -0.138498 48.2789 3.0261C53.6936 6.16015 55.0419 13.6816 51.8661 19.6618C48.6825 25.6566 41.7828 28.502 36.3153 25.3373C30.9008 22.2033 29.5522 14.6819 32.7281 8.70163ZM21.2126 26.6208C21.4383 26.503 21.6918 26.4495 21.9458 26.4661L43.7486 27.8887C44.1789 27.9168 44.5717 28.1432 44.8119 28.5012L54.1536 42.4334L56.2631 43.5345H66.8239C67.2025 43.5345 67.565 43.6893 67.827 43.9629L69.1894 45.3854C69.2914 45.4918 69.3756 45.6134 69.4392 45.7462L70.802 48.5915C70.9836 48.9707 70.9836 49.412 70.802 49.7912L69.4392 52.6365C69.3756 52.7693 69.2914 52.8912 69.1894 52.9973L67.827 54.4201C67.565 54.6934 67.2025 54.8482 66.8239 54.8482H53.197C52.8867 54.8482 52.5853 54.7443 52.3408 54.5529L46.89 50.2848C46.8381 50.2443 46.7892 50.1998 46.7433 50.152L42.62 45.8476L36.8711 56.6509V57.1693L48.7495 69.5701C48.812 69.6354 48.8681 69.7068 48.9169 69.7831L51.6422 74.0512C51.7447 74.2118 51.8131 74.3915 51.8433 74.5798L54.5686 91.6512C54.6222 91.987 54.5508 92.3309 54.3678 92.6176L51.6422 96.8857C51.5117 97.0901 51.3297 97.257 51.1144 97.3693L48.3892 98.7918C48.1906 98.8954 47.97 98.9495 47.7464 98.9495H45.0208C44.7972 98.9495 44.5767 98.8954 44.3783 98.7918L41.6528 97.3693C41.4378 97.257 41.2556 97.0901 41.125 96.8857L38.3997 92.6176C38.2814 92.4323 38.2086 92.2215 38.1878 92.0026L36.8592 78.1326L31.0292 69.6118L30.0478 77.809C30.0372 77.8965 30.0186 77.9826 29.9919 78.0662L28.6292 82.3343C28.5572 82.5593 28.4292 82.7623 28.2572 82.924L14.6303 95.7276C14.4883 95.8609 14.3198 95.9631 14.1357 96.027L10.0477 97.4498C9.90092 97.5009 9.74661 97.527 9.59119 97.527H6.86583C6.64203 97.527 6.42153 97.4729 6.22314 97.3693L3.49775 95.9468C3.23156 95.8076 3.01753 95.5862 2.88783 95.3154L1.52514 92.4701C1.37219 92.1506 1.34699 91.7851 1.45469 91.4476L2.81739 87.1798C2.88169 86.9784 2.99117 86.7943 3.13747 86.6415L4.50014 85.219C4.519 85.1993 4.53842 85.1801 4.55839 85.1615L16.6288 73.9604L17.7411 71.6379V56.3045C17.7411 56.0829 17.7941 55.8648 17.8956 55.6679L26.1912 39.5843L19.9994 40.5076L12.1581 54.1512C12.1021 54.2487 12.0346 54.339 11.9569 54.4201L9.2315 57.2654C8.96953 57.5387 8.60725 57.6934 8.2285 57.6934H5.50314C5.12442 57.6934 4.76211 57.5387 4.50014 57.2654L1.77478 54.4201C1.52714 54.1615 1.38889 53.8173 1.38889 53.4593V49.1915C1.38889 49.0482 1.41109 48.9057 1.45469 48.769L2.81739 44.5009C2.86414 44.3545 2.93486 44.217 3.02669 44.0937L12.5655 31.2901C12.6903 31.1226 12.8513 30.9854 13.0366 30.8887L21.2126 26.6208ZM22.1531 29.2632L14.6034 33.2043L5.39294 45.567L4.16667 49.4076V52.9015L6.09603 54.9157H7.63564L9.83394 52.6207L17.9258 38.5409C18.1373 38.1729 18.5054 37.922 18.9251 37.8593L28.4639 36.4368C28.9794 36.3598 29.4947 36.5782 29.7981 37.0018C30.1014 37.4257 30.1419 37.9837 29.9031 38.447L20.5189 56.6415V71.9534C20.5189 72.1609 20.4723 72.3659 20.3826 72.5534L19.0199 75.3987C18.9445 75.5562 18.8401 75.6979 18.7121 75.8168L6.47786 87.1698L5.36578 88.3309L4.26856 91.7673L5.19328 93.6982L7.2065 94.7493H9.35642L12.9436 93.5009L26.0926 81.1462L27.3054 77.3473L28.6525 66.0979C28.7164 65.5645 29.0819 65.1157 29.5914 64.9457C30.1008 64.7754 30.6628 64.9143 31.0344 65.302L32.3972 66.7248C32.4497 66.7795 32.4975 66.8387 32.5403 66.9012L39.3539 76.8595C39.4864 77.0534 39.5678 77.2776 39.59 77.5115L40.9208 91.4045L43.2667 95.0782L45.3617 96.1718H47.4056L49.5006 95.0782L51.7422 91.5676L49.1458 75.3029L46.6492 71.3932L34.4792 58.6879C34.2317 58.4293 34.0933 58.0851 34.0933 57.727V56.3045C34.0933 56.077 34.1492 55.8529 34.2561 55.652L41.0694 42.8484C41.2789 42.4551 41.6642 42.1862 42.1053 42.1251C42.5467 42.064 42.9906 42.2184 43.2986 42.5401L48.6808 48.159L53.6761 52.0704H66.2311L67.03 51.2362L68.0094 49.1915L67.03 47.1465L66.2311 46.3123H55.9225C55.6986 46.3123 55.4781 46.2584 55.2797 46.1548L52.5545 44.732C52.3486 44.6245 52.1728 44.4673 52.0436 44.2743L42.8856 30.6159L22.1531 29.2632ZM66.8239 57.6934C63.1311 57.6934 60.0367 60.8362 60.0367 64.8404C60.0367 68.8443 63.1311 71.987 66.8239 71.987C70.5167 71.987 73.6111 68.8443 73.6111 64.8404C73.6111 60.8362 70.5167 57.6934 66.8239 57.6934ZM57.2589 64.8404C57.2589 59.4159 61.4856 54.9157 66.8239 54.9157C72.1622 54.9157 76.3889 59.4159 76.3889 64.8404C76.3889 70.2645 72.1622 74.7648 66.8239 74.7648C61.4856 74.7648 57.2589 70.2645 57.2589 64.8404Z" fill="black"/>
</svg>
