<svg width="100" height="95" viewBox="0 0 100 95" fill="none" xmlns="http://www.w3.org/2000/svg">
<g clip-path="url(#clip0_5_6454)">
<path fill-rule="evenodd" clip-rule="evenodd" d="M94.3173 7.23364C91.987 3.40556 86.5088 2.40478 81.8803 5.61667C77.2212 8.84979 75.7758 14.7515 78.1591 18.667C80.4891 22.4951 85.9673 23.4959 90.5961 20.284C95.2548 17.0509 96.7006 11.1492 94.3173 7.23364ZM80.1527 3.12709C85.8776 -0.84568 93.4682 0.0106416 96.9058 5.65807C100.29 11.218 98.0179 18.822 92.3236 22.7736C86.5985 26.7464 79.0082 25.8901 75.5706 20.2426C72.1864 14.6827 74.4582 7.07864 80.1527 3.12709ZM35.6252 8.50419C35.9115 8.19834 36.3118 8.02476 36.7309 8.02476H55.8948C56.1439 8.02476 56.3891 8.0861 56.6085 8.20331L59.7615 9.88664L70.8985 14.9829C71.1818 15.1125 71.4182 15.3263 71.5755 15.5952L79.5606 29.2366C79.6964 29.4687 79.7682 29.7329 79.7682 30.0019V37.0126H91.0291C91.4482 37.0126 91.8485 37.1862 92.1348 37.492L95.3288 40.9023C95.5918 41.1832 95.7382 41.5535 95.7382 41.9381V45.3484C95.7382 45.7332 95.5918 46.1035 95.3288 46.3841L92.1348 49.7944C91.8485 50.1005 91.4482 50.2738 91.0291 50.2738H75.0591C74.81 50.2738 74.5648 50.2126 74.3455 50.0953L71.1515 48.3902C70.6579 48.1269 70.3497 47.6129 70.3497 47.0535V39.062L61.1721 47.2284L69.8524 58.0414C70.0685 58.3102 70.1861 58.645 70.1861 58.9899V64.1053C70.1861 64.4899 70.0397 64.8602 69.777 65.1411L66.5827 68.5514C66.3561 68.7935 66.0561 68.9547 65.7288 69.0099L62.4403 69.5641L61.8764 70.1662L45.9755 93.9356C45.6942 94.3559 45.2218 94.6084 44.7161 94.6084H41.5221C41.103 94.6084 40.7024 94.4347 40.4161 94.129L37.2221 90.7187C36.9591 90.4378 36.8127 90.0675 36.8127 89.6829V84.5675C36.8127 84.2556 36.9091 83.9517 37.0882 83.6965L44.943 72.5141L35.3858 74.1253C34.8852 74.2096 34.3751 74.0375 34.0282 73.6669L32.4312 71.9617C32.1682 71.6811 32.0218 71.3108 32.0218 70.9259V65.8105C32.0218 65.5884 32.0706 65.369 32.1648 65.1681L33.7618 61.7578C33.9706 61.3114 34.3836 60.9947 34.8685 60.9084L51.2415 57.9947L38.8906 46.4556C38.5839 46.169 38.4097 45.7681 38.4097 45.3484V40.2329C38.4097 40.0108 38.4585 39.7914 38.5527 39.5905L40.1497 36.1802C40.2606 35.9435 40.4306 35.7396 40.6433 35.5884L57.6064 23.5136L52.3909 21.2861H36.7309C36.3118 21.2861 35.9115 21.1125 35.6252 20.8067L32.4312 17.3963C32.1682 17.1156 32.0218 16.7453 32.0218 16.3606V12.9502C32.0218 12.5656 32.1682 12.1953 32.4312 11.9146L35.6252 8.50419ZM49.1436 71.8059L39.843 85.0462V89.0841L42.1788 91.5781H43.9067L58.1494 70.2875L49.1436 71.8059ZM61.38 66.6699L61.177 66.4799L60.9279 66.7459L35.6839 71.002L35.0521 70.3272V66.1478L36.173 63.7541L54.5633 60.4817C55.1106 60.3841 55.5603 59.9953 55.7358 59.4681C55.9109 58.9405 55.7836 58.3596 55.4039 57.9541L53.7724 56.212L41.44 44.6905V40.5702L42.7252 37.8259L61.5645 24.4156C62.0112 24.0978 62.2512 23.5636 62.1924 23.0187C62.1336 22.4738 61.7851 22.0032 61.2812 21.7879L53.2961 18.3776C53.1079 18.2972 52.9055 18.2558 52.7009 18.2558H37.3879L35.0521 15.7619V13.549L37.3879 11.0551H55.5158L58.4164 12.6036L69.2021 17.5392L76.3179 29.6955L58.0818 45.9217C57.4791 46.4581 57.4024 47.3729 57.9076 48.002L67.1558 59.5229V63.5066L64.7206 66.1066L61.38 66.6699ZM76.7379 33.3781L73.38 36.3659V46.145L75.4382 47.2435H90.3721L92.7079 44.7499V42.5369L90.3721 40.0429H78.253C77.4161 40.0429 76.7379 39.3647 76.7379 38.5278V33.3781Z" fill="black"/>
<path fill-rule="evenodd" clip-rule="evenodd" d="M11.0992 28.11H9.582V25.0797H11.0992V28.11ZM17.1678 28.11H14.1335V25.0797H17.1678V28.11ZM23.2364 28.11H20.2021V25.0797H23.2364V28.11ZM29.305 28.11H26.2707V25.0797H29.305V28.11ZM35.3736 28.11H32.3394V25.0797H35.3736V28.11ZM39.9251 28.11H38.4079V25.0797H39.9251V28.11ZM1.51715 36.6358H0V33.6055H1.51715V36.6358ZM7.58576 36.6358H4.55145V33.6055H7.58576V36.6358ZM13.6544 36.6358H10.6201V33.6055H13.6544V36.6358ZM19.7229 36.6358H16.6887V33.6055H19.7229V36.6358ZM25.7915 36.6358H22.7572V33.6055H25.7915V36.6358ZM30.343 36.6358H28.8258V33.6055H30.343V36.6358ZM1.51715 45.1619H0V42.1316H1.51715V45.1619ZM7.58576 45.1619H4.55145V42.1316H7.58576V45.1619ZM13.6544 45.1619H10.6201V42.1316H13.6544V45.1619ZM19.7229 45.1619H16.6887V42.1316H19.7229V45.1619ZM25.7915 45.1619H22.7572V42.1316H25.7915V45.1619ZM30.343 45.1619H28.8258V42.1316H30.343V45.1619ZM11.0992 53.6877H9.582V50.6574H11.0992V53.6877ZM17.1678 53.6877H14.1335V50.6574H17.1678V53.6877ZM23.2364 53.6877H20.2021V50.6574H23.2364V53.6877ZM29.305 53.6877H26.2707V50.6574H29.305V53.6877ZM35.3736 53.6877H32.3394V50.6574H35.3736V53.6877ZM39.9251 53.6877H38.4079V50.6574H39.9251V53.6877Z" fill="black"/>
</g>
<defs>
<clipPath id="clip0_5_6454">
<rect width="100" height="93.9394" fill="white" transform="translate(0 0.673218)"/>
</clipPath>
</defs>
</svg>
