<svg width="100" height="95" viewBox="0 0 100 95" fill="none" xmlns="http://www.w3.org/2000/svg">
<path fill-rule="evenodd" clip-rule="evenodd" d="M26.8659 1.81325C27.3346 1.98466 27.6754 2.39441 27.7584 2.88656L29.0769 10.6992L40.6992 22.9434L44.6453 21.7742L45.8633 15.9997C45.9353 15.6584 46.1331 15.3567 46.4172 15.1545L53.3617 10.2162C53.4983 10.1192 53.6511 10.0477 53.8131 10.005L66.3131 6.71284C66.7544 6.59659 67.2247 6.70465 67.5711 7.00193C67.9175 7.29918 68.0958 7.74768 68.0478 8.20162L66.6744 21.2247L67.9736 33.5426L70.5642 33.0307C71.1033 32.9243 71.6547 33.1457 71.9703 33.5957C72.2861 34.0457 72.3067 34.6396 72.0228 35.1104L69.8664 38.6885L71.1744 41.9826L73.1656 41.3082C73.6956 41.129 74.2811 41.2849 74.6517 41.7038C75.0222 42.1229 75.105 42.7232 74.8622 43.2271L73.1108 46.8596L74.4139 50.1413L75.8786 49.5626C76.4105 49.3524 77.0169 49.4899 77.4061 49.9088C77.7956 50.3276 77.8883 50.9424 77.64 51.4574L76.1575 54.5324L77.1458 57.0218L78.4586 56.2438C79.1186 55.8526 79.9706 56.0707 80.3614 56.7307C80.7525 57.3904 80.5347 58.2424 79.8747 58.6335L78.1836 59.6357L78.9556 61.5799L85.3858 67.6765L93.3247 69.2449C93.6342 69.306 93.9136 69.4707 94.1169 69.7118L98.2836 74.6499C98.4953 74.9004 98.6111 75.2179 98.6111 75.5457V82.1301C98.6111 82.3929 98.5364 82.6504 98.3958 82.8726L94.2292 89.4571C94.1453 89.5896 94.0397 89.7068 93.9167 89.804L89.75 93.0962C89.5047 93.2901 89.2014 93.3954 88.8889 93.3954H66.6667C66.4722 93.3954 66.2803 93.3546 66.1025 93.2757L54.9914 88.3374C54.915 88.3035 54.8419 88.2626 54.7728 88.2154L8.93939 56.9399C8.83553 56.869 8.74178 56.7843 8.66072 56.6882L1.71627 48.4576C1.47234 48.1688 1.35688 47.7926 1.39656 47.4165L2.78544 34.2476C2.79367 34.1699 2.80844 34.0926 2.82967 34.0174L5.60744 24.1408C5.65292 23.9791 5.72733 23.827 5.82708 23.6919L15.5493 10.5232C15.6133 10.4366 15.6871 10.3576 15.7693 10.2881L25.4915 2.05762C25.8724 1.73513 26.3971 1.64185 26.8659 1.81325ZM74.7264 58.4554L74.5183 57.9318L74.0817 58.8376L74.7264 58.4554ZM73.1258 54.4243L69.5822 61.7738C69.3164 62.3254 69.443 62.986 69.8942 63.4001C70.3453 63.8143 71.0144 63.884 71.5414 63.5718L75.7642 61.0693L76.4869 62.8896C76.5614 63.0771 76.6758 63.246 76.8222 63.3849L83.7667 69.969C83.9572 70.1499 84.1953 70.2729 84.4531 70.3238L92.3083 71.8754L95.8333 76.0532V80.7412H70.0503L55.1847 64.7243C54.9219 64.4413 54.5531 64.2801 54.1667 64.2801H43.5206L29.0294 53.3507L26.359 40.691C26.2994 40.4088 26.1535 40.1521 25.9414 39.9565L13.4414 28.434L8.81514 24.3214L16.0981 14.4566L18.1074 21.6007C18.1727 21.8326 18.2971 22.0436 18.4685 22.2128L26.8018 30.4432C27.1934 30.8299 27.7763 30.949 28.2881 30.7468L40.7311 25.8311L51.5903 22.6136H64.0278L65.2372 34.0829L62.2308 34.6768C61.4783 34.8257 60.9889 35.556 61.1375 36.3088C61.2861 37.0613 62.0167 37.5507 62.7692 37.4021L66.1053 36.7429L66.7767 38.4338L62.6994 45.199C62.3983 45.6985 62.4414 46.3324 62.8067 46.7865C63.1722 47.2407 63.7822 47.4185 64.3344 47.2315L69.5664 45.4599L70.0792 46.7513L66.8044 53.5432C66.5561 54.0585 66.6489 54.6732 67.0383 55.0921C67.4278 55.511 68.0339 55.6485 68.5658 55.4382L72.8556 53.7435L73.1258 54.4243ZM71.8303 51.1618L71.4719 50.2588L70.8497 51.5493L71.8303 51.1618ZM68.54 42.8746L68.0647 41.6779L67.0367 43.3838L68.54 42.8746ZM64.0278 19.8358L65.0744 9.91156L54.7653 12.6267L48.4692 17.1039L47.6733 20.877L50.9944 19.893C51.1225 19.855 51.2553 19.8358 51.3889 19.8358H64.0278ZM37.8542 23.981L26.7704 12.3043C26.5803 12.104 26.4542 11.8516 26.4083 11.5792L25.4251 5.75329L18.2454 11.8314L20.6819 20.4948L28.1094 27.8307L37.8542 23.981ZM7.68056 27.0294L11.5679 30.4849L23.7326 41.6985L26.4188 54.4332C26.488 54.7613 26.6737 55.0535 26.9415 55.2554L42.2192 66.7779C42.4603 66.9596 42.7539 67.0579 43.0556 67.0579H53.5608L68.4264 83.0749C68.6892 83.3579 69.058 83.519 69.4444 83.519H94.6997L92.0086 87.7715L88.4064 90.6176H66.9614L56.2344 85.8501L10.6616 54.7521L4.22111 47.119L5.53556 34.656L7.68056 27.0294Z" fill="black"/>
</svg>
