<svg width="100" height="90" viewBox="0 0 100 90" fill="none" xmlns="http://www.w3.org/2000/svg">
<path fill-rule="evenodd" clip-rule="evenodd" d="M21.8752 2.21565C22.1346 2.14992 22.4074 2.16052 22.6609 2.24618L26.8264 3.65362C26.9443 3.69348 27.0563 3.74898 27.1594 3.81868L31.3247 6.63357C31.4767 6.73623 31.6069 6.86796 31.7075 7.02115L34.4844 11.2435C34.6336 11.4702 34.7131 11.7355 34.7131 12.0067V16.2291C34.7131 16.3765 34.6894 16.5229 34.6436 16.6629L33.255 20.8853C33.1881 21.0889 33.075 21.2742 32.9244 21.4268L28.7589 25.6492C28.6067 25.8036 28.4203 25.9202 28.2147 25.9896L24.0494 27.397C23.761 27.4945 23.4486 27.4945 23.1602 27.397L18.9948 25.9896C18.4304 25.7989 18.0505 25.2695 18.0505 24.6738V21.8403H17.6678L16.718 24.7286L17.9539 29.7395L32.6583 52.0978C33.7433 48.0406 35.7906 43.4231 39.1247 40.1806C41.3019 38.0631 44.0511 36.5131 47.4253 36.1406C50.2808 35.8256 53.4806 36.365 57.0411 37.9728C57.5664 32.7106 59.9319 25.9703 64.5303 21.4609C67.1961 18.8465 70.6328 16.9667 74.8767 16.6125C79.1058 16.2594 83.9931 17.433 89.5592 20.6571C94.7169 23.6448 97.4239 27.5655 98.2942 31.8292C99.1536 36.0398 98.1847 40.3981 96.3681 44.2648C94.5486 48.1381 91.8295 51.6284 89.0106 54.1634C87.5995 55.4323 86.1386 56.4839 84.7236 57.2253C83.835 57.6909 82.9281 58.0528 82.0383 58.255C82.2506 61.9964 81.5225 67.1531 78.7561 72.0492C75.6022 77.6317 69.8456 82.7889 60.0547 85.1311C55.8219 86.3211 49.1431 87.7459 42.7872 88.1637C39.6042 88.3728 36.4475 88.3331 33.6964 87.8606C30.9869 87.3953 28.4914 86.4798 26.8059 84.787L11.5559 70.7337C11.3973 70.5875 11.275 70.4064 11.1985 70.205L4.25617 51.9081C4.22131 51.8162 4.19631 51.7209 4.18156 51.6236L1.40461 33.327C1.39414 33.2578 1.38889 33.1884 1.38889 33.1184V20.4514C1.38889 20.304 1.41235 20.1576 1.45839 20.0175L2.84686 15.7952C2.90058 15.6318 2.98417 15.4799 3.09336 15.347L10.0357 6.90235C10.1578 6.75387 10.3093 6.63237 10.4807 6.54548L16.0346 3.7306C16.1259 3.68429 16.2221 3.64826 16.3213 3.6231L21.8752 2.21565ZM17.153 6.27793L11.9964 8.89146L5.40436 16.9101L4.16667 20.6739V33.0137L6.90569 51.0609L13.6793 68.9131L28.7114 82.7653C28.7278 82.7803 28.7436 82.7956 28.7589 82.8114C29.8503 83.9175 31.6825 84.6962 34.1667 85.1228C36.6222 85.5448 39.5403 85.5931 42.6053 85.3917C48.7322 84.9892 55.2292 83.6042 59.3286 82.4498C59.3467 82.4448 59.3647 82.44 59.3828 82.4359C68.4586 80.2711 73.5706 75.5806 76.3378 70.6828C79.1339 65.7334 79.5836 60.4836 79.155 57.2261C79.1028 56.8298 79.2242 56.4298 79.4881 56.1292C79.7517 55.8287 80.1322 55.6562 80.5322 55.6562C81.2644 55.6562 82.2511 55.3848 83.4347 54.7648C84.6014 54.1534 85.8742 53.2481 87.1533 52.0978C89.7147 49.7945 92.2022 46.5998 93.8539 43.0836C95.5086 39.5617 96.2753 35.827 95.5725 32.3848C94.8808 28.9953 92.7281 25.7028 88.1667 23.0607C82.9503 20.0391 78.6278 19.0868 75.1078 19.3806C71.6025 19.6732 68.7503 21.2131 66.4753 23.4442C61.8581 27.9723 59.7056 35.2795 59.7056 40.1559C59.7056 40.645 59.4481 41.0981 59.0278 41.3486C58.6075 41.5992 58.0864 41.6103 57.6561 41.3775C53.6717 39.2234 50.3972 38.6073 47.73 38.9017C45.0731 39.195 42.8758 40.4073 41.0611 42.172C37.3739 45.7581 35.3678 51.5411 34.6964 55.8514C34.6081 56.4189 34.1797 56.8734 33.6186 56.995C33.0575 57.1167 32.4792 56.8806 32.1636 56.4009L15.5021 31.0667C15.4154 30.935 15.3518 30.7892 15.314 30.6362L13.9255 25.0063C13.8631 24.7532 13.8732 24.4876 13.9546 24.2399L15.3431 20.0175C15.5305 19.4477 16.0626 19.0625 16.6625 19.0625H19.4394C20.2065 19.0625 20.8283 19.6843 20.8283 20.4514V23.677L23.6048 24.6152L27.0131 23.4635L30.7181 19.708L31.9353 16.0066V12.4225L29.5394 8.7796L25.7595 6.22521L22.1601 5.00901L17.153 6.27793Z" fill="black"/>
</svg>
