<svg width="100" height="101" viewBox="0 0 100 101" fill="none" xmlns="http://www.w3.org/2000/svg">
<path fill-rule="evenodd" clip-rule="evenodd" d="M19.3359 12.8835C29.2679 5.17156 41.3394 1.8075 50 1.8075C58.6606 1.8075 70.7321 5.17156 80.6639 12.8835C90.6524 20.6392 98.4848 32.806 98.4848 50.2923C98.4848 67.7787 90.6524 79.9454 80.6639 87.7011C70.7321 95.4133 58.6606 98.7772 50 98.7772C41.3394 98.7772 29.2679 95.4133 19.3359 87.7011C9.34745 79.9454 1.51515 67.7787 1.51515 50.2923C1.51515 32.806 9.34745 20.6392 19.3359 12.8835ZM4.56639 48.7772H30.303C30.303 35.502 21.7823 27.1256 15.6028 21.0507C15.5017 20.9513 15.4012 20.8525 15.3014 20.7543C9.21267 27.5523 4.90088 36.7466 4.56639 48.7772ZM17.4026 18.5679C17.5198 18.6827 17.6383 18.7988 17.7581 18.9161C23.8928 24.9233 33.3333 34.1678 33.3333 48.7772H48.4848V4.8738C40.5973 5.24119 30.0031 8.43728 21.1944 15.277C19.8861 16.2929 18.6172 17.3889 17.4026 18.5679ZM51.5152 4.8738V48.7772H66.6667C66.6667 34.1678 76.1073 24.9233 82.2418 18.9161C82.3618 18.7988 82.4803 18.6827 82.5973 18.5679C81.3827 17.3889 80.1139 16.2929 78.8058 15.277C69.997 8.43728 59.4027 5.24119 51.5152 4.8738ZM84.6985 20.7543C84.5988 20.8525 84.4982 20.9513 84.3973 21.0507C78.2176 27.1256 69.697 35.502 69.697 48.7772H95.4336C95.0991 36.7466 90.7873 27.5523 84.6985 20.7543ZM95.4336 51.8075H69.697C69.697 65.0826 78.2176 73.459 84.3973 79.5339C84.4982 79.6333 84.5988 79.732 84.6985 79.8305C90.7873 73.0323 95.0991 63.8381 95.4336 51.8075ZM82.5973 82.0169C82.4803 81.902 82.3618 81.786 82.2418 81.6687C76.1073 75.6614 66.6667 66.4169 66.6667 51.8075H51.5152V95.7108C59.4027 95.3436 69.997 92.1475 78.8058 85.3078C80.1139 84.2917 81.3827 83.196 82.5973 82.0169ZM48.4848 95.7108V51.8075H33.3333C33.3333 66.4169 23.8928 75.6614 17.7581 81.6687C17.6383 81.786 17.5198 81.902 17.4026 82.0169C18.6172 83.196 19.8861 84.2917 21.1944 85.3078C30.0031 92.1475 40.5973 95.3436 48.4848 95.7108ZM15.3014 79.8305C15.4012 79.732 15.5017 79.6333 15.6028 79.5339C21.7823 73.459 30.303 65.0826 30.303 51.8075H4.56639C4.90088 63.8381 9.21267 73.0323 15.3014 79.8305Z" fill="black"/>
</svg>
