<svg width="100" height="95" viewBox="0 0 100 95" fill="none" xmlns="http://www.w3.org/2000/svg">
<path fill-rule="evenodd" clip-rule="evenodd" d="M31.5047 1.83036C32.0824 1.32924 32.9479 1.35463 33.4953 1.88876L39.0318 7.29091C39.3318 7.58382 39.4926 7.99097 39.4738 8.40994C39.4547 8.82891 39.2579 9.21985 38.9324 9.48444L16.7871 27.4916C16.2076 27.9629 15.3669 27.9248 14.8323 27.4032L1.91415 14.7981C1.63052 14.5214 1.47059 14.1419 1.47059 13.7456C1.47059 13.3493 1.63052 12.9698 1.91415 12.6931L7.45047 7.29091C7.74541 7.00311 8.14759 6.85229 8.55903 6.87511C8.97047 6.89797 9.35347 7.09241 9.61474 7.41108L16.0379 15.2454L31.5047 1.83036ZM32.4097 4.93879L16.8229 18.458C16.5229 18.7182 16.1304 18.846 15.7347 18.8123C15.3391 18.7787 14.9738 18.5865 14.7221 18.2794L8.35691 10.5158L5.04688 13.7456L15.9483 24.3828L35.7965 8.24355L32.4097 4.93879ZM45.7612 8.34347C45.7612 7.53126 46.4197 6.87288 47.2318 6.87288H97.0588C97.8709 6.87288 98.5294 7.53126 98.5294 8.34347V22.7492C98.5294 23.5614 97.8709 24.2198 97.0588 24.2198H47.2318C46.4197 24.2198 45.7612 23.5614 45.7612 22.7492V8.34347ZM48.7024 9.81405V21.2786H95.5882V17.0169H76.7588C75.9468 17.0169 75.2882 16.3585 75.2882 15.5463C75.2882 14.7341 75.9468 14.0758 76.7588 14.0758H95.5882V9.81405H48.7024ZM58.6794 15.5463C58.6794 14.7341 59.3376 14.0758 60.15 14.0758H69.3771C70.1894 14.0758 70.8476 14.7341 70.8476 15.5463C70.8476 16.3585 70.1894 17.0169 69.3771 17.0169H60.15C59.3376 17.0169 58.6794 16.3585 58.6794 15.5463ZM31.5047 32.4425C32.0824 31.9416 32.9479 31.9669 33.4953 32.501L39.0318 37.903C39.3318 38.196 39.4926 38.603 39.4738 39.0222C39.4547 39.4413 39.2579 39.8322 38.9324 40.0966L16.7871 58.1039C16.2076 58.5751 15.3669 58.5372 14.8323 58.0154L1.91415 45.4104C1.63052 45.1336 1.47059 44.7542 1.47059 44.3578C1.47059 43.9616 1.63052 43.5822 1.91415 43.3054L7.45047 37.903C7.74541 37.6154 8.14759 37.4645 8.55903 37.4875C8.97047 37.5101 9.35347 37.7045 9.61474 38.0233L16.0379 45.8578L31.5047 32.4425ZM32.4097 35.551L16.8229 49.0701C16.5229 49.3304 16.1304 49.4583 15.7347 49.4245C15.3391 49.391 14.9738 49.1986 14.7221 48.8916L8.35691 41.128L5.04688 44.3578L15.9483 54.9951L35.7965 38.8557L32.4097 35.551ZM45.7612 38.9557C45.7612 38.1436 46.4197 37.4851 47.2318 37.4851H97.0588C97.8709 37.4851 98.5294 38.1436 98.5294 38.9557V53.3616C98.5294 54.1736 97.8709 54.8322 97.0588 54.8322H47.2318C46.4197 54.8322 45.7612 54.1736 45.7612 53.3616V38.9557ZM48.7024 40.4263V51.891H95.5882V40.4263H48.7024ZM25.9049 61.3125C26.4762 60.7551 27.3877 60.7551 27.959 61.3125L33.4953 66.7148C33.7788 66.9916 33.9388 67.371 33.9388 67.7672C33.9388 68.1636 33.7788 68.543 33.4953 68.8198L25.3468 76.7707L33.4953 84.7219C33.7788 84.9986 33.9388 85.378 33.9388 85.7745C33.9388 86.1707 33.7788 86.5501 33.4953 86.8269L27.959 92.2292C27.4036 92.771 26.5227 92.788 25.9466 92.2683L17.7047 84.8292L9.46282 92.2683C8.88679 92.788 8.00588 92.771 7.45047 92.2292L1.91415 86.8269C1.63052 86.5501 1.47059 86.1707 1.47059 85.7745C1.47059 85.378 1.63052 84.9986 1.91415 84.7219L10.0627 76.7707L1.91415 68.8198C1.63052 68.543 1.47059 68.1636 1.47059 67.7672C1.47059 67.371 1.63052 66.9916 1.91415 66.7148L7.45047 61.3125C8.02174 60.7551 8.93329 60.7551 9.50453 61.3125L17.7047 69.3139L25.9049 61.3125ZM5.04688 67.7672L13.1954 75.7183C13.4791 75.9951 13.639 76.3745 13.639 76.7707C13.639 77.1672 13.4791 77.5466 13.1954 77.8233L5.04688 85.7745L8.51674 89.1601L16.7194 81.7566C17.2791 81.2513 18.1303 81.2513 18.6901 81.7566L26.8927 89.1601L30.3626 85.7745L22.214 77.8233C21.9304 77.5466 21.7705 77.1672 21.7705 76.7707C21.7705 76.3745 21.9304 75.9951 22.214 75.7183L30.3626 67.7672L26.9319 64.4198L18.7318 72.4213C18.1605 72.9786 17.2489 72.9786 16.6777 72.4213L8.4775 64.4198L5.04688 67.7672ZM45.7612 69.568C45.7612 68.7557 46.4197 68.0975 47.2318 68.0975H97.0588C97.8709 68.0975 98.5294 68.7557 98.5294 69.568V82.8483C98.5294 83.6604 97.8709 84.3189 97.0588 84.3189H47.2318C46.4197 84.3189 45.7612 83.6604 45.7612 82.8483V69.568ZM48.7024 71.0386V81.3777H95.5882V78.2413H78.6044C77.7921 78.2413 77.1338 77.583 77.1338 76.7707C77.1338 75.9586 77.7921 75.3001 78.6044 75.3001H95.5882V71.0386H48.7024ZM62.3703 76.7707C62.3703 75.9586 63.0285 75.3001 63.8409 75.3001H71.2226C72.0347 75.3001 72.6932 75.9586 72.6932 76.7707C72.6932 77.583 72.0347 78.2413 71.2226 78.2413H63.8409C63.0285 78.2413 62.3703 77.583 62.3703 76.7707Z" fill="black"/>
</svg>
