<svg width="100" height="73" viewBox="0 0 100 73" fill="none" xmlns="http://www.w3.org/2000/svg">
<path fill-rule="evenodd" clip-rule="evenodd" d="M24.4227 1.97034C24.6862 1.67528 25.063 1.50659 25.4586 1.50659H33.9639C34.3594 1.50659 34.7364 1.67528 34.9997 1.97034L37.835 5.14495C38.0622 5.39948 38.1881 5.72881 38.1881 6.07009V28.4908H61.8119V6.07009C61.8119 5.72881 61.9378 5.39948 62.165 5.14495L65 1.97034C65.2636 1.67528 65.6406 1.50659 66.0361 1.50659H74.5414C74.9369 1.50659 75.3139 1.67528 75.5772 1.97034L78.4125 5.14495C78.6397 5.39948 78.7653 5.72881 78.7653 6.07009V11.0304H85.8817C86.2775 11.0304 86.6542 11.1991 86.9178 11.4941L89.7528 14.6688C89.9803 14.9233 90.1058 15.2526 90.1058 15.5939V28.4908H97.2222C97.9892 28.4908 98.6111 29.1124 98.6111 29.8797V42.578C98.6111 43.3452 97.9892 43.9669 97.2222 43.9669H90.1058V56.8638C90.1058 57.2049 89.9803 57.5344 89.7528 57.7888L86.9178 60.9635C86.6542 61.2585 86.2775 61.4272 85.8817 61.4272H78.7653V66.3874C78.7653 66.7288 78.6397 67.0583 78.4125 67.3127L75.5772 70.4874C75.3139 70.7824 74.9369 70.951 74.5414 70.951H66.0361C65.6406 70.951 65.2636 70.7824 65 70.4874L62.165 67.3127C61.9378 67.0583 61.8119 66.7288 61.8119 66.3874V43.9669H38.1881V66.3874C38.1881 66.7288 38.0622 67.0583 37.835 67.3127L34.9997 70.4874C34.7364 70.7824 34.3594 70.951 33.9639 70.951H25.4586C25.063 70.951 24.6862 70.7824 24.4227 70.4874L21.5876 67.3127C21.3603 67.0583 21.2346 66.7288 21.2346 66.3874V61.4272H14.1182C13.7226 61.4272 13.3458 61.2585 13.0823 60.9635L10.2472 57.7888C10.0199 57.5344 9.89419 57.2049 9.89419 56.8638V43.9669H2.77778C2.01072 43.9669 1.38889 43.3452 1.38889 42.578V29.8797C1.38889 29.1124 2.01072 28.4908 2.77778 28.4908H9.89419V15.5939C9.89419 15.2526 10.0199 14.9233 10.2472 14.6688L13.0823 11.4941C13.3458 11.1991 13.7226 11.0304 14.1182 11.0304H21.2346V6.07009C21.2346 5.72881 21.3603 5.39948 21.5876 5.14495L24.4227 1.97034ZM21.2346 13.8082H14.74L12.672 16.1238V56.3338L14.74 58.6494H21.2346V13.8082ZM9.89419 31.2685H4.16667V41.1891H9.89419V31.2685ZM38.1881 41.1891H61.8119V31.2685H38.1881V41.1891ZM78.7653 58.6494H85.26L87.3281 56.3338V16.1238L85.26 13.8082H78.7653V58.6494ZM90.1058 41.1891H95.8333V31.2685H90.1058V41.1891ZM26.0804 4.28437L24.0124 6.59998V65.8577L26.0804 68.1733H33.3422L35.4103 65.8577V6.59998L33.3422 4.28437H26.0804ZM66.6578 4.28437L64.5897 6.59998V65.8577L66.6578 68.1733H73.9197L75.9875 65.8577V6.59998L73.9197 4.28437H66.6578Z" fill="black"/>
</svg>
