<svg width="100" height="100" viewBox="0 0 100 100" fill="none" xmlns="http://www.w3.org/2000/svg">
<path d="M85 21.7111V7.5C85 6.11929 86.1193 5 87.5 5C88.8807 5 90 6.11929 90 7.5V27.5C90 28.8807 88.8807 30 87.5 30H67.5C66.1193 30 65 28.8807 65 27.5C65 26.1193 66.1193 25 67.5 25H81.2287C73.7302 15.6357 62.3471 10 50 10C27.9086 10 10 27.9086 10 50C10 72.0914 27.9086 90 50 90C71.175 90 88.6494 73.4954 89.9255 52.4624C90.0091 51.0842 91.1942 50.0348 92.5723 50.1184C93.9505 50.202 95 51.387 94.9164 52.7652C93.4804 76.4333 73.8227 95 50 95C25.1472 95 5 74.8528 5 50C5 25.1472 25.1472 5 50 5C63.8163 5 76.5651 11.2771 85 21.7111Z" fill="black"/>
</svg>
