<svg width="100" height="100" viewBox="0 0 100 100" fill="none" xmlns="http://www.w3.org/2000/svg">
<path d="M14.921 21.7111C23.3559 11.2771 36.1047 5 49.921 5C74.7738 5 94.921 25.1472 94.921 50C94.921 74.8528 74.7738 95 49.921 95C26.0983 95 6.44067 76.4333 5.00467 52.7652C4.92105 51.387 5.9705 50.202 7.34868 50.1184C8.72686 50.0348 9.91188 51.0842 9.99549 52.4624C11.2716 73.4954 28.746 90 49.921 90C72.0124 90 89.921 72.0914 89.921 50C89.921 27.9086 72.0124 10 49.921 10C37.5739 10 26.1908 15.6357 18.6923 25H32.421C33.8017 25 34.921 26.1193 34.921 27.5C34.921 28.8807 33.8017 30 32.421 30H12.421C11.0403 30 9.92102 28.8807 9.92102 27.5V7.5C9.92102 6.11929 11.0403 5 12.421 5C13.8017 5 14.921 6.11929 14.921 7.5V21.7111Z" fill="black"/>
</svg>
