<svg width="100" height="100" viewBox="0 0 100 100" fill="none" xmlns="http://www.w3.org/2000/svg">
<path d="M75.1158 81.2746C84.4971 73.7623 90.1406 62.3604 90.1406 49.9943C90.1406 28.7899 73.617 11.2893 52.5558 10.0037C51.1754 9.91943 50.1246 8.73207 50.2089 7.35164C50.2931 5.97122 51.4805 4.92047 52.8609 5.00473C76.5608 6.45143 95.1488 26.1385 95.1488 49.9943C95.1488 63.832 88.863 76.6019 78.41 85.0522H92.6447C94.0277 85.0522 95.1488 86.1733 95.1488 87.5563C95.1488 88.9393 94.0277 90.0605 92.6447 90.0605H72.6116C71.2286 90.0605 70.1075 88.9393 70.1075 87.5563V67.5233C70.1075 66.1403 71.2286 65.0191 72.6116 65.0191C73.9946 65.0191 75.1158 66.1403 75.1158 67.5233V81.2746ZM25.0331 18.714C15.6526 26.2255 10.0083 37.6275 10.0083 49.9943C10.0083 71.2664 26.634 88.8005 47.7747 89.9957C49.1555 90.0737 50.2116 91.2563 50.1335 92.6371C50.0555 94.0179 48.8728 95.074 47.4921 94.9959C23.7029 93.6511 5 73.9262 5 49.9943C5 36.1559 11.2867 23.3859 21.7388 14.9365H7.50413C6.12114 14.9365 5 13.8153 5 12.4323C5 11.0493 6.12114 9.92819 7.50413 9.92819H27.5372C28.9202 9.92819 30.0413 11.0493 30.0413 12.4323V32.4654C30.0413 33.8484 28.9202 34.9695 27.5372 34.9695C26.1542 34.9695 25.0331 33.8484 25.0331 32.4654V18.714Z" fill="black"/>
</svg>
