<svg width="100" height="100" viewBox="0 0 100 100" fill="none" xmlns="http://www.w3.org/2000/svg">
<path d="M82.445 23.5267C81.9017 23.2367 81.2383 23.2767 80.7283 23.6233L46.6667 46.8467V25C46.6667 24.3817 46.325 23.815 45.7783 23.5267C45.235 23.2367 44.5733 23.2767 44.0617 23.6233L7.395 48.6233C6.93834 48.9333 6.66667 49.4483 6.66667 50C6.66667 50.5517 6.93834 51.0667 7.395 51.3767L44.0617 76.3767C44.3417 76.5683 44.6717 76.6667 45 76.6667C45.2667 76.6667 45.5333 76.6033 45.7783 76.4733C46.325 76.185 46.6667 75.6183 46.6667 75V53.1533L80.7283 76.3767C81.0083 76.5683 81.3383 76.6667 81.6667 76.6667C81.9333 76.6667 82.2 76.6033 82.445 76.4733C82.9917 76.185 83.3333 75.6183 83.3333 75V25C83.3333 24.3817 82.9917 23.815 82.445 23.5267ZM43.3333 71.845L11.2917 50L43.3333 28.155V71.845ZM80 71.845L47.9583 50L80 28.155V71.845Z" fill="black"/>
<path d="M50 0C22.43 0 0 22.43 0 50C0 77.57 22.43 100 50 100C77.57 100 100 77.57 100 50C100 22.43 77.57 0 50 0ZM50 96.6667C24.2683 96.6667 3.33333 75.7317 3.33333 50C3.33333 24.2683 24.2683 3.33333 50 3.33333C75.7317 3.33333 96.6667 24.2683 96.6667 50C96.6667 75.7317 75.7317 96.6667 50 96.6667Z" fill="black"/>
</svg>
