<svg width="100" height="100" viewBox="0 0 100 100" fill="none" xmlns="http://www.w3.org/2000/svg">
<path fill-rule="evenodd" clip-rule="evenodd" d="M50 0C22.3858 0 0 22.3858 0 50C0 77.6142 22.3858 100 50 100C77.6142 100 100 77.6142 100 50C100 22.3858 77.6142 0 50 0ZM36.6671 70C32.9854 70 30.0004 67.015 30.0004 63.3333C30.0004 59.6517 32.9854 56.6667 36.6671 56.6667C40.3488 56.6667 43.3337 59.6517 43.3337 63.3333C43.3337 67.015 40.3488 70 36.6671 70ZM76.6667 70C76.6667 44.2683 55.7319 23.3333 30.0004 23.3333V32.2217C50.8319 32.2217 67.7783 49.1683 67.7783 70H76.6667ZM30 38.8883C47.1548 38.8883 61.1112 52.845 61.1112 70H52.2231C52.2231 57.7467 42.2531 47.7783 30 47.7783V38.8883Z" fill="black"/>
</svg>
