<svg width="100" height="100" viewBox="0 0 100 100" fill="none" xmlns="http://www.w3.org/2000/svg">
<g clip-path="url(#clip0_12_7)">
<path d="M58.6888 16.7709C53.0906 11.1727 45.6474 8.08957 37.7302 8.08957C29.813 8.08957 22.3698 11.1727 16.7717 16.7709C11.1735 22.3691 8.09032 29.8125 8.09032 37.7297C8.09032 45.6469 11.1735 53.0901 16.7717 58.6883C22.3698 64.2864 29.8133 67.3696 37.7302 67.3696C45.6474 67.3696 53.0906 64.2864 58.6888 58.6883C64.2869 53.0901 67.3701 45.6467 67.3701 37.7297C67.3701 29.8123 64.2869 22.3691 58.6888 16.7709ZM55.8989 55.8981C51.0459 60.7511 44.5934 63.4239 37.7302 63.4239C30.867 63.4239 24.4145 60.7513 19.5615 55.8981C9.54339 45.88 9.54339 29.5789 19.5615 19.5608C24.4145 14.7078 30.867 12.0353 37.7302 12.0353C44.5934 12.0353 51.0459 14.7078 55.8989 19.5608C65.917 29.5789 65.917 45.88 55.8989 55.8981Z" fill="black"/>
<path d="M97.6055 86.0225L73.7293 62.1463C72.9588 61.3758 71.7096 61.3758 70.9394 62.1463L69.9843 63.1014L67.6413 60.7584C79.0462 45.9668 77.9735 24.59 64.4216 11.0381C49.7041 -3.67968 25.7566 -3.67968 11.0391 11.0381C-3.67867 25.7556 -3.67867 49.7031 11.0391 64.4206C18.3978 71.7793 28.0643 75.4588 37.7305 75.4588C45.8652 75.4588 53.9999 72.8523 60.7595 67.6403L63.1024 69.9832L62.1473 70.9384C61.7772 71.3082 61.5694 71.8101 61.5694 72.3333C61.5694 72.8565 61.7772 73.3584 62.1473 73.7282L86.0236 97.6045C87.6203 99.2012 89.7173 99.9993 91.8148 99.9993C93.9118 99.9993 96.0094 99.2009 97.6061 97.6045C100.799 94.4116 100.799 89.2159 97.6055 86.0225ZM13.8287 61.6307C7.44427 55.2463 3.92839 46.758 3.92839 37.7295C3.92839 28.7009 7.44454 20.2124 13.8287 13.8282C20.2131 7.44406 28.7014 3.9279 37.7299 3.9279C46.7585 3.9279 55.2473 7.44406 61.6315 13.8282C68.0159 20.2126 71.5318 28.7009 71.5318 37.7295C71.5318 46.758 68.0159 55.2466 61.6315 61.6307C55.247 68.0149 46.7588 71.531 37.7302 71.531C28.7016 71.531 20.2131 68.0151 13.8287 61.6307ZM63.7621 65.0635C63.9839 64.8522 64.2038 64.6384 64.4213 64.4206C64.6389 64.2028 64.853 63.9829 65.0642 63.7614L67.1941 65.8913L65.892 67.1934L63.7621 65.0635ZM94.8157 94.8149C93.1606 96.4697 90.4683 96.4695 88.8134 94.8149L66.3321 72.3336L72.3343 66.3314L94.8157 88.8127C96.4705 90.4675 96.4705 93.1601 94.8157 94.8149Z" fill="black"/>
</g>
<defs>
<clipPath id="clip0_12_7">
<rect width="100" height="100" fill="white"/>
</clipPath>
</defs>
</svg>
