<svg width="100" height="100" viewBox="0 0 100 100" fill="none" xmlns="http://www.w3.org/2000/svg">
<path d="M50 25.8586C36.6883 25.8586 25.8586 36.6883 25.8586 50C25.8586 63.3117 36.6883 74.1414 50 74.1414C63.3117 74.1414 74.1414 63.3117 74.1414 50C74.1414 36.6883 63.3117 25.8586 50 25.8586ZM50 71.1111C38.3592 71.1111 28.8889 61.6408 28.8889 50C28.8889 38.3592 38.3592 28.8889 50 28.8889C61.6408 28.8889 71.1111 38.3592 71.1111 50C71.1111 61.6408 61.6408 71.1111 50 71.1111Z" fill="black"/>
<path d="M95.2525 38.7879H88.7222C87.8974 35.9388 86.7501 33.1784 85.3008 30.5556L89.9265 25.9299C90.823 25.0333 91.317 23.841 91.317 22.5729C91.317 21.3048 90.823 20.1125 89.9265 19.216L80.784 10.0735C79.8875 9.17697 78.6952 8.68303 77.4271 8.68303C76.159 8.68303 74.9669 9.17697 74.0701 10.0735L69.4444 14.6992C66.8216 13.2499 64.0612 12.1028 61.2121 11.2778V4.74747C61.2121 2.1297 59.0824 0 56.4646 0H43.5354C40.9176 0 38.7879 2.1297 38.7879 4.74747V11.2778C35.9388 12.1026 33.1784 13.2499 30.5556 14.6992L25.9299 10.0735C25.0333 9.17697 23.841 8.68303 22.5729 8.68303C21.3048 8.68303 20.1125 9.17697 19.216 10.0735L10.0735 19.2158C9.17697 20.1123 8.68303 21.3046 8.68303 22.5727C8.68303 23.8408 9.17697 25.0331 10.0735 25.9297L14.6992 30.5554C13.2499 33.1782 12.1028 35.9386 11.2778 38.7877H4.74747C2.1297 38.7879 0 40.9176 0 43.5354V56.4646C0 59.0824 2.1297 61.2121 4.74747 61.2121H11.2778C12.1026 64.0612 13.2499 66.8216 14.6992 69.4444L10.0735 74.0701C9.17697 74.9667 8.68303 76.159 8.68303 77.4271C8.68303 78.6952 9.17697 79.8875 10.0735 80.784L19.216 89.9265C20.1125 90.823 21.3048 91.317 22.5729 91.317C23.841 91.317 25.0331 90.823 25.9299 89.9265L30.5556 85.3008C33.1784 86.7501 35.9388 87.8972 38.7879 88.7222V95.2525C38.7879 97.8703 40.9176 100 43.5354 100H56.4646C59.0824 100 61.2121 97.8703 61.2121 95.2525V88.7222C64.0612 87.8974 66.8216 86.7501 69.4444 85.3008L74.0701 89.9265C74.9667 90.823 76.159 91.317 77.4271 91.317C78.6952 91.317 79.8875 90.823 80.784 89.9265L89.9265 80.784C90.823 79.8875 91.317 78.6952 91.317 77.4271C91.317 76.159 90.823 74.9669 89.9265 74.0701L85.3008 69.4444C86.7501 66.8216 87.8972 64.0612 88.7222 61.2121H95.2525C97.8703 61.2121 100 59.0824 100 56.4646V43.5354C100 40.9176 97.8703 38.7879 95.2525 38.7879ZM96.9697 56.4646C96.9697 57.4115 96.1994 58.1818 95.2525 58.1818H87.5659C86.8745 58.1818 86.2709 58.6497 86.0986 59.3192C85.2355 62.6719 83.8925 65.9044 82.1069 68.9269C81.7551 69.522 81.8509 70.28 82.34 70.7689L87.7838 76.2127C88.4533 76.8822 88.4533 77.9717 87.7838 78.6412L78.6414 87.7836C77.9717 88.4533 76.8824 88.4531 76.2129 87.7836L70.7691 82.3398C70.2804 81.8509 69.5224 81.7549 68.9271 82.1067C65.9046 83.8923 62.6721 85.2354 59.3194 86.0984C58.6499 86.2707 58.182 86.8743 58.182 87.5657V95.2525C58.182 96.1994 57.4117 96.9697 56.4648 96.9697H43.5356C42.5887 96.9697 41.8184 96.1994 41.8184 95.2525V87.5659C41.8184 86.8745 41.3505 86.2709 40.681 86.0986C37.3283 85.2355 34.0958 83.8925 31.0733 82.1069C30.8335 81.9652 30.5675 81.8962 30.303 81.8962C29.9111 81.8962 29.5232 82.0479 29.2311 82.34L23.7873 87.7838C23.1178 88.4533 22.0285 88.4535 21.3588 87.7838L12.2162 78.6414C11.5467 77.9719 11.5467 76.8824 12.2162 76.2129L17.66 70.7691C18.1489 70.2802 18.2448 69.5222 17.8931 68.9271C16.1075 65.9046 14.7644 62.6721 13.9014 59.3194C13.7291 58.6499 13.1255 58.182 12.4341 58.182H4.74747C3.80061 58.182 3.0303 57.4117 3.0303 56.4648V43.5356C3.0303 42.5887 3.80061 41.8184 4.74747 41.8184H12.4341C13.1255 41.8184 13.7291 41.3505 13.9014 40.681C14.7644 37.3283 16.1075 34.0958 17.8931 31.0733C18.2448 30.4782 18.1491 29.7202 17.66 29.2313L12.2162 23.7871C11.8919 23.4628 11.7131 23.0315 11.7131 22.5727C11.7131 22.1139 11.8917 21.6828 12.2162 21.3586L21.3586 12.2162C22.0283 11.5467 23.1176 11.5467 23.7871 12.2162L29.2309 17.66C29.7198 18.1489 30.4778 18.2451 31.0729 17.8931C34.0954 16.1075 37.3279 14.7644 40.6806 13.9014C41.3501 13.7291 41.818 13.1255 41.818 12.4341V4.74747C41.818 3.80061 42.5883 3.0303 43.5351 3.0303H56.4644C57.4113 3.0303 58.1816 3.80061 58.1816 4.74747V12.4341C58.1816 13.1255 58.6495 13.7291 59.319 13.9014C62.6717 14.7644 65.9042 16.1075 68.9267 17.8931C69.5216 18.2446 70.2796 18.1491 70.7687 17.66L76.2125 12.2162C76.882 11.5467 77.9713 11.5467 78.641 12.2162L87.7834 21.3586C88.1077 21.6828 88.2865 22.1139 88.2865 22.5727C88.2865 23.0315 88.1079 23.4626 87.7834 23.7871L82.3396 29.2309C81.8507 29.7198 81.7547 30.4778 82.1065 31.0729C83.8921 34.0954 85.2352 37.3279 86.0982 40.6806C86.2705 41.3501 86.8741 41.818 87.5655 41.818H95.2525C96.1994 41.818 96.9697 42.5883 96.9697 43.5351V56.4646Z" fill="black"/>
</svg>
