<svg width="100" height="100" viewBox="0 0 100 100" fill="none" xmlns="http://www.w3.org/2000/svg">
<path fill-rule="evenodd" clip-rule="evenodd" d="M0 50C0 77.6142 22.3858 100 50 100C77.6142 100 100 77.6142 100 50C100 22.3858 77.6142 0 50 0C22.3858 0 0 22.3858 0 50ZM26.8667 40.5556C29.7973 40.5556 32.4394 41.801 34.2998 43.7952L56.705 33.2677C56.42 32.3217 56.2667 31.3177 56.2667 30.2777C56.2667 24.6015 60.8333 20 66.4667 20C72.1 20 76.6667 24.6015 76.6667 30.2777C76.6667 35.954 72.1 40.5556 66.4667 40.5556C64.071 40.5556 61.8683 39.7233 60.1277 38.3304L36.9423 49.2244C37.0242 49.7485 37.0667 50.2858 37.0667 50.8333C37.0667 51.3808 37.0242 51.9181 36.9423 52.4423L60.1277 63.3362C61.8683 61.9433 64.071 61.111 66.4667 61.111C72.1 61.111 76.6667 65.7127 76.6667 71.389C76.6667 77.0652 72.1 81.6667 66.4667 81.6667C60.8333 81.6667 56.2667 77.0652 56.2667 71.389C56.2667 70.349 56.42 69.345 56.705 68.399L34.2998 57.8715C32.4394 59.8656 29.7973 61.111 26.8667 61.111C21.2333 61.111 16.6667 56.5096 16.6667 50.8333C16.6667 45.1571 21.2333 40.5556 26.8667 40.5556Z" fill="black"/>
</svg>
