<svg width="100" height="100" viewBox="0 0 100 100" fill="none" xmlns="http://www.w3.org/2000/svg">
<g clip-path="url(#clip0_5_7132)">
<path d="M99.9004 37.9865C99.6932 37.365 99.1063 36.9162 98.4503 36.8816L64.2349 34.6029L51.4948 1.07811C51.2531 0.42211 50.6316 0.00779724 49.9411 0.00779724C49.2506 0.00779724 48.6291 0.42211 48.3874 1.07811L35.7509 34.6374L1.53556 36.9852C0.879559 37.0197 0.292616 37.4686 0.0854596 38.1246C-0.121697 38.746 0.0509335 39.4711 0.568825 39.8854L27.0503 62.9143L18.626 97.9582C18.4533 98.6142 18.7295 99.3048 19.282 99.6845C19.5582 99.8917 19.9034 99.9953 20.2142 99.9953C20.5249 99.9953 20.8356 99.8917 21.1464 99.7191L50.0792 80.419L79.0466 99.6155C79.3228 99.7881 79.6335 99.8917 79.9443 99.8917C80.842 99.8917 81.6015 99.1666 81.6015 98.2344C81.6015 98.0618 81.567 97.8547 81.498 97.682L72.97 62.8107L99.3825 39.7128C99.9349 39.2985 100.142 38.6079 99.9004 37.9865ZM70.0698 61.0154C69.621 61.4297 69.4138 62.0511 69.5519 62.6381L77.3548 94.5402L50.9769 77.0354C50.4245 76.6557 49.6994 76.6557 49.147 77.0354L22.8036 94.6092L30.5029 62.7071C30.641 62.1202 30.4339 61.4642 29.985 61.0844L5.74774 40.0235L37.0284 37.8484C37.6844 37.8138 38.2368 37.3995 38.4439 36.7781L49.9066 6.32607L61.4728 36.7435C61.7145 37.3305 62.2669 37.7793 62.9229 37.8138L94.2036 39.8854L70.0698 61.0154Z" fill="black"/>
<path d="M50.3209 14.6798C49.872 14.5072 49.3887 14.7489 49.216 15.1977L41.3786 35.9133C41.206 36.3622 41.4477 36.8455 41.8965 37.0182C42.0001 37.0527 42.1037 37.0872 42.2073 37.0872C42.5525 37.0872 42.8978 36.8801 43.0014 36.5348L50.8042 15.7846C50.9769 15.3358 50.7697 14.8179 50.3209 14.6798Z" fill="black"/>
</g>
<defs>
<clipPath id="clip0_5_7132">
<rect width="100" height="100" fill="white"/>
</clipPath>
</defs>
</svg>
