<svg width="100" height="100" viewBox="0 0 100 100" fill="none" xmlns="http://www.w3.org/2000/svg">
<path d="M86.4645 10H72.5C71.1193 10 70 8.88071 70 7.5C70 6.11929 71.1193 5 72.5 5H92.5C93.8807 5 95 6.11929 95 7.5V27.5C95 28.8807 93.8807 30 92.5 30C91.1193 30 90 28.8807 90 27.5V13.5355L64.2678 39.2678C63.2915 40.2441 61.7085 40.2441 60.7322 39.2678C59.7559 38.2915 59.7559 36.7085 60.7322 35.7322L86.4645 10ZM90 47.5C90 46.1193 91.1193 45 92.5 45C93.8807 45 95 46.1193 95 47.5V82.5C95 89.4036 89.4036 95 82.5 95H17.5C10.5964 95 5 89.4036 5 82.5V17.5C5 10.5964 10.5964 5 17.5 5H52.5C53.8807 5 55 6.11929 55 7.5C55 8.88071 53.8807 10 52.5 10H17.5C13.3579 10 10 13.3579 10 17.5V82.5C10 86.6421 13.3579 90 17.5 90H82.5C86.6421 90 90 86.6421 90 82.5V47.5Z" fill="black"/>
</svg>
