<svg width="100" height="100" viewBox="0 0 100 100" fill="none" xmlns="http://www.w3.org/2000/svg">
<path d="M13.5355 50L29.2678 65.7322C30.2441 66.7085 30.2441 68.2915 29.2678 69.2678C28.2915 70.2441 26.7085 70.2441 25.7322 69.2678L5.73223 49.2678C4.75592 48.2915 4.75592 46.7085 5.73223 45.7322L25.7322 25.7322C26.7085 24.7559 28.2915 24.7559 29.2678 25.7322C30.2441 26.7085 30.2441 28.2915 29.2678 29.2678L13.5355 45H67.5C68.8807 45 70 46.1193 70 47.5C70 48.8807 68.8807 50 67.5 50H13.5355ZM42.5 10C41.1193 10 40 8.88071 40 7.5C40 6.11929 41.1193 5 42.5 5H82.5C89.4036 5 95 10.5964 95 17.5V82.5C95 89.4036 89.4036 95 82.5 95H42.5C41.1193 95 40 93.8807 40 92.5C40 91.1193 41.1193 90 42.5 90H82.5C86.6421 90 90 86.6421 90 82.5V17.5C90 13.3579 86.6421 10 82.5 10H42.5Z" fill="black"/>
</svg>
