<svg width="100" height="100" viewBox="0 0 100 100" fill="none" xmlns="http://www.w3.org/2000/svg">
<path d="M61.4645 50H7.5C6.11929 50 5 48.8807 5 47.5C5 46.1193 6.11929 45 7.5 45H61.4645L45.7322 29.2678C44.7559 28.2915 44.7559 26.7085 45.7322 25.7322C46.7085 24.7559 48.2915 24.7559 49.2678 25.7322L69.2678 45.7322C70.2441 46.7085 70.2441 48.2915 69.2678 49.2678L49.2678 69.2678C48.2915 70.2441 46.7085 70.2441 45.7322 69.2678C44.7559 68.2915 44.7559 66.7085 45.7322 65.7322L61.4645 50ZM42.5 10C41.1193 10 40 8.88071 40 7.5C40 6.11929 41.1193 5 42.5 5H82.5C89.4036 5 95 10.5964 95 17.5V82.5C95 89.4036 89.4036 95 82.5 95H42.5C41.1193 95 40 93.8807 40 92.5C40 91.1193 41.1193 90 42.5 90H82.5C86.6421 90 90 86.6421 90 82.5V17.5C90 13.3579 86.6421 10 82.5 10H42.5Z" fill="black"/>
</svg>
