<svg width="100" height="100" viewBox="0 0 100 100" fill="none" xmlns="http://www.w3.org/2000/svg">
<path d="M62.605 48.6234L25.9383 23.6234C25.4267 23.2767 24.765 23.2384 24.22 23.5267C23.675 23.815 23.3333 24.3817 23.3333 25V75C23.3333 75.6184 23.675 76.185 24.2217 76.4734C24.465 76.6034 24.7333 76.6667 25 76.6667C25.3283 76.6667 25.6567 76.5684 25.9383 76.3767L62.605 51.3767C63.06 51.0667 63.3333 50.5517 63.3333 50C63.3333 49.4484 63.06 48.9334 62.605 48.6234ZM26.6667 71.845V28.155L58.7083 50L26.6667 71.845Z" fill="black"/>
<path d="M50 0C22.43 0 0 22.43 0 50C0 77.57 22.43 100 50 100C77.57 100 100 77.57 100 50C100 22.43 77.57 0 50 0ZM50 96.6667C24.2683 96.6667 3.33333 75.7317 3.33333 50C3.33333 24.2683 24.2683 3.33333 50 3.33333C75.7317 3.33333 96.6667 24.2683 96.6667 50C96.6667 75.7317 75.7317 96.6667 50 96.6667Z" fill="black"/>
<path d="M66.6667 76.6666H78.3334V23.3333H66.6667V76.6666ZM70 26.6666H75V73.3332H70V26.6666Z" fill="black"/>
</svg>
