<svg width="100" height="100" viewBox="0 0 100 100" fill="none" xmlns="http://www.w3.org/2000/svg">
<g clip-path="url(#clip0_13_57)">
<path d="M79.1366 0.873865C77.0151 -0.326031 74.5044 -0.286904 72.4198 0.969509C72.3198 1.0282 72.2242 1.09776 72.1372 1.17166L42.6833 26.0891H19.5679C18.3658 26.0891 17.3942 27.0607 17.3942 28.2628V69.5635C17.3942 70.1417 17.6224 70.6939 18.0311 71.1004C18.4397 71.5069 18.9897 71.7373 19.5679 71.7373L42.6311 71.7264L72.0698 98.7675C72.1785 98.8675 72.2959 98.9545 72.4198 99.0284C73.4893 99.674 74.674 99.9978 75.8586 99.9978C76.9825 99.9957 78.1041 99.7066 79.1366 99.124C81.3082 97.898 82.6059 95.6569 82.6059 93.1332V6.86465C82.6059 4.34095 81.3082 2.10202 79.1366 0.873865ZM78.2584 93.1332C78.2584 94.0701 77.7867 94.8939 76.9999 95.3396C76.6629 95.5287 75.8087 95.8939 74.8261 95.3961L45.6526 68.5962V58.6927C45.6526 57.4907 44.6809 56.519 43.4789 56.519C42.2768 56.519 41.3051 57.4907 41.3051 58.6927V67.3789L21.7416 67.3876V30.4343H41.3051V39.1292C41.3051 40.3313 42.2768 41.303 43.4789 41.303C44.6809 41.303 45.6526 40.3313 45.6526 39.1292V29.2692L74.7914 4.61919C75.7934 4.09315 76.6608 4.46703 76.9999 4.65832C77.7867 5.10393 78.2584 5.92777 78.2584 6.86465V93.1332V93.1332Z" fill="black"/>
</g>
<defs>
<clipPath id="clip0_13_57">
<rect width="100" height="100" fill="white"/>
</clipPath>
</defs>
</svg>
