<svg width="100" height="100" viewBox="0 0 100 100" fill="none" xmlns="http://www.w3.org/2000/svg">
<path d="M67.3967 12.355C65.7667 11.42 63.8267 11.4333 62.205 12.3867C62.1 12.4483 62.0033 12.5217 61.915 12.605L39.8433 33.1517C39.5933 33.2717 39.3217 33.3333 39.045 33.3333H25.1717C22.32 33.3333 20 35.655 20 38.5067V59.8283C20 62.6783 22.32 65 25.1733 65H39.0467C39.3233 65 39.595 65.0617 39.845 65.1817L61.915 85.7283C62.0033 85.8117 62.1017 85.885 62.205 85.9467C63.025 86.4283 63.9267 86.67 64.8283 86.67C65.71 86.67 66.5917 86.44 67.3983 85.9783C69.0267 85.045 70 83.3683 70 81.49V16.8433C70 14.965 69.0267 13.2883 67.3967 12.355ZM66.6667 81.49C66.6667 82.4517 66.0183 82.9267 65.74 83.0867C65.4767 83.2367 64.8033 83.5233 64.0317 83.1483L41.9583 62.5983C41.8683 62.5133 41.77 62.44 41.665 62.38C40.87 61.9117 39.965 61.6667 39.045 61.6667H25.1717C24.1583 61.6667 23.3333 60.8417 23.3333 59.8267V38.5067C23.3333 37.4917 24.1583 36.6667 25.1733 36.6667H39.0467C39.965 36.6667 40.8717 36.4217 41.6667 35.9533C41.7717 35.8933 41.87 35.82 41.96 35.735L64.0333 15.185C64.8083 14.8083 65.48 15.0967 65.7417 15.2467C66.0183 15.4067 66.6667 15.8817 66.6667 16.8433V81.49Z" fill="black"/>
<path d="M50 0C22.43 0 0 22.43 0 50C0 77.57 22.43 100 50 100C77.57 100 100 77.57 100 50C100 22.43 77.57 0 50 0ZM50 96.6667C24.2683 96.6667 3.33333 75.7317 3.33333 50C3.33333 24.2683 24.2683 3.33333 50 3.33333C75.7317 3.33333 96.6667 24.2683 96.6667 50C96.6667 75.7317 75.7317 96.6667 50 96.6667Z" fill="black"/>
</svg>
