<svg width="100" height="100" viewBox="0 0 100 100" fill="none" xmlns="http://www.w3.org/2000/svg">
<path d="M57.395 12.355C55.7633 11.42 53.8233 11.4333 52.2033 12.3867C52.0983 12.4483 52.0017 12.5217 51.9133 12.605L29.8433 33.1517C29.5933 33.2717 29.3217 33.3333 29.045 33.3333H15.1733C12.32 33.3333 10 35.655 10 38.5067V59.8283C10 62.6783 12.32 65 15.1733 65H29.0467C29.3233 65 29.595 65.0617 29.845 65.1817L51.915 85.7283C52.0033 85.8117 52.1017 85.885 52.205 85.9467C53.025 86.4283 53.9267 86.67 54.8283 86.67C55.71 86.67 56.5917 86.44 57.3967 85.9783C59.0267 85.045 60 83.3683 60 81.49V16.8433C60 14.965 59.0267 13.2883 57.395 12.355ZM56.6667 81.49C56.6667 82.4517 56.0183 82.9267 55.74 83.0867C55.4767 83.2367 54.8033 83.5233 54.0317 83.1483L31.9583 62.5983C31.8683 62.5133 31.77 62.44 31.665 62.38C30.87 61.9117 29.965 61.6667 29.045 61.6667H15.1733C14.1583 61.6667 13.3333 60.8417 13.3333 59.8267V38.5067C13.3333 37.4917 14.1583 36.6667 15.1733 36.6667H29.0467C29.965 36.6667 30.8717 36.4217 31.6667 35.9533C31.7717 35.8933 31.87 35.82 31.96 35.735L54.0333 15.185C54.8083 14.8083 55.48 15.0967 55.7417 15.2467C56.0183 15.4067 56.6667 15.8817 56.6667 16.8433V81.49Z" fill="black"/>
<path d="M69.7217 28.8218C69.07 29.4734 69.07 30.5268 69.7217 31.1784C80.1183 41.5751 80.1183 58.4951 69.7217 68.8918C69.07 69.5434 69.07 70.5968 69.7217 71.2484C70.0467 71.5734 70.4733 71.7368 70.9 71.7368C71.3267 71.7368 71.7533 71.5734 72.0783 71.2484C83.775 59.5501 83.775 40.5184 72.0783 28.8218C71.4283 28.1701 70.3733 28.1701 69.7217 28.8218Z" fill="black"/>
<path d="M66.1783 33.8218C65.5267 33.1701 64.4733 33.1701 63.8217 33.8218C63.17 34.4734 63.17 35.5268 63.8217 36.1784C70.9833 43.3401 70.9833 54.9934 63.8217 62.1551C63.17 62.8067 63.17 63.8601 63.8217 64.5118C64.1467 64.8368 64.5733 65.0001 65 65.0001C65.4267 65.0001 65.8533 64.8368 66.1783 64.5118C74.64 56.0501 74.64 42.2834 66.1783 33.8218Z" fill="black"/>
<path d="M50 0C22.43 0 0 22.43 0 50C0 77.57 22.43 100 50 100C77.57 100 100 77.57 100 50C100 22.43 77.57 0 50 0ZM50 96.6667C24.2683 96.6667 3.33333 75.7317 3.33333 50C3.33333 24.2683 24.2683 3.33333 50 3.33333C75.7317 3.33333 96.6667 24.2683 96.6667 50C96.6667 75.7317 75.7317 96.6667 50 96.6667Z" fill="black"/>
</svg>
