<svg width="100" height="100" viewBox="0 0 100 100" fill="none" xmlns="http://www.w3.org/2000/svg">
<path d="M54.5958 6.56018C52.7198 5.49917 50.4997 5.53377 48.6564 6.64475C48.568 6.69665 48.4834 6.75815 48.4066 6.82351L22.3619 28.8567H1.92212C0.859186 28.8567 0 29.7159 0 30.7788V67.299C0 67.8103 0.201822 68.2985 0.56318 68.658C0.924538 69.0174 1.41083 69.2212 1.92212 69.2212L22.3158 69.2115L48.347 93.1227C48.4431 93.2111 48.5469 93.288 48.6564 93.3533C49.6021 93.9242 50.6497 94.2106 51.6972 94.2106C52.691 94.2087 53.6828 93.953 54.5958 93.4379C56.516 92.3538 57.6635 90.374 57.6635 88.1425V11.8575C57.6635 9.62595 56.516 7.64617 54.5958 6.56018ZM53.8192 88.1425C53.8192 88.9709 53.4021 89.6994 52.7063 90.0934C52.4084 90.2606 51.653 90.5835 50.7842 90.1434L24.9875 66.4456V57.6885C24.9875 56.6255 24.1283 55.7663 23.0654 55.7663C22.0025 55.7663 21.1433 56.6255 21.1433 57.6885V65.3692L3.84423 65.3769V32.701H21.1433V40.3894C21.1433 41.4523 22.0025 42.3115 23.0654 42.3115C24.1283 42.3115 24.9875 41.4523 24.9875 40.3894V31.6707L50.7535 9.8739C51.6396 9.40875 52.4065 9.73936 52.7063 9.9085C53.4021 10.3025 53.8192 11.031 53.8192 11.8575V88.1425Z" fill="black"/>
<path d="M74.5723 13.5817C73.5671 13.2414 72.4753 13.7796 72.1332 14.7849C71.793 15.7882 72.3311 16.8819 73.3364 17.2241C86.9853 21.8583 96.1558 34.6442 96.1558 49.0408C96.1558 63.424 87.0026 76.2119 73.3806 80.8596C72.3773 81.2017 71.8391 82.2935 72.1831 83.3006C72.4561 84.0983 73.2019 84.6019 74.0015 84.6019C74.2071 84.6019 74.4166 84.5692 74.6223 84.4981C89.7993 79.3219 99.9981 65.0732 99.9981 49.0428C100 32.995 89.782 18.7464 74.5723 13.5817Z" fill="black"/>
<path d="M82.701 49.0389C82.701 37.56 74.9952 27.3152 63.9622 24.1244C62.9378 23.8342 61.8787 24.4166 61.5827 25.4392C61.2886 26.4579 61.8748 27.5247 62.8974 27.8188C72.2946 30.5347 78.8586 39.2611 78.8586 49.0389C78.8586 58.8167 72.2946 67.5431 62.8974 70.2591C61.8767 70.5532 61.2886 71.6199 61.5827 72.6387C61.8268 73.4805 62.5937 74.0283 63.4298 74.0283C63.6067 74.0283 63.7854 74.0034 63.9622 73.9534C74.9971 70.7627 82.701 60.5178 82.701 49.0389Z" fill="black"/>
</svg>
