<svg width="100" height="100" viewBox="0 0 100 100" fill="none" xmlns="http://www.w3.org/2000/svg">
<path fill-rule="evenodd" clip-rule="evenodd" d="M0 50C0 77.6142 22.3858 100 50 100C77.6142 100 100 77.6142 100 50C100 22.3858 77.6142 0 50 0C22.3858 0 0 22.3858 0 50ZM40.8333 72.9167L41.684 60.1715L41.6833 60.1708L64.8685 39.2479C65.886 38.3448 64.6465 37.9044 63.2956 38.7235L34.6819 56.7756L22.3223 52.9181C19.6531 52.1008 19.634 50.2667 22.9215 48.9481L71.084 30.3769C73.2837 29.3781 75.4069 30.9052 74.5671 34.2719L66.365 72.9231C65.7923 75.6698 64.1327 76.3267 61.8333 75.0579L49.339 65.8269L43.3333 71.6667C43.3144 71.685 43.2956 71.7033 43.2769 71.7217C42.6052 72.3756 42.0494 72.9167 40.8333 72.9167Z" fill="black"/>
</svg>
