<svg width="100" height="100" viewBox="0 0 100 100" fill="none" xmlns="http://www.w3.org/2000/svg">
<g clip-path="url(#clip0_5_7989)">
<path d="M88.0561 56.1381C90.7864 54.5617 92.6279 51.611 92.6279 48.238C92.6279 45.8048 91.6806 43.5156 89.9597 41.7913C88.2375 40.0691 85.9481 39.1205 83.513 39.1205H59.6419C57.4659 39.1205 55.5094 37.9977 54.4085 36.1167C53.3187 34.2546 53.296 32.0245 54.3479 30.1512C58.1606 23.3665 59.7599 15.6645 59.369 11.563C58.699 4.53132 54.0333 -0.218636 48.0247 0.00762576L47.8551 0.0130375C43.8092 0.167401 40.582 3.35053 40.348 7.41628C39.8373 16.1915 32.7283 25.1425 26.1057 32.8427C24.0185 35.2663 22.2752 37.9531 20.9248 40.8265C20.5442 41.6341 19.9453 42.3132 19.1902 42.792C18.4401 43.2695 17.5721 43.5221 16.6805 43.5221H9.04737C8.12223 43.5221 7.37231 44.272 7.37231 45.1971V94.8227C7.37231 95.7478 8.12223 96.4977 9.04737 96.4977C13.7499 96.4977 18.4228 97.1665 22.9364 98.4856C26.3742 99.4904 29.9333 99.9999 33.5151 99.9999H75.6766C77.8457 99.9999 79.8843 99.1557 81.4184 97.6216C82.9842 96.0524 83.8277 93.9681 83.7932 91.7532C83.763 89.8228 83.0345 88.05 81.8475 86.6677C85.4979 85.4774 88.1429 82.0409 88.1429 77.9986C88.1429 75.5113 87.1415 73.2533 85.5205 71.6069C88.9093 70.2764 91.3147 66.9726 91.3147 63.1177C91.3147 60.3193 90.0471 57.8116 88.0561 56.1381ZM82.199 68.8832H79.0275C78.1023 68.8832 77.3524 69.6331 77.3524 70.5583C77.3524 71.4834 78.1023 72.2333 79.0275 72.2333C82.2065 72.2333 84.7928 74.8196 84.7928 77.9989C84.7928 81.1782 82.2065 83.7642 79.027 83.7642L75.5312 83.765C74.6064 83.7652 73.8564 84.5151 73.8564 85.4403C73.8564 86.3654 74.6066 87.1151 75.5315 87.1151C78.1995 87.1151 80.4028 89.2192 80.4433 91.8055C80.4634 93.1074 79.9676 94.3325 79.0481 95.2541C78.148 96.1542 76.9507 96.6498 75.6763 96.6498H33.5146C30.251 96.6498 27.0081 96.1857 23.8758 95.27C19.5933 94.0184 15.1763 93.3151 10.7222 93.1739V46.8724H16.6802C18.2105 46.8724 19.7002 46.4387 20.9864 45.62C22.2767 44.8021 23.3032 43.6383 23.9557 42.2531C25.1777 39.6532 26.7548 37.2225 28.6445 35.0282C35.6252 26.9117 43.1204 17.43 43.692 7.61008C43.8262 5.27582 45.6709 3.44923 47.9727 3.36135L48.1417 3.35594C51.6516 3.22245 55.4548 5.80694 56.0333 11.881C56.299 14.6683 55.2831 21.6476 51.4264 28.5107C49.7853 31.433 49.8191 34.9094 51.5166 37.8093C53.2251 40.7283 56.2624 42.4709 59.6411 42.4709H83.5123C85.0523 42.4709 86.5006 43.0708 87.5888 44.1594C88.6776 45.2499 89.277 46.6985 89.277 48.2383C89.277 51.4167 86.691 54.0028 83.5125 54.003L82.2062 54.0025C82.2049 54.0025 82.2037 54.0025 82.2026 54.0025H82.1993C82.199 54.0025 82.1988 54.0025 82.1985 54.0025C81.2736 54.0025 80.5237 54.7522 80.5234 55.6773C80.5232 56.6022 81.2728 57.3524 82.1977 57.3526H82.1998C85.3783 57.3531 87.9641 59.9394 87.9641 63.1179C87.9646 66.2969 85.3783 68.8832 82.199 68.8832Z" fill="black"/>
</g>
<defs>
<clipPath id="clip0_5_7989">
<rect width="100" height="100" fill="white"/>
</clipPath>
</defs>
</svg>
