<svg width="100" height="100" viewBox="0 0 100 100" fill="none" xmlns="http://www.w3.org/2000/svg">
<path d="M88.0558 43.8621C90.0471 42.1888 91.3144 39.6809 91.3144 36.8825C91.3144 33.0273 88.9093 29.7238 85.5205 28.3933C87.1415 26.7468 88.1429 24.4889 88.1429 22.0015C88.1429 17.959 85.4979 14.5225 81.8478 13.3322C83.0345 11.9496 83.763 10.1771 83.7932 8.2467C83.8277 6.03176 82.9842 3.94747 81.4172 2.37704C79.8843 0.84423 77.8457 0 75.6766 0H33.5146C29.933 0 26.3739 0.509476 22.9364 1.51425C18.4226 2.83343 13.7497 3.50216 9.04737 3.50216C8.12223 3.50216 7.37231 4.25207 7.37231 5.17722V54.8025C7.37231 55.7277 8.12223 56.4776 9.04737 56.4776H16.6805C17.5721 56.4776 18.4401 56.7301 19.1931 57.2095C19.9456 57.6867 20.5445 58.3658 20.9243 59.1719C22.2752 62.0468 24.0185 64.7336 26.1051 67.1565C32.7283 74.8574 39.8373 83.8084 40.348 92.5826C40.582 96.6494 43.8095 99.8325 47.8649 99.9871L48.0152 99.992C48.1538 99.9974 48.2917 100 48.429 100C54.2433 100 58.7144 95.3065 59.3685 88.4372C59.7594 84.3356 58.1601 76.6337 54.3477 69.8495C53.2955 67.9757 53.3182 65.7456 54.408 63.8834C55.5089 62.0024 57.4653 60.8796 59.6414 60.8796H83.5125C85.9475 60.8796 88.237 59.9313 89.9605 58.2078C91.6804 56.4845 92.6277 54.1956 92.6277 51.7622C92.6277 48.3891 90.7861 45.4384 88.0558 43.8621ZM87.5906 55.8398C86.5011 56.9293 85.0528 57.5293 83.5128 57.5293H59.6416C56.2629 57.5293 53.2256 59.2718 51.5171 62.1908C49.8196 65.091 49.7858 68.5671 51.4271 71.49C55.2836 78.3526 56.2995 85.3319 56.0338 88.1192C55.4553 94.1932 51.657 96.7782 48.1327 96.644L47.9827 96.6391C45.6711 96.5509 43.8268 94.7243 43.6922 92.3891C43.1207 82.5701 35.6254 73.0885 28.644 64.9712C26.7551 62.7776 25.1777 60.347 23.9551 57.7455C23.3034 56.3621 22.277 55.1984 20.9893 54.382C19.7002 53.5614 18.2105 53.1277 16.6802 53.1277H10.7222V6.82574C15.176 6.68477 19.5933 5.98125 23.8758 4.72985C27.0081 3.81424 30.251 3.35012 33.5146 3.35012H75.6766C76.9509 3.35012 78.1482 3.84594 79.0468 4.74454C79.9676 5.66737 80.4634 6.89248 80.4433 8.19439C80.4028 10.7809 78.1995 12.8851 75.5315 12.8851C74.6066 12.8851 73.8564 13.6347 73.8564 14.5599C73.8564 15.485 74.6064 16.2349 75.5312 16.2352L79.0275 16.2357C82.2065 16.2357 84.7928 18.8223 84.7928 22.0013C84.7928 25.1803 82.2065 27.7666 79.0275 27.7666C78.1023 27.7666 77.3524 28.5165 77.3524 29.4416C77.3524 30.3668 78.1023 31.1167 79.0275 31.1167H82.199C85.378 31.1167 87.9643 33.7032 87.9643 36.8822C87.9643 40.0607 85.3785 42.647 82.2003 42.6475H82.1982C81.2734 42.6478 80.5237 43.398 80.524 44.3228C80.5242 45.248 81.2741 45.9976 82.199 45.9976C82.1993 45.9976 82.1995 45.9976 82.1998 45.9976H82.2031C82.2042 45.9976 82.2055 45.9976 82.2067 45.9976L83.513 45.9971C86.6915 45.9974 89.2776 48.5834 89.2776 51.7619C89.2776 53.3017 88.6781 54.7502 87.5906 55.8398Z" fill="black"/>
</svg>
