<svg width="100" height="100" viewBox="0 0 100 100" fill="none" xmlns="http://www.w3.org/2000/svg">
<path fill-rule="evenodd" clip-rule="evenodd" d="M0 50C0 77.6142 22.3858 100 50 100C77.6142 100 100 77.6142 100 50C100 22.3858 77.6142 0 50 0C22.3858 0 0 22.3858 0 50ZM54.1994 21.8988C54.4852 22.2135 54.7721 22.5294 55.0779 22.8223C55.9535 23.5858 56.7117 24.479 57.4692 25.3719C58.1544 26.1794 58.8394 26.9865 59.611 27.6973C60.9335 28.9633 61.941 30.4515 62.9508 31.9427C63.4756 32.7179 64.001 33.494 64.5717 34.24C67.4794 38.6446 70.0452 43.3483 71.3708 48.48C72.7392 51.9865 72.9531 55.7923 72.8675 59.5554C72.9531 62.9765 72.0123 66.3546 70.4725 69.4335C67.8215 74.0948 63.0321 77.2165 58.0285 78.8842C51.7852 80.3808 44.9004 80.6373 38.8708 77.986C38.2788 77.661 37.6646 77.3644 37.0492 77.0671C35.3969 76.269 33.7337 75.4656 32.4565 74.0948C28.394 70.7592 26.0421 65.3283 26.8119 60.0685C28.0092 50.7035 33.611 42.6642 39.5977 35.7367C39.9008 36.2963 39.8987 36.9069 39.8967 37.5196C39.8948 38.0306 39.8929 38.5433 40.0681 39.0294C40.5812 41.2958 41.3937 43.6904 43.1044 45.3154C43.409 45.0358 43.716 44.756 44.0244 44.4756C45.8371 42.8254 47.6848 41.1438 49.2198 39.2431C50.8448 36.8485 52.17 34.1971 52.7258 31.3748C52.7398 30.9856 52.7562 30.5944 52.7729 30.2017C52.9087 26.9712 53.0483 23.649 51.8279 20.5987L51.9562 20C52.8569 20.4203 53.5256 21.1569 54.1994 21.8988Z" fill="black"/>
</svg>
