<svg width="100" height="100" viewBox="0 0 100 100" fill="none" xmlns="http://www.w3.org/2000/svg">
<path d="M80.3023 73.6223C79.1564 73.0025 77.767 73.0621 76.676 73.7783C72.624 76.44 68.557 77.7896 64.5885 77.7896C62.5814 77.7896 60.8668 77.3461 59.3305 76.424C58.4808 75.9242 57.9514 75.3359 57.667 74.5801C57.5195 74.1836 57.0391 72.3533 57.0391 65.4434V45.1521H75.5412C77.4933 45.1521 79.0818 43.5639 79.0818 41.6115V27.0234C79.0818 25.0713 77.4935 23.4828 75.5412 23.4828H57.0391V3.54063C57.0392 1.58828 55.4512 0 53.4988 0H40.2783C38.4939 0 36.9832 1.33555 36.7652 3.10586C36.225 7.4709 35.2494 11.0635 33.864 13.7881C32.5154 16.4549 30.6978 18.7699 28.459 20.6715C26.2303 22.5721 23.4824 24.0586 20.292 25.0898C18.8252 25.5639 17.84 26.918 17.84 28.4592V41.6119C17.84 43.5641 19.4281 45.1525 21.3805 45.1525H28.1129V74.2065C28.1129 78.9529 28.6308 82.5596 29.6955 85.2299C30.7933 87.9953 32.7359 90.592 35.4724 92.9498C38.1258 95.2277 41.3404 96.998 45.0258 98.2109C48.6254 99.398 52.7869 99.9998 57.3953 99.9998C61.3933 99.9998 65.1773 99.5891 68.6435 98.7785C72.1033 97.968 75.9683 96.56 80.1312 94.5939C81.3639 94.0123 82.1603 92.7555 82.1603 91.3924V76.7406C82.1619 75.4361 81.4502 74.2414 80.3023 73.6223ZM78.1762 91.1113C74.3642 92.8953 70.8527 94.1697 67.7359 94.9C64.5676 95.6406 61.0883 96.0162 57.3953 96.0162C53.2117 96.0162 49.4697 95.4818 46.2724 94.4273C43.0838 93.3779 40.3234 91.8639 38.0703 89.9297C35.8287 87.998 34.2568 85.9223 33.3974 83.7576C32.5226 81.5629 32.0971 78.4387 32.0971 74.2068V43.1605C32.0971 42.0604 31.2051 41.1686 30.1051 41.1686H21.8242H21.824V28.7799C25.3865 27.59 28.4873 25.883 31.041 23.7057C33.684 21.4609 35.8301 18.7289 37.4176 15.5898C38.968 12.5404 40.0615 8.6377 40.6697 3.98398H53.0558V25.475C53.0558 26.5752 53.9478 27.467 55.0478 27.467H75.0986V41.1684H55.0478C53.9478 41.1684 53.0558 42.0602 53.0558 43.1604V65.4434C53.0558 70.9365 53.3428 74.3791 53.9361 75.9754C54.5445 77.5922 55.6801 78.8986 57.2963 79.849C59.4541 81.1443 61.8394 81.7736 64.5891 81.7736C69.1172 81.7736 73.685 80.3527 78.1766 77.5484V91.1113H78.1762Z" fill="black"/>
</svg>
