<svg width="100" height="87" viewBox="0 0 100 87" fill="none" xmlns="http://www.w3.org/2000/svg">
<path d="M99.1975 9.46558C98.6065 9.12242 97.8631 9.1898 97.3432 9.63375C96.4749 10.3753 95.5411 11.0353 94.5579 11.6074C95.8329 9.08727 96.6151 6.34216 96.854 3.47616C96.9098 2.80663 96.52 2.14569 95.9061 1.87226C95.2934 1.59941 94.5426 1.74706 94.0807 2.23397C91.9145 4.51639 89.2151 6.22478 86.2454 7.19977C82.304 2.48241 76.9208 0 70.5699 0C58.3147 0 48.3442 9.97046 48.3442 22.2257C48.3442 22.7202 48.361 23.2181 48.3942 23.7155C46.609 23.9384 44.8098 24.0513 43.0262 24.0513C36.0274 24.0513 29.0802 22.3341 22.9357 19.0853C22.1494 18.6696 21.1748 18.9702 20.7591 19.7564C20.3433 20.5427 20.6439 21.5173 21.4302 21.9329C28.0368 25.4261 35.5048 27.2723 43.0264 27.2723C45.4827 27.2723 47.9664 27.0735 50.4092 26.6815C51.2744 26.5429 51.87 25.7376 51.7492 24.8694C51.6272 23.9927 51.5655 23.1032 51.5655 22.2259C51.5655 11.7468 60.0908 3.22127 70.5701 3.22127C83.6981 3.22127 89.5745 15.5702 89.5745 27.8091C89.5745 33.1016 88.9985 38.1633 87.8626 42.8541C87.6587 43.6963 88.1817 44.5699 89.019 44.7906C89.8798 45.0174 90.7841 44.476 90.9934 43.6121C92.1893 38.6733 92.796 33.3565 92.796 27.8089C92.796 26.4677 92.7307 25.1473 92.6065 23.8536C96.4223 20.5788 99.0377 16.0728 99.9719 11.1593C100.099 10.4875 99.7887 9.80875 99.1975 9.46558ZM89.8571 13.0665C89.363 11.9621 88.8097 10.9123 88.1991 9.92418C89.8087 9.31285 91.3413 8.515 92.7649 7.54977C92.1155 9.52613 91.1348 11.3828 89.8571 13.0665ZM92.0296 19.9493C91.7934 18.7767 91.501 17.6378 91.1596 16.5351C92.6506 16.1052 94.0967 15.5193 95.4672 14.7874C94.6139 16.6763 93.4518 18.4241 92.0296 19.9493Z" fill="black"/>
<path d="M88.0128 48.183C87.18 47.8701 86.2514 48.2914 85.9386 49.124C77.0777 72.7005 54.041 81.3596 41.826 82.7592C28.3411 84.3043 15.2703 82.4903 6.39983 78.0004C14.9416 76.5635 23.0935 73.2237 30.2091 68.2169C31.2269 67.5007 31.0497 65.8919 29.9023 65.4132C24.14 63.0095 18.9509 59.3581 14.7289 54.7593H22.4111C23.2285 54.7593 23.933 54.121 24.0136 53.308C24.0943 52.4947 23.5292 51.7304 22.7277 51.5697C22.5775 51.5396 8.61623 48.5728 4.46605 34.2989L11.4426 37.4383C12.1318 37.7489 12.968 37.5244 13.4096 36.9114C13.865 36.2793 13.7945 35.3854 13.2447 34.833C13.1234 34.7114 1.87622 23.1913 6.59612 9.53257C9.10919 12.7388 12.0277 15.595 15.301 18.0485C16.0129 18.5819 17.0222 18.4376 17.5556 17.7261C18.089 17.0144 17.9447 16.005 17.2332 15.4714C13.4654 12.647 10.2022 9.24878 7.53381 5.37145C6.84768 4.37399 5.29105 4.49079 4.75999 5.57711C1.35747 12.5402 1.35962 20.2132 4.76585 27.7671C5.46097 29.3085 6.22854 30.6942 6.9801 31.8979L2.83715 30.0335C1.68305 29.5139 0.375637 30.5276 0.588917 31.7735C2.29282 41.7432 8.04123 47.4553 12.5633 50.4918C13.1289 50.8714 13.6887 51.2195 14.2371 51.5384H11.2543C9.94005 51.5384 9.17423 53.1033 9.98536 54.141C14.2764 59.6296 19.764 64.09 25.9788 67.1642C18.5879 71.8083 10.1674 74.6376 1.45493 75.3827C-0.00287712 75.5073 -0.537445 77.4461 0.656495 78.2983C8.13225 83.635 19.4984 86.5381 32.2128 86.5377C35.4646 86.5377 38.8075 86.3475 42.1928 85.9596C50.6369 84.9922 59.8705 81.5873 67.5261 76.6182C77.4948 70.1479 84.9044 61.0323 88.954 50.2576C89.2667 49.4244 88.8452 48.4959 88.0128 48.183Z" fill="black"/>
<path d="M70.5695 10.3057C67.7869 10.3057 65.523 12.5695 65.523 15.3521C65.523 18.1348 67.7869 20.3986 70.5695 20.3986C73.3521 20.3986 75.6159 18.1348 75.6159 15.3521C75.6159 12.5693 73.3521 10.3057 70.5695 10.3057ZM70.5695 17.1773C69.563 17.1773 68.7441 16.3586 68.7441 15.352C68.7441 14.3455 69.5628 13.5266 70.5695 13.5266C71.5761 13.5266 72.3949 14.3453 72.3949 15.352C72.3949 16.3586 71.5761 17.1773 70.5695 17.1773Z" fill="black"/>
</svg>
