<svg width="100" height="100" viewBox="0 0 100 100" fill="none" xmlns="http://www.w3.org/2000/svg">
<path d="M47.3529 11.0376L30.6953 27.6953C29.6615 28.729 27.9855 28.729 26.9518 27.6953C25.918 26.6615 25.918 24.9855 26.9518 23.9518L48.1282 2.77531C49.162 1.74156 50.838 1.74156 51.8718 2.77531L73.0482 23.9518C74.082 24.9855 74.082 26.6615 73.0482 27.6953C72.0145 28.729 70.3385 28.729 69.3047 27.6953L52.6471 11.0376L52.6471 68.1765C52.6471 69.6384 51.4619 70.8235 50 70.8235C48.5381 70.8235 47.3529 69.6384 47.3529 68.1765L47.3529 11.0376ZM89.7059 68.1765C89.7059 66.7145 90.891 65.5294 92.3529 65.5294C93.8149 65.5294 95 66.7145 95 68.1765V84.0588C95 91.3685 89.0744 97.2941 81.7647 97.2941H18.2353C10.9256 97.2941 5 91.3685 5 84.0588V68.1765C5 66.7145 6.18513 65.5294 7.64706 65.5294C9.10899 65.5294 10.2941 66.7145 10.2941 68.1765V84.0588C10.2941 88.4446 13.8495 92 18.2353 92H81.7647C86.1505 92 89.7059 88.4446 89.7059 84.0588V68.1765Z" fill="black"/>
</svg>
