<svg width="100" height="100" viewBox="0 0 100 100" fill="none" xmlns="http://www.w3.org/2000/svg">
<path d="M38.4537 35.2473C23.9521 35.2473 12.1539 47.0454 12.1539 61.5471C12.1539 76.0489 23.9519 87.8469 38.4537 87.8469C52.9555 87.8469 64.7535 76.0489 64.7535 61.5471C64.7535 47.0454 52.9555 35.2473 38.4537 35.2473ZM38.4537 83.8627C26.1488 83.8627 16.1379 73.852 16.1379 61.5469C16.1379 49.2418 26.1488 39.2313 38.4537 39.2313C50.759 39.2313 60.7695 49.242 60.7695 61.5471C60.7695 73.8522 50.7588 83.8627 38.4537 83.8627Z" fill="black"/>
<path d="M91.9312 0H72.6875C68.2381 0 64.6184 3.61973 64.6182 8.06894C64.6182 12.4402 68.1119 16.0107 72.4541 16.1348L59.3264 29.2625C53.1018 25.2207 45.9211 23.0926 38.4539 23.0926C17.2504 23.0924 0 40.3428 0 61.5463C0 82.7498 17.2504 100 38.4537 100C59.657 100 76.9074 82.7496 76.9076 61.5463C76.9076 54.0789 74.7793 46.8982 70.7377 40.6736L83.8652 27.5459C83.9889 31.8877 87.5596 35.3818 91.9311 35.3818C96.3803 35.3818 100 31.7621 100 27.3129V8.06894C100 3.61973 96.3803 0 91.9312 0ZM96.016 27.3129C96.016 29.5652 94.1836 31.3977 91.9312 31.3977C89.6787 31.3977 87.8463 29.5652 87.8463 27.3129V22.7402C87.8463 21.9344 87.3607 21.2082 86.6166 20.8998C85.8723 20.5912 85.0154 20.7619 84.4457 21.3316L66.7549 39.0223C66.0668 39.7104 65.9766 40.7945 66.5416 41.5869C70.717 47.4445 72.9238 54.3463 72.9238 61.5461C72.9238 80.5527 57.4607 96.0158 38.4541 96.0158C19.4475 96.0158 3.98398 80.5529 3.98398 61.5463C3.98398 42.5396 19.4473 27.0766 38.4537 27.0766C45.6533 27.0766 52.5551 29.2836 58.4125 33.4588C59.2053 34.0234 60.2896 33.9332 60.9775 33.2453L78.6684 15.5545C79.2379 14.9848 79.4084 14.1277 79.1002 13.3836C78.7918 12.6395 78.0656 12.1539 77.2598 12.1539H72.6873C70.4348 12.1539 68.6023 10.3215 68.6023 8.06914C68.6023 5.8168 70.4348 3.98438 72.6873 3.98438H91.9311C94.1834 3.98438 96.0158 5.8168 96.0158 8.06914V27.3129H96.016Z" fill="black"/>
</svg>
