<svg width="100" height="100" viewBox="0 0 100 100" fill="none" xmlns="http://www.w3.org/2000/svg">
<path d="M59.5228 0H40.4753C20.5252 0 4.29434 16.2271 4.29434 36.1734V53.3317C4.29434 68.1857 13.422 81.5353 27.1467 86.9722V98.0956C27.1467 98.8498 27.5904 99.5315 28.2798 99.8362C28.5274 99.9467 28.7902 100 29.0511 100C29.5138 100 29.9728 99.8305 30.3289 99.5068L41.3723 89.5051H59.5228C79.4729 89.5051 95.7038 73.278 95.7038 53.3317V36.1734C95.7038 16.2271 79.4729 0 59.5228 0ZM91.895 53.3317C91.895 71.1775 77.3743 85.6963 59.5228 85.6963H40.6372C40.1649 85.6963 39.7098 85.8715 39.3594 86.1896L30.9554 93.8013V85.6525C30.9554 84.8451 30.447 84.1252 29.6852 83.8586C16.7774 79.2939 8.10307 67.026 8.10307 53.3317V36.1734C8.10307 18.3276 22.6257 3.80873 40.4753 3.80873H59.5228C77.3743 3.80873 91.895 18.3276 91.895 36.1734V53.3317V53.3317Z" fill="black"/>
<path d="M75.1671 58.0697L63.4629 50.4675C62.1831 49.6353 60.6597 49.3534 59.1685 49.6619C57.6755 49.9761 56.392 50.8579 55.5598 52.1433L55.0094 52.9888C49.9438 51.3149 44.3583 49.1763 41.0143 39.4964L42.3987 38.2929C44.7754 36.2266 45.0248 32.6122 42.9586 30.2317L33.8024 19.6987C33.113 18.9046 31.9095 18.8227 31.1154 19.5101L25.3661 24.5072C20.3233 28.891 22.679 35.3754 23.4541 37.5064C23.4884 37.6016 23.5303 37.693 23.5798 37.7825C23.7798 38.1405 28.554 46.6606 36.2648 54.5142C44.006 62.4002 57.9821 69.6825 58.4106 69.8939C60.0065 70.9298 61.8023 71.4269 63.579 71.4269C66.6984 71.4269 69.7568 69.8977 71.5812 67.0945L75.7289 60.7072C76.3002 59.8217 76.0488 58.6429 75.1671 58.0697ZM68.3857 65.0187C66.6698 67.662 63.1239 68.4123 60.3245 66.6069C60.1855 66.5346 46.3008 59.3037 38.9823 51.8481C32.1418 44.8801 27.5999 37.1388 26.981 36.0591C25.4727 31.8295 25.7394 29.23 27.8646 27.3828L32.178 23.635L40.0849 32.7302C40.7876 33.5377 40.7057 34.7184 39.9021 35.4173L37.5654 37.4473C36.996 37.9425 36.7713 38.7252 36.9941 39.445C40.9781 52.3909 48.725 54.9332 54.381 56.7899L55.2056 57.0623C56.0302 57.3403 56.9328 57.0223 57.4051 56.2948L58.7553 54.2152C59.0333 53.7849 59.4599 53.4935 59.955 53.3888C60.4521 53.2821 60.9586 53.3811 61.389 53.6611L71.4974 60.2254L68.3857 65.0187Z" fill="black"/>
<path d="M54.3467 30.9401C53.3336 30.6487 52.2805 31.2371 51.9929 32.2503C51.7054 33.2615 52.2919 34.3146 53.3032 34.6021C56.1407 35.4096 58.4011 37.6739 59.201 40.5133C59.4371 41.3512 60.2008 41.9016 61.033 41.9016C61.2043 41.9016 61.3776 41.8787 61.5509 41.8311C62.5622 41.5455 63.1525 40.4942 62.8669 39.4811C61.7109 35.3791 58.4449 32.1055 54.3467 30.9401Z" fill="black"/>
<path d="M68.8389 42.313C69.0103 42.313 69.1836 42.2901 69.3569 42.2425C70.3701 41.9569 70.9585 40.9038 70.6729 39.8925C68.4257 31.9266 62.0861 25.5736 54.1258 23.3074C53.1146 23.0161 52.0615 23.6083 51.774 24.6195C51.4864 25.6308 52.0729 26.6839 53.0842 26.9714C59.7818 28.8758 65.1159 34.2252 67.007 40.9266C67.245 41.7645 68.0067 42.313 68.8389 42.313Z" fill="black"/>
<path d="M53.3051 14.4388C52.2919 14.1475 51.2388 14.7359 50.9513 15.7509C50.6637 16.7622 51.2503 17.8153 52.2615 18.1028C63.6096 21.3307 72.6496 30.3917 75.8527 41.7474C76.0889 42.5853 76.8525 43.1357 77.6847 43.1357C77.8561 43.1357 78.0294 43.1128 78.2027 43.0652C79.2139 42.7796 79.8043 41.7264 79.5186 40.7152C75.9594 28.095 65.9157 18.0286 53.3051 14.4388Z" fill="black"/>
</svg>
