<svg width="100" height="100" viewBox="0 0 100 100" fill="none" xmlns="http://www.w3.org/2000/svg">
<path fill-rule="evenodd" clip-rule="evenodd" d="M50 0C77.6142 0 100 22.3858 100 50C100 77.6142 77.6142 100 50 100C22.3858 100 0 77.6142 0 50C0 22.3858 22.3858 0 50 0ZM63.321 43.6633C63.0779 41.6877 62.4706 40.1365 61.3923 38.7623C59.9919 36.9929 58.2025 35.9335 55.5531 35.305C53.8267 34.886 53.129 34.9342 52.5046 35.5046C51.9229 36.039 51.8094 37.1104 52.2537 37.8042C52.5665 38.3077 52.9271 38.4881 53.93 38.685C55.2656 38.9306 56.1887 39.2496 57.0283 39.7296C58.8104 40.7587 59.6404 42.369 59.7294 44.976C59.7708 46.2 59.8767 46.5762 60.3042 47.0104C61.0965 47.8042 62.5067 47.6498 63.105 46.7C63.3244 46.3421 63.3579 46.1862 63.381 45.3552C63.3965 44.8406 63.3744 44.0746 63.321 43.6633ZM63.3448 31.5421C67.5819 34.9683 69.9494 39.8381 70.3012 45.891C70.4494 48.275 70.2527 49.0515 69.4117 49.4937C68.6527 49.9035 67.7927 49.7685 67.2027 49.1517C66.8119 48.7504 66.6619 48.2015 66.6677 47.2298C66.6848 44.5427 66.0658 41.5421 65.0592 39.4598C63.8944 37.0365 62.0935 34.9742 59.8283 33.4665C57.8442 32.1421 55.2181 31.2477 52.6721 31.025C51.0204 30.8804 50.4308 30.6006 50.1137 29.809C49.9173 29.3354 49.9692 28.5167 50.1996 28.15C50.4171 27.8117 50.9056 27.4379 51.251 27.339C51.6171 27.2323 53.7502 27.4187 54.909 27.6492C58.0719 28.2929 60.9575 29.6167 63.3448 31.5421ZM78.0254 69.2006C77.9071 68.8548 77.6308 68.321 77.4335 68.0146C76.19 66.1371 69.5094 60.9087 66.174 59.199C64.2694 58.2206 62.8583 57.8946 61.8123 58.2008C60.6873 58.5173 60.0952 59.0408 58.2104 61.3831C57.4506 62.3221 56.671 63.2017 56.4637 63.34C55.9506 63.6958 54.9442 63.9825 54.2335 63.9825C52.5856 63.9725 49.5956 62.9052 47.2962 61.5017C45.5102 60.4148 43.2208 58.4677 41.4644 56.5406C39.3919 54.2773 37.9808 52.281 36.8656 50.0277C35.425 47.1319 35.06 45.3627 35.6619 44.0681C35.8098 43.7419 36.0073 43.396 36.0958 43.2873C36.1848 43.1885 37.1125 42.4275 38.1385 41.5973C40.1519 39.9962 40.4775 39.6306 40.8523 38.5335C41.326 37.14 41.1979 35.7169 40.4675 34.284C39.905 33.1967 38.4348 30.8248 37.369 29.2929C35.9579 27.2769 32.4448 22.9679 31.7442 22.3846C30.481 21.3569 28.8627 21.179 27.0765 21.8708C25.1919 22.6023 21.659 25.4485 20.1491 27.435C18.7873 29.2337 18.2644 30.5085 18.1854 32.1887C18.1164 33.5723 18.2348 34.1454 18.965 35.9146C24.6788 49.7904 33.2046 60.8692 44.9181 69.6652C51.0362 74.2608 57.3815 77.7594 63.9635 80.1512C67.8021 81.5446 69.4698 81.6137 71.4335 80.4675C72.2625 79.9731 74.315 77.8681 75.4598 76.3362C77.3544 73.7865 78.0552 72.6104 78.2525 71.6715C78.3906 71.0292 78.2821 69.9123 78.0254 69.2006ZM75.5023 37.9177C76.7044 41.049 77.2808 43.8573 77.4073 47.281C77.4273 47.9575 77.4179 49.1967 77.3742 50.0363C77.2829 51.6454 77.1956 51.965 76.7323 52.3908C75.9877 53.0896 74.5362 52.9229 73.9858 52.081C73.6983 51.6292 73.6581 51.2983 73.7135 49.4183C73.8733 43.8569 72.7485 39.5023 70.0389 35.1481C66.801 29.9244 61.9579 26.4052 55.66 24.6837C54.054 24.2454 52.7004 23.9783 50.5954 23.695C49.2242 23.5156 48.924 23.4396 48.5854 23.2312C47.5631 22.5765 47.5496 20.9185 48.5687 20.2537C49.0946 19.9028 49.4825 19.8871 51.1967 20.1067C56.2233 20.7348 60.7087 22.2285 64.3944 24.4856C67.036 26.1054 68.7019 27.5608 70.8462 30.1096C73.1146 32.8279 74.3156 34.8379 75.5023 37.9177Z" fill="black"/>
</svg>
