<svg width="100" height="100" viewBox="0 0 100 100" fill="none" xmlns="http://www.w3.org/2000/svg">
<g clip-path="url(#clip0_5_40)">
<path d="M66.3238 56.4148L41.3238 43.9148C40.8386 43.6737 40.2633 43.6965 39.8041 43.9834C39.3431 44.2687 39.0625 44.7707 39.0625 45.3125V70.3125C39.0625 70.8542 39.3431 71.3562 39.8041 71.6415C40.0542 71.7972 40.3395 71.875 40.625 71.875C40.8645 71.875 41.1025 71.82 41.3238 71.7101L66.3238 59.2101C66.8533 58.9447 67.1875 58.4045 67.1875 57.8125C67.1875 57.2204 66.8533 56.6803 66.3238 56.4148ZM42.1875 67.784V47.8409L62.1306 57.8125L42.1875 67.784Z" fill="black"/>
<path d="M93.75 7.8125H6.25C2.79828 7.8125 0 10.6106 0 14.0625V85.9375C0 89.3894 2.79828 92.1875 6.25 92.1875H93.75C97.2017 92.1875 100 89.3894 100 85.9375V14.0625C100 10.6106 97.2017 7.8125 93.75 7.8125ZM96.875 14.0625V26.5625H83.862L88.048 10.9375H93.75C95.473 10.9375 96.875 12.3394 96.875 14.0625ZM33.2507 10.9375L29.0647 26.5625H15.0794L19.2652 10.9375H33.2507ZM36.4855 10.9375H50.4382L46.2522 26.5625H32.2995L36.4855 10.9375ZM53.673 10.9375H67.6257L63.4397 26.5625H49.487L53.673 10.9375ZM70.8605 10.9375H84.8132L80.6272 26.5625H66.6745L70.8605 10.9375ZM6.25 10.9375H16.0303L11.8445 26.5625H3.125V14.0625C3.125 12.3394 4.52688 10.9375 6.25 10.9375ZM93.75 89.0625H6.25C4.52687 89.0625 3.125 87.6606 3.125 85.9375V29.6875H96.875V85.9375C96.875 87.6606 95.473 89.0625 93.75 89.0625Z" fill="black"/>
</g>
<defs>
<clipPath id="clip0_5_40">
<rect width="100" height="100" fill="white"/>
</clipPath>
</defs>
</svg>
