<svg width="100" height="100" viewBox="0 0 100 100" fill="none" xmlns="http://www.w3.org/2000/svg">
<g clip-path="url(#clip0_5_213)">
<path d="M95.557 65.563C93.3818 62.9561 90.9244 60.6286 88.5476 58.3776C87.7124 57.5864 86.8484 56.7682 86.0163 55.9559C86.0161 55.9557 86.0159 55.9555 86.0157 55.9553C84.8966 54.8637 84.3488 54.0889 84.2915 53.5166C84.2353 52.9541 84.6196 52.1196 85.5038 50.886C86.8259 49.0305 88.2351 47.1719 89.5984 45.3746C90.8101 43.7769 92.0628 42.1248 93.2636 40.4633L93.5332 40.0902C95.8759 36.8476 98.2982 33.4947 99.5963 29.4087C99.967 28.2372 100.352 26.5036 99.4234 24.9818C98.4945 23.4595 96.7724 23.0083 95.5588 22.8017C94.966 22.7001 94.4035 22.6917 93.88 22.6917L78.6835 22.6782C76.0561 22.6345 74.2335 23.8798 73.2401 26.3806C72.4452 28.3779 71.5063 30.6925 70.4186 32.8882C68.3376 37.1271 65.6932 42.0094 61.8604 46.0771L61.6901 46.2584C61.4291 46.5369 61.0028 46.9924 60.7838 47.0969C60.3686 46.8359 59.8895 45.3436 59.9114 44.5617C59.9119 44.5424 59.9121 44.5232 59.9121 44.5041L59.8987 26.9448C59.8987 26.8556 59.8924 26.7663 59.8805 26.6779C59.5397 24.1728 58.8752 21.6614 54.9104 20.879C54.7832 20.8538 54.6539 20.8413 54.5246 20.8413H38.7169C35.7429 20.8413 34.1699 22.2032 32.9087 23.6798C32.5437 24.1103 31.5738 25.2532 32.0679 26.6505C32.5679 28.0644 34.0577 28.3466 34.5468 28.4392C36.2695 28.7661 37.1603 29.7398 37.4361 31.6011C37.9812 35.2177 38.048 39.0867 37.6466 43.7709C37.5347 45.0285 37.3265 45.9844 36.9906 46.7793C36.8976 46.9994 36.816 47.1357 36.7589 47.216C36.6679 47.1793 36.5263 47.109 36.3302 46.9748C35.1197 46.1465 34.2074 44.8588 33.3251 43.6139C29.8013 38.6386 26.8372 33.1437 24.2624 26.8126C23.202 24.2183 21.2087 22.7692 18.6532 22.7317C13.7844 22.6507 9.28148 22.6526 4.89162 22.738C2.8211 22.7739 1.36915 23.4257 0.575393 24.6755C-0.219336 25.9277 -0.190234 27.5241 0.662112 29.4214C6.7551 42.9703 12.2875 52.8266 18.6001 61.3801C23.0448 67.402 27.519 71.5821 32.6806 74.5353C38.1037 77.6378 44.2197 79.1583 51.315 79.1581C52.1219 79.1581 52.9428 79.1384 53.7746 79.0988C58.1522 78.8993 59.9332 77.1581 60.1276 72.8946C60.2365 70.6413 60.4873 68.8159 61.3575 67.23C61.6008 66.786 61.8754 66.4884 62.0918 66.4339C62.3219 66.3765 62.7299 66.5173 63.1836 66.812C64.0131 67.3507 64.7274 68.0811 65.3147 68.7224C65.91 69.3741 66.5116 70.0474 67.0938 70.6983C68.3327 72.0845 69.6137 73.5179 70.9559 74.8851C73.9917 77.9796 77.4913 79.3988 81.3618 79.1015L95.2691 79.1079C95.2695 79.1079 95.2697 79.1079 95.2699 79.1079C95.314 79.1079 95.3582 79.1066 95.4023 79.1036C97.0064 78.9968 98.3933 78.1087 99.2078 76.6665C100.188 74.9298 100.174 72.73 99.1674 70.7798C98.1173 68.7522 96.755 67.0071 95.557 65.563ZM95.7388 74.7077C95.547 75.0474 95.3105 75.1093 95.1884 75.1241L81.2841 75.1177C81.2837 75.1177 81.2833 75.1177 81.2827 75.1177C81.2278 75.1177 81.173 75.1198 81.1185 75.1245C78.3792 75.3526 76.0509 74.3898 73.7993 72.0948C72.5221 70.7936 71.2725 69.3958 70.0641 68.0438C69.4753 67.385 68.8665 66.7036 68.2547 66.0341C67.4961 65.2055 66.5584 64.2534 65.3536 63.471C63.5496 62.3001 62.0547 62.3354 61.1186 62.5714C60.1922 62.8048 58.8754 63.4708 57.8647 65.3153C56.5553 67.7018 56.2664 70.2765 56.1488 72.7087C56.0809 74.1962 55.8293 74.5892 55.7242 74.689C55.5865 74.8198 55.1264 75.0499 53.591 75.12C46.2129 75.4669 40.021 74.1456 34.6591 71.0778C29.9946 68.4091 25.9103 64.5757 21.8057 59.0149C15.668 50.6986 10.2676 41.0681 4.29591 27.7888C4.07951 27.3077 4.01271 27.0075 3.99337 26.8468C4.14572 26.7968 4.44338 26.731 4.96525 26.7214C9.31058 26.6372 13.7665 26.6349 18.5913 26.7154C19.2518 26.7251 20.004 26.9234 20.5735 28.3169C23.2638 34.932 26.3714 40.6888 30.0745 45.917C31.0577 47.3047 32.2816 49.032 34.0802 50.2627C35.7277 51.3908 37.0646 51.3369 37.8962 51.0932C38.7283 50.8492 39.883 50.1715 40.6607 48.3301C41.1625 47.1432 41.4658 45.8066 41.616 44.118C42.0451 39.1076 41.9689 34.9419 41.3767 31.0128C40.9593 28.1978 39.5058 26.1642 37.2162 25.1257C37.6228 24.914 38.081 24.8257 38.7173 24.8257H54.3184C55.1961 25.0226 55.3699 25.2538 55.4295 25.3329C55.6822 25.6691 55.8268 26.4642 55.9151 27.0855L55.9283 44.4828C55.8932 46.1506 56.7037 49.8494 59.4635 50.8637C59.4862 50.8721 59.509 50.8799 59.5319 50.8873C62.0444 51.7084 63.7063 49.9348 64.5985 48.9818L64.7575 48.8127C68.9559 44.3566 71.7831 39.15 73.9919 34.6509C75.1431 32.3277 76.1181 29.9245 76.9425 27.8531C77.355 26.8142 77.7304 26.6431 78.6261 26.662C78.6384 26.6624 78.6505 26.6624 78.663 26.6624L93.8789 26.6759C94.2328 26.6759 94.6021 26.68 94.8886 26.729C95.6136 26.8525 95.9123 27.0029 96.0107 27.0652C96.0209 27.1806 96.0185 27.5126 95.7994 28.2056C94.6957 31.68 92.5626 34.632 90.3046 37.7574L90.0349 38.131C88.8617 39.7545 87.6228 41.3879 86.4249 42.9678C85.0441 44.7883 83.6167 46.6705 82.2634 48.5701C79.37 52.6071 79.6243 55.286 83.2351 58.8079C84.0884 59.6409 84.963 60.4694 85.8091 61.2706C88.2077 63.5426 90.4736 65.6886 92.4957 68.1116C93.5542 69.3878 94.7543 70.9204 95.6289 72.6095C96.0851 73.4937 95.9732 74.2925 95.7388 74.7077Z" fill="black"/>
</g>
<defs>
<clipPath id="clip0_5_213">
<rect width="100" height="100" fill="white"/>
</clipPath>
</defs>
</svg>
