<svg width="100" height="100" viewBox="0 0 100 100" fill="none" xmlns="http://www.w3.org/2000/svg">
<path fill-rule="evenodd" clip-rule="evenodd" d="M50 0C22.3858 0 0 22.3858 0 50C0 77.6142 22.3858 100 50 100C77.6142 100 100 77.6142 100 50C100 22.3858 77.6142 0 50 0ZM54.071 65.7837C53.5781 66.3035 52.6156 66.4085 52.6156 66.4085H49.4279C49.4279 66.4085 42.3952 66.8233 36.2 60.4937C29.444 53.5879 23.4781 39.8865 23.4781 39.8865C23.4781 39.8865 23.134 38.9877 23.5069 38.555C23.9269 38.066 25.0721 38.0352 25.0721 38.0352L32.6915 37.9867C32.6915 37.9867 33.409 38.1019 33.9227 38.4731C34.3479 38.7804 34.5854 39.3515 34.5854 39.3515C34.5854 39.3515 35.8167 42.4087 37.4469 45.174C40.6319 50.5742 42.1135 51.7546 43.1935 51.1758C44.7692 50.3335 44.2969 43.5429 44.2969 43.5429C44.2969 43.5429 44.3256 41.0798 43.504 39.9812C42.8675 39.1312 41.6675 38.8827 41.1379 38.8137C40.7075 38.7573 41.4119 37.7792 42.3248 37.3415C43.6969 36.6833 46.1177 36.645 48.9792 36.6731C51.2096 36.696 51.8512 36.8319 52.7225 37.0392C54.7446 37.5181 54.6815 39.0531 54.5452 42.366C54.5044 43.3569 54.4571 44.5065 54.4571 45.8346C54.4571 46.1331 54.4483 46.4512 54.4392 46.7785C54.3919 48.4756 54.3377 50.4192 55.4771 51.1427C56.0615 51.5112 57.4883 51.1965 61.0594 45.2456C62.7523 42.424 64.02 39.1081 64.02 39.1081C64.02 39.1081 64.2992 38.5167 64.7296 38.2631C65.1704 38.0046 65.7652 38.084 65.7652 38.084L73.7837 38.0352C73.7837 38.0352 76.1942 37.751 76.5827 38.8215C76.9923 39.9402 75.6829 42.5571 72.4065 46.8435C69.2985 50.9106 67.7862 52.4079 67.925 53.7323C68.0265 54.7 69.0096 55.5752 70.8962 57.2929C74.8344 60.8823 75.8902 62.7706 76.1437 63.2244C76.1648 63.2619 76.1802 63.2896 76.1915 63.3077C77.9575 66.1831 74.2325 66.4085 74.2325 66.4085L67.1085 66.5058C67.1085 66.5058 65.58 66.8029 63.5662 65.4458C62.5112 64.7354 61.4804 63.5754 60.4987 62.4704C58.9992 60.7829 57.6142 59.2242 56.4319 59.5923C54.4467 60.2121 54.5067 64.4088 54.5067 64.4088C54.5067 64.4088 54.5223 65.3075 54.071 65.7837Z" fill="black"/>
</svg>
