<svg width="100" height="100" viewBox="0 0 100 100" fill="none" xmlns="http://www.w3.org/2000/svg">
<g clip-path="url(#clip0_5_279)">
<path d="M7.56054 65.0001H30.8595C30.2974 60.2619 30 55.2224 30 50.0001C30 44.7778 30.2974 39.7384 30.8595 35.0001H7.56054C5.90227 39.6918 4.99995 44.7406 4.99995 50.0001C4.99995 55.2597 5.90227 60.3084 7.56054 65.0001ZM9.67755 70.0001C15.6295 81.9768 26.7603 90.9257 40.14 93.9166C36.2444 88.614 33.2608 80.1858 31.5687 70.0001H9.67755ZM92.4394 65.0001C94.0976 60.3084 94.9999 55.2597 94.9999 50.0001C94.9999 44.7406 94.0976 39.6918 92.4394 35.0001H69.1404C69.7025 39.7384 69.9999 44.7778 69.9999 50.0001C69.9999 55.2224 69.7025 60.2619 69.1404 65.0001H92.4394ZM90.3223 70.0001H68.4312C66.7391 80.1858 63.7555 88.614 59.8599 93.9166C73.2396 90.9257 84.3704 81.9768 90.3223 70.0001ZM35.922 65.0001H64.0779C64.67 60.3121 64.9999 55.2642 64.9999 50.0001C64.9999 44.736 64.67 39.6882 64.0779 35.0001H35.922C35.3299 39.6882 35 44.736 35 50.0001C35 55.2642 35.3299 60.3121 35.922 65.0001ZM36.6749 70.0001C39.2858 84.8393 44.5903 95.0001 50 95.0001C55.4096 95.0001 60.7141 84.8393 63.325 70.0001H36.6749ZM9.67755 30.0001H31.5687C33.2608 19.8144 36.2444 11.3862 40.14 6.08366C26.7603 9.07453 15.6295 18.0234 9.67755 30.0001ZM90.3223 30.0001C84.3704 18.0234 73.2396 9.07453 59.8599 6.08366C63.7555 11.3862 66.7391 19.8144 68.4312 30.0001H90.3223ZM36.6749 30.0001H63.325C60.7141 15.161 55.4096 5.00012 50 5.00012C44.5903 5.00012 39.2858 15.161 36.6749 30.0001ZM50 100C22.3857 100 -4.57764e-05 77.6144 -4.57764e-05 50.0001C-4.57764e-05 22.3859 22.3857 0.00012207 50 0.00012207C77.6142 0.00012207 100 22.3859 100 50.0001C100 77.6144 77.6142 100 50 100Z" fill="black"/>
</g>
<defs>
<clipPath id="clip0_5_279">
<rect width="100" height="100" fill="white"/>
</clipPath>
</defs>
</svg>
