<svg width="100" height="100" viewBox="0 0 100 100" fill="none" xmlns="http://www.w3.org/2000/svg">
<path fill-rule="evenodd" clip-rule="evenodd" d="M0 50C0 77.6142 22.3858 100 50 100C77.6142 100 100 77.6142 100 50C100 22.3858 77.6142 0 50 0C22.3858 0 0 22.3858 0 50ZM81.3794 48.0865C81.3729 64.4756 68.0406 77.811 51.6481 77.8177H51.6358C46.6598 77.816 41.7704 76.5675 37.4277 74.199L21.6667 78.3333L25.8846 62.9267C23.2827 58.4177 21.9137 53.3031 21.9158 48.0629C21.9225 31.6702 35.26 18.3333 51.6477 18.3333C59.6012 18.3368 67.0662 21.4331 72.6796 27.0529C78.2929 32.6725 81.3827 40.1423 81.3794 48.0865Z" fill="black"/>
<path fill-rule="evenodd" clip-rule="evenodd" d="M28.8052 71.2698L38.1581 68.8164L39.0604 69.3521C42.8546 71.6035 47.2037 72.7948 51.6381 72.7964H51.6481C65.2683 72.7964 76.354 61.7106 76.3594 48.0848C76.3621 41.4816 73.794 35.2731 69.1285 30.6021C64.4629 25.931 58.2583 23.3573 51.6577 23.355C38.0269 23.355 26.9412 34.4398 26.9358 48.0648C26.9339 52.7342 28.2404 57.2814 30.7139 61.2158L31.3017 62.1508L28.8052 71.2698ZM65.6092 54.4877C66.1273 54.7381 66.4773 54.9071 66.6267 55.1564C66.8123 55.4662 66.8123 56.9537 66.1935 58.6894C65.5742 60.4246 62.6062 62.0083 61.179 62.2214C59.8992 62.4129 58.2794 62.4927 56.4998 61.9271C55.4208 61.5848 54.0373 61.1277 52.2648 60.3623C45.3004 57.355 40.5937 50.605 39.7042 49.3291C39.6419 49.2398 39.5983 49.1773 39.574 49.1448L39.5681 49.1369C39.175 48.6123 36.5406 45.0975 36.5406 41.46C36.5406 38.0379 38.2214 36.2444 38.9952 35.4187C39.0483 35.3623 39.0971 35.3102 39.1406 35.2625C39.8217 34.5187 40.6264 34.3329 41.1217 34.3329C41.6169 34.3329 42.1127 34.3373 42.5456 34.3591C42.5989 34.3619 42.6546 34.3614 42.7119 34.3612C43.1448 34.3585 43.6846 34.3554 44.2171 35.6344C44.4219 36.1264 44.7214 36.8562 45.0377 37.6256C45.6769 39.1821 46.3831 40.9016 46.5075 41.1504C46.6933 41.5223 46.8171 41.956 46.5694 42.4521C46.5323 42.5264 46.4979 42.5964 46.465 42.6635C46.2789 43.0433 46.1423 43.3227 45.8265 43.6912C45.7025 43.836 45.5742 43.9923 45.4458 44.1485C45.1902 44.4598 44.9348 44.771 44.7123 44.9927C44.3402 45.3631 43.9531 45.7652 44.3864 46.5089C44.8198 47.2527 46.3108 49.6852 48.5192 51.6552C50.8933 53.7727 52.9567 54.6677 54.0025 55.1212C54.2067 55.21 54.3721 55.2817 54.4935 55.3425C55.236 55.7144 55.6694 55.6521 56.1029 55.1564C56.5362 54.6606 57.96 52.9873 58.455 52.2435C58.9502 51.5002 59.4456 51.6239 60.1265 51.8719C60.8077 52.12 64.46 53.9169 65.2029 54.2887C65.3479 54.3612 65.4835 54.4269 65.6092 54.4877Z" fill="black"/>
</svg>
