<svg width="100" height="100" viewBox="0 0 100 100" fill="none" xmlns="http://www.w3.org/2000/svg">
<path fill-rule="evenodd" clip-rule="evenodd" d="M50 0C22.3858 0 0 22.3858 0 50C0 77.6142 22.3858 100 50 100C77.6142 100 100 77.6142 100 50C100 22.3858 77.6142 0 50 0ZM70.8367 32.811C73.1315 33.4408 74.9387 35.2963 75.5521 37.6525C76.6667 41.9229 76.6667 50.8333 76.6667 50.8333C76.6667 50.8333 76.6667 59.7433 75.5521 64.0142C74.9387 66.3704 73.1315 68.2258 70.8367 68.8558C66.6779 70 50 70 50 70C50 70 33.3221 70 29.1631 68.8558C26.8681 68.2258 25.0608 66.3704 24.4475 64.0142C23.3333 59.7433 23.3333 50.8333 23.3333 50.8333C23.3333 50.8333 23.3333 41.9229 24.4475 37.6525C25.0608 35.2963 26.8681 33.4408 29.1631 32.811C33.3221 31.6667 50 31.6667 50 31.6667C50 31.6667 66.6779 31.6667 70.8367 32.811Z" fill="black"/>
<path d="M45 60.0002V43.3335L58.3333 51.6672L45 60.0002Z" fill="black"/>
</svg>
