<svg width="100" height="100" viewBox="0 0 100 100" fill="none" xmlns="http://www.w3.org/2000/svg">
<path d="M68.9149 50.1313H56.6335C56.0075 47.7256 54.1246 45.8426 51.7189 45.2167V27.7765C51.7189 26.8255 50.9485 26.0569 49.9993 26.0569C49.05 26.0569 48.2797 26.8255 48.2797 27.7765V45.2167C45.3219 45.9853 43.1208 48.6542 43.1208 51.8509C43.1208 55.6444 46.2058 58.7293 49.9993 58.7293C53.1943 58.7293 55.8648 56.5282 56.6335 53.5705H68.9149C69.8641 53.5705 70.6345 52.8018 70.6345 51.8509C70.6345 50.9 69.8658 50.1313 68.9149 50.1313ZM49.9993 55.2901C48.1025 55.2901 46.5601 53.7476 46.5601 51.8509C46.5601 49.9542 48.1025 48.4117 49.9993 48.4117C51.896 48.4117 53.4385 49.9542 53.4385 51.8509C53.4385 53.7476 51.896 55.2901 49.9993 55.2901Z" fill="black"/>
<path d="M86.3034 16.7901L93.3469 23.8336C93.6702 24.1568 94.107 24.3374 94.5627 24.3374C95.0184 24.3374 95.4569 24.1568 95.7785 23.8336C101.224 18.3893 101.224 9.52819 95.7785 4.08393C90.3342 -1.36033 81.4731 -1.36033 76.0288 4.08393C75.7055 4.40721 75.525 4.84227 75.525 5.29969C75.525 5.7571 75.7055 6.19388 76.0288 6.51544L83.8719 14.3585L80.9503 17.2802C72.7306 9.91338 61.8817 5.42178 50.0009 5.42178C38.1202 5.42178 27.2712 9.91338 19.0515 17.2802L16.1282 14.3585L23.9713 6.51544C24.2946 6.19216 24.4752 5.7571 24.4752 5.29969C24.4752 4.84227 24.2946 4.40549 23.9713 4.08393C18.5271 -1.36033 9.66595 -1.36033 4.22169 4.08393C-1.22429 9.52819 -1.22429 18.3893 4.22169 23.8336C4.54498 24.1568 4.98176 24.3374 5.43745 24.3374C5.89314 24.3374 6.33164 24.1568 6.65321 23.8336L13.6967 16.7901L16.5787 19.6721C8.53273 28.0242 3.56996 39.3667 3.56996 51.851C3.56996 68.8716 12.7819 83.7737 26.4768 91.8576L21.2698 97.0645C20.5975 97.7369 20.5975 98.8237 21.2698 99.496C21.6051 99.8314 22.0454 99.9999 22.4856 99.9999C22.9258 99.9999 23.366 99.8314 23.7013 99.496L29.634 93.5634C35.7867 96.5796 42.6978 98.2803 49.9992 98.2803C57.3006 98.2803 64.2117 96.5796 70.3645 93.5634L76.2971 99.496C76.6324 99.8314 77.0726 99.9999 77.5128 99.9999C77.9531 99.9999 78.3933 99.8314 78.7286 99.496C79.401 98.8237 79.401 97.7369 78.7286 97.0645L73.5216 91.8576C87.2166 83.7737 96.4285 68.8716 96.4285 51.851C96.4285 39.3667 91.4657 28.0242 83.4197 19.6721L86.3034 16.7901ZM93.3452 6.51544C97.0355 10.2057 97.4069 15.9767 94.4612 20.0883L79.7741 5.39942C83.8822 2.45374 89.6549 2.82346 93.3452 6.51544ZM5.53719 20.0865C2.59151 15.9767 2.96294 10.2057 6.65321 6.51544C10.3435 2.82518 16.1162 2.45546 20.2243 5.39942L5.53719 20.0865ZM49.9992 94.8411C26.2945 94.8411 7.00917 75.5557 7.00917 51.851C7.00917 28.1463 26.2945 8.86098 49.9992 8.86098C73.7039 8.86098 92.9893 28.1463 92.9893 51.851C92.9893 75.5557 73.7056 94.8411 49.9992 94.8411Z" fill="black"/>
<path d="M84.1883 32.0015C80.7319 26.0706 75.7795 21.1199 69.8503 17.6635C69.8228 17.6446 69.8056 17.6153 69.7763 17.5982C69.7454 17.581 69.7127 17.581 69.6818 17.5655C63.8815 14.2226 57.1631 12.2983 50.0009 12.2983C42.8388 12.2983 36.1203 14.2209 30.3201 17.5655C30.2891 17.581 30.2547 17.5792 30.2255 17.5982C30.1963 17.6153 30.1808 17.6446 30.1516 17.6635C24.2206 21.1199 19.2699 26.0706 15.8135 32.0015C15.7946 32.0308 15.7654 32.0462 15.7482 32.0755C15.731 32.1047 15.731 32.1391 15.7172 32.1701C12.3743 37.972 10.4501 44.6888 10.4501 51.8509C10.4501 59.013 12.3743 65.7315 15.7172 71.5317C15.7327 71.5627 15.731 71.5954 15.7482 71.6263C15.7722 71.6693 15.8084 71.7003 15.8359 71.7398C19.2923 77.6518 24.2344 82.5888 30.1516 86.0383C30.1791 86.0572 30.1963 86.0864 30.2255 86.1036C30.2702 86.1294 30.3184 86.1398 30.3631 86.1604C36.1547 89.4878 42.856 91.4017 50.0009 91.4017C57.1459 91.4017 63.8472 89.4878 69.6388 86.1604C69.6835 86.1398 69.7316 86.1294 69.7763 86.1036C69.8056 86.0864 69.821 86.0572 69.8503 86.0383C75.7674 82.5888 80.7096 77.6535 84.166 71.7398C84.1935 71.7003 84.2296 71.6693 84.2537 71.6263C84.2709 71.5971 84.2709 71.5627 84.2846 71.5317C87.6275 65.7298 89.5518 59.013 89.5518 51.8509C89.5518 44.6888 87.6275 37.9703 84.2846 32.1701C84.2691 32.1391 84.2709 32.1064 84.2537 32.0755C84.2347 32.0462 84.2055 32.0291 84.1883 32.0015ZM69.5046 82.195L68.6844 80.7746C68.2081 79.9526 67.1574 79.6689 66.3354 80.1452C65.5134 80.6198 65.2314 81.6722 65.706 82.4942L66.5297 83.9197C62.0536 86.2361 57.0375 87.6221 51.7205 87.8748V86.2429C51.7205 85.292 50.9501 84.5233 50.0009 84.5233C49.0517 84.5233 48.2813 85.292 48.2813 86.2429V87.8748C42.9643 87.6238 37.9482 86.2361 33.4721 83.9197L34.2958 82.4942C34.7704 81.6705 34.4884 80.6198 33.6664 80.1452C32.8393 79.6706 31.7921 79.9543 31.3174 80.7746L30.4972 82.195C26.1552 79.3955 22.4581 75.6966 19.6585 71.3563L21.0789 70.5361C21.9009 70.0615 22.1829 69.0091 21.7083 68.1871C21.232 67.3651 20.183 67.078 19.3593 67.5577L17.9338 68.3814C15.6175 63.9053 14.2315 58.8875 13.9787 53.5722H15.6106C16.5598 53.5722 17.3302 52.8036 17.3302 51.8526C17.3302 50.9017 16.5598 50.133 15.6106 50.133H13.9753C14.228 44.816 15.614 39.7982 17.9303 35.3238L19.3559 36.1475C19.6276 36.304 19.9234 36.3779 20.214 36.3779C20.809 36.3779 21.3867 36.0684 21.7049 35.5181C22.1795 34.6944 21.8975 33.6438 21.0755 33.1691L19.6551 32.3455C22.4546 28.0052 26.1535 24.3063 30.4938 21.5068L31.314 22.9272C31.6338 23.4775 32.2099 23.787 32.8049 23.787C33.0955 23.787 33.3913 23.7131 33.663 23.5566C34.4849 23.082 34.767 22.0296 34.2924 21.2076L33.4687 19.782C37.9448 17.4657 42.9609 16.0797 48.2779 15.827V17.4589C48.2779 18.4098 49.0483 19.1785 49.9975 19.1785C50.9467 19.1785 51.7171 18.4098 51.7171 17.4589V15.827C57.0341 16.078 62.0502 17.4657 66.5263 19.782L65.7026 21.2076C65.228 22.0313 65.51 23.082 66.332 23.5566C66.6037 23.7131 66.8994 23.787 67.1901 23.787C67.785 23.787 68.3628 23.4775 68.6809 22.9272L69.5012 21.5068C73.8432 24.3063 77.5403 28.0052 80.3399 32.3455L78.9195 33.1657C78.0975 33.6403 77.8155 34.6927 78.2901 35.5147C78.6099 36.065 79.186 36.3745 79.781 36.3745C80.0716 36.3745 80.3674 36.3005 80.6391 36.1441L82.0646 35.3204C84.3809 39.7965 85.7669 44.8143 86.0197 50.1296H84.3878C83.4386 50.1296 82.6682 50.8982 82.6682 51.8492C82.6682 52.8001 83.4386 53.5688 84.3878 53.5688H86.0197C85.7669 58.8858 84.3809 63.9036 82.0646 68.378L80.6391 67.5543C79.8137 67.0763 78.7647 67.3634 78.2901 68.1837C77.8155 69.0074 78.0975 70.058 78.9195 70.5326L80.3399 71.3529C77.5438 75.6966 73.8466 79.3938 69.5046 82.195Z" fill="black"/>
</svg>
