<svg width="100" height="100" viewBox="0 0 100 100" fill="none" xmlns="http://www.w3.org/2000/svg">
<path d="M93.411 82.3473C84.9382 73.9273 80.6437 63.9618 80.6437 52.7273V36.3745C80.7219 23.9073 72.3382 15.6382 65.1346 12.3455C63.071 11.4018 60.9437 10.6745 58.7819 10.1345V9.09091C58.7819 4.07818 54.7037 0 49.691 0C44.6782 0 40.6 4.07818 40.6 9.09091V10.2927C38.6528 10.8182 36.7382 11.5036 34.88 12.3618C26.9182 16.0309 18.8528 24.8745 18.78 36.3636V52.7273C18.78 64.3418 14.6782 74.3073 6.58914 82.3473C6.10732 82.8273 5.93277 83.5345 6.13641 84.1836C6.34005 84.8327 6.89096 85.3127 7.56187 85.4291L24.8182 88.4091C28.0328 88.9636 30.9928 89.4182 33.8091 89.7927C36.9837 96.0109 43.2146 100 50.0219 100C56.831 100 63.0637 96.0073 66.2346 89.7855C69.04 89.4127 71.9855 88.96 75.1819 88.4073L92.4364 85.4273C93.1073 85.3127 93.6564 84.8309 93.8619 84.1818C94.0673 83.5345 93.8928 82.8273 93.411 82.3473ZM44.2346 9.09091C44.2346 6.08364 46.6819 3.63636 49.6891 3.63636C52.6964 3.63636 55.1437 6.08364 55.1437 9.09091V9.42182C51.5201 8.90182 47.8437 8.92364 44.2346 9.50727V9.09091ZM50.0219 96.3636C45.4182 96.3636 41.1164 94.0764 38.3546 90.3364C42.4182 90.7546 46.211 90.9655 50.0019 90.9655C53.8073 90.9655 57.6128 90.7545 61.6928 90.3309C58.9291 94.0745 54.6255 96.3636 50.0219 96.3636ZM74.5637 84.8236C71.0746 85.4255 67.8764 85.9145 64.8546 86.3C64.851 86.3 64.8473 86.3 64.8437 86.3C63.5128 86.4691 62.2182 86.6164 60.951 86.7436C60.9382 86.7455 60.9237 86.7455 60.911 86.7473C59.7528 86.8636 58.62 86.9564 57.5 87.0382C57.2873 87.0545 57.0764 87.0673 56.8637 87.0818C55.8928 87.1455 54.9328 87.1964 53.9782 87.2327C53.7819 87.24 53.5855 87.2509 53.3891 87.2564C51.1273 87.3327 48.8964 87.3327 46.6364 87.2582C46.4364 87.2509 46.2328 87.2418 46.0328 87.2327C45.091 87.1964 44.1419 87.1473 43.1837 87.0836C42.9582 87.0691 42.7328 87.0545 42.5055 87.0382C41.4146 86.96 40.311 86.8673 39.1819 86.7564C39.1419 86.7527 39.1037 86.7491 39.0655 86.7455C37.8073 86.62 36.5219 86.4727 35.2 86.3055C35.1946 86.3055 35.1891 86.3055 35.1837 86.3055C32.151 85.9218 28.9419 85.4291 25.4364 84.8255L11.5073 82.4182C18.7491 74.1382 22.4164 64.1673 22.4164 52.7273V36.3745C22.4782 26.4927 29.4855 18.8527 36.4 15.6636C38.4564 14.7164 40.5891 14.0091 42.7582 13.5127C42.7764 13.5091 42.7964 13.5109 42.8146 13.5073C47.2946 12.5 52.0637 12.4545 56.5964 13.3836C56.62 13.3891 56.6437 13.3782 56.6673 13.3818C59.0382 13.8764 61.3728 14.6255 63.6219 15.6527C70.3291 18.72 77.0691 26.3091 77.0055 36.3655V52.7291C77.0055 63.6982 80.96 73.8982 88.4837 82.4218L74.5637 84.8236Z" fill="black"/>
<path d="M61.3565 20.6145C54.311 17.3945 45.6837 17.3909 38.6855 20.6182C34.6946 22.4582 27.9255 27.8418 27.871 36.3527C27.8655 37.3563 28.6728 38.1745 29.6783 38.1818C29.6819 38.1818 29.6855 38.1818 29.6892 38.1818C30.6874 38.1818 31.5019 37.3763 31.5074 36.3745C31.5492 29.6891 36.9965 25.4018 40.2074 23.92C46.2637 21.1254 53.7455 21.1327 59.8419 23.92C60.7546 24.3382 61.8346 23.9363 62.2528 23.0236C62.671 22.1091 62.2692 21.0309 61.3565 20.6145Z" fill="black"/>
</svg>
