<svg width="100" height="100" viewBox="0 0 100 100" fill="none" xmlns="http://www.w3.org/2000/svg">
<g clip-path="url(#clip0_5_1306)">
<path d="M93.8185 25.915C93.8185 25.915 93.8185 25.915 93.8185 25.8945C93.6341 25.5461 93.4292 25.2182 93.2448 24.8699C79.5536 1.36353 49.5688 -6.8545 25.9171 6.17952C25.9171 6.17952 25.8966 6.17952 25.8966 6.20001C25.8761 6.20001 25.8761 6.2205 25.8556 6.2205C25.5278 6.40493 25.1997 6.58935 24.8718 6.77378C1.36342 20.4637 -6.85522 50.4461 6.18002 74.0959V74.1164C6.18002 74.1164 6.18002 74.1369 6.20052 74.1369C6.38494 74.4648 6.56937 74.7926 6.754 75.1205C13.456 86.6379 24.2776 94.8765 37.2101 98.299C41.4938 99.426 45.8386 100 50.1427 100C58.4638 100 66.662 97.9096 74.102 93.8109C74.102 93.8109 74.1224 93.8109 74.1224 93.7904L74.1429 93.7699C74.4708 93.5855 74.7989 93.401 75.1267 93.2166C86.5427 86.5767 94.7204 75.8994 98.2046 63.1523C98.2251 63.0908 98.2456 63.0293 98.2661 62.9474C98.2866 62.8859 98.2866 62.8449 98.3071 62.7834C101.627 50.2412 100.029 37.1867 93.8185 25.915ZM63.5058 6.15903C73.8765 9.33546 83.1405 16.1805 89.1866 26.0994L64.9405 39.441C59.6116 29.2555 59.0788 16.7543 63.5058 6.15903ZM59.5091 5.09345C57.2751 10.6473 56.2298 16.7133 56.4347 22.8C56.6601 29.3375 58.3614 35.7316 61.3536 41.4084L50.7985 47.2082L29.6677 8.82317C39.1981 4.10964 49.7124 3.00308 59.5091 5.09345ZM26.081 10.8111L47.2118 49.1959L36.3698 55.1596C33.0085 49.9338 28.4585 45.4045 23.1093 42.0027C18.006 38.7648 12.2673 36.5922 6.38494 35.6701C9.68474 25.6486 16.4278 16.7133 26.081 10.8111ZM5.27818 39.6664C16.5302 41.265 26.5731 47.659 32.7626 57.1476L8.82388 70.325C3.98699 60.5291 2.9622 49.7082 5.27818 39.6664ZM37.0872 94.0158C26.0606 90.7777 16.7966 83.6869 10.812 73.9115L34.8532 60.6726C40.0999 70.5914 40.9403 83.0312 37.0872 94.0158ZM41.0837 94.9996C43.0718 89.1383 43.8915 82.8262 43.4817 76.5961C43.0513 70.243 41.3091 64.0949 38.4399 58.6847L49.1794 52.7824L70.3102 91.1467C61.2513 95.6553 51.0651 96.9875 41.0837 94.9996ZM73.897 89.1793L52.7866 50.815L63.4851 44.9332C66.8259 49.8107 71.2325 54.0939 76.3767 57.3935C81.6032 60.7545 87.5263 63.0703 93.6134 64.1769C90.2319 74.6492 83.3249 83.4205 73.897 89.1793ZM94.7204 60.201C83.4274 58.2746 73.364 51.983 67.0925 42.9248L91.1747 29.6859C95.8681 39.1541 97.1183 49.8314 94.7204 60.201Z" fill="black"/>
</g>
<defs>
<clipPath id="clip0_5_1306">
<rect width="100" height="100" fill="white"/>
</clipPath>
</defs>
</svg>
