<svg width="100" height="100" viewBox="0 0 100 100" fill="none" xmlns="http://www.w3.org/2000/svg">
<path d="M73.9638 7.75861C73.1621 3.8293 69.681 0.862061 65.5172 0.862061C64.5638 0.862061 63.7931 1.63275 63.7931 2.5862C63.7931 3.53965 64.5638 4.31034 65.5172 4.31034C68.369 4.31034 70.6897 6.63103 70.6897 9.48275C70.6897 12.3345 68.369 14.6552 65.5172 14.6552C64.5638 14.6552 63.7931 15.4259 63.7931 16.3793C63.7931 17.3327 64.5638 18.1034 65.5172 18.1034C69.6793 18.1034 73.1621 15.1362 73.9638 11.2069H96.5517V26.7241H3.44828V11.2069H27.5862H32.7586C33.7121 11.2069 34.4828 10.4362 34.4828 9.48275C34.4828 8.5293 33.7121 7.75861 32.7586 7.75861H29.6276C30.3414 5.75516 32.2379 4.31034 34.4828 4.31034C37.3345 4.31034 39.6552 6.63103 39.6552 9.48275C39.6552 12.3345 37.3345 14.6552 34.4828 14.6552C33.5293 14.6552 32.7586 15.4259 32.7586 16.3793C32.7586 17.3327 33.5293 18.1034 34.4828 18.1034C39.2362 18.1034 43.1034 14.2362 43.1034 9.48275C43.1034 4.7293 39.2362 0.862061 34.4828 0.862061C30.3207 0.862061 26.8379 3.8293 26.0362 7.75861H0V30.1724V99.1379H100V30.1724V7.75861H73.9638ZM96.5517 95.6896H3.44828V30.1724H96.5517V95.6896Z" fill="black"/>
<path d="M44.8275 4.31034C47.6793 4.31034 49.9999 6.63103 49.9999 9.48275C49.9999 12.3345 47.6793 14.6552 44.8275 14.6552C43.8741 14.6552 43.1034 15.4259 43.1034 16.3793C43.1034 17.3327 43.8741 18.1034 44.8275 18.1034C49.581 18.1034 53.4482 14.2362 53.4482 9.48275C53.4482 4.7293 49.581 0.862061 44.8275 0.862061C43.8741 0.862061 43.1034 1.63275 43.1034 2.5862C43.1034 3.53965 43.8741 4.31034 44.8275 4.31034Z" fill="black"/>
<path d="M55.1724 4.31034C58.0241 4.31034 60.3448 6.63103 60.3448 9.48275C60.3448 12.3345 58.0241 14.6552 55.1724 14.6552C54.2189 14.6552 53.4482 15.4259 53.4482 16.3793C53.4482 17.3327 54.2189 18.1034 55.1724 18.1034C59.9258 18.1034 63.7931 14.2362 63.7931 9.48275C63.7931 4.7293 59.9258 0.862061 55.1724 0.862061C54.2189 0.862061 53.4482 1.63275 53.4482 2.5862C53.4482 3.53965 54.2189 4.31034 55.1724 4.31034Z" fill="black"/>
<path d="M37.931 43.9655C38.8833 43.9655 39.6552 43.1936 39.6552 42.2414C39.6552 41.2891 38.8833 40.5172 37.931 40.5172C36.9788 40.5172 36.2069 41.2891 36.2069 42.2414C36.2069 43.1936 36.9788 43.9655 37.931 43.9655Z" fill="black"/>
<path d="M50 43.9655C50.9522 43.9655 51.7242 43.1936 51.7242 42.2414C51.7242 41.2891 50.9522 40.5172 50 40.5172C49.0478 40.5172 48.2759 41.2891 48.2759 42.2414C48.2759 43.1936 49.0478 43.9655 50 43.9655Z" fill="black"/>
<path d="M62.069 43.9655C63.0212 43.9655 63.7931 43.1936 63.7931 42.2414C63.7931 41.2891 63.0212 40.5172 62.069 40.5172C61.1168 40.5172 60.3448 41.2891 60.3448 42.2414C60.3448 43.1936 61.1168 43.9655 62.069 43.9655Z" fill="black"/>
<path d="M74.138 43.9655C75.0902 43.9655 75.8621 43.1936 75.8621 42.2414C75.8621 41.2891 75.0902 40.5172 74.138 40.5172C73.1857 40.5172 72.4138 41.2891 72.4138 42.2414C72.4138 43.1936 73.1857 43.9655 74.138 43.9655Z" fill="black"/>
<path d="M86.2069 43.9655C87.1591 43.9655 87.9311 43.1936 87.9311 42.2414C87.9311 41.2891 87.1591 40.5172 86.2069 40.5172C85.2547 40.5172 84.4828 41.2891 84.4828 42.2414C84.4828 43.1936 85.2547 43.9655 86.2069 43.9655Z" fill="black"/>
<path d="M13.7931 57.7586C14.7453 57.7586 15.5172 56.9867 15.5172 56.0344C15.5172 55.0822 14.7453 54.3103 13.7931 54.3103C12.8409 54.3103 12.069 55.0822 12.069 56.0344C12.069 56.9867 12.8409 57.7586 13.7931 57.7586Z" fill="black"/>
<path d="M25.8621 57.7586C26.8143 57.7586 27.5862 56.9867 27.5862 56.0344C27.5862 55.0822 26.8143 54.3103 25.8621 54.3103C24.9099 54.3103 24.1379 55.0822 24.1379 56.0344C24.1379 56.9867 24.9099 57.7586 25.8621 57.7586Z" fill="black"/>
<path d="M37.931 57.7586C38.8833 57.7586 39.6552 56.9867 39.6552 56.0344C39.6552 55.0822 38.8833 54.3103 37.931 54.3103C36.9788 54.3103 36.2069 55.0822 36.2069 56.0344C36.2069 56.9867 36.9788 57.7586 37.931 57.7586Z" fill="black"/>
<path d="M50 57.7586C50.9522 57.7586 51.7242 56.9867 51.7242 56.0344C51.7242 55.0822 50.9522 54.3103 50 54.3103C49.0478 54.3103 48.2759 55.0822 48.2759 56.0344C48.2759 56.9867 49.0478 57.7586 50 57.7586Z" fill="black"/>
<path d="M62.069 57.7586C63.0212 57.7586 63.7931 56.9867 63.7931 56.0344C63.7931 55.0822 63.0212 54.3103 62.069 54.3103C61.1168 54.3103 60.3448 55.0822 60.3448 56.0344C60.3448 56.9867 61.1168 57.7586 62.069 57.7586Z" fill="black"/>
<path d="M74.138 57.7586C75.0902 57.7586 75.8621 56.9867 75.8621 56.0344C75.8621 55.0822 75.0902 54.3103 74.138 54.3103C73.1857 54.3103 72.4138 55.0822 72.4138 56.0344C72.4138 56.9867 73.1857 57.7586 74.138 57.7586Z" fill="black"/>
<path d="M86.2069 57.7586C87.1591 57.7586 87.9311 56.9867 87.9311 56.0344C87.9311 55.0822 87.1591 54.3103 86.2069 54.3103C85.2547 54.3103 84.4828 55.0822 84.4828 56.0344C84.4828 56.9867 85.2547 57.7586 86.2069 57.7586Z" fill="black"/>
<path d="M13.7931 69.8275C14.7453 69.8275 15.5172 69.0556 15.5172 68.1034C15.5172 67.1512 14.7453 66.3793 13.7931 66.3793C12.8409 66.3793 12.069 67.1512 12.069 68.1034C12.069 69.0556 12.8409 69.8275 13.7931 69.8275Z" fill="black"/>
<path d="M25.8621 69.8275C26.8143 69.8275 27.5862 69.0556 27.5862 68.1034C27.5862 67.1512 26.8143 66.3793 25.8621 66.3793C24.9099 66.3793 24.1379 67.1512 24.1379 68.1034C24.1379 69.0556 24.9099 69.8275 25.8621 69.8275Z" fill="black"/>
<path d="M37.931 69.8275C38.8833 69.8275 39.6552 69.0556 39.6552 68.1034C39.6552 67.1512 38.8833 66.3793 37.931 66.3793C36.9788 66.3793 36.2069 67.1512 36.2069 68.1034C36.2069 69.0556 36.9788 69.8275 37.931 69.8275Z" fill="black"/>
<path d="M50 69.8275C50.9522 69.8275 51.7242 69.0556 51.7242 68.1034C51.7242 67.1512 50.9522 66.3793 50 66.3793C49.0478 66.3793 48.2759 67.1512 48.2759 68.1034C48.2759 69.0556 49.0478 69.8275 50 69.8275Z" fill="black"/>
<path d="M62.069 69.8275C63.0212 69.8275 63.7931 69.0556 63.7931 68.1034C63.7931 67.1512 63.0212 66.3793 62.069 66.3793C61.1168 66.3793 60.3448 67.1512 60.3448 68.1034C60.3448 69.0556 61.1168 69.8275 62.069 69.8275Z" fill="black"/>
<path d="M74.138 69.8275C75.0902 69.8275 75.8621 69.0556 75.8621 68.1034C75.8621 67.1512 75.0902 66.3793 74.138 66.3793C73.1857 66.3793 72.4138 67.1512 72.4138 68.1034C72.4138 69.0556 73.1857 69.8275 74.138 69.8275Z" fill="black"/>
<path d="M86.2069 69.8275C87.1591 69.8275 87.9311 69.0556 87.9311 68.1034C87.9311 67.1512 87.1591 66.3793 86.2069 66.3793C85.2547 66.3793 84.4828 67.1512 84.4828 68.1034C84.4828 69.0556 85.2547 69.8275 86.2069 69.8275Z" fill="black"/>
<path d="M13.7931 83.6206C14.7453 83.6206 15.5172 82.8487 15.5172 81.8965C15.5172 80.9443 14.7453 80.1724 13.7931 80.1724C12.8409 80.1724 12.069 80.9443 12.069 81.8965C12.069 82.8487 12.8409 83.6206 13.7931 83.6206Z" fill="black"/>
<path d="M25.8621 83.6206C26.8143 83.6206 27.5862 82.8487 27.5862 81.8965C27.5862 80.9443 26.8143 80.1724 25.8621 80.1724C24.9099 80.1724 24.1379 80.9443 24.1379 81.8965C24.1379 82.8487 24.9099 83.6206 25.8621 83.6206Z" fill="black"/>
<path d="M37.931 83.6206C38.8833 83.6206 39.6552 82.8487 39.6552 81.8965C39.6552 80.9443 38.8833 80.1724 37.931 80.1724C36.9788 80.1724 36.2069 80.9443 36.2069 81.8965C36.2069 82.8487 36.9788 83.6206 37.931 83.6206Z" fill="black"/>
<path d="M50 83.6206C50.9522 83.6206 51.7242 82.8487 51.7242 81.8965C51.7242 80.9443 50.9522 80.1724 50 80.1724C49.0478 80.1724 48.2759 80.9443 48.2759 81.8965C48.2759 82.8487 49.0478 83.6206 50 83.6206Z" fill="black"/>
<path d="M62.069 83.6206C63.0212 83.6206 63.7931 82.8487 63.7931 81.8965C63.7931 80.9443 63.0212 80.1724 62.069 80.1724C61.1168 80.1724 60.3448 80.9443 60.3448 81.8965C60.3448 82.8487 61.1168 83.6206 62.069 83.6206Z" fill="black"/>
</svg>
