<svg width="100" height="100" viewBox="0 0 100 100" fill="none" xmlns="http://www.w3.org/2000/svg">
<g clip-path="url(#clip0_5_3191)">
<path d="M63.59 21.7348H72.7021C74.6543 21.7348 76.2428 20.1465 76.2428 18.1941V3.55215C76.2428 1.5998 74.6545 0.0115234 72.7021 0.0115234H60.1894C60.0695 0.00644531 59.8611 0 59.5691 0C57.2082 0 48.9982 0.46582 42.4847 6.45781C35.3752 12.9994 36.0554 20.8244 36.3547 22.7537V32.2928H27.2978C25.3457 32.2928 23.7572 33.8811 23.7572 35.8334V51.5813C23.7572 53.5338 25.3455 55.1223 27.2978 55.1223H35.8306V96.4596C35.8306 98.4117 37.4189 100 39.3713 100H57.2166C59.1687 100 60.7572 98.4117 60.7572 96.4596V55.3264H70.8644C72.664 55.3264 74.1761 53.9781 74.3818 52.1904L76.2195 36.2389C76.3349 35.2367 76.0164 34.2301 75.3451 33.4771C74.6738 32.7246 73.7107 32.293 72.7025 32.293H60.758V24.2857C60.7576 22.6312 61.209 21.7348 63.59 21.7348ZM58.7658 36.2771H72.2047L70.4691 51.3424H58.7652C57.6652 51.3424 56.7732 52.2342 56.7732 53.3344V96.016H39.8144V53.1301C39.8144 52.0299 38.9224 51.1381 37.8224 51.1381H27.741V36.2768H38.3467C39.4467 36.2768 40.3386 35.385 40.3386 34.2848V22.5918C40.3386 22.4775 40.3289 22.3633 40.3094 22.2506C40.0994 21.0445 39.3488 14.7574 45.1824 9.38984C50.6345 4.37402 57.5728 3.98418 59.5693 3.98418C59.8492 3.98418 60.0158 3.9916 60.0463 3.99316C60.0791 3.99473 60.1119 3.99551 60.1447 3.99551H72.2592V17.751H63.5902C59.3219 17.751 56.7736 20.1939 56.7736 24.2857V34.285C56.7736 35.3854 57.6658 36.2771 58.7658 36.2771Z" fill="black"/>
</g>
<defs>
<clipPath id="clip0_5_3191">
<rect width="100" height="100" fill="white"/>
</clipPath>
</defs>
</svg>
