<svg width="100" height="100" viewBox="0 0 100 100" fill="none" xmlns="http://www.w3.org/2000/svg">
<path d="M99.8346 31.2364C98.3749 15.1701 87.0031 3.51364 72.7715 3.51364C63.2902 3.51364 54.609 8.61586 49.7241 16.7933C44.8834 8.51008 36.5579 3.51172 27.2285 3.51172C12.9989 3.51172 1.62513 15.1682 0.16735 31.2345C0.0519592 31.9441 -0.421145 35.679 1.0174 41.7697C3.0906 50.5548 7.87933 58.5457 14.8624 64.8729L49.701 96.4882L85.1376 64.8749C92.1207 58.5457 96.9095 50.5567 98.9827 41.7697C100.421 35.6809 99.9481 31.946 99.8346 31.2364ZM95.2382 40.8889C93.3458 48.9124 88.959 56.2224 82.5644 62.0151L49.7241 91.3148L17.4472 62.0228C11.0411 56.2186 6.65619 48.9105 4.76185 40.8869C3.40023 35.1232 3.95988 31.8672 3.9618 31.846L3.99065 31.6518C5.24072 17.576 15.0124 7.35809 27.2285 7.35809C36.2425 7.35809 44.1776 12.8969 47.9432 21.8108L49.7144 26.0092L51.4857 21.8108C55.1917 13.0334 63.546 7.36002 72.7735 7.36002C84.9876 7.36002 94.7613 17.5779 96.0363 31.8364C96.0402 31.8672 96.5998 35.1251 95.2382 40.8889Z" fill="black"/>
<path d="M30.7691 15.2008C20.1647 15.2008 11.5372 23.8282 11.5372 34.4327C11.5372 35.4962 12.3969 36.3559 13.4604 36.3559C14.5239 36.3559 15.3836 35.4962 15.3836 34.4327C15.3836 25.9495 22.2859 19.0472 30.7691 19.0472C31.8326 19.0472 32.6923 18.1875 32.6923 17.124C32.6923 16.0605 31.8307 15.2008 30.7691 15.2008Z" fill="black"/>
</svg>
