<svg width="100" height="100" viewBox="0 0 100 100" fill="none" xmlns="http://www.w3.org/2000/svg">
<path d="M77.4519 0H22.5481C10.1148 0 0 10.1148 0 22.5481V77.4519C0 89.8852 10.1148 100 22.5481 100H77.4519C89.8852 100 100 89.8852 100 77.4519V22.5481C100 10.1148 89.8852 0 77.4519 0ZM96.2963 77.4519C96.2963 87.8444 87.8426 96.2963 77.4519 96.2963H22.5481C12.1574 96.2963 3.7037 87.8444 3.7037 77.4519V22.5481C3.7037 12.1556 12.1574 3.7037 22.5481 3.7037H77.4519C87.8426 3.7037 96.2963 12.1556 96.2963 22.5481V77.4519Z" fill="black"/>
<path d="M79.3908 16.4185L38.6501 21.7074C37.7278 21.8278 37.0371 22.613 37.0371 23.5444V31.4815V37.037V68.0315C34.4982 65.5722 30.8778 64.0222 26.8519 64.0222C19.1926 64.0222 12.963 69.6018 12.963 76.4574C12.963 83.313 19.1926 88.8889 26.8519 88.8889C34.5112 88.8889 40.7408 83.3111 40.7408 76.4556V38.663L77.7778 33.8519V56.0907C75.2649 53.6519 71.6945 52.1167 67.7241 52.1167C60.1389 52.1167 53.9686 57.6963 53.9686 64.5519C53.9686 71.4074 60.1408 76.9852 67.7241 76.9852C75.3093 76.9852 81.4815 71.4074 81.4815 64.5519V31.7463V26.1907V18.2537C81.4815 17.7204 81.2519 17.213 80.8519 16.863C80.4501 16.513 79.9149 16.3463 79.3908 16.4185ZM26.8519 85.1852C21.2352 85.1852 16.6667 81.2704 16.6667 76.4556C16.6667 71.6407 21.2352 67.7241 26.8519 67.7241C32.4686 67.7241 37.0371 71.6407 37.0371 76.4556C37.0371 81.2704 32.4686 85.1852 26.8519 85.1852ZM40.7408 34.9278V31.4815V25.1722L77.7778 20.363V26.1889V30.1167L40.7408 34.9278ZM67.7241 73.2796C62.1815 73.2796 57.6723 69.3648 57.6723 64.55C57.6723 59.7352 62.1815 55.8185 67.7241 55.8185C73.2667 55.8185 77.7778 59.737 77.7778 64.55C77.7778 69.363 73.2667 73.2796 67.7241 73.2796Z" fill="black"/>
</svg>
