<svg width="100" height="100" viewBox="0 0 100 100" fill="none" xmlns="http://www.w3.org/2000/svg">
<path d="M92.0017 25.8334H77.795L71.1283 9.16675H28.8717L22.205 25.8334H20V17.5001H10V25.8334H7.99833C3.58667 25.8334 0 29.4201 0 33.8317V82.7784C0 87.2201 3.61333 90.8334 8.055 90.8334H91.945C96.3867 90.8334 100 87.2201 100 82.7784V33.8317C100 29.4201 96.4133 25.8334 92.0017 25.8334ZM13.3333 20.8334H16.6667V25.8334H13.3333V20.8334ZM96.6667 82.7784C96.6667 85.3834 94.5483 87.5001 91.945 87.5001H8.055C5.45167 87.5001 3.33333 85.3818 3.33333 82.7784V33.8317C3.33333 31.2601 5.42667 29.1667 7.99833 29.1667H10H20H24.4617L31.1283 12.5001H68.8717L75.5383 29.1667H92.0017C94.5733 29.1667 96.6667 31.2601 96.6667 33.8317V82.7784Z" fill="black"/>
<path d="M50 24.1667C33.4583 24.1667 20 37.6251 20 54.1667C20 70.7084 33.4583 84.1667 50 84.1667C66.5417 84.1667 80 70.7084 80 54.1667C80 37.6251 66.5417 24.1667 50 24.1667ZM50 80.8334C35.2967 80.8334 23.3333 68.8701 23.3333 54.1667C23.3333 39.4634 35.2967 27.5001 50 27.5001C64.7033 27.5001 76.6667 39.4634 76.6667 54.1667C76.6667 68.8701 64.7033 80.8334 50 80.8334Z" fill="black"/>
<path d="M50 34.1667C38.9717 34.1667 30 43.1384 30 54.1667C30 65.1951 38.9717 74.1667 50 74.1667C61.0283 74.1667 70 65.1951 70 54.1667C70 43.1384 61.0283 34.1667 50 34.1667ZM50 70.8334C40.81 70.8334 33.3333 63.3567 33.3333 54.1667C33.3333 44.9767 40.81 37.5001 50 37.5001C59.19 37.5001 66.6667 44.9767 66.6667 54.1667C66.6667 63.3567 59.19 70.8334 50 70.8334Z" fill="black"/>
<path d="M86.6667 32.5C82.99 32.5 80 35.49 80 39.1667C80 42.8433 82.99 45.8333 86.6667 45.8333C90.3433 45.8333 93.3333 42.8433 93.3333 39.1667C93.3333 35.49 90.3433 32.5 86.6667 32.5ZM86.6667 42.5C84.8283 42.5 83.3333 41.005 83.3333 39.1667C83.3333 37.3283 84.8283 35.8333 86.6667 35.8333C88.505 35.8333 90 37.3283 90 39.1667C90 41.005 88.505 42.5 86.6667 42.5Z" fill="black"/>
</svg>
