<svg width="100" height="100" viewBox="0 0 100 100" fill="none" xmlns="http://www.w3.org/2000/svg">
<path d="M75.9383 48.6234L39.2716 23.6234C38.76 23.2767 38.1 23.2384 37.5533 23.5267C37.0083 23.815 36.6666 24.3817 36.6666 25V75C36.6666 75.6184 37.0083 76.185 37.555 76.4734C37.7983 76.6034 38.0666 76.6667 38.3333 76.6667C38.6616 76.6667 38.99 76.5684 39.2716 76.3767L75.9383 51.3767C76.3933 51.0667 76.6666 50.5517 76.6666 50C76.6666 49.4484 76.3933 48.9334 75.9383 48.6234ZM40 71.845V28.155L72.0416 50L40 71.845Z" fill="black"/>
<path d="M50 0C22.43 0 0 22.43 0 50C0 77.57 22.43 100 50 100C77.57 100 100 77.57 100 50C100 22.43 77.57 0 50 0ZM50 96.6667C24.2683 96.6667 3.33333 75.7317 3.33333 50C3.33333 24.2683 24.2683 3.33333 50 3.33333C75.7317 3.33333 96.6667 24.2683 96.6667 50C96.6667 75.7317 75.7317 96.6667 50 96.6667Z" fill="black"/>
</svg>
