<svg width="100" height="100" viewBox="0 0 100 100" fill="none" xmlns="http://www.w3.org/2000/svg">
<g clip-path="url(#clip0_13_757)">
<path d="M50 24.074C35.7037 24.074 24.0741 35.7036 24.0741 49.9999C24.0741 64.2962 35.7037 75.9258 50 75.9258C64.2963 75.9258 75.9259 64.2962 75.9259 49.9999C75.9259 35.7036 64.2963 24.074 50 24.074ZM50 72.2221C37.7463 72.2221 27.7778 62.2536 27.7778 49.9999C27.7778 37.7462 37.7463 27.7777 50 27.7777C62.2537 27.7777 72.2222 37.7462 72.2222 49.9999C72.2222 62.2536 62.2537 72.2221 50 72.2221Z" fill="black"/>
<path d="M94.8519 38.8889H91.1148C90.1611 35.3481 88.7593 31.9593 86.9296 28.7833L89.5704 26.1426C90.5426 25.1704 91.0778 23.8759 91.0778 22.5019C91.0778 21.1259 90.5426 19.8333 89.5704 18.8593L81.1389 10.4278C79.1944 8.48519 75.8037 8.48148 73.8556 10.4278L71.2148 13.0685C68.037 11.2407 64.65 9.83889 61.1111 8.88518V5.14815C61.1111 2.30926 58.8018 0 55.963 0H44.037C41.1981 0 38.8889 2.30926 38.8889 5.14815V8.88518C35.35 9.83889 31.963 11.2407 28.7833 13.0704L26.1426 10.4296C24.1963 8.48148 20.8037 8.48519 18.8593 10.4296L10.4278 18.8611C9.45556 19.8333 8.92037 21.1278 8.92037 22.5037C8.92037 23.8778 9.45556 25.1704 10.4278 26.1444L13.0685 28.7852C11.2407 31.9593 9.83704 35.3481 8.88518 38.8889H5.14815C2.30926 38.8889 0 41.1981 0 44.037V55.9611C0 58.8019 2.30926 61.1111 5.14815 61.1111H8.88518C9.83889 64.65 11.2407 68.037 13.0704 71.2167L10.4296 73.8574C9.45741 74.8296 8.92222 76.1241 8.92222 77.4981C8.92222 78.8741 9.45741 80.1667 10.4296 81.1407L18.8611 89.5722C20.8056 91.5185 24.1981 91.5204 26.1444 89.5722L28.7852 86.9315C31.9648 88.7593 35.3519 90.163 38.8907 91.1167V94.8537C38.8907 97.6926 41.2 100.002 44.0389 100.002H55.963C58.8018 100.002 61.1111 97.6926 61.1111 94.8537V91.1167C64.65 90.163 68.037 88.7611 71.2167 86.9315L73.8574 89.5722C75.8056 91.5204 79.1944 91.5167 81.1407 89.5722L89.5722 81.1407C90.5444 80.1685 91.0796 78.8741 91.0796 77.4981C91.0796 76.1241 90.5444 74.8315 89.5722 73.8574L86.9315 71.2167C88.7593 68.037 90.163 64.65 91.1167 61.1111H94.8537C97.6926 61.1111 100.002 58.8018 100.002 55.963V44.037C100 41.1981 97.6907 38.8889 94.8519 38.8889ZM96.2963 55.963C96.2963 56.7593 95.6481 57.4074 94.8519 57.4074H88.2L87.8667 58.8389C86.9019 62.9815 85.2759 66.913 83.0278 70.5259L82.25 71.7741L86.9518 76.4759C87.5167 77.0407 87.5167 77.9574 86.9518 78.5204L78.5204 86.9518C77.9574 87.5148 77.0407 87.5185 76.4759 86.9518L71.7741 82.25L70.5259 83.0278C66.9148 85.2759 62.9833 86.9037 58.8389 87.8667L57.4074 88.2V94.8519C57.4074 95.6481 56.7593 96.2963 55.963 96.2963H44.037C43.2407 96.2963 42.5926 95.6481 42.5926 94.8519V88.2L41.1611 87.8667C37.0185 86.9019 33.087 85.2759 29.4741 83.0278L28.2259 82.25L23.5241 86.9518C22.9574 87.5185 22.0407 87.5148 21.4796 86.9518L13.0481 78.5204C12.4833 77.9556 12.4833 77.0389 13.0481 76.4759L17.75 71.7741L16.9722 70.5259C14.7241 66.9148 13.0963 62.9833 12.1333 58.8389L11.8 57.4074H5.14815C4.35185 57.4074 3.7037 56.7593 3.7037 55.963V44.037C3.7037 43.2407 4.35185 42.5926 5.14815 42.5926H11.8L12.1333 41.1611C13.0981 37.0167 14.7241 33.0852 16.9722 29.4741L17.75 28.2259L13.0481 23.5241C12.4833 22.9593 12.4833 22.0426 13.0481 21.4796L21.4796 13.0481C22.0426 12.4852 22.9593 12.4815 23.5241 13.0481L28.2259 17.75L29.4741 16.9722C33.0852 14.7241 37.0167 13.0963 41.1611 12.1333L42.5926 11.8V5.14815C42.5926 4.35185 43.2407 3.7037 44.037 3.7037H55.9611C56.7593 3.7037 57.4074 4.35185 57.4074 5.14815V11.8L58.8389 12.1333C62.9815 13.0981 66.913 14.7241 70.5259 16.9722L71.7741 17.75L76.4759 13.0481C77.0426 12.4815 77.9593 12.4852 78.5204 13.0481L86.9518 21.4796C87.5167 22.0444 87.5167 22.9611 86.9518 23.5241L82.25 28.2259L83.0278 29.4741C85.2759 33.0833 86.9037 37.0148 87.8667 41.1611L88.2 42.5926H94.8519C95.6481 42.5926 96.2963 43.2407 96.2963 44.037V55.963Z" fill="black"/>
<path d="M50 31.4814C39.7889 31.4814 31.4814 39.7889 31.4814 50C31.4814 60.2111 39.7889 68.5185 50 68.5185C60.2111 68.5185 68.5185 60.2111 68.5185 50C68.5185 39.7889 60.2111 31.4814 50 31.4814ZM50 64.8148C41.8314 64.8148 35.1851 58.1685 35.1851 50C35.1851 41.8314 41.8314 35.1851 50 35.1851C58.1685 35.1851 64.8148 41.8314 64.8148 50C64.8148 58.1685 58.1685 64.8148 50 64.8148Z" fill="black"/>
</g>
<defs>
<clipPath id="clip0_13_757">
<rect width="100" height="100" fill="white"/>
</clipPath>
</defs>
</svg>
