<svg width="100" height="100" viewBox="0 0 100 100" fill="none" xmlns="http://www.w3.org/2000/svg">
<path d="M67.6786 71.0721C66.7904 71.9603 66.0259 72.9367 65.3648 73.969L36.0742 56.1895C36.8489 54.2504 37.2879 52.1417 37.2879 49.9297C37.2879 47.7176 36.8489 45.609 36.0759 43.6698L65.3733 26.0259C68.382 30.7518 73.6571 33.9012 79.6644 33.9012C89.0109 33.9012 96.615 26.2971 96.615 16.9506C96.615 7.60403 89.0109 0 79.6644 0C70.3178 0 62.7138 7.60403 62.7138 16.9506C62.7138 19.0796 63.1257 21.1103 63.8444 22.9884L34.508 40.656C31.4772 36.0386 26.2598 32.9791 20.3356 32.9791C10.989 32.9791 3.38501 40.5831 3.38501 49.9297C3.38501 59.2762 10.989 66.8802 20.3356 66.8802C26.2598 66.8802 31.4755 63.8207 34.5063 59.2033L63.8376 77.0065C63.1087 78.9152 62.7121 80.9543 62.7121 83.0579C62.7121 87.5854 64.4749 91.8434 67.6769 95.0436C70.9806 98.3473 75.3216 100 79.6627 100C84.0037 100 88.3448 98.3473 91.6484 95.0436C94.8504 91.8417 96.6133 87.5854 96.6133 83.0579C96.6133 78.5304 94.8504 74.2724 91.6484 71.0721C85.0394 64.4614 74.2876 64.4614 67.6786 71.0721ZM79.6644 3.39012C87.1413 3.39012 93.2248 9.47368 93.2248 16.9506C93.2248 24.4275 87.1413 30.5111 79.6644 30.5111C72.1875 30.5111 66.1039 24.4275 66.1039 16.9506C66.1039 9.47368 72.1858 3.39012 79.6644 3.39012ZM20.3373 63.4901C12.8604 63.4901 6.77682 57.4066 6.77682 49.9297C6.77682 42.4528 12.8604 36.3692 20.3373 36.3692C27.8142 36.3692 33.8978 42.4528 33.8978 49.9297C33.8978 57.4066 27.8142 63.4901 20.3373 63.4901ZM89.2516 92.6468C83.9647 97.9337 75.3623 97.9337 70.0754 92.6468C67.5142 90.0856 66.1039 86.6785 66.1039 83.0579C66.1039 79.4372 67.5142 76.0302 70.0754 73.4689C72.7197 70.8246 76.1912 69.5042 79.6644 69.5042C83.1375 69.5042 86.609 70.8246 89.2533 73.4689C91.8145 76.0302 93.2248 79.4372 93.2248 83.0579C93.2248 86.6785 91.8145 90.0856 89.2516 92.6468Z" fill="black"/>
</svg>
