<svg width="100" height="100" viewBox="0 0 100 100" fill="none" xmlns="http://www.w3.org/2000/svg">
<g clip-path="url(#clip0_13_134)">
<path d="M20.2034 97.6391C19.8329 97.6391 19.4623 97.5245 19.1509 97.2972C18.5996 96.8962 18.3239 96.2178 18.4403 95.5466L23.973 63.295L0.540608 40.4568C0.0537371 39.9807 -0.121679 39.2701 0.0877465 38.6239C0.298962 37.9759 0.859222 37.5034 1.53404 37.4049L33.9145 32.6991L48.3971 3.35622C48.6978 2.74405 49.3207 2.35742 50.0009 2.35742C50.6829 2.35742 51.3058 2.74405 51.6047 3.35622L66.0856 32.6991L98.4678 37.4049C99.1426 37.5034 99.7011 37.9742 99.9141 38.6239C100.124 39.2701 99.9499 39.9825 99.4613 40.4568L76.0288 63.2986L81.5598 95.5484C81.6744 96.2196 81.3987 96.898 80.8492 97.299C80.2979 97.7035 79.5658 97.7554 78.9626 97.435L50.0009 82.2096L21.0357 97.435C20.7744 97.571 20.488 97.6391 20.2034 97.6391ZM5.63664 40.4246L27.1449 61.3905C27.5655 61.8004 27.7588 62.3946 27.6586 62.9746L22.5805 92.577L49.1686 78.601C49.6895 78.3253 50.3106 78.3253 50.8351 78.601L77.4196 92.577L72.3433 62.9746C72.243 62.3946 72.4364 61.8022 72.857 61.3905L94.3652 40.4246L64.6428 36.1054C64.0593 36.0213 63.5563 35.6544 63.295 35.1263L50.0009 8.1945L36.7069 35.1281C36.4455 35.6561 35.9425 36.0231 35.359 36.1072L5.63664 40.4246Z" fill="black"/>
</g>
<defs>
<clipPath id="clip0_13_134">
<rect width="100" height="100" fill="white"/>
</clipPath>
</defs>
</svg>
