<svg width="100" height="100" viewBox="0 0 100 100" fill="none" xmlns="http://www.w3.org/2000/svg">
<path d="M100 50C100 22.43 77.57 0 50 0C22.43 0 0 22.43 0 50C0 64.1417 5.91167 76.9217 15.3817 86.025L15.3283 86.0667L16.8133 87.3867C20.295 90.48 24.1583 93.04 28.2817 95.0317C28.4533 95.115 28.63 95.19 28.8033 95.2717C29.3217 95.515 29.84 95.755 30.3667 95.98C30.6917 96.1183 31.0217 96.2467 31.35 96.38C31.7317 96.5333 32.1133 96.69 32.4983 96.8333C32.8933 96.9817 33.2933 97.1183 33.6917 97.2567C34.02 97.37 34.3483 97.485 34.6783 97.5917C35.1083 97.73 35.5433 97.86 35.9783 97.9867C36.2883 98.0767 36.5983 98.1683 36.9117 98.2517C37.3583 98.3733 37.8067 98.4867 38.2567 98.595C38.57 98.67 38.885 98.7433 39.2 98.8133C39.6467 98.9117 40.0933 99.0067 40.545 99.0917C40.8817 99.1567 41.2183 99.215 41.5567 99.2733C41.9883 99.3467 42.42 99.42 42.855 99.4817C43.2367 99.5367 43.62 99.5817 44.0033 99.6283C44.4 99.6767 44.7967 99.7267 45.1967 99.765C45.67 99.81 46.145 99.8417 46.62 99.8733C46.9383 99.895 47.255 99.9233 47.5767 99.9383C48.3817 99.9783 49.19 100 50 100C50.8083 100 51.615 99.9783 52.42 99.9383C52.7433 99.9233 53.0633 99.8933 53.385 99.8717C53.8533 99.84 54.3233 99.81 54.7883 99.765C55.1967 99.7267 55.6 99.675 56.005 99.6267C56.3767 99.5817 56.7483 99.5383 57.1183 99.485C57.5667 99.42 58.0117 99.3467 58.455 99.27C58.7733 99.215 59.0917 99.16 59.41 99.0983C59.88 99.0083 60.3483 98.9117 60.8133 98.8083C61.1017 98.745 61.3883 98.6783 61.675 98.61C62.1533 98.495 62.63 98.375 63.1017 98.2467C63.375 98.1717 63.6483 98.0933 63.92 98.0133C64.3933 97.875 64.865 97.7367 65.3317 97.585C65.61 97.495 65.885 97.3983 66.16 97.305C66.6117 97.15 67.0633 96.995 67.51 96.8283C67.8233 96.71 68.1333 96.5833 68.445 96.46C68.845 96.3 69.245 96.145 69.64 95.9767C70.0833 95.7867 70.52 95.5817 70.9583 95.38C71.2117 95.2617 71.4717 95.1517 71.7233 95.03C75.805 93.0583 79.6317 90.5267 83.0867 87.475L84.575 86.1617L84.5233 86.12C94.0483 77.0083 100 64.19 100 50ZM3.33333 50C3.33333 24.2683 24.2683 3.33333 50 3.33333C75.7317 3.33333 96.6667 24.2683 96.6667 50C96.6667 63.4283 90.9583 75.5417 81.85 84.0633C72.5717 77.0633 61.5683 73.3333 49.8983 73.3333C38.28 73.3333 27.315 77.0317 18.0583 83.9767C9.005 75.46 3.33333 63.3833 3.33333 50ZM78.8067 86.6733C78.0467 87.27 77.275 87.8467 76.4833 88.3933C76.2733 88.5383 76.065 88.685 75.8533 88.8267C74.9667 89.4183 74.0583 89.9733 73.1367 90.5C72.9333 90.6167 72.7333 90.7367 72.5283 90.85C71.5333 91.4 70.5167 91.9117 69.4867 92.385C69.3083 92.4667 69.13 92.5467 68.9517 92.6283C67.8667 93.1117 66.7667 93.56 65.6483 93.9583C65.5667 93.9883 65.4833 94.0133 65.4 94.0417C63.0517 94.8633 60.6367 95.495 58.1767 95.9333C58.0317 95.96 57.8883 95.9867 57.7433 96.0117C56.575 96.2083 55.395 96.36 54.21 96.4667C54.0217 96.4833 53.8333 96.495 53.645 96.51C52.4367 96.605 51.2217 96.6667 50 96.6667C48.7733 96.6667 47.5533 96.605 46.34 96.51C46.15 96.495 45.96 96.4833 45.7717 96.4667C44.5867 96.36 43.41 96.2067 42.2433 96.01C42.0833 95.9833 41.9267 95.9533 41.7667 95.925C40.5533 95.7083 39.35 95.4533 38.1617 95.1417C38.155 95.14 38.1483 95.1383 38.1417 95.1367C36.9367 94.82 35.7467 94.4467 34.5717 94.035C34.4733 94 34.375 93.97 34.2767 93.935C33.175 93.54 32.0917 93.0967 31.0233 92.62C30.82 92.53 30.6167 92.4383 30.415 92.345C29.4067 91.8783 28.4133 91.375 27.4383 90.835C27.2033 90.705 26.9733 90.5683 26.74 90.4333C25.8067 89.895 24.8867 89.3333 23.99 88.73C23.7733 88.585 23.565 88.43 23.3517 88.28C22.58 87.7433 21.8267 87.1783 21.085 86.5917C20.92 86.4617 20.7533 86.335 20.59 86.2033C29.15 79.9567 39.24 76.6667 49.8983 76.6667C60.605 76.6667 70.73 79.9833 79.3083 86.2783C79.1433 86.4117 78.975 86.5417 78.8067 86.6733Z" fill="black"/>
<path d="M50 13.3333C50.9217 13.3333 51.6667 12.5883 51.6667 11.6667V8.33334C51.6667 7.41167 50.9217 6.66667 50 6.66667C49.0784 6.66667 48.3334 7.41167 48.3334 8.33334V11.6667C48.3334 12.5883 49.0784 13.3333 50 13.3333Z" fill="black"/>
<path d="M87.5 50C87.5 50.9217 88.245 51.6667 89.1667 51.6667H92.5C93.4217 51.6667 94.1667 50.9217 94.1667 50C94.1667 49.0783 93.4217 48.3333 92.5 48.3333H89.1667C88.245 48.3333 87.5 49.0783 87.5 50Z" fill="black"/>
<path d="M12.5 50C12.5 49.0783 11.755 48.3333 10.8334 48.3333H7.50004C6.57837 48.3333 5.83337 49.0783 5.83337 50C5.83337 50.9217 6.57837 51.6667 7.50004 51.6667H10.8334C11.755 51.6667 12.5 50.9217 12.5 50Z" fill="black"/>
<path d="M68.75 18.3583C69.0117 18.51 69.2983 18.5817 69.5817 18.5817C70.1583 18.5817 70.7183 18.2817 71.0267 17.7483L72.6933 14.8617C73.1533 14.0633 72.88 13.045 72.0833 12.585C71.285 12.1233 70.2667 12.3983 69.8067 13.195L68.14 16.0817C67.6783 16.8783 67.9517 17.8967 68.75 18.3583Z" fill="black"/>
<path d="M87.64 70.64L84.7533 68.9733C83.9567 68.5117 82.935 68.7867 82.4767 69.5833C82.0167 70.3817 82.29 71.4 83.0867 71.86L85.9733 73.5267C86.235 73.6783 86.5217 73.75 86.805 73.75C87.3817 73.75 87.9417 73.45 88.25 72.9167C88.7117 72.1183 88.4383 71.1 87.64 70.64Z" fill="black"/>
<path d="M12.36 31.0267L15.2466 32.6933C15.5083 32.845 15.795 32.9167 16.0783 32.9167C16.655 32.9167 17.215 32.6167 17.5233 32.0833C17.9833 31.285 17.71 30.2667 16.9133 29.8067L14.0266 28.14C13.23 27.68 12.21 27.9533 11.75 28.75C11.29 29.5467 11.5633 30.5667 12.36 31.0267Z" fill="black"/>
<path d="M28.965 17.6917C29.275 18.225 29.8333 18.525 30.41 18.525C30.6933 18.525 30.98 18.4533 31.2417 18.3017C32.04 17.8417 32.3133 16.8217 31.8517 16.025L30.185 13.1383C29.725 12.34 28.7017 12.0667 27.9083 12.5283C27.11 12.9883 26.8367 14.0083 27.2983 14.805L28.965 17.6917Z" fill="black"/>
<path d="M83.4983 32.1383C83.7817 32.1383 84.0683 32.0667 84.33 31.915L87.215 30.2483C88.0133 29.7883 88.2867 28.7683 87.825 27.9717C87.3633 27.1733 86.3417 26.9 85.5483 27.3617L82.6633 29.0283C81.865 29.4883 81.5917 30.5083 82.0533 31.305C82.3617 31.84 82.9217 32.1383 83.4983 32.1383Z" fill="black"/>
<path d="M17.1 68.805C16.6384 68.0067 15.6167 67.7333 14.8234 68.195L11.9384 69.8617C11.14 70.3217 10.8667 71.3417 11.3284 72.1383C11.6384 72.6733 12.1967 72.9717 12.7734 72.9717C13.0567 72.9717 13.3434 72.9 13.605 72.7483L16.49 71.0817C17.2867 70.6217 17.56 69.6033 17.1 68.805Z" fill="black"/>
<path d="M50 54.7983C51.78 54.7983 53.455 54.105 54.7134 52.845C55.9734 51.585 56.6667 49.9117 56.6667 48.1317C56.6667 47.055 56.3867 46.0317 55.9084 45.1033L70.035 30.9767C70.6867 30.325 70.6867 29.2717 70.035 28.62C69.3834 27.9683 68.33 27.9683 67.6784 28.62L53.7 42.5983C51.1384 40.9383 47.4934 41.21 45.2884 43.4183C44.0267 44.6767 43.3334 46.35 43.3334 48.1317C43.3334 49.9117 44.0267 51.585 45.2867 52.845C46.545 54.105 48.22 54.7983 50 54.7983ZM47.6434 45.775C48.2734 45.145 49.11 44.7983 50 44.7983C50.89 44.7983 51.7267 45.145 52.3567 45.775C52.9867 46.405 53.3334 47.2417 53.3334 48.1317C53.3334 49.0217 52.9867 49.8583 52.3567 50.4883C51.0967 51.7483 48.9034 51.7483 47.6434 50.4883C47.0134 49.8583 46.6667 49.0217 46.6667 48.1317C46.6667 47.2417 47.0134 46.405 47.6434 45.775Z" fill="black"/>
</svg>
