<svg width="100" height="100" viewBox="0 0 100 100" fill="none" xmlns="http://www.w3.org/2000/svg">
<g clip-path="url(#clip0_5_7844)">
<path d="M75.2477 23.8139L34.1209 49.144C31.7936 50.5807 30.6922 53.4184 31.442 56.043L35.8889 71.668C36.2688 73.0002 37.4543 73.8858 38.8184 73.8858C38.8943 73.8858 38.9711 73.883 39.0481 73.8774C40.5063 73.7715 41.6602 72.6854 41.8541 71.2377L43.0104 62.6701C43.1662 61.5174 43.7217 60.4451 44.5731 59.6526L78.5115 28.1049C79.5371 27.1539 79.6727 25.5967 78.8276 24.4828C77.9811 23.368 76.443 23.0797 75.2477 23.8139ZM41.8594 56.7356C40.3344 58.1551 39.3408 60.0733 39.0619 62.1369L38.5012 66.2928L35.2732 54.9506C35.0109 54.0319 35.3973 53.0383 36.2117 52.5356L66.3402 33.9795L41.8594 56.7356Z" fill="black"/>
<path d="M98.373 7.30269C97.0881 6.21363 95.315 5.91382 93.7445 6.52046L2.94531 41.5482C1.14706 42.2417 -0.00918646 43.9349 -6.77422e-06 45.8617C0.00936823 47.7902 1.18261 49.474 2.9914 50.1517L24.2004 58.0675L32.4736 84.674C32.9279 86.1367 34.0746 87.2732 35.5406 87.7142C37.0059 88.1548 38.5883 87.8398 39.7711 86.8724L52.1031 76.8191C52.6953 76.3363 53.541 76.3125 54.1594 76.7615L76.4021 92.9101C77.2023 93.4918 78.1467 93.7912 79.102 93.7912C79.6615 93.7912 80.2248 93.6884 80.7654 93.4794C82.2275 92.914 83.2908 91.6607 83.6092 90.1273L99.9039 11.7466C100.246 10.0962 99.6596 8.39351 98.373 7.30269ZM96.0031 10.9371L79.7086 89.3175C79.6496 89.6007 79.4457 89.7185 79.3293 89.7636C79.2121 89.8089 78.9807 89.8591 78.7439 89.6869L56.5004 73.5375C55.506 72.8156 54.3369 72.4572 53.1699 72.4572C51.8969 72.4572 50.6256 72.8839 49.5865 73.7304L37.2518 83.7861C37.0322 83.9658 36.8043 83.9337 36.6883 83.8988C36.5715 83.8636 36.3631 83.764 36.2783 83.4914L27.7148 55.9511C27.5318 55.3626 27.0865 54.8919 26.5092 54.6763L4.3871 46.4199C4.05585 46.2959 3.98534 46.0375 3.98437 45.8423C3.98339 45.649 4.05136 45.3917 4.37949 45.2652L95.1789 10.2377C95.1793 10.2375 95.1799 10.2373 95.1805 10.2371C95.4754 10.1232 95.6935 10.2541 95.7975 10.3419C95.9018 10.4308 96.0678 10.6261 96.0031 10.9371Z" fill="black"/>
</g>
<defs>
<clipPath id="clip0_5_7844">
<rect width="100" height="100" fill="white"/>
</clipPath>
</defs>
</svg>
