<svg width="100" height="100" viewBox="0 0 100 100" fill="none" xmlns="http://www.w3.org/2000/svg">
<path d="M94.356 48.2408L88.0908 41.9745H90.3296C91.1535 41.9745 91.8206 41.3078 91.8206 40.4842V30.491C91.8206 29.6681 91.1535 29.0007 90.3296 29.0007L42.6983 29C42.2997 29 41.9172 29.1599 41.6371 29.4433L35.0734 36.0855H27.7579L25.8378 30.0396C25.6413 29.4206 25.0652 29 24.4176 29H13.9165C13.2737 29 12.7035 29.4125 12.5011 30.0227L3.50206 57.2394H1.49067C0.666674 57.2394 0 57.9068 0 58.7297V68.7217C0 69.5454 0.666674 70.2128 1.49067 70.2128H86.7061C87.1077 70.2128 87.4923 70.0511 87.774 69.7636L94.3688 63.0114C94.6409 62.7327 94.7931 62.3586 94.7931 61.9699V49.2951C94.7931 48.8997 94.6358 48.5202 94.356 48.2408Z" fill="#161211"/>
<path d="M48.6126 60.6229H46.7809L45.2909 59.1345V39.8831L46.7248 38.6484H48.6126V32.3835H43.4878L38.04 37.897V60.9526L43.4614 66.828H48.6126V60.6229Z" fill="#F8A60F"/>
<path d="M56.2602 32.3835H51.1879V38.648H53.1282L54.5162 39.8823V43.358H61.766V37.9087L56.2602 32.3835Z" fill="#F8A60F"/>
<path d="M54.5162 59.1426L53.0746 60.623H51.1879V66.8281H55.8598L61.766 60.9868V55.0374H54.5162V59.1426Z" fill="#F8A60F"/>
<path d="M16.6086 47.5447L18.9327 40.5138L21.1466 47.5447H27.8481L23.0322 32.3835H15.284L10.2708 47.5447H16.6086Z" fill="#F8A60F"/>
<path d="M32.0029 60.6231L28.6659 50.1206H9.41998L5.94726 60.6231H3.38287V66.8282H14.7237V60.6231H12.2293L13.8989 55.743H23.7135L25.2903 60.6231H22.8488V66.8282H34.7811V60.6231H32.0029Z" fill="#F8A60F"/>
<path d="M96.9604 60.9872C96.9886 59.1038 96.5515 57.2035 95.6842 55.4558C95.9292 55.2328 96.1646 55.0073 96.392 54.7785C96.9538 55.6193 97.5988 56.3179 98.2992 56.8276C98.2292 58.3575 97.7503 59.7807 96.9604 60.9872ZM90.4986 64.7353C94.0656 61.9238 94.5786 58.8203 93.9435 56.8812C94.3568 56.5757 94.7554 56.2611 95.1367 55.9369C96.0484 57.85 96.4217 59.9458 96.1976 61.9747C94.7777 63.5637 92.7598 64.6015 90.4986 64.7353ZM83.3588 61.4163C85.2364 61.0895 87.1301 60.5175 88.9984 59.7103C90.5529 59.0378 92.0161 58.223 93.3421 57.3088C93.8364 59.1526 93.1331 62.0928 89.3351 64.7258C86.8917 64.5296 84.749 63.2722 83.3588 61.4163ZM81.83 54.9967C83.5569 54.4741 85.2393 54.2064 86.8338 54.2064C90.1099 54.2064 92.3094 55.3542 92.9666 56.4206C93.0076 56.4888 93.0472 56.5614 93.0858 56.6348C91.7612 57.5618 90.2896 58.3883 88.7208 59.0668C86.8037 59.8959 84.8561 60.4683 82.9236 60.7756C82.1487 59.5134 81.6947 58.0348 81.6947 56.4485C81.6947 55.9527 81.7464 55.469 81.83 54.9967ZM85.9757 49.1869C88.9533 49.5309 91.7762 51.1594 93.751 53.689C94.1496 54.2024 94.5016 54.7403 94.8085 55.297C94.4426 55.6127 94.059 55.9208 93.66 56.2193C93.6274 56.1621 93.5969 56.1063 93.5632 56.0528C92.6164 54.5159 89.9713 53.5229 86.825 53.5229C85.2558 53.5229 83.6386 53.7557 82.0086 54.2123C82.6126 52.059 84.0604 50.2551 85.9757 49.1869ZM93.5947 48.9647C94.1635 49.8162 94.641 50.7946 95.0062 51.8954C95.2772 52.7191 95.6201 53.4789 96.0135 54.1675C95.7998 54.3868 95.5764 54.6036 95.345 54.8174C95.0377 54.279 94.6912 53.7576 94.3025 53.2596C92.4525 50.8855 89.8877 49.2581 87.1231 48.6651C88.0226 48.3307 88.9911 48.1389 90.0061 48.1389C91.2922 48.1389 92.5067 48.4418 93.5947 48.9647ZM97.3579 52.5845C97.0968 52.9369 96.8196 53.2852 96.5156 53.6263C96.1914 53.0304 95.9035 52.3806 95.6714 51.6761C95.4415 50.979 95.1694 50.3237 94.8562 49.7143C95.8947 50.4653 96.7554 51.4447 97.3579 52.5845ZM98.2912 55.9259C97.7822 55.4782 97.3091 54.9138 96.8878 54.2585C97.1753 53.9439 97.4411 53.6241 97.6945 53.301C98.0308 54.1188 98.2329 55.0033 98.2912 55.9259ZM90.0061 46.4553C84.4953 46.4553 80.0119 50.938 80.0119 56.4485C80.0119 61.9593 84.4953 66.4431 90.0061 66.4431C95.517 66.4431 100 61.9593 100 56.4485C100 50.938 95.517 46.4553 90.0061 46.4553Z" fill="#161211"/>
<path d="M90.0061 48.1389C88.9911 48.1389 88.0226 48.3307 87.123 48.6651C89.8877 49.2581 92.4524 50.8856 94.3024 53.2596C94.6912 53.7576 95.0377 54.2791 95.345 54.8174C95.5764 54.6036 95.7997 54.3872 96.0135 54.1676C95.62 53.4789 95.2772 52.7191 95.0062 51.8955C94.6409 50.7946 94.1635 49.8162 93.5947 48.9647C92.5067 48.4418 91.2921 48.1389 90.0061 48.1389Z" fill="#F8A60F"/>
<path d="M98.2911 55.9259C98.2328 55.0033 98.0311 54.1188 97.6945 53.301C97.4411 53.6241 97.1753 53.9439 96.8878 54.2585C97.3091 54.9138 97.7822 55.4782 98.2911 55.9259Z" fill="#F8A60F"/>
<path d="M94.8562 49.7141C95.1694 50.3236 95.4415 50.9789 95.6714 51.676C95.9035 52.3804 96.1914 53.0302 96.5156 53.6261C96.8196 53.2851 97.0968 52.9367 97.3579 52.5843C96.7554 51.4446 95.8947 50.4651 94.8562 49.7141Z" fill="#F8A60F"/>
<path d="M93.9434 56.8812C94.5786 58.8203 94.0659 61.9238 90.4986 64.7353C92.7597 64.6015 94.7777 63.5637 96.1976 61.9747C96.4213 59.9457 96.0483 57.85 95.1371 55.9365C94.7553 56.2611 94.3567 56.5757 93.9434 56.8812Z" fill="#F8A60F"/>
<path d="M89.3351 64.7256C93.133 62.0927 93.8364 59.1524 93.3421 57.3086C92.0161 58.2228 90.5529 59.0376 88.9988 59.7102C87.13 60.5173 85.2364 61.0893 83.3588 61.4161C84.749 63.272 86.8917 64.5294 89.3351 64.7256Z" fill="#F8A60F"/>
<path d="M98.2992 56.8275C97.5984 56.3174 96.9537 55.6192 96.3923 54.7783C96.165 55.0071 95.9292 55.2327 95.6842 55.4556C96.5515 57.2034 96.9886 59.1036 96.9603 60.987C97.7502 59.7809 98.2292 58.3574 98.2992 56.8275Z" fill="#F8A60F"/>
<path d="M86.8249 53.5227C89.9713 53.5227 92.6164 54.5158 93.5632 56.0526C93.5969 56.1062 93.6274 56.1619 93.66 56.2191C94.059 55.9206 94.4426 55.6126 94.8085 55.2968C94.5016 54.7402 94.1496 54.2022 93.7506 53.6888C91.7762 51.1597 88.9533 49.5307 85.9756 49.1868C84.0603 50.255 82.6126 52.0588 82.0086 54.2121C83.6386 53.7556 85.2558 53.5227 86.8249 53.5227Z" fill="#F8A60F"/>
<path d="M81.6947 56.4487C81.6947 58.0347 82.1483 59.5133 82.9235 60.7755C84.8561 60.4678 86.8037 59.8958 88.7212 59.0666C90.29 58.3882 91.7612 57.5613 93.0857 56.6346C93.0476 56.5617 93.0076 56.4887 92.9666 56.4208C92.3094 55.3541 90.1103 54.2063 86.8334 54.2063C85.2397 54.2063 83.5568 54.474 81.83 54.9966C81.7468 55.4689 81.6947 55.9526 81.6947 56.4487Z" fill="#F8A60F"/>
<path d="M87.9907 46.6602L85.9012 44.5703H77.8714V50.7218H81.8289C83.2682 48.6719 85.4534 47.1816 87.9907 46.6602Z" fill="#F8A60F"/>
<path d="M80.9103 60.5666H75.2718L75.2964 38.6445H75.3287V38.5913H88.4366V32.3848H65.3715V38.5913H68.1075V60.5666H65.3715V66.8281H85.9096L86.8084 65.9095C84.1828 65.0184 82.0475 63.0679 80.9103 60.5666Z" fill="#F8A60F"/>
<path d="M83.2265 61.3596C80.4827 57.621 81.2888 52.3665 85.0266 49.6232C88.7648 46.8791 94.0201 47.684 96.7642 51.4222C99.5086 55.1604 98.7022 60.415 94.9633 63.1605C91.2265 65.9017 85.9716 65.0971 83.2265 61.3596Z" fill="#FBC709"/>
<path d="M89.6236 57.8702C88.2764 56.0337 88.6702 53.4525 90.5078 52.1056C92.3435 50.7583 94.9244 51.1543 96.2698 52.9897C97.619 54.8247 97.2215 57.4063 95.3875 58.7536C93.5511 60.1009 90.9709 59.7063 89.6236 57.8702Z" fill="#F4F01F"/>
<path d="M85.7431 60.0113C83.6049 57.0993 84.2341 53.0054 87.1443 50.8682C90.0567 48.7314 94.1506 49.3581 96.2882 52.2705C98.4265 55.1814 97.7976 59.2768 94.8859 61.4122C91.9742 63.5508 87.8807 62.9226 85.7431 60.0113ZM95.0744 63.253C98.8724 60.465 99.6909 55.1272 96.9021 51.3295C94.1121 47.5308 88.7762 46.7127 84.9775 49.4993C81.1802 52.2885 80.3614 57.6274 83.1502 61.4246C85.9379 65.2226 91.276 66.0411 95.0744 63.253Z" fill="#F58616"/>
<path d="M83.9961 61.0073C81.457 57.5485 82.2029 52.6889 85.6602 50.1517C89.1165 47.6148 93.9772 48.3596 96.5155 51.8165C99.0539 55.2742 98.3076 60.1338 94.8503 62.6718C91.3933 65.209 86.5326 64.4646 83.9961 61.0073ZM95.0021 63.2105C98.7682 60.4455 99.5783 55.1517 96.8133 51.3853C94.0494 47.6188 88.7549 46.8084 84.9888 49.5719C81.2216 52.3373 80.4116 57.6303 83.1754 61.3968C85.9419 65.1625 91.2371 65.9744 95.0021 63.2105Z" fill="#F25E1D"/>
<path d="M96.9604 60.9872C96.9886 59.1038 96.5515 57.2035 95.6842 55.4558C95.9292 55.2328 96.1646 55.0073 96.392 54.7785C96.9538 55.6193 97.5988 56.3179 98.2992 56.8276C98.2292 58.3575 97.7503 59.7807 96.9604 60.9872ZM90.4986 64.7353C94.0656 61.9238 94.5786 58.8203 93.9435 56.8812C94.3568 56.5757 94.7554 56.2611 95.1367 55.9369C96.0484 57.85 96.4217 59.9458 96.1976 61.9747C94.7777 63.5637 92.7598 64.6015 90.4986 64.7353ZM83.3588 61.4163C85.2364 61.0895 87.1301 60.5175 88.9984 59.7103C90.5529 59.0378 92.0161 58.223 93.3421 57.3088C93.8364 59.1526 93.1331 62.0928 89.3351 64.7258C86.8917 64.5296 84.749 63.2722 83.3588 61.4163ZM81.83 54.9967C83.5569 54.4741 85.2393 54.2064 86.8338 54.2064C90.1099 54.2064 92.3094 55.3542 92.9666 56.4206C93.0076 56.4888 93.0472 56.5614 93.0858 56.6348C91.7612 57.5618 90.2896 58.3883 88.7208 59.0668C86.8037 59.8959 84.8561 60.4683 82.9236 60.7756C82.1487 59.5134 81.6947 58.0348 81.6947 56.4485C81.6947 55.9527 81.7464 55.469 81.83 54.9967ZM85.9757 49.1869C88.9533 49.5309 91.7762 51.1594 93.751 53.689C94.1496 54.2024 94.5016 54.7403 94.8085 55.297C94.4426 55.6127 94.059 55.9208 93.66 56.2193C93.6274 56.1621 93.5969 56.1063 93.5632 56.0528C92.6164 54.5159 89.9713 53.5229 86.825 53.5229C85.2558 53.5229 83.6386 53.7557 82.0086 54.2123C82.6126 52.059 84.0604 50.2551 85.9757 49.1869ZM93.5947 48.9647C94.1635 49.8162 94.641 50.7946 95.0062 51.8954C95.2772 52.7191 95.6201 53.4789 96.0135 54.1675C95.7998 54.3868 95.5764 54.6036 95.345 54.8174C95.0377 54.279 94.6912 53.7576 94.3025 53.2596C92.4525 50.8855 89.8877 49.2581 87.1231 48.6651C88.0226 48.3307 88.9911 48.1389 90.0061 48.1389C91.2922 48.1389 92.5067 48.4418 93.5947 48.9647ZM97.3579 52.5845C97.0968 52.9369 96.8196 53.2852 96.5156 53.6263C96.1914 53.0304 95.9035 52.3806 95.6714 51.6761C95.4415 50.979 95.1694 50.3237 94.8562 49.7143C95.8947 50.4653 96.7554 51.4447 97.3579 52.5845ZM98.2912 55.9259C97.7822 55.4782 97.3091 54.9138 96.8878 54.2585C97.1753 53.9439 97.4411 53.6241 97.6945 53.301C98.0308 54.1188 98.2329 55.0033 98.2912 55.9259ZM90.0061 46.4553C84.4953 46.4553 80.0119 50.938 80.0119 56.4485C80.0119 61.9593 84.4953 66.4431 90.0061 66.4431C95.517 66.4431 100 61.9593 100 56.4485C100 50.938 95.517 46.4553 90.0061 46.4553Z" fill="#161211"/>
</svg>
