<svg width="100" height="100" viewBox="0 0 100 100" fill="none" xmlns="http://www.w3.org/2000/svg">
<path d="M91.5346 48.2144C91.3503 47.3948 90.6395 47.1973 90.0932 47.1447C88.5795 46.967 87.148 46.7662 85.7889 46.5621C81.4911 45.8314 74.6692 44.301 67.2287 41.2993C59.0872 38.0145 49.4419 32.6496 44.917 27.2321C43.1564 25.0697 42.1034 22.9237 42.1132 20.9193C42.1132 20.9193 40.843 10.7359 58.8009 16.2555C58.8931 16.4398 65.1456 34.2986 86.503 36.6585C87.8193 36.8066 89.106 36.6782 89.2409 35.9969C83.4886 19.8727 68.0909 8.33325 49.9947 8.33325C38.6052 8.33325 28.2853 12.9049 20.7625 20.3137C20.5782 20.5145 20.3939 20.7185 20.2162 20.9193C19.2125 22.0647 16.4976 25.2869 16.4877 28.9995C16.4778 33.4593 21.6773 37.376 28.0253 40.4962H28.0615C28.0615 40.4962 42.2679 47.431 52.2292 49.6329C52.8051 49.735 52.8413 49.8567 52.8413 50.018C52.838 50.2484 52.6767 50.2616 52.4201 50.3439C43.0149 52.3285 28.0944 59.474 28.0582 59.4905C28.0483 59.4971 16.491 64.6184 16.491 71.0003C16.491 74.7162 19.2158 77.9351 20.2195 79.0805C20.3972 79.2846 20.5782 79.4854 20.7658 79.6861C28.2853 87.0949 38.6052 91.6666 49.9947 91.6666C68.0909 91.6666 83.4886 80.1272 89.2409 64.0029C89.106 63.3216 87.8193 63.1965 86.503 63.3381C65.1456 65.7045 58.8931 83.56 58.8009 83.7443C40.843 89.2672 42.1132 79.0805 42.1132 79.0805C42.0738 71.8034 56.0037 62.4527 67.2451 57.756C68.7194 57.1405 78.2233 53.5035 90.5375 52.0586C91.3273 51.9928 91.6037 51.3181 91.6366 50.6565C91.6893 49.6955 91.6794 49.057 91.5346 48.2144Z" fill="#E9540D"/>
<path d="M32.409 50.3441C32.3958 50.3441 32.8499 50.2519 32.8499 50.0182C32.8499 49.7845 32.3036 49.6331 32.3036 49.6331C29.6447 48.6984 25.8471 47.1679 22.6287 45.6276C16.8105 42.6061 12.2264 38.8968 12.2264 34.7069C12.2264 34.3416 11.871 34.2856 11.6933 34.2856C11.3873 34.2856 11.203 34.7761 11.203 34.7761C9.35026 39.4892 8.3334 44.627 8.3334 50.0018C8.3334 55.3765 9.35026 60.511 11.203 65.2275C11.203 65.2275 11.3873 65.7146 11.6933 65.7146C11.871 65.7146 12.2264 65.662 12.2264 65.2933C12.2264 61.0475 16.9356 57.2921 22.8656 54.2509C26.0018 52.7336 29.3255 51.2492 32.409 50.3441Z" fill="#E9540D"/>
</svg>
