<svg width="100" height="100" viewBox="0 0 100 100" fill="none" xmlns="http://www.w3.org/2000/svg">
<path d="M5 80.5186H6.34683L8.16901 88.8689L10.1496 80.5186H11.7342L13.4771 88.8689H13.5167L15.4577 80.5186H16.765L14.1901 90.1749H12.6849L10.8627 81.785H10.8231L8.88205 90.1749H7.37676L5 80.5186Z" fill="#202A25"/>
<path d="M17.6763 87.1276C17.6763 89.0273 18.1912 89.3834 19.0627 89.3834C19.8154 89.3834 20.2115 88.7898 20.2511 88.0775H21.4395C21.4395 89.5813 20.4888 90.2541 19.1023 90.2541C17.6763 90.2541 16.5275 89.8188 16.5275 86.8506C16.5275 84.8719 16.7652 83.2493 19.1023 83.2493C21.0434 83.2493 21.5187 84.3178 21.5187 86.534V87.1276H17.6763V87.1276ZM20.3303 86.2966C20.3303 84.3178 19.7758 84.0804 18.9835 84.0804C18.3101 84.0804 17.7159 84.4365 17.7159 86.2966H20.3303Z" fill="#202A25"/>
<path d="M27.7773 80.5186H29.3222L32.4912 90.1749H31.1048L30.4313 87.8796H26.6681L25.9551 90.1749H24.6875L27.7773 80.5186ZM28.5299 81.6267L26.985 86.7714H30.0748L28.5299 81.6267Z" fill="#202A25"/>
<path d="M34.5507 84.4365C35.0261 83.4075 35.5806 83.2888 36.6502 83.2888V84.4365C36.571 84.4365 36.4521 84.3969 36.3729 84.3969C36.2937 84.3969 36.1748 84.3573 36.0956 84.3573C34.8676 84.3573 34.5507 85.3072 34.5507 86.2174V90.2145H33.4416V83.4471H34.5507V84.4365" fill="#202A25"/>
<path d="M38.1553 87.1276C38.1553 89.0273 38.6703 89.3834 39.5418 89.3834C40.2944 89.3834 40.6905 88.7898 40.7302 88.0775H41.9185C41.9185 89.5813 40.9678 90.2541 39.5418 90.2541C38.1157 90.2541 36.9669 89.8188 36.9669 86.8506C36.9669 84.8719 37.2046 83.2493 39.5418 83.2493C41.4828 83.2493 41.9581 84.3178 41.9581 86.534V87.1276H38.1553V87.1276ZM40.7698 86.2966C40.7698 84.3178 40.2152 84.0804 39.4229 84.0804C38.7495 84.0804 38.1553 84.4365 38.1553 86.2966H40.7698Z" fill="#202A25"/>
<path d="M45.6421 90.1749V80.5186H48.7715C50.1183 80.5186 50.5541 80.9539 50.9502 81.5079C51.2671 82.0224 51.3463 82.616 51.3463 82.7743C51.3463 83.9616 50.9502 84.7927 49.6826 85.0697V85.1489C51.069 85.3072 51.6632 86.1382 51.6632 87.4442C51.6632 89.9375 49.841 90.1749 48.7715 90.1749H45.6421ZM46.8701 84.5948H48.6923C49.643 84.5948 50.1183 84.0012 50.1183 83.0514C50.1183 82.2599 49.643 81.5871 48.6527 81.5871H46.9097V84.5948H46.8701ZM46.8701 89.1064H48.613C49.9203 89.1064 50.3956 88.1566 50.3956 87.4442C50.3956 85.9008 49.4449 85.6238 48.1773 85.6238H46.8701V89.1064V89.1064Z" fill="#202A25"/>
<path d="M56.2585 89.1855C55.902 89.9374 55.3871 90.2936 54.5156 90.2936C53.0895 90.2936 52.6538 89.3834 52.6538 88.0774C52.6538 86.0195 54.6741 85.9403 56.2189 85.9799C56.2586 85.0697 56.2585 84.1199 55.0702 84.1199C54.3175 84.1199 53.9214 84.6343 54.0006 85.3467H52.8123C52.8519 83.8428 53.6837 83.3284 55.1098 83.3284C56.8527 83.3284 57.2885 84.2386 57.2885 85.3467V88.5919C57.2885 89.1459 57.3281 89.6604 57.4469 90.2145H56.2189V89.1855H56.2585ZM53.8026 88.1566C53.8026 88.7898 54.1195 89.3834 54.8721 89.3834C55.5455 89.3834 56.3774 88.9481 56.2585 86.7714C55.189 86.811 53.8026 86.7318 53.8026 88.1566Z" fill="#202A25"/>
<path d="M60.6953 90.2937C59.2297 90.2937 58.3186 89.6605 58.3582 88.0775H59.5862C59.5862 88.4732 59.5862 89.3834 60.7349 89.3834C61.4084 89.3834 61.8837 89.0273 61.8837 88.3545C61.8837 87.1672 58.5166 87.1277 58.5166 85.1093C58.5166 84.397 58.9524 83.2493 60.8538 83.2493C62.0422 83.2493 63.1117 83.8429 62.9929 85.1489H61.7649C61.7649 84.4365 61.4084 84.0804 60.6953 84.0804C60.1011 84.0804 59.6654 84.3969 59.6654 84.9906C59.6654 86.1778 63.0325 86.1383 63.0325 88.2358C63.0325 89.7396 62.0422 90.2937 60.6953 90.2937Z" fill="#202A25"/>
<path d="M65.2115 90.1749H64.1024V80.5186H65.2115V86.3361L67.311 83.4075H68.6182L66.3603 86.2965L69.0539 90.1749H67.6279L65.2115 86.3757V90.1749Z" fill="#202A25"/>
<path d="M70.3214 87.1276C70.3214 89.0273 70.8364 89.3834 71.6682 89.3834C72.4209 89.3834 72.817 88.7898 72.8566 88.0775H74.045C74.045 89.5813 73.0943 90.2541 71.6682 90.2541C70.2422 90.2541 69.0934 89.8188 69.0934 86.8506C69.0934 84.8719 69.3311 83.2493 71.6682 83.2493C73.6092 83.2493 74.0846 84.3178 74.0846 86.534V87.1276H70.3214V87.1276ZM72.9754 86.2966C72.9754 84.3178 72.4209 84.0804 71.6286 84.0804C70.9156 84.0804 70.361 84.4365 70.361 86.2966H72.9754Z" fill="#202A25"/>
<path d="M75.5501 83.4076V82.1016L76.6592 81.6267V83.4076H78.1249V84.2387H76.6592V88.3545C76.6592 88.7898 76.6592 89.3439 77.6495 89.3439C77.7288 89.3439 77.8872 89.3043 78.1249 89.3043V90.1354C77.7684 90.175 77.4119 90.2541 77.0553 90.2541C75.9858 90.2541 75.5501 89.8188 75.5501 89.0669V84.2783H74.4409V83.4472H75.5501" fill="#202A25"/>
<path d="M80.3434 90.1749H79.2342V80.5186H80.3434V84.1199H80.383C80.7395 83.5659 81.2149 83.2888 81.8883 83.2888C84.067 83.2888 84.1066 85.228 84.1066 86.9297C84.1066 89.8979 82.9974 90.3332 81.9279 90.3332C81.2149 90.3332 80.7395 90.0166 80.383 89.3834H80.3434V90.1749ZM81.5714 89.423C82.9578 89.423 82.9578 87.9587 82.9578 86.9297C82.9578 85.1093 82.7994 84.199 81.611 84.199C80.383 84.199 80.3434 85.6633 80.3434 86.534C80.3434 87.5629 80.2245 89.423 81.5714 89.423Z" fill="#202A25"/>
<path d="M88.5429 89.1855C88.1864 89.9374 87.6714 90.2936 86.7999 90.2936C85.3739 90.2936 84.9381 89.3834 84.9381 88.0774C84.9381 86.0195 86.9584 85.9403 88.5033 85.9799C88.5429 85.0697 88.5429 84.1199 87.3545 84.1199C86.6415 84.1199 86.2453 84.6343 86.285 85.3467H85.0966C85.1362 83.8428 85.9681 83.3284 87.3941 83.3284C89.1371 83.3284 89.5728 84.2386 89.5728 85.3467V88.5919C89.5728 89.1459 89.652 89.6604 89.6916 90.2145H88.5033V89.1855H88.5429ZM86.0473 88.1566C86.0473 88.7898 86.3642 89.3834 87.1168 89.3834C87.7902 89.3834 88.6221 88.9481 88.5033 86.7714C87.4733 86.811 86.0473 86.7318 86.0473 88.1566Z" fill="#202A25"/>
<path d="M92.3063 80.5186H91.1971V90.1749H92.3063V80.5186Z" fill="#202A25"/>
<path d="M94.9999 80.5186H93.8908V90.1749H94.9999V80.5186Z" fill="#202A25"/>
<path d="M19.2605 15.8128V23.0946H29.1241V29.5454H19.2605V43.8321H12.3283V11.4991C12.3283 9.75776 13.0017 9.04541 14.7447 9.04541H31.1047V15.7732H19.2605" fill="#202A25"/>
<path d="M33.4814 43.8719V11.5389C33.4814 9.79754 34.1549 9.12476 35.9374 9.12476H40.4137V43.9114H33.4814" fill="#202A25"/>
<path d="M57.7243 19.2165C57.7243 22.0263 56.0606 23.451 53.6838 23.451H50.6732V14.9819H53.6838C56.0606 14.9819 57.7243 16.4066 57.7243 19.2165ZM64.7754 33.9385C64.7754 29.229 62.2401 26.9732 60.418 26.34C62.0817 25.5881 64.5377 23.6093 64.5377 18.2667C64.5377 13.3989 61.2498 9.08521 54.1592 9.08521H46.3159C44.5729 9.08521 43.8599 9.75798 43.8599 11.5389V43.8719H54.4365C60.3784 43.8719 64.7754 40.5871 64.7754 33.9385ZM57.8035 33.5823C57.8035 36.5109 56.1002 37.896 53.7234 37.896H50.6336V29.229H53.7234C56.1002 29.229 57.8035 30.6537 57.8035 33.5823Z" fill="#202A25"/>
<path d="M81.0958 25.7068H74.6785V18.5437C74.6785 17.0794 75.1539 14.6257 77.8872 14.6257C80.6204 14.6257 81.0958 17.119 81.0958 18.5437V25.7068ZM87.9884 43.8719V17.7522C87.9884 15.0611 86.5227 8.33325 77.8475 8.33325C69.1724 8.33325 67.7067 15.1006 67.7067 17.7522V43.8719H74.6389V32.1576H81.0958V43.8719H87.9884Z" fill="#202A25"/>
</svg>
