<svg width="300" height="136" viewBox="0 0 300 136" fill="none" xmlns="http://www.w3.org/2000/svg">
<path fill-rule="evenodd" clip-rule="evenodd" d="M51.2063 134.941C47.1608 135.401 45.1381 135.631 43.4678 135.148C41.2408 134.503 39.3596 132.994 38.238 130.953C37.3968 129.422 37.1683 127.386 36.7112 123.314L32.493 85.7373C32.0359 81.6655 31.8074 79.6296 32.288 77.9485C32.9289 75.7071 34.4281 73.8137 36.456 72.6848C37.9769 71.8381 39.9997 71.6081 44.0452 71.1481L269.788 45.4769C273.834 45.0168 275.857 44.7868 277.527 45.2706C279.754 45.9156 281.635 47.4246 282.757 49.4656C283.598 50.9964 283.826 53.0323 284.284 57.1041L288.502 94.6809C288.959 98.7527 289.187 100.789 288.707 102.47C288.066 104.711 286.567 106.605 284.539 107.733C283.018 108.58 280.995 108.81 276.95 109.27L51.2063 134.941Z" fill="#FF9900"/>
<path fill-rule="evenodd" clip-rule="evenodd" d="M45.5244 128.552C41.5165 129.272 39.5126 129.632 37.8149 129.258C35.5514 128.758 33.5779 127.373 32.3286 125.409C31.3916 123.935 31.0338 121.918 30.3182 117.885L23.7141 80.6574C22.9984 76.6235 22.6406 74.6066 23.0132 72.8979C23.5098 70.6197 24.8854 68.6334 26.8371 67.3759C28.301 66.4328 30.3049 66.0727 34.3127 65.3524L257.955 25.1613C261.963 24.4411 263.967 24.081 265.665 24.4559C267.928 24.9558 269.902 26.3403 271.151 28.3047C272.088 29.778 272.446 31.795 273.162 35.8289L279.766 73.056C280.481 77.0899 280.839 79.1068 280.467 80.8155C279.97 83.0937 278.594 85.08 276.643 86.3375C275.179 87.2806 273.175 87.6407 269.167 88.361L45.5244 128.552Z" fill="#146EB4"/>
<path d="M51.2401 115.507L50.0126 108.588C50.4619 108.619 50.868 108.601 51.2309 108.536C52.0911 108.382 52.5893 107.985 52.7256 107.346C52.8461 106.697 52.7024 105.222 52.2944 102.922L49.1376 85.127L46.5571 85.5907L45.3584 78.8338L61.1841 75.9898L62.3827 82.7467L59.9837 83.1778L62.9174 99.7149C63.4621 102.786 63.7654 104.965 63.8273 106.252C63.8916 107.552 63.6427 108.846 63.0806 110.134C62.494 111.439 61.6274 112.496 60.4806 113.302C59.3339 114.108 57.6517 114.711 55.4341 115.109C54.1573 115.339 52.7593 115.471 51.2401 115.507Z" fill="white"/>
<path d="M66.9994 81.917L64.8423 82.3047L63.6436 75.5478L77.9976 72.9682L79.1963 79.7251L77.8657 79.9642L79.5539 89.4807C79.9571 91.7533 80.4469 93.2635 81.0233 94.0114C81.5974 94.7457 82.4422 95.0127 83.5577 94.8122C84.4851 94.6455 85.0959 94.1798 85.3902 93.415C85.6868 92.6638 85.6492 91.2398 85.2772 89.1431L83.4702 78.957L82.059 79.2106L80.8603 72.4537L91.404 70.5589L92.6027 77.3158L90.3851 77.7143L92.1993 87.941C92.6625 90.5517 92.6653 92.7567 92.2078 94.5558C91.7479 96.3414 90.7272 97.8579 89.1456 99.1053C87.564 100.353 85.4963 101.206 82.9427 101.665C80.8864 102.034 79.0209 102.111 77.3462 101.896C75.647 101.699 74.2382 101.184 73.1198 100.352C72.0038 99.5337 71.0993 98.4609 70.4062 97.1338C69.7068 95.8497 69.1064 93.794 68.6048 90.9668L66.9994 81.917Z" fill="white"/>
<path d="M110.221 96.3019L99.3545 98.2547L98.1558 91.4978L100.313 91.1101L97.7032 76.3992L95.4856 76.7977L94.2869 70.0408L111.201 67.0011L117.267 77.1547L119.568 65.4976L136.381 62.476L137.58 69.2329L135.382 69.6278L137.992 84.3388L140.25 83.933L141.449 90.6899L126.813 93.3202L125.614 86.5633L127.852 86.1611L125.055 70.395L120.583 94.4397L116.39 95.1933L104.044 74.3804L106.804 89.9435L109.022 89.545L110.221 96.3019Z" fill="white"/>
<path d="M154.635 65.5816L155.575 70.8775L157.692 70.4971C159.17 70.2314 160.214 69.8623 160.824 69.3899C161.406 68.9222 161.608 68.1811 161.428 67.1666C161.31 66.5037 161.036 65.9737 160.605 65.5766C160.19 65.1906 159.689 64.9874 159.103 64.9671C158.544 64.942 157.619 65.0454 156.329 65.2772L154.635 65.5816ZM161.367 87.1104L144.977 90.0559L143.778 83.299L146.5 82.8099L143.89 68.0989L141.168 68.588L139.97 61.8311L157.166 58.7407C161.118 58.0306 164.076 57.8968 166.04 58.3394C168.007 58.7955 169.541 59.6226 170.641 60.8208C171.741 62.0189 172.434 63.4229 172.72 65.0326C173.072 67.0211 172.854 68.7632 172.066 70.259C171.279 71.7682 170.099 72.9714 168.525 73.8685C166.975 74.7473 164.473 75.497 161.019 76.1178L156.644 76.9039L157.346 80.8607L160.168 80.3535L161.367 87.1104Z" fill="white"/>
<path d="M190.168 69.8115L191.154 75.3712L193.594 74.9328C195.153 74.6526 196.239 74.248 196.852 73.719C197.452 73.1924 197.661 72.4151 197.479 71.387C197.308 70.4266 196.88 69.7708 196.194 69.4195C195.51 69.0818 194.301 69.0687 192.567 69.3803L190.168 69.8115ZM188.343 59.5239L189.257 64.6778L191.656 64.2467C193.283 63.9544 194.309 63.5257 194.736 62.9605C195.136 62.4001 195.267 61.7343 195.13 60.9633C195.013 60.3004 194.685 59.7451 194.148 59.2972C193.611 58.8494 192.348 58.8042 190.359 59.1616L188.343 59.5239ZM194.833 81.0962L178.967 83.9475L177.768 77.1906L180.207 76.7522L177.598 62.0412L175.158 62.4796L173.96 55.7227L191.096 52.6432C194.456 52.0394 197.091 51.7681 199.002 51.8295C200.888 51.9093 202.456 52.4581 203.704 53.4761C204.958 54.5211 205.729 55.862 206.02 57.4988C206.303 59.095 206.038 60.4547 205.225 61.578C204.39 62.7331 203.286 63.6293 201.916 64.2665C203.997 64.5066 205.679 65.1535 206.961 66.2072C208.262 67.2856 209.053 68.6161 209.334 70.1988C209.67 72.0926 209.35 73.8111 208.376 75.3541C207.399 76.8836 205.892 78.0409 203.854 78.8259C201.845 79.6197 198.838 80.3764 194.833 81.0962Z" fill="white"/>
<path d="M222.062 54.4692L220.807 62.7559L225.827 61.8537L222.062 54.4692ZM223.158 76.0059L212.049 78.0021L210.851 71.2453L212.988 70.8612L215.64 55.2047L213.382 55.6104L212.183 48.8535L232.343 45.2305L233.542 51.9874L231.284 52.3932L239.256 66.1405L241.313 65.7709L242.511 72.5278L227.875 75.1581L226.777 68.9693L229.237 68.5273L227.538 65.1684L220.361 66.4582L219.761 70.2302L222.06 69.8171L223.158 76.0059Z" fill="white"/>
<path d="M271.118 67.3868L244.426 72.1836L243.228 65.4267L245.748 64.9738L243.138 50.2629L240.618 50.7158L239.419 43.9589L255.447 41.0786L256.645 47.8355L253.984 48.3137L256.594 63.0247L263.227 61.8327L262.424 57.3078L269.117 56.105L271.118 67.3868Z" fill="white"/>
<path d="M299.947 62.2059L273.255 67.0027L272.057 60.2458L274.577 59.793L271.967 45.082L269.447 45.5349L268.248 38.778L284.276 35.8977L285.474 42.6546L282.813 43.1328L285.423 57.8438L292.055 56.6518L291.253 52.1269L297.946 50.9241L299.947 62.2059Z" fill="white"/>
<path fill-rule="evenodd" clip-rule="evenodd" d="M25.4363 0.88764C23.9108 1.89817 22.7759 2.98794 22.7759 3.44242C22.7759 3.61835 22.6573 3.81452 22.5123 3.87875C22.1573 4.03513 21.0507 7.69085 21.0507 8.70732C21.0507 9.57787 21.9692 13.0395 22.4571 14.0078C23.0824 15.2477 23.3743 18.7617 23.1044 21.7971C22.6355 27.0697 22.7169 30.8835 23.3311 32.4365C23.6362 33.2083 23.9867 33.8397 24.1099 33.8397C24.2331 33.8397 24.2773 34.5567 24.2083 35.4329C24.0388 37.5897 24.7327 42.2933 25.585 44.764C26.1506 46.4039 26.212 46.9927 25.9097 47.8706C25.7044 48.4661 25.5364 49.5978 25.5364 50.3853C25.5364 52.3232 24.6133 56.6656 24.1693 56.8153C23.9722 56.8816 23.8111 57.0806 23.8111 57.2576C23.8111 57.4346 23.4229 58.3934 22.9485 59.3882C22.474 60.3831 22.0858 61.3405 22.0858 61.5154C22.0858 61.6903 21.8764 62.3287 21.6207 62.9337C21.3647 63.5386 20.8771 64.8975 20.5373 65.9534C20.1974 67.0093 19.7854 68.0223 19.6222 68.2048C19.459 68.3871 19.3254 68.8122 19.3254 69.1491C19.3254 69.4859 18.9759 70.1219 18.5484 70.5628C16.3345 72.8453 15.4898 76.1097 16.2345 79.5054C16.4946 80.6911 16.8138 81.6612 16.9439 81.6612C17.074 81.6612 17.2779 82.0539 17.3969 82.5338C17.516 83.0138 17.7658 83.4065 17.9518 83.4065C18.1381 83.4065 18.2903 83.5719 18.2903 83.7744C18.2903 83.9768 18.7554 84.6446 19.3237 85.2579C19.8924 85.8715 20.3582 86.555 20.3589 86.7767C20.3599 86.9983 19.6719 87.5879 18.8303 88.087C16.9729 89.188 16.0526 90.4355 15.2866 92.8905C14.9671 93.9139 14.3753 95.3007 13.9713 95.9727C13.5672 96.6446 13.129 97.489 12.9972 97.8492C12.5362 99.1097 9.83031 102.542 9.14642 102.734C7.85489 103.096 5.86843 105.39 5.86843 106.519C5.86843 107.599 4.93955 109.935 4.50996 109.935C4.37539 109.935 3.91129 110.652 3.4786 111.529C2.34338 113.829 2.66773 115.82 4.32398 116.722C5.46092 117.341 5.58307 117.344 6.81732 116.781C8.35763 116.079 9.31515 114.555 9.32895 112.787C9.33723 111.72 9.65433 111.169 11.2267 109.49C12.9358 107.666 13.1145 107.327 13.1145 105.913C13.1145 105.053 13.2574 104.35 13.432 104.35C13.6062 104.35 13.9999 103.587 14.3063 102.653C14.7321 101.357 15.1451 100.803 16.0592 100.305C16.7168 99.9468 17.2551 99.5324 17.2551 99.3841C17.2551 99.2357 17.5043 99.1142 17.8089 99.1142C18.2651 99.1142 18.3241 99.3764 18.1429 100.598C17.5581 104.547 17.5401 105.078 17.9739 105.607C18.4573 106.196 18.3655 106.304 16.5298 107.312C15.1707 108.059 13.5193 110.131 12.5314 112.328C12.0445 113.412 11.5104 114.351 11.3451 114.415C11.1795 114.479 11.0442 114.754 11.0442 115.026C11.0442 115.298 10.8993 115.52 10.7223 115.52C10.5453 115.52 10.3082 115.815 10.1954 116.175C10.0822 116.535 9.43177 117.411 8.74926 118.121C7.56919 119.351 7.42944 119.402 5.87602 119.186C4.18906 118.952 1.86928 119.624 1.31375 120.508C1.16779 120.74 1.04599 122.522 1.04288 124.466C1.03943 126.808 0.86311 128.424 0.520129 129.254C0.00151665 130.51 -0.181015 133.829 0.211998 134.864C0.3583 135.25 0.871736 135.417 1.91759 135.417C3.72359 135.417 4.10383 134.967 5.22594 131.505C5.80563 129.716 6.38359 128.708 7.4046 127.706C8.16888 126.955 8.91247 126.341 9.0567 126.341C9.20093 126.341 9.31894 125.503 9.31894 124.478C9.31894 122.633 9.33965 122.596 11.6498 120.377C12.9316 119.145 15.0378 117.196 16.33 116.044C17.6223 114.892 19.1867 113.478 19.8064 112.902C20.4261 112.326 21.5234 111.349 22.2446 110.73C23.6482 109.525 24.5012 108.159 24.5012 107.116C24.5012 106.762 24.7479 106.27 25.0491 106.022C26.5142 104.819 27.6067 103.578 27.6067 103.117C27.6067 102.835 27.7619 102.605 27.9517 102.605C28.1415 102.605 28.2968 102.441 28.2968 102.241C28.2968 102.041 28.9179 100.596 29.677 99.0294C30.4361 97.4625 31.0572 95.9901 31.0572 95.7566C31.0572 95.5235 31.1738 95.2805 31.316 95.2163C32.0392 94.8913 33.81 90.2739 34.0246 88.1534C34.2537 85.8932 34.2769 85.8499 35.2682 85.8499C35.8237 85.8499 36.5656 85.6946 36.9165 85.5043C37.6242 85.1211 38.3002 82.5265 38.3084 80.1605C38.3133 78.7416 39.2946 74.9567 39.7866 74.459C39.9198 74.3246 40.0285 73.9961 40.0285 73.7294C40.0285 73.4628 40.4943 72.2948 41.0637 71.1338C41.633 69.9732 42.0988 68.8038 42.0988 68.5354C42.0988 68.2673 42.222 68.0478 42.3725 68.0478C42.5229 68.0478 42.9425 67.1447 43.3051 66.0407C43.6674 64.9369 44.0767 63.7979 44.2143 63.51C44.6743 62.5473 45.5493 59.3729 45.5493 58.6674C45.5493 58.2842 45.7108 57.541 45.9079 57.0164L46.2664 56.062L47.0293 57.081C47.4489 57.6412 48.5737 58.8849 49.5288 59.8448C54.735 65.0773 56.4371 65.4801 58.0502 61.8617C60.3038 56.8076 60.7278 55.7933 60.9328 54.9674C61.0529 54.4822 61.2899 54.0853 61.459 54.0853C61.6284 54.0853 61.7668 53.8172 61.7668 53.4895C61.7668 53.162 62.4093 51.9672 63.1946 50.8345C64.6552 48.7283 66.4205 44.2303 65.8687 44.0208C65.7004 43.9566 65.5623 43.5562 65.5623 43.1304C65.5623 42.7049 65.3684 41.9338 65.131 41.4168C64.2781 39.5591 61.7668 40.5829 61.7668 42.789C61.7668 43.3611 61.5387 44.1339 61.2602 44.5067C60.7782 45.1514 60.7527 45.1336 60.7371 44.1371C60.7285 43.5611 60.5788 42.8623 60.4048 42.5844C60.155 42.1848 60.0519 42.2577 59.9114 42.9335C59.4715 45.0502 59.2983 46.4213 59.1406 49.0239C59.0474 50.5598 58.7852 52.2091 58.5578 52.6891C58.0471 53.7652 56.2473 56.5483 55.6794 57.1396C55.2173 57.6206 54.521 57.7253 54.5203 57.3141C54.52 57.1703 54.1146 56.5811 53.6191 56.0051C53.1236 55.4292 52.3086 54.4124 51.8079 53.7453C49.111 50.1528 47.0324 48.6543 42.7889 47.2423C41.7452 46.895 40.7128 46.4803 40.4943 46.3204C39.8584 45.8541 40.3332 43.188 41.1855 42.4403C41.8252 41.8793 41.9425 41.3439 42.0457 38.5182C42.1471 35.7428 42.0547 35.0147 41.4367 33.7239C40.6413 32.0613 39.5982 31.3963 37.7857 31.3963C35.301 31.3963 33.986 32.7835 33.5947 35.8182C33.475 36.7457 33.2262 37.6993 33.0412 37.9367C32.5958 38.5095 32.9381 39.7853 33.7831 40.703C34.3352 41.3027 34.3866 41.553 34.0526 42.0151C33.6872 42.5209 33.4408 42.3952 31.8991 40.9184C30.4206 39.5015 30.0869 38.9346 29.6835 37.1558C29.4223 36.0039 28.8627 34.2761 28.4396 33.3161C27.852 31.9827 27.6236 30.6354 27.4721 27.6069C27.2754 23.6807 26.8224 20.3757 26.1902 18.2559C25.9728 17.5271 25.987 16.8823 26.2323 16.3361C26.5753 15.573 26.7661 15.5227 28.8878 15.6337C30.7052 15.7287 31.4806 15.5985 32.6696 14.9978C35.2509 13.6933 37.2578 10.5605 37.2578 7.83466C37.2578 5.29384 35.5177 2.30169 33.2251 0.901254C31.9547 0.124592 31.3301 -0.01608 29.2315 0.00137311C27.1861 0.0181281 26.5118 0.175555 25.4363 0.88764Z" fill="white"/>
</svg>
