<svg width="170" height="25" viewBox="0 0 170 25" fill="none" xmlns="http://www.w3.org/2000/svg">
<path d="M0.192688 24.7563L0.203354 20.0715C0.494554 20.1448 0.76302 20.1814 1.00882 20.1814C1.59142 20.1815 1.96516 19.9799 2.12989 19.577C2.28562 19.1648 2.36522 18.1803 2.36875 16.6232L2.39615 4.57454L0.648288 4.57447L0.658686 -0.000392914L11.3782 -5.97637e-05L11.3678 4.57488L9.74276 4.5748L9.71729 15.7717C9.71256 17.8508 9.65462 19.3162 9.54342 20.168C9.43222 21.0289 9.11629 21.8487 8.59562 22.6271C8.05669 23.4148 7.36349 24.0055 6.51595 24.3993C5.66842 24.7931 4.49362 24.99 2.99156 24.99C2.12669 24.9899 1.19375 24.9121 0.192688 24.7563Z" fill="white"/>
<path d="M14.4948 4.575L13.0337 4.57494L13.0441 0L22.7668 0.00033315L22.7564 4.57527H21.8551L21.8404 11.0186C21.8369 12.5573 21.9802 13.606 22.2702 14.1647C22.5603 14.7143 23.0831 14.9891 23.8387 14.9891C24.4669 14.9891 24.9226 14.7556 25.2058 14.2885C25.4891 13.8305 25.6324 12.8917 25.6356 11.4721L25.6513 4.5754L24.6954 4.57533L24.7058 0.000401815L31.8476 0.000668844L31.8372 4.5756L30.335 4.57554L30.3193 11.4997C30.3153 13.2675 30.0571 14.7145 29.5447 15.8411C29.0324 16.9585 28.1838 17.8331 26.9988 18.4651C25.814 19.097 24.3567 19.4129 22.627 19.4129C21.2342 19.4128 20.001 19.2433 18.9276 18.9044C17.8358 18.5746 16.9722 18.0709 16.3364 17.3931C15.7007 16.7245 15.2338 15.9139 14.9355 14.9613C14.6281 14.0362 14.4766 12.6166 14.4809 10.7023L14.4948 4.575Z" fill="white"/>
<path d="M41.1581 19.1113L33.7978 19.111L33.8082 14.5361L35.2693 14.5361L35.292 4.57574L33.7899 4.57568L33.8003 0.000743866L45.2574 0.00120926L48.0394 7.37887L50.9241 0.00141017L62.3127 0.00180944L62.3021 4.57667H60.814L60.7914 14.5371H62.3207L62.31 19.112L52.3961 19.1117L52.4067 14.5367L53.9227 14.5368L53.9467 3.86201L48.1767 19.1115L45.3367 19.1114L39.6901 3.99887L39.6663 14.5363L41.1687 14.5363L41.1581 19.1113Z" fill="white"/>
<path d="M73.924 4.19241L73.9153 7.77821H75.3493C76.3507 7.77828 77.0793 7.6592 77.5353 7.42114C77.9727 7.18301 78.192 6.72047 78.194 6.03354C78.1947 5.58474 78.0773 5.20468 77.8413 4.89328C77.6147 4.59101 77.31 4.39861 76.928 4.31621C76.564 4.23374 75.9447 4.19254 75.0707 4.19248L73.924 4.19241ZM75.8013 19.1125L64.7 19.1121L64.71 14.5372L66.554 14.5373L66.5767 4.57687L64.7327 4.57681L64.7433 0.00187302L76.3913 0.00227483C79.068 0.00240816 81.0247 0.263474 82.2613 0.785608C83.498 1.31687 84.4067 2.04047 84.9873 2.95634C85.568 3.87227 85.8573 4.87521 85.8547 5.96514C85.8513 7.31147 85.5034 8.42887 84.8094 9.31727C84.1154 10.2149 83.1987 10.8651 82.06 11.2681C80.9393 11.6619 79.2093 11.8587 76.8693 11.8586L73.9067 11.8585L73.9 14.5375L75.812 14.5376L75.8013 19.1125Z" fill="white"/>
<path d="M96.74 11.1587L96.7314 14.923L98.3834 14.9231C99.4394 14.9231 100.2 14.7857 100.665 14.511C101.121 14.2363 101.349 13.7508 101.351 13.0547C101.353 12.4045 101.149 11.9236 100.74 11.6122C100.331 11.3099 99.5394 11.1587 98.3647 11.1587L96.74 11.1587ZM96.7554 4.19327L96.7474 7.68281L98.3727 7.68287C99.474 7.68294 100.198 7.52267 100.545 7.20214C100.873 6.88154 101.038 6.46028 101.039 5.93821C101.041 5.48941 100.891 5.08641 100.591 4.72921C100.292 4.37201 99.4687 4.19334 98.1214 4.19327H96.7554ZM98.4694 19.1133L87.7227 19.1129L87.7334 14.538L89.3854 14.5381L89.408 4.57767L87.7561 4.57761L87.7661 0.0026741L99.3734 0.0031395C101.649 0.00320616 103.411 0.136073 104.657 0.40174C105.885 0.67654 106.849 1.22154 107.548 2.03667C108.247 2.87021 108.595 3.84108 108.593 4.94928C108.591 6.03008 108.257 6.89101 107.591 7.53208C106.906 8.19154 106.077 8.64941 105.102 8.90588C106.439 9.30888 107.467 9.93174 108.184 10.7744C108.91 11.6353 109.272 12.6017 109.269 13.6733C109.267 14.9555 108.855 16.0454 108.033 16.943C107.212 17.8313 106.086 18.4129 104.657 18.6877C103.245 18.9715 101.183 19.1134 98.4694 19.1133Z" fill="white"/>
<path d="M119.477 4.85354L117.676 10.1427L121.076 10.1429L119.477 4.85354ZM117.655 19.114L110.131 19.1137L110.141 14.5388L111.589 14.5389L115.176 4.57861L113.647 4.57854L113.657 0.0036087L127.312 0.00414276L127.302 4.57901L125.773 4.57894L129.382 14.5395L130.775 14.5395L130.765 19.1145L120.851 19.1141L120.86 14.9239L122.526 14.9239L121.808 12.5197L116.947 12.5195L116.108 14.9237L117.665 14.9237L117.655 19.114Z" fill="white"/>
<path d="M150.141 19.1151L132.062 19.1145L132.072 14.5396L133.779 14.5397L133.802 4.57928L132.095 4.57921L132.105 0.00428009L142.961 0.00467936L142.951 4.57961L141.148 4.57955L141.125 14.5399L145.618 14.5401L145.625 11.4764L150.159 11.4765L150.141 19.1151Z" fill="white"/>
<path d="M169.669 19.1159L151.589 19.1152L151.599 14.5403L153.306 14.5403L153.329 4.57994L151.622 4.57987L151.633 0.00500488L162.489 0.00534058L162.478 4.58027L160.675 4.58021L160.653 14.5406L165.145 14.5408L165.153 11.4771L169.686 11.4773L169.669 19.1159Z" fill="white"/>
</svg>
