<svg width="100" height="100" viewBox="0 0 100 100" fill="none" xmlns="http://www.w3.org/2000/svg">
<path d="M52.4342 33.4903L46.321 33.9431L45.3022 42.6601L52.4342 43.4525L59.453 43.6789L67.0379 44.0185H73.0378L78.6982 43.4525L84.9246 42.3204L90.6981 40.8488L95 39.3771L94.6604 35.7544L93.8679 32.1318L92.1698 28.5092L90.2453 25.7922L83.6793 26.1319L78.6982 27.0375L73.0378 28.2828L67.0379 29.9809L59.453 32.1318L52.4342 33.4903Z" fill="#BA3426" stroke="#BA3426"/>
<path d="M51.9807 48.8863L44.9619 48.4335V56.0184L51.9807 58.7353L57.7542 61.9051L62.9617 65.0749L67.1504 67.7919L73.3768 72.207L79.49 65.4146L83.4522 60.6599L88.2069 54.8863L91.2635 50.8109L93.0748 47.8675L93.754 45.7166L90.0182 46.9618L85.2635 47.8675L78.9239 48.8863L71.5655 49.5656H64.4334L57.7542 49.226L51.9807 48.8863Z" fill="#BA3426" stroke="#BA3426"/>
<path d="M46.9996 80.4711L48.1316 87.6032L50.1694 87.9428H52.5467L55.2637 86.9239L59.5655 84.5466L64.0938 81.1504L69.1881 76.1693L64.5466 72.7731L59.5655 69.6033L54.1316 66.2071L49.0373 63.6033L44.9619 61.792L45.3015 68.6976L46.0939 75.0372L46.9996 80.4711Z" fill="#BA3426" stroke="#BA3426"/>
<path d="M40.6604 72.6599L41.7925 83.641L37.0378 79.6787L33.1887 75.7165L28.7737 70.9618L23.9058 65.5279L19.8303 60.7732L21.6416 60.4335L25.9435 59.9807H31.8303L39.3019 60.4335L39.7547 65.5279L40.6604 72.6599Z" fill="#BA3426" stroke="#BA3426"/>
<path d="M12.2454 37.3394L8.96243 34.8489L8.39639 37.3394V40.5092L8.96243 43.7922L9.64167 46.8488L11.1134 50.0186L13.3775 53.0752L15.868 56.245L20.2831 55.2261L25.151 54.4337H29.5661H34.434H39.4151V47.5281L36.2453 46.8488L31.9434 45.9432L27.868 44.6979L23.7925 43.3394L20.2831 41.8677L15.868 39.6036L12.2454 37.3394Z" fill="#BA3426" stroke="#BA3426"/>
<path d="M29.2263 18.2073C29.5058 17.3308 30.1319 16.5092 30.5847 16.2828C31.0376 16.0563 35.5658 16.2828 35.5658 16.2828C35.5658 16.2828 38.4973 16.4335 40.3205 16.8488C42.914 17.4396 46.6601 19.3393 46.6601 19.3393C44.4655 22.6447 43.4767 24.5324 42.0186 27.9431C42.0186 27.9431 38.5415 27.4147 36.4715 26.5846C34.2828 25.7069 32.8995 25.2268 31.264 23.528C30.2943 22.5209 29.2263 20.5846 29.2263 20.5846C29.2263 20.5846 28.9441 19.0918 29.2263 18.2073Z" fill="#BA3426" stroke="#BA3426"/>
<path d="M51.3016 22.0193C49.3801 23.9845 48.245 28.3589 48.245 28.3589L54.9242 27.2639L61.8299 25.4526L70.9996 22.7356L78.6977 20.8111L84.8109 20.3583L82.5467 18.8866L78.6977 17.1885L74.9619 16.0564L70.9996 15.7168H67.4902L64.094 16.0564L62.2827 16.396L59.9053 17.1885L57.8676 18.0941L55.377 19.3394C55.377 19.3394 52.7858 20.5012 51.3016 22.0193Z" fill="#BA3426" stroke="#BA3426"/>
<path d="M23.9061 17.7547C23.6797 17.6415 11.4536 26.5849 11.0005 28.849C10.5475 31.1132 27.4219 41.8902 39.6419 41.7546L40.8872 33.1509C21.1892 28.849 24.1325 17.868 23.9061 17.7547Z" fill="#BA3426" stroke="#BA3426"/>
<path d="M50.8486 32.1317L44.7354 32.5845L43.7166 41.3014L50.8486 42.0939L57.8674 42.3203L65.4523 42.6599H71.4523L77.1126 42.0939L83.339 40.9618L89.1126 39.4901L93.4144 38.0184L93.0748 34.3958L92.2823 30.7732L90.5842 27.1506L88.6597 24.4336L82.0937 24.7732L77.1126 25.6789L71.4523 26.9241L65.4523 28.6222L57.8674 30.7732L50.8486 32.1317Z" fill="#EF3F37" stroke="#EF3F37"/>
<path d="M50.3951 47.5277L43.3763 47.0749V54.6597L50.3951 57.3767L56.1686 60.5465L61.3761 63.7163L65.5648 66.4333L71.7912 70.8483L77.9044 64.0559L81.8666 59.3012L86.6213 53.5277L89.6779 49.4522L91.4892 46.5088L92.1684 44.3579L88.4326 45.6032L83.6779 46.5088L77.3383 47.5277L69.9799 48.2069H62.8478L56.1686 47.8673L50.3951 47.5277Z" fill="#EF3F37" stroke="#EF3F37"/>
<path d="M45.414 79.1125L46.546 86.2445L48.5838 86.5841H50.9611L53.6781 85.5653L57.9799 83.1879L62.5082 79.7917L67.6025 74.8106L62.961 71.4144L57.9799 68.2446L52.546 64.8484L47.4517 62.2447L43.3763 60.4333L43.7159 67.339L44.5083 73.6786L45.414 79.1125Z" fill="#EF3F37" stroke="#EF3F37"/>
<path d="M39.0748 71.3012L40.2069 82.2823L35.4522 78.3201L31.6032 74.3578L27.1881 69.6031L22.3202 64.1692L18.2448 59.4145L20.0561 59.0749L24.3579 58.6221H30.2447L37.7163 59.0749L38.1692 64.1692L39.0748 71.3012Z" fill="#EF3F37" stroke="#EF3F37"/>
<path d="M10.6599 35.9808L7.37686 33.4902L6.81082 35.9808V39.1506L7.37686 42.4336L8.0561 45.4902L9.52779 48.66L11.7919 51.7165L14.2825 54.8863L18.6975 53.8675L23.5654 53.075H27.9805H32.8484H37.8295V46.1694L34.6597 45.4902L30.3579 44.5845L26.2824 43.3392L22.207 41.9808L18.6975 40.5091L14.2825 38.2449L10.6599 35.9808Z" fill="#EF3F37" stroke="#EF3F37"/>
<path d="M27.6407 16.8486C27.9203 15.9722 28.5463 15.1505 28.9992 14.9241C29.452 14.6977 33.9803 14.9241 33.9803 14.9241C33.9803 14.9241 36.9117 15.0748 38.735 15.4901C41.3285 16.081 45.0745 17.9807 45.0745 17.9807C42.8799 21.286 41.8911 23.1737 40.4331 26.5844C40.4331 26.5844 36.956 26.0561 34.8859 25.2259C32.6973 24.3482 31.3139 23.8681 29.6784 22.1694C28.7088 21.1622 27.6407 19.226 27.6407 19.226C27.6407 19.226 27.3585 17.7331 27.6407 16.8486Z" fill="#EF3F37" stroke="#EF3F37"/>
<path d="M49.716 20.6606C47.7946 22.6259 46.6594 27.0002 46.6594 27.0002L53.3387 25.9053L60.2443 24.0939L69.414 21.377L77.1121 19.4525L83.2253 18.9996L80.9612 17.5279L77.1121 15.8298L73.3763 14.6978L69.414 14.3582H65.9046L62.5084 14.6978L60.6971 15.0374L58.3198 15.8298L56.282 16.7355L53.7915 17.9808C53.7915 17.9808 51.2002 19.1426 49.716 20.6606Z" fill="#EF3F37" stroke="#EF3F37"/>
<path d="M22.3205 16.3961C22.0941 16.2829 9.868 25.2262 9.41497 27.4904C8.96194 29.7545 25.8363 40.5315 38.0563 40.396L39.3017 31.7923C19.6036 27.4904 22.547 16.5093 22.3205 16.3961Z" fill="#EF3F37" stroke="#EF3F37"/>
<path d="M49.0378 30.7735L42.9246 31.2263L41.9058 39.9433L49.0378 40.7357L56.0566 40.9621L63.6415 41.3018H69.6415L75.3018 40.7357L81.5282 39.6036L87.3017 38.132L91.6036 36.6603L91.264 33.0376L90.4715 29.415L88.7734 25.7924L86.8489 23.0754L80.2829 23.4151L75.3018 24.3207L69.6415 25.566L63.6415 27.2641L56.0566 29.415L49.0378 30.7735Z" fill="#F58632" stroke="#F58632"/>
<path d="M48.5843 46.1695L41.5654 45.7167V53.3016L48.5843 56.0185L54.3578 59.1883L59.5653 62.3581L63.754 65.0751L69.9804 69.4902L76.0935 62.6978L80.0558 57.9431L84.8105 52.1695L87.8671 48.0941L89.6784 45.1507L90.3576 42.9998L86.6218 44.245L81.8671 45.1507L75.5275 46.1695L68.1691 46.8488H61.037L54.3578 46.5092L48.5843 46.1695Z" fill="#F58632" stroke="#F58632"/>
<path d="M43.6032 77.7543L44.7352 84.8864L46.7729 85.226H49.1503L51.8673 84.2071L56.1691 81.8298L60.6974 78.4336L65.7917 73.4525L61.1502 70.0563L56.1691 66.8865L50.7352 63.4903L45.6409 60.8865L41.5654 59.0752L41.9051 65.9808L42.6975 72.3204L43.6032 77.7543Z" fill="#F58632" stroke="#F58632"/>
<path d="M37.264 69.9431L38.3961 80.9242L33.6414 76.9619L29.7923 72.9997L25.3773 68.245L20.5094 62.8111L16.4339 58.0564L18.2452 57.7167L22.5471 57.2639H28.4339L35.9055 57.7167L36.3583 62.8111L37.264 69.9431Z" fill="#F58632" stroke="#F58632"/>
<path d="M8.84903 34.6226L5.56603 32.1321L5 34.6226V37.7924L5.56603 41.0754L6.24528 44.132L7.71697 47.3018L9.9811 50.3584L12.4717 53.5282L16.8867 52.5093L21.7546 51.7169H26.1697H31.0376H36.0187V44.8113L32.8489 44.132L28.547 43.2264L24.4716 41.9811L20.3961 40.6226L16.8867 39.1509L12.4717 36.8868L8.84903 34.6226Z" fill="#F58632" stroke="#F58632"/>
<path d="M25.8299 15.4905C26.1094 14.614 26.7355 13.7924 27.1883 13.566C27.6412 13.3395 32.1695 13.566 32.1695 13.566C32.1695 13.566 35.1009 13.7167 36.9241 14.132C39.5177 14.7228 43.2637 16.6225 43.2637 16.6225C41.0691 19.9279 40.0803 21.8156 38.6222 25.2263C38.6222 25.2263 35.1452 24.6979 33.0751 23.8678C30.8864 22.9901 29.5031 22.51 27.8676 20.8112C26.898 19.8041 25.8299 17.8678 25.8299 17.8678C25.8299 17.8678 25.5477 16.375 25.8299 15.4905Z" fill="#F58632" stroke="#F58632"/>
<path d="M47.9052 19.3025C45.9837 21.2677 44.8486 25.6421 44.8486 25.6421L51.5278 24.5471L58.4335 22.7358L67.6032 20.0188L75.3013 18.0943L81.4145 17.6415L79.1503 16.1698L75.3013 14.4717L71.5655 13.3396L67.6032 13H64.0938L60.6976 13.3396L58.8863 13.6792L56.5089 14.4717L54.4712 15.3773L51.9806 16.6226C51.9806 16.6226 49.3894 17.7845 47.9052 19.3025Z" fill="#F58632" stroke="#F58632"/>
<path d="M20.5097 15.0379C20.2833 14.9247 8.05717 23.8681 7.60415 26.1322C7.15112 28.3964 24.0255 39.1734 36.2455 39.0378L37.4908 30.4341C17.7928 26.1322 20.7361 15.1512 20.5097 15.0379Z" fill="#F58632" stroke="#F58632"/>
</svg>
