<svg width="100" height="100" viewBox="0 0 100 100" fill="none" xmlns="http://www.w3.org/2000/svg">
<path fill-rule="evenodd" clip-rule="evenodd" d="M64.4789 94.8436C64.9706 93.9239 65.8439 90.9471 64.2061 87.8081C64.6978 86.0763 63.3867 85.6968 62.841 81.855C63.3871 80.7183 63.7692 79.3651 63.7148 77.8497C63.6056 76.497 62.6226 75.8476 62.0765 74.8195C61.2027 71.3554 60.7115 67.6758 59.4003 64.4287C58.9639 62.8585 57.8717 61.5057 57.1067 60.0448C56.3421 56.1482 55.9601 51.9812 54.7586 48.3011C54.9851 48.1305 55.1871 47.9301 55.3591 47.7056C54.5397 44.4046 53.3383 39.5877 51.5907 38.1263C52.0271 36.5027 52.6829 34.6087 52.9014 33.1473C53.6654 32.1193 54.5392 30.9825 56.2324 30.2249C57.1062 32.6061 57.4887 35.5829 57.9799 37.9637C59.0722 40.3449 60.6013 42.4553 61.0382 44.6206C58.2532 45.7029 56.3416 48.2468 56.3416 51.2226C56.3416 55.0653 59.4547 58.1499 63.277 58.1499C66.1172 58.1499 68.5745 56.3637 69.6667 53.9286V88.4566C69.6672 91.5416 67.4827 94.1398 64.4789 94.8436V94.8436Z" fill="#CC2229"/>
<path fill-rule="evenodd" clip-rule="evenodd" d="M61.2103 94.9461C60.1181 92.3484 60.7734 90.1836 60.9919 87.2068C60.7191 85.8541 60.5001 84.5009 60.2817 83.2025C58.7531 80.8751 58.207 78.7647 57.8245 76.2752C54.9303 73.7319 51.544 71.5127 49.2508 68.7529C45.1547 64.9102 42.1514 60.9593 40.0762 56.5215C39.3665 56.4681 38.6568 56.4132 37.8917 56.4132C36.5811 52.8957 33.5777 48.6201 33.8505 45.8602C33.9597 43.4246 34.7243 41.206 35.6524 38.7165C34.833 38.5539 34.069 38.8247 33.1952 38.3374C31.8302 37.4715 32.0486 35.9562 31.9938 34.603C32.5942 31.897 34.069 29.624 35.052 27.1889C36.035 25.078 36.9636 22.9676 37.8917 20.9111C39.2024 19.4496 40.0218 18.4216 41.6596 17.7178C43.0795 17.5552 44.4999 17.7717 46.0285 17.4474C46.6838 17.2309 47.5032 17.0683 47.7765 16.6354C48.4319 15.7151 48.2678 14.741 48.5411 13.6047C47.6673 13.1179 47.7765 10.6284 48.7595 9.7625C48.7595 8.03069 49.4692 5.70332 50.944 5.10825L38.2742 5.00001C37.406 4.99849 36.5461 5.16684 35.7437 5.49541C34.9413 5.82398 34.2122 6.3063 33.5983 6.91471C32.9844 7.52312 32.4978 8.24564 32.1663 9.04085C31.8348 9.83605 31.665 10.6883 31.6666 11.5487V88.4513C31.665 89.3117 31.8348 90.1639 32.1663 90.9591C32.4978 91.7544 32.9844 92.4769 33.5983 93.0853C34.2122 93.6937 34.9413 94.176 35.7437 94.5046C36.5461 94.8332 37.406 95.0015 38.2742 95L61.2103 94.9461V94.9461ZM35.8704 78.9273H38.765L40.8946 85.6915V78.9273H43.5159V90.238H40.5669L38.3825 83.4733V90.238H35.8704V78.9273ZM43.9528 78.9273H47.3387C51.7619 78.9273 50.6153 84.23 48.977 84.3383C51.4343 84.0684 51.7619 90.238 47.7756 90.238H43.9528V78.9273ZM46.5741 80.7669V83.3102H47.23C48.3222 83.3102 48.3222 80.7669 47.23 80.7669H46.5741ZM46.5741 85.259V88.3979H47.23C48.4858 88.3979 48.3222 85.259 47.23 85.259H46.5741ZM52.7998 78.9273H56.2949L58.3152 90.238H55.6395L55.4206 88.2358H53.5643L53.2362 90.238H50.6153L52.7998 78.9273V78.9273ZM53.8376 86.2332H55.2027L54.4925 80.6043L53.8376 86.2332Z" fill="#33348E"/>
<path fill-rule="evenodd" clip-rule="evenodd" d="M55.4527 5.28232C57.3095 7.01414 58.4566 9.50362 56.709 12.5343C57.8013 13.2376 55.8896 14.4826 55.4527 15.4567C54.9071 16.9721 53.0504 17.838 53.2688 18.3792C55.6712 19.8406 57.5828 21.3016 59.9857 23.1955C61.242 24.7652 61.7332 31.0426 62.4429 35.8051C63.4808 38.7819 64.955 41.3252 65.5012 44.6806C67.4128 45.3839 68.887 46.8454 69.6516 48.5772V11.5597C69.6532 10.6993 69.4834 9.84709 69.1519 9.05191C68.8204 8.25674 68.3337 7.53424 67.7198 6.92587C67.1059 6.3175 66.3768 5.83522 65.5744 5.50671C64.772 5.17819 63.9121 5.0099 63.0439 5.01149L55.4527 5.28232V5.28232Z" fill="#CC2229"/>
</svg>
