<svg width="100" height="100" viewBox="0 0 100 100" fill="none" xmlns="http://www.w3.org/2000/svg">
<path fill-rule="evenodd" clip-rule="evenodd" d="M91.036 74.6386C91.036 72.9635 92.2988 71.6992 93.919 71.6992C95.5179 71.6992 96.7816 72.964 96.7816 74.6386C96.7816 76.3429 95.5179 77.5973 93.919 77.5973C92.2983 77.5973 91.036 76.3429 91.036 74.6386ZM93.9184 78.1882C95.8458 78.1882 97.4924 76.6894 97.4924 74.6386C97.4924 72.6081 95.8458 71.1093 93.9184 71.1093C91.9709 71.1093 90.3243 72.6081 90.3243 74.6386C90.3243 76.6894 91.9709 78.1882 93.9184 78.1882ZM93.1688 74.9204H93.8801L94.955 76.6894H95.6481L94.4881 74.8908C95.0868 74.8166 95.5459 74.4996 95.5459 73.7681C95.5459 72.9635 95.0696 72.6081 94.1052 72.6081H92.5514V76.6894H93.1683V73.1311H94.0103C94.4409 73.1311 94.899 73.2255 94.899 73.7308C94.899 74.358 94.432 74.3964 93.9081 74.3964H93.1683V74.9204H93.1688V74.9204ZM60.9441 62.4248L65.5442 55.4372L65.7896 62.4248H60.9441ZM79.3612 62.3309L83.9551 55.3677L84.187 62.3309H79.3612Z" fill="#1879BF"/>
<path fill-rule="evenodd" clip-rule="evenodd" d="M84.5795 70.7389L84.2412 67.6168H75.5836L73.6724 70.7041H66.1681L65.9969 67.6168H57.5323L55.4711 70.7389L43.4725 70.7379C39.7658 70.7379 36.3708 68.4609 35.7882 64.9684C35.5173 63.3502 35.5185 61.6981 35.7919 60.0803L32.7663 70.7358L26.1553 70.7389L21.8312 60.2801L18.9566 70.7389H13.0169L17.6207 53.9571H15.5829L16.9779 49.0099H24.408L29.5954 61.2274L31.6612 53.9462L29.6089 53.9555L31.0086 48.9834L38.9362 49.0104L36.6261 57.0371C38.0424 52.9413 42.5242 48.9513 48.0695 48.9513L56.985 48.9839L54.9057 56.5437H49.1185C49.1185 56.5437 49.5823 54.8769 49.8044 54.0743L48.4856 54.0437C45.3366 54.0437 42.2399 58.7694 42.2399 62.0263C42.2399 65.2817 44.8639 65.9121 45.5462 65.9121L52.0456 65.9375L59.9379 53.9555L58.0947 53.9332L59.4674 48.9834H71.5537L72.3785 63.2896L78.2595 53.9555H76.4121L77.8186 48.9834H89.7326L91.0638 68.3582C93.7133 62.5503 95.1918 56.0955 95.1918 49.2947C95.1918 23.9118 74.6285 3.3335 49.2623 3.3335C23.8965 3.3335 3.33319 23.9118 3.33319 49.2947C3.33319 74.677 23.897 95.2543 49.2623 95.2543C66.8871 95.2543 82.1904 85.3174 89.8924 70.7394H84.5795V70.7389V70.7389Z" fill="#1879BF"/>
</svg>
