<svg width="98" height="200" viewBox="0 0 98 200" fill="none" xmlns="http://www.w3.org/2000/svg">
<path fill-rule="evenodd" clip-rule="evenodd" d="M37.5675 1.31098C35.3145 2.80346 33.6383 4.41296 33.6383 5.08419C33.6383 5.34402 33.463 5.63375 33.249 5.72861C32.7246 5.95957 31.0903 11.3588 31.0903 12.86C31.0903 14.1458 32.4468 19.2584 33.1674 20.6885C34.0909 22.5197 34.522 27.7096 34.1235 32.1927C33.4309 39.9799 33.5512 45.6126 34.4583 47.9062C34.9088 49.0461 35.4266 49.9787 35.6085 49.9787C35.7904 49.9787 35.8557 51.0376 35.7537 52.3316C35.5035 55.5171 36.5284 62.464 37.7871 66.113C38.6224 68.5349 38.7131 69.4047 38.2667 70.7012C37.9634 71.5807 37.7152 73.2521 37.7152 74.4152C37.7152 77.2774 36.352 83.6907 35.6962 83.9119C35.4052 84.0098 35.1672 84.3037 35.1672 84.5651C35.1672 84.8264 34.5939 86.2426 33.8931 87.7119C33.1924 89.1812 32.6191 90.5953 32.6191 90.8536C32.6191 91.1119 32.3098 92.0548 31.9321 92.9482C31.554 93.8416 30.8339 95.8486 30.332 97.4081C29.83 98.9676 29.2215 100.464 28.9805 100.733C28.7394 101.002 28.5422 101.63 28.5422 102.128C28.5422 102.625 28.0259 103.565 27.3945 104.216C24.1248 107.587 22.8773 112.408 23.9771 117.423C24.3613 119.175 24.8327 120.607 25.0248 120.607C25.217 120.607 25.5181 121.187 25.694 121.896C25.8698 122.605 26.2387 123.185 26.5134 123.185C26.7886 123.185 27.0133 123.429 27.0133 123.728C27.0133 124.027 27.7003 125.014 28.5396 125.919C29.3795 126.826 30.0675 127.835 30.0685 128.162C30.07 128.49 29.0538 129.361 27.8109 130.098C25.0676 131.724 23.7085 133.566 22.5771 137.192C22.1052 138.704 21.2313 140.752 20.6345 141.744C20.0377 142.737 19.3905 143.984 19.1959 144.516C18.515 146.377 14.5186 151.447 13.5086 151.73C11.6011 152.264 8.66722 155.652 8.66722 157.32C8.66722 158.915 7.29533 162.366 6.66086 162.366C6.46211 162.366 5.77668 163.425 5.13763 164.72C3.46099 168.116 3.94003 171.057 6.38618 172.389C8.06536 173.304 8.24577 173.309 10.0687 172.477C12.3436 171.439 13.7578 169.189 13.7781 166.577C13.7904 165.002 14.2587 164.188 16.581 161.709C19.1051 159.014 19.3691 158.514 19.3691 156.425C19.3691 155.155 19.5801 154.117 19.838 154.117C20.0953 154.117 20.6768 152.99 21.1293 151.611C21.7582 149.696 22.3682 148.878 23.7182 148.143C24.6895 147.614 25.4845 147.002 25.4845 146.783C25.4845 146.564 25.8524 146.384 26.3024 146.384C26.9761 146.384 27.0633 146.771 26.7957 148.575C25.9319 154.407 25.9054 155.193 26.546 155.973C27.26 156.843 27.1244 157.003 24.4133 158.492C22.4059 159.594 19.9669 162.654 18.5079 165.9C17.7888 167.501 16.9999 168.887 16.7558 168.982C16.5112 169.077 16.3114 169.482 16.3114 169.884C16.3114 170.286 16.0974 170.614 15.836 170.614C15.5745 170.614 15.2244 171.049 15.0578 171.581C14.8906 172.113 13.93 173.407 12.922 174.456C11.1791 176.272 10.9727 176.348 8.67843 176.029C6.18692 175.683 2.76078 176.675 1.9403 177.981C1.72474 178.324 1.54484 180.955 1.54026 183.827C1.53516 187.285 1.27475 189.673 0.768191 190.899C0.00223997 192.754 -0.267346 197.655 0.313105 199.184C0.529182 199.755 1.28749 200 2.83213 200C5.49945 200 6.06105 199.335 7.71831 194.222C8.57447 191.581 9.42807 190.092 10.936 188.611C12.0648 187.503 13.163 186.596 13.3761 186.596C13.5891 186.596 13.7634 185.358 13.7634 183.845C13.7634 181.119 13.7939 181.065 17.2058 177.788C19.099 175.969 22.2097 173.089 24.1182 171.388C26.0267 169.686 28.3373 167.598 29.2526 166.748C30.1679 165.897 31.7884 164.454 32.8535 163.54C34.9266 161.761 36.1864 159.743 36.1864 158.203C36.1864 157.68 36.5508 156.952 36.9957 156.586C39.1595 154.81 40.7729 152.976 40.7729 152.295C40.7729 151.879 41.0023 151.54 41.2826 151.54C41.5628 151.54 41.7922 151.298 41.7922 151.003C41.7922 150.707 42.7095 148.573 43.8306 146.259C44.9518 143.945 45.8691 141.77 45.8691 141.425C45.8691 141.081 46.0413 140.722 46.2513 140.627C47.3194 140.147 49.9348 133.328 50.2518 130.196C50.5902 126.858 50.6243 126.794 52.0884 126.794C52.9089 126.794 54.0046 126.564 54.5228 126.283C55.5681 125.717 56.5664 121.885 56.5786 118.391C56.5858 116.295 58.0351 110.705 58.7618 109.97C58.9585 109.772 59.1191 109.287 59.1191 108.893C59.1191 108.499 59.807 106.774 60.6479 105.059C61.4888 103.345 62.1767 101.618 62.1767 101.222C62.1767 100.826 62.3587 100.501 62.5809 100.501C62.8031 100.501 63.4228 99.1676 63.9584 97.537C64.4935 95.9069 65.0979 94.2247 65.3012 93.7993C65.9805 92.3775 67.2729 87.6892 67.2729 86.6473C67.2729 86.0812 67.5114 84.9837 67.8024 84.2088L68.3319 82.7993L69.4586 84.3042C70.0783 85.1316 71.7397 86.9685 73.1503 88.3862C80.8394 96.1141 83.3533 96.709 85.7357 91.365C89.064 83.9005 89.6903 82.4024 89.993 81.1826C90.1704 80.466 90.5205 79.8799 90.7702 79.8799C91.0204 79.8799 91.2248 79.4839 91.2248 78.9998C91.2248 78.5163 92.1737 76.7516 93.3336 75.0787C95.4908 71.9679 98.098 65.3247 97.2831 65.0154C97.0344 64.9205 96.8305 64.3292 96.8305 63.7002C96.8305 63.0718 96.5441 61.933 96.1935 61.1695C94.9338 58.4258 91.2248 59.9378 91.2248 63.196C91.2248 64.041 90.8879 65.1824 90.4767 65.733C89.7647 66.6852 89.727 66.6589 89.7041 65.187C89.6914 64.3364 89.4702 63.3043 89.2133 62.8939C88.8444 62.3036 88.692 62.4114 88.4846 63.4095C87.8348 66.5357 87.579 68.5607 87.3461 72.4046C87.2085 74.6729 86.8212 77.1088 86.4854 77.8177C85.7311 79.4071 83.073 83.5175 82.2342 84.3908C81.5518 85.1012 80.5234 85.2559 80.5224 84.6486C80.5219 84.4362 79.9231 83.5659 79.1913 82.7153C78.4594 81.8647 77.2557 80.3629 76.5163 79.3777C72.5331 74.0718 69.4632 71.8586 63.196 69.7733C61.6544 69.2603 60.1296 68.6479 59.807 68.4117C58.8678 67.723 59.569 63.7853 60.8278 62.681C61.7726 61.8526 61.9459 61.0617 62.0983 56.8884C62.2481 52.7894 62.1115 51.714 61.1988 49.8075C60.0241 47.352 58.4836 46.3699 55.8066 46.3699C52.1368 46.3699 50.1947 48.4187 49.6168 52.9008C49.4399 54.2706 49.0725 55.679 48.7994 56.0296C48.1415 56.8756 48.647 58.7598 49.895 60.1152C50.7104 61.0009 50.7864 61.3705 50.293 62.0531C49.7534 62.8001 49.3895 62.6145 47.1125 60.4333C44.9288 58.3407 44.436 57.5035 43.8403 54.8763C43.4545 53.175 42.6279 50.6231 42.0031 49.2054C41.1353 47.236 40.7979 45.2461 40.5742 40.7733C40.2837 34.9745 39.6146 30.0934 38.681 26.9626C38.3599 25.8861 38.3808 24.9339 38.7431 24.1271C39.2497 23.0001 39.5315 22.9259 42.6651 23.0898C45.3493 23.2301 46.4944 23.0378 48.2505 22.1505C52.0629 20.224 55.0269 15.597 55.0269 11.5712C55.0269 7.8186 52.4569 3.39942 49.071 1.33108C47.1946 0.184013 46.2722 -0.0237489 43.1727 0.00202798C40.1517 0.0267738 39.1559 0.259281 37.5675 1.31098Z" fill="white"/>
</svg>
