<svg width="100" height="100" viewBox="0 0 100 100" fill="none" xmlns="http://www.w3.org/2000/svg">
<path d="M44.9906 65.56C45.6568 65.3216 46.3244 65.0804 46.9864 64.8363L46.9835 63.0385C46.2645 63.2996 45.7124 63.5025 44.9906 63.7622V62.2127C45.7966 61.919 46.5997 61.6324 47.3986 61.3429V59.5437C45.8494 60.107 42.5911 61.2847 42.5911 61.2847L42.9063 63.0669V69.9246C44.4228 69.3769 45.945 68.8263 47.4628 68.2715V66.478C46.6354 66.776 45.8137 67.0754 44.9906 67.3719V65.56Z" fill="#202A25"/>
<path d="M65.4644 58.1488C66.1263 57.9062 66.7897 57.6692 67.4516 57.4252V55.6231C66.734 55.8856 66.1834 56.0914 65.4644 56.3496V54.8002C66.2633 54.5079 67.065 54.2212 67.8682 53.9318V52.1326C66.3189 52.6959 63.0606 53.8722 63.0606 53.8722L63.3787 55.6544V62.5149C64.8923 61.9615 66.4102 61.4138 67.9281 60.8604V59.0655C67.105 59.3649 66.2832 59.6614 65.4644 59.958V58.1488Z" fill="#202A25"/>
<path d="M59.3948 59.602L60.5161 59.1976V61.7899L59.3948 62.2V59.602ZM61.7815 63.0769L62.6046 61.6282V57.851L61.7744 56.9812L59.3948 57.8439V55.2075L56.9896 56.0802L57.302 57.851V64.7073L61.7815 63.0769Z" fill="#202A25"/>
<path d="M48.3244 67.9579L50.4258 67.1973V61.9019L51.7425 66.7206L52.5585 66.4269L53.9066 60.6405V65.943L55.9752 65.1867V56.4404L53.3246 57.4025L52.1505 62.4269L51.005 58.2411L48.0134 59.3223L48.3244 61.1087V67.9579Z" fill="#202A25"/>
<path d="M30.2826 67.633V74.4935C30.9731 74.2423 31.6693 73.9883 32.3626 73.74C32.3626 71.4556 32.3554 69.1753 32.3626 66.8852C32.7463 66.7475 33.1386 66.6085 33.521 66.4694V73.3172C34.2171 73.066 34.9119 72.8177 35.6066 72.568V63.8118C33.7692 64.4716 29.9673 65.8508 29.9673 65.8508L30.2826 67.633Z" fill="#202A25"/>
<path d="M70.8702 52.7996L71.9887 52.398V55.5353L70.8702 55.9397V52.7996ZM68.7789 60.5483L70.8702 59.7935V57.6991L73.2512 56.8393L74.0815 55.3678V51.0472L73.2598 50.1887L68.4993 51.9085L68.7789 53.7006V60.5483Z" fill="#202A25"/>
<path d="M38.9445 64.3567L40.063 63.9523V67.0924L38.9445 67.4954V64.3567ZM36.856 72.1069L38.9445 71.3521V69.2577L41.3241 68.3964L42.1543 66.9278V62.6043L41.3326 61.7473L36.5721 63.4671L36.856 65.2592V72.1069Z" fill="#202A25"/>
<path d="M40.0099 76.2203L39.8458 82.4182C39.8458 82.4182 39.1639 82.6609 38.92 82.7474L39.0997 84.8361C39.8216 84.5736 40.4778 84.3366 41.1968 84.0741C41.5392 83.4853 41.8787 82.895 42.2197 82.3033L42.4265 75.3505C42.873 75.193 43.2083 75.0682 43.6591 74.905V83.183C44.4951 82.8794 45.3424 82.5729 46.1798 82.2707V71.6897C43.9744 72.4914 39.6704 74.0536 39.6704 74.0536L40.0099 76.2203Z" fill="#202A25"/>
<path d="M50.1388 75.9906C50.1174 76.0615 50.0945 76.1381 50.0731 76.2119V70.2751C49.1987 70.5887 47.3298 71.2641 47.3298 71.2641L47.6537 73.4436V81.7415C48.5524 81.4166 49.4426 81.0945 50.3385 80.7695C50.9562 78.6298 51.5782 76.4844 52.2016 74.3418C52.2216 74.2666 52.2416 74.1914 52.2615 74.1119V80.0743C53.0889 79.772 53.9149 79.474 54.7381 79.1761V68.5837C53.8222 68.9129 52.9092 69.2464 51.9905 69.5756C51.3713 71.7182 50.7536 73.8551 50.1388 75.9906Z" fill="#202A25"/>
<path d="M61.2708 66.2197C59.5261 66.8483 55.9041 68.1566 55.9041 68.1566L56.2364 70.3389V78.6368C57.0696 78.3303 57.9098 78.0238 58.7401 77.7273V69.5514C59.442 69.2974 60.1496 69.0434 60.8557 68.7852C60.9912 67.9324 61.1268 67.0753 61.2708 66.2197Z" fill="#202A25"/>
<path d="M63.3786 71.7409C63.5783 70.3263 63.7695 68.913 63.9706 67.5012C64.0577 67.4714 64.1461 67.4387 64.2303 67.4075C64.4214 68.6775 64.6155 69.9503 64.8095 71.2202C64.3373 71.3919 63.8551 71.5664 63.3786 71.7409ZM62.1803 65.9063C61.5783 69.6523 60.9748 73.4025 60.3685 77.1513C61.1589 76.859 61.9535 76.5795 62.7481 76.2915C62.8479 75.5423 62.9521 74.7945 63.0548 74.0495C63.7467 73.7956 64.4414 73.543 65.1319 73.2975C65.236 73.9687 65.3359 74.6455 65.44 75.3152C66.2475 75.0244 67.0449 74.7363 67.8452 74.4497C67.2489 71.1336 66.654 67.8176 66.0549 64.5044C64.7695 64.9655 63.4742 65.4324 62.1803 65.9063Z" fill="#202A25"/>
<path d="M50.7207 20.2124C51.8135 19.6335 52.9006 19.029 53.9705 18.3947C54.4955 18.0854 55.0133 17.7676 55.5283 17.4412C55.8636 17.2298 56.2388 17.0269 56.574 16.7928C56.8065 16.6338 56.8864 16.2805 56.7666 16.0223C56.1075 14.565 55.3215 13.1617 54.4384 11.8237C54.2829 11.5938 53.9548 11.5186 53.708 11.6449C52.3941 12.3359 50.9718 12.885 49.5467 13.2497C47.5694 13.7506 45.5095 13.8627 43.4809 13.7974C39.3195 13.664 35.2224 12.8382 31.0496 13.2866C29.1437 13.4881 27.2036 13.918 25.486 14.7921C24.9425 18.4189 24.2078 23.6888 23.5302 29.6809C30.5746 28.3627 37.4379 26.2499 44.0158 23.4021C46.2841 22.4217 48.5324 21.3688 50.7207 20.2124Z" fill="#D24351"/>
<path d="M54.4519 8.22949C54.6259 8.44375 54.9697 8.50334 55.2022 8.34726C56.4719 7.52144 57.9441 6.37494 58.947 5.41007C56.5518 5.1802 53.9711 5.0227 51.2963 5C52.4304 5.989 53.4889 7.07306 54.4519 8.22949Z" fill="#D24351"/>
<path d="M38.4943 10.6714C41.4417 11.0971 44.4717 11.4461 47.4547 11.1723C49.0368 11.029 50.4933 10.6203 51.9356 10.0471C52.0069 10.0201 52.2023 9.93213 52.3978 9.85835C52.6531 9.74909 52.7173 9.48375 52.539 9.27091C51.2565 7.72853 49.7786 6.29541 48.1623 5.0354C37.2589 5.37736 28.33 7.80374 27.9277 7.91441L26.5182 8.30462L26.2743 9.74625C26.2543 9.89382 26.1815 10.3096 26.0774 10.9538C29.9834 9.64267 34.5128 10.0967 38.4943 10.6714Z" fill="#D24351"/>
<path d="M58.924 26.6598C58.1337 27.2827 57.3334 27.8915 56.5902 28.5612C55.5973 29.4679 54.6629 30.4399 53.7598 31.4345C51.2605 34.183 49.0835 37.2011 46.0606 39.4373C43.8366 41.0819 41.253 42.3092 38.4812 42.6356C38.2016 42.6668 37.9262 42.6895 37.6509 42.7009C37.6181 42.7065 37.2757 42.7221 37.4027 42.7973C37.5981 42.9208 37.8949 42.9478 38.1131 43.0045C39.0318 43.2344 39.9705 43.4004 40.9092 43.5182C42.7937 43.7466 44.6996 43.7466 46.5756 43.5125C49.0279 43.2145 51.4274 42.5192 53.6557 41.4664C53.9082 41.3486 54.2748 41.0861 54.4674 40.8832C57.9925 37.1443 59.4619 31.9141 59.3378 26.8571C59.3306 26.5719 59.1395 26.4924 58.924 26.6598Z" fill="#D24351"/>
<path d="M58.1006 38.7026C60.7283 36.5983 62.9994 33.9095 64.4332 30.8786C65.2163 29.2298 65.7356 27.4732 66.1593 25.7066C66.3833 24.7531 66.5345 23.784 66.623 22.8106C66.6615 22.3381 66.69 21.8698 66.7028 21.4002C66.7028 21.2029 66.797 20.2366 66.3833 20.6864C65.1436 22.0245 63.1407 23.6506 61.6385 24.7815C61.4188 24.9475 61.2462 25.3051 61.2576 25.5818C61.4302 30.1124 60.4202 34.7353 57.9807 38.5877C57.8324 38.8261 57.8837 38.8771 58.1006 38.7026Z" fill="#D24351"/>
<path d="M76.7861 43.3494C76.7133 43.3863 76.6377 43.4175 76.565 43.4487C76.1028 43.6474 75.6477 43.8545 75.1769 44.0376C74.7176 44.222 74.2539 44.4107 73.7946 44.581C73.3295 44.7598 72.8759 44.923 72.4208 45.0819C71.5149 45.3997 70.6276 45.6892 69.7845 45.9503C68.9385 46.2043 68.1368 46.4441 67.385 46.6427C66.6374 46.8541 65.947 47.0202 65.3364 47.1791C64.7215 47.3252 64.1866 47.4473 63.7429 47.5508C62.8527 47.7509 62.3448 47.8573 62.3448 47.8573C62.3448 47.8573 62.8684 47.8417 63.7743 47.8176C64.2336 47.7963 64.7857 47.775 65.4163 47.7424C66.0554 47.7041 66.7701 47.6658 67.5533 47.5991C68.3351 47.5395 69.1853 47.4586 70.0812 47.3607C70.9756 47.2585 71.9258 47.1379 72.9001 46.9889C73.3908 46.9166 73.8859 46.8371 74.3895 46.7463C74.8916 46.6569 75.3995 46.559 75.9145 46.4554C76.2711 46.3887 76.6206 46.3079 76.9773 46.2298C77.3753 52.7711 77.4994 59.1847 77.0928 64.5198L77.0529 65.0448C76.8175 67.8912 76.4223 70.4141 75.8217 72.4531C71.5149 87.2327 53.9081 90.4253 50.8652 91.3533L50.6412 91.41L50.4172 91.3533C48.1204 90.6551 37.5866 88.9836 30.662 81.5186L30.3153 81.1341C28.6491 79.2625 27.2196 77.093 26.1825 74.5659C21.198 62.3631 34.9759 57.7558 50.3887 50.5221L50.4657 50.4838L53.0607 51.8261L52.6341 49.455C61.0481 45.4026 69.7046 40.1085 75.8702 33.0862C76.214 36.4065 76.535 39.8744 76.7861 43.3494ZM75.8788 33.1813C75.8788 33.1416 75.8759 33.1061 75.8702 33.0933C75.8788 33.1288 75.8788 33.1501 75.8788 33.1813ZM75.9387 33.6822C75.9501 33.773 75.9501 33.756 75.9387 33.6822V33.6822ZM74.816 8.3046L73.4108 7.9144C73.1155 7.83636 68.2751 6.52101 61.4547 5.68384C60.9283 6.18614 60.0181 7.02899 59.7699 7.26027C59.1878 7.79095 58.5887 8.30886 57.9653 8.80549C57.6571 9.05522 57.3418 9.30211 57.0308 9.54475C56.8311 9.6909 56.6186 9.8257 56.4146 9.97611C56.1877 10.1393 56.1521 10.477 56.3076 10.7111C56.6913 11.2915 57.0551 11.8832 57.406 12.4805L57.4617 12.5742V12.5784C59.1622 15.6291 60.3847 18.9211 60.9425 22.3662C60.9839 22.6401 61.2022 22.7337 61.4304 22.5691C62.6601 21.6738 63.867 20.7245 64.9883 19.6958C65.2251 19.4702 65.4648 19.2474 65.6873 19.0062C65.9512 18.7196 66.2865 18.4301 66.422 18.047C66.5632 17.6823 66.4434 17.2694 66.3792 16.892C66.295 16.4039 66.1952 15.9158 66.0825 15.439C65.4648 12.848 64.402 10.406 62.9312 8.18967C62.9483 8.19393 62.964 8.19818 62.9797 8.20244C68.1952 8.94312 71.9101 9.89381 72.6333 10.0839C72.8031 11.1198 73.8416 17.5206 74.8802 26.0129C72.9957 32.9827 67.0098 41.9957 54.0507 47.6658L51.8623 47.3536L50.6683 44.9428L49.4757 47.3536L46.7994 47.7381L48.7881 49.6452C42.1117 51.7863 33.9445 53.1045 24.0013 53.1045C24.0655 50.979 24.1682 48.8023 24.3051 46.6143C24.6917 46.7023 25.0798 46.7931 25.4678 46.8655C25.9785 46.9677 26.4849 47.0712 26.9885 47.1507C27.4835 47.2472 27.9828 47.3252 28.4693 47.4004C29.4408 47.5508 30.3866 47.6743 31.2768 47.775C32.1713 47.8729 33.0172 47.9524 33.7962 48.0148C34.5722 48.0844 35.2855 48.1156 35.9218 48.161C36.5566 48.1908 37.1072 48.2163 37.5595 48.2333C38.4653 48.2631 38.9846 48.2773 38.9846 48.2773C38.9846 48.2773 38.481 48.1667 37.5951 47.968C37.1515 47.8658 36.6208 47.7381 36.0059 47.592C35.3982 47.4373 34.7077 47.2699 33.9688 47.0599C33.217 46.857 32.4195 46.6229 31.5764 46.3646C30.7333 46.1021 29.8517 45.8126 28.9515 45.4948C28.4978 45.3359 28.0428 45.1727 27.5877 44.9911C27.124 44.8237 26.669 44.6364 26.2053 44.4505C25.7417 44.2632 25.2838 44.056 24.8244 43.8616C24.716 43.8105 24.6033 43.758 24.4963 43.7112C24.7046 40.9074 24.9514 38.1036 25.2196 35.3778C25.5191 35.7269 25.9172 36.1398 26.4493 36.5981C26.4493 36.5981 27.6747 37.8638 29.5835 38.8017C31.177 39.5807 32.8903 40.1043 34.6592 40.2192C38.1857 40.4619 41.6124 39.2983 44.4955 37.3331C48.0848 34.8925 50.6298 31.2828 53.7397 28.3243C54.5857 27.5212 55.4759 26.7706 56.3917 26.0427C56.8511 25.6823 57.3176 25.3289 57.7855 24.9785C58.0095 24.8125 58.232 24.6493 58.4588 24.4904C58.5644 24.4137 58.6842 24.3428 58.8027 24.269C58.991 24.1399 59.0751 23.7681 59.0352 23.4929C58.7955 21.9859 58.436 20.4946 57.9567 19.0459C57.8682 18.7792 57.6058 18.6869 57.3647 18.8388C53.8795 21.0949 50.3331 23.2389 46.6068 25.0877C40.8292 27.9469 34.7348 30.1349 28.5135 31.7993C26.7403 32.2718 24.9556 32.6889 23.1582 33.0706C21.6574 47.3976 20.6859 64.6362 23.2751 73.5201C25.1511 79.9465 29.4808 85.2377 36.1571 89.2362C41.3841 92.3678 46.7195 93.869 48.9949 94.5075C49.3102 94.5955 49.5713 94.6665 49.7781 94.7303L50.6683 94.9999L51.567 94.7261C51.7639 94.6665 52.0221 94.5955 52.3388 94.5075C54.6185 93.869 59.9539 92.3678 65.1766 89.2362C71.8544 85.2377 76.1855 79.9465 78.0586 73.5201C82.8705 57.0165 75.3795 11.6689 75.0642 9.74624L74.816 8.3046Z" fill="#D24351"/>
</svg>
