<svg width="100" height="100" viewBox="0 0 100 100" fill="none" xmlns="http://www.w3.org/2000/svg">
<path d="M95 50.0023C95 74.8542 74.8537 95 49.9966 95C25.1418 95 5 74.8542 5 50.0023C5 25.1503 25.1418 5 49.9966 5C74.8537 5 95 25.1503 95 50.0023Z" fill="#202A25"/>
<path d="M51.4216 62.4991V78.3537C51.4216 78.8882 51.744 79.2129 52.2852 79.1588C62.9289 78.3019 71.9016 71.7918 76.3643 62.6615C76.6349 62.0662 76.3643 61.6941 75.7758 61.6941H52.2289C51.6967 61.6941 51.4216 61.9579 51.4216 62.4991Z" fill="#E7332A"/>
<path d="M47.6631 61.8004C40.8868 62.4994 34.8704 66.0983 31.1023 71.3637C30.8362 71.747 30.8835 72.1213 31.2624 72.4438C35.7251 76.2614 41.4753 78.672 47.715 79.1591C48.1998 79.2132 48.5178 78.8885 48.5178 78.4082V62.6054C48.5178 62.0664 48.1998 61.7462 47.6631 61.8004Z" fill="#CCAE61"/>
<path d="M51.4216 42.0199V57.9827C51.4216 58.5172 51.6967 58.7878 52.2289 58.7878H77.1694C77.6587 58.7878 77.9225 58.5758 78.0826 58.091C78.7817 55.509 79.2124 52.7693 79.2124 49.9709C79.2124 47.1792 78.7817 44.4936 78.0826 41.9094C77.9225 41.4246 77.6587 41.2148 77.1694 41.2148H52.2289C51.6967 41.2148 51.4216 41.4832 51.4216 42.0199Z" fill="#1488CA"/>
<path d="M48.5178 58.0368V52.2326C48.5178 51.6914 48.2517 51.4253 47.715 51.4253H21.5906C21.1058 51.4253 20.7833 51.75 20.8375 52.2326C21.3223 58.7381 23.902 64.6461 27.9859 69.2688C28.3602 69.7018 28.7909 69.6476 29.1134 69.1628C33.4159 63.4668 40.1336 59.5409 47.715 58.8982C48.2517 58.8441 48.5178 58.5758 48.5178 58.0368Z" fill="#CCAE61"/>
<path d="M48.5172 37.397V21.6461C48.5172 21.1094 48.1993 20.787 47.6626 20.8411C41.4771 21.3214 35.7245 23.7455 31.2618 27.5631C30.8807 27.8856 30.8334 28.2577 31.1017 28.6906C34.9195 33.9018 40.884 37.5075 47.6626 38.2043C48.1993 38.2539 48.5172 37.9337 48.5172 37.397Z" fill="#CCAE61"/>
<path d="M52.2289 38.3103H75.7758C76.3643 38.3103 76.6349 37.9337 76.3643 37.3429C71.9558 28.2058 62.9267 21.6461 52.2852 20.8411C51.744 20.787 51.4216 21.1095 51.4216 21.5943V37.5075C51.4216 38.042 51.6944 38.3103 52.2289 38.3103Z" fill="white"/>
<path d="M48.5178 47.7177V41.9089C48.5178 41.4241 48.2517 41.1626 47.7669 41.1039C40.1336 40.4613 33.4159 36.5331 29.1134 30.8393C28.7909 30.3545 28.3602 30.3004 27.9859 30.7311C23.902 35.356 21.3223 41.2663 20.8375 47.7177C20.7833 48.2003 21.1058 48.525 21.5906 48.525H47.715C48.2517 48.525 48.5178 48.2544 48.5178 47.7177Z" fill="#CCAE61"/>
<path d="M31.09 83.0848L31.0765 83.1073C30.8216 83.5786 30.9953 83.9146 31.4733 84.1717L31.9807 84.4468L32.7136 83.087L32.2062 82.8119C31.7033 82.5436 31.3313 82.6383 31.09 83.0848ZM31.0359 84.9226C29.949 84.3363 29.5972 83.5358 30.1068 82.5932L30.1181 82.5684C30.3729 82.0971 30.7179 81.8423 31.1328 81.7724C31.55 81.698 32.0235 81.8107 32.5264 82.0813L33.0924 82.3857L33.9628 80.7734L34.9618 81.3124L32.5692 85.7479L31.0359 84.9226Z" fill="white"/>
<path d="M26.6406 77.4023C26.2821 77.4767 25.9077 77.718 25.5898 78.1148L25.556 78.1599C25.2516 78.5388 25.096 78.9469 25.096 79.319C25.1095 79.6978 25.2718 80.0451 25.6191 80.3247C25.9664 80.6021 26.3317 80.6855 26.6992 80.6201C27.0736 80.5479 27.4321 80.3044 27.75 79.9075L27.7839 79.8624C28.1063 79.461 28.2507 79.0461 28.2281 78.6673C28.2168 78.2862 28.0432 77.9412 27.7185 77.6796C27.3893 77.4158 27.0127 77.3324 26.6406 77.4023ZM29.315 78.7327C29.3849 79.3663 29.1774 80.0316 28.7197 80.6021L28.6836 80.6472C28.2123 81.2357 27.6012 81.5694 26.9495 81.6258C26.3114 81.6912 25.6439 81.4995 25.0554 81.0282C24.4601 80.5525 24.1128 79.9481 24.0316 79.3145C23.9617 78.6808 24.1421 78.0201 24.6157 77.4248L24.6517 77.382C25.123 76.7934 25.7319 76.4507 26.37 76.374C27.0104 76.2973 27.6869 76.489 28.3048 76.9828C28.9204 77.4767 29.2541 78.0968 29.315 78.7327Z" fill="white"/>
<path d="M24.0929 74.0851C24.0343 74.7007 23.6915 75.2757 23.0939 75.7831L23.0488 75.8192C22.4693 76.3108 21.7996 76.525 21.166 76.4731C20.5323 76.4258 19.928 76.1169 19.468 75.5711C19.0824 75.1134 18.8479 74.6105 18.823 74.1122C18.805 73.6206 18.9877 73.1268 19.4229 72.6825L20.1805 73.5755C19.7679 74.0355 19.7386 74.4933 20.1535 74.9849C20.6676 75.5914 21.4636 75.5824 22.2641 74.9037L22.3092 74.8676C23.112 74.1889 23.2631 73.4402 22.7196 72.7998C22.316 72.3217 21.7906 72.1932 21.2359 72.5427L20.512 71.6881C21.0261 71.3341 21.5561 71.2191 22.0476 71.3205C22.546 71.4153 23.015 71.7197 23.4164 72.1932C23.9486 72.8224 24.1651 73.4718 24.0929 74.0851Z" fill="white"/>
<path d="M20.0855 68.8809C19.9096 69.474 19.4676 69.9768 18.7844 70.3624L18.7348 70.3895C18.0741 70.7661 17.3773 70.8518 16.7617 70.6804C16.1506 70.5158 15.6162 70.0986 15.2644 69.4785C14.969 68.9576 14.8337 68.4187 14.9036 67.9248C14.9757 67.4377 15.2463 66.9868 15.7582 66.6327L16.3355 67.6497C15.8417 68.0263 15.7289 68.4705 16.0469 69.0275C16.4392 69.722 17.2239 69.8618 18.135 69.3432L18.1868 69.3161C19.1001 68.7975 19.3887 68.0917 18.9738 67.3611C18.6649 66.8154 18.1733 66.5921 17.5644 66.8312L17.012 65.857C17.5847 65.6067 18.1259 65.5909 18.5905 65.7826C19.0617 65.9698 19.4654 66.3554 19.7698 66.8966C20.1779 67.6136 20.2681 68.2901 20.0855 68.8809Z" fill="white"/>
<path d="M13.0704 64.8423L12.7028 63.7599L16.0424 62.6301L12.0241 61.7575L11.6588 60.6751L16.4325 59.0605L16.8001 60.1407L13.4334 61.2794L17.4788 62.1453L17.8441 63.2255L13.0704 64.8423Z" fill="white"/>
<path d="M10.9173 57.5316L10.7617 56.3996L14.2524 55.9216L10.4753 54.3048L10.3198 53.1728L15.3122 52.4895L15.4678 53.6215L11.9478 54.1041L15.7565 55.7164L15.9098 56.8461L10.9173 57.5316ZM9.45385 56.6161L9.35688 55.8945C9.57561 55.8449 9.75827 55.7209 9.7267 55.4886C9.69513 55.2586 9.48993 55.1729 9.25541 55.1774L9.15845 54.4649C9.78082 54.4288 10.2408 54.7851 10.3265 55.4074C10.4167 56.0501 10.0627 56.4966 9.45385 56.6161Z" fill="white"/>
<path d="M14.6267 49.7541C14.1576 50.16 13.5127 50.3427 12.7325 50.3021L12.6761 50.2976C11.9162 50.257 11.2825 49.9548 10.8564 49.479C10.4302 49.0122 10.2047 48.3718 10.2408 47.6593C10.2746 47.0617 10.4505 46.534 10.7752 46.1575C11.0999 45.7854 11.5689 45.5509 12.1913 45.5283L12.1304 46.6964C11.5126 46.7483 11.1766 47.0617 11.1427 47.7021C11.0999 48.4958 11.6839 49.037 12.7347 49.0934L12.7889 49.0957C13.8397 49.1543 14.4643 48.7146 14.5094 47.8757C14.541 47.2511 14.2501 46.7956 13.6052 46.6693L13.6683 45.5509C14.2816 45.6478 14.7484 45.9274 15.0371 46.3379C15.3325 46.7483 15.4632 47.294 15.4317 47.9141C15.3866 48.7349 15.0979 49.3572 14.6267 49.7541Z" fill="white"/>
<path d="M11.1767 41.4584L13.2896 41.9635L11.5804 39.7423L11.8622 38.563L13.7226 41.0592L16.7938 39.6431L16.4849 40.9375L13.8782 42.1033L16.079 42.6309L15.8129 43.7404L10.9106 42.5678L11.1767 41.4584Z" fill="white"/>
<path d="M16.6805 34.7655L14.4187 34.5017L16.146 35.9855L16.6805 34.7655ZM13.8888 33.3855L19.1654 33.9019L18.6874 34.9955L17.5216 34.8648L16.791 36.5357L17.6794 37.3024L17.251 38.2833L13.2958 34.7498L13.8888 33.3855Z" fill="white"/>
<path d="M17.7815 29.5316L17.8063 29.5473C18.219 29.8202 18.5843 29.7165 18.9022 29.2339L19.2382 28.7288L18.0048 27.9102L17.6643 28.4221C17.3643 28.8731 17.3418 29.2407 17.7815 29.5316ZM19.8538 32.6727L18.8549 30.3276C18.3971 30.7605 17.8018 30.88 17.1614 30.4561L17.1389 30.4403C16.2504 29.854 16.2865 28.9295 16.9269 27.9666L17.9101 26.4851L22.1088 29.2722L21.4819 30.2171L19.8854 29.1595L19.599 29.5857L20.5281 31.658L19.8538 32.6727Z" fill="white"/>
<path d="M28.4096 19.6166L28.3736 19.5715C27.8775 18.9401 27.3024 19.0416 26.75 19.4317L28.1661 21.2402C28.6644 20.8208 28.908 20.2548 28.4096 19.6166ZM25.6202 21.7498L25.6518 21.7881C26.1366 22.4105 26.7297 22.3316 27.2686 21.9347L25.8503 20.1262C25.3677 20.5502 25.1151 21.1072 25.6202 21.7498ZM29.2665 18.8725L29.3026 18.9153C30.0941 19.9256 29.6544 21.0688 28.6712 21.8829L29.0726 22.3925L28.1796 23.0938L27.7782 22.5842C26.6914 23.3892 25.5323 23.4861 24.7521 22.494L24.7205 22.4556C23.9358 21.4522 24.3642 20.2999 25.3474 19.4836L24.955 18.9852L25.848 18.2839L26.2381 18.7823C27.3273 17.975 28.4886 17.8803 29.2665 18.8725Z" fill="white"/>
<path d="M33.237 13.9185L33.6474 14.7077L31.7375 15.6976L32.2809 16.7439L33.8075 15.9502L34.1886 16.6875L32.6643 17.4813L33.2415 18.5952L35.2484 17.5512L35.6588 18.3404L32.644 19.9054L30.3214 15.4315L33.237 13.9185Z" fill="white"/>
<path d="M38.259 16.3718L40.0336 15.8104L39.0595 12.7256L37.6659 13.1653C37.826 13.7381 38.0245 14.4596 38.1665 15.0707C38.2725 15.5758 38.3266 16.002 38.259 16.3718ZM37.3074 18.5795L36.7594 16.8454L37.0639 16.7507C37.3367 16.5229 37.3322 16.0584 37.1789 15.3165C37.0097 14.5724 36.7391 13.6433 36.4144 12.6151L39.869 11.5237L41.116 15.4699L41.7001 15.285L42.248 17.019L41.3009 17.3189L40.9897 16.4553L38.0132 17.3956L38.2545 18.2818L37.3074 18.5795Z" fill="white"/>
<path d="M46.3569 10.3804L46.4786 11.2598L44.3477 11.553L44.5101 12.7188L46.2126 12.4842L46.3276 13.3073L44.6228 13.5441L44.7964 14.7866L47.0379 14.4776L47.1596 15.3571L43.793 15.8216L43.103 10.8291L46.3569 10.3804Z" fill="white"/>
<path d="M51.8144 11.9206L51.8167 11.8936C51.8257 11.3569 51.5213 11.1404 50.9801 11.1269L50.4028 11.1156L50.3668 12.658L50.944 12.6715C51.5145 12.6828 51.8032 12.4303 51.8144 11.9206ZM51.0275 10.261C52.2587 10.2881 52.9397 10.8405 52.9149 11.9116L52.9126 11.9387C52.9036 12.4754 52.7119 12.8587 52.3737 13.1135C52.0377 13.3661 51.5619 13.4811 50.9891 13.4698L50.3487 13.454L50.3081 15.2873L49.1739 15.2625L49.2866 10.2227L51.0275 10.261Z" fill="white"/>
<path d="M57.3541 14.0989L57.1038 11.8349L56.044 13.8531L57.3541 14.0989ZM58.0712 11.0705L58.7522 16.3245L57.5819 16.108L57.4488 14.9422L55.6539 14.604L55.1082 15.6435L54.0529 15.4451L56.61 10.7976L58.0712 11.0705Z" fill="white"/>
<path d="M64.0721 18.2321L60.5182 16.8544L62.3403 12.155L63.4069 12.5677L61.9073 16.4259L63.7293 17.1317L65.2266 13.2757L66.291 13.6884L64.7937 17.5466L65.3597 17.7654L64.7012 19.4611L63.7722 19.1003L64.0721 18.2321Z" fill="white"/>
<path d="M69.2882 15.179L70.2556 15.7855L68.3817 18.7734L72.046 16.9108L73.0134 17.5196L70.3345 21.786L69.3671 21.1794L71.2545 18.1713L67.5744 20.0542L66.6071 19.4476L69.2882 15.179Z" fill="white"/>
<path d="M75.2508 21.3643L75.2327 21.3846C74.9013 21.7477 74.9464 22.1243 75.3703 22.5166L75.819 22.9248L76.8202 21.8334L76.367 21.4185C75.9656 21.0532 75.6071 20.9742 75.2508 21.3643ZM71.8255 22.9203L74.2992 22.2979C73.9429 21.7793 73.9159 21.1727 74.4367 20.6067L74.4548 20.5841C75.1741 19.7994 76.0806 19.9798 76.9307 20.7623L78.2431 21.9619L74.8359 25.6781L73.9993 24.9114L75.2936 23.4975L74.9148 23.148L72.7252 23.7433L71.8255 22.9203Z" fill="white"/>
<path d="M81.8872 32.6682L81.912 32.6547C82.3021 32.4292 82.3787 32.0662 82.0833 31.5543L81.7586 30.9928L80.5252 31.7031L80.8634 32.2894C81.1408 32.7742 81.4835 32.9005 81.8872 32.6682ZM80.1328 32.7584L79.2105 31.1597L83.5784 28.6409L85.2177 31.4866L84.4465 31.9309L83.3732 30.0705L82.4554 30.5914L82.832 31.2453C83.4183 32.2646 83.3303 33.0967 82.4509 33.604L82.4261 33.6176C81.5647 34.1137 80.7642 33.8521 80.1328 32.7584Z" fill="white"/>
<path d="M84.6038 37.9427L86.4213 36.5694L84.1437 36.6912L84.6038 37.9427ZM87.5735 37.0091L83.4064 40.281L82.996 39.1626L83.9295 38.4523L83.2981 36.7385L82.1301 36.8016L81.758 35.7959L87.0617 35.6133L87.5735 37.0091Z" fill="white"/>
<path d="M84.4873 42.1188C84.8481 41.6159 85.4344 41.289 86.2033 41.1514L86.2574 41.1401C87.0083 41.0048 87.6938 41.1537 88.2193 41.5167C88.7401 41.873 89.11 42.4435 89.2362 43.1448C89.3422 43.7333 89.2904 44.2881 89.0649 44.73C88.8349 45.1652 88.429 45.5035 87.8291 45.6703L87.6217 44.5181C88.2102 44.3264 88.465 43.943 88.3478 43.3117C88.2057 42.5292 87.5135 42.1391 86.4807 42.324L86.4243 42.3353C85.3915 42.5224 84.8842 43.0929 85.0353 43.9182C85.148 44.5361 85.5359 44.9082 86.1898 44.8834L86.3905 45.9883C85.7681 46.0357 85.2517 45.871 84.8774 45.5373C84.4941 45.2058 84.2393 44.7052 84.1288 44.0964C83.9822 43.2846 84.1175 42.6171 84.4873 42.1188Z" fill="white"/>
<path d="M89.7591 49.4003L87.5876 49.3958L89.7636 51.1615L89.7614 52.3746L87.3734 50.3745L84.7125 52.4648L84.717 51.1321L86.981 49.3958L84.7193 49.3913V48.248L89.7614 48.2593L89.7591 49.4003Z" fill="white"/>
<path d="M88.9049 58.3658L88.03 58.217L88.3885 56.0974L87.2295 55.9012L86.9408 57.5969L86.1223 57.4571L86.4087 55.7636L85.1707 55.5517L84.7941 57.7841L83.9169 57.6352L84.4852 54.2866L89.4529 55.13L88.9049 58.3658Z" fill="white"/>
<path d="M87.4505 60.5556L88.2938 60.8397L87.0603 64.5085L86.2192 64.2244L86.6522 62.9345L82.7173 61.6131L83.0826 60.5217L87.0175 61.8454L87.4505 60.5556Z" fill="white"/>
<path d="M81.6725 67.6991L81.6995 67.7126C82.0964 67.9223 82.4437 67.7938 82.7188 67.2706L83.0209 66.6956L81.7604 66.0349L81.4447 66.6325C81.1854 67.1263 81.2598 67.4826 81.6725 67.6991ZM80.6577 66.2672L81.5169 64.6323L85.9794 66.9775L84.4506 69.8864L83.6636 69.4715L84.6648 67.5683L83.7313 67.0699L83.3817 67.7374C82.8338 68.7792 82.0806 69.149 81.1831 68.6777L81.1583 68.6642C80.2789 68.2019 80.0714 67.3834 80.6577 66.2672Z" fill="white"/>
<path d="M77.6698 73.0526C77.751 73.4089 77.9945 73.7809 78.3959 74.0944L78.4388 74.1282C78.8221 74.4281 79.2325 74.5792 79.6046 74.5747C79.9834 74.5589 80.3284 74.3898 80.6035 74.0402C80.8764 73.6907 80.9575 73.3254 80.8876 72.9556C80.811 72.5858 80.5629 72.2273 80.1615 71.9138L80.1187 71.8822C79.7128 71.562 79.2956 71.4245 78.9168 71.4515C78.5357 71.4651 78.1907 71.6432 77.9359 71.9702C77.6766 72.3039 77.5954 72.6805 77.6698 73.0526ZM78.9687 70.3624C79.6046 70.2857 80.272 70.4864 80.847 70.9374L80.8921 70.9735C81.4852 71.438 81.8257 72.0446 81.8911 72.694C81.9632 73.3322 81.7783 74.0019 81.3138 74.5972C80.8448 75.1948 80.245 75.5511 79.6113 75.639C78.9799 75.7134 78.3147 75.5443 77.7172 75.0753L77.6721 75.0392C77.079 74.5769 76.7272 73.9703 76.6461 73.3322C76.5626 72.6963 76.7453 72.0153 77.2324 71.3929C77.7194 70.7706 78.335 70.4301 78.9687 70.3624Z" fill="white"/>
<path d="M74.3324 74.7302C74.4316 74.6423 74.5015 74.6017 74.5714 74.5656L74.6797 74.5295L75.293 75.2286C75.2817 75.2286 75.2727 75.2376 75.2524 75.2466C75.2186 75.2647 75.1735 75.2962 75.1262 75.3368C74.8443 75.5849 74.9863 76.002 75.4531 76.6537C75.9199 77.3031 76.5693 78.0653 77.3157 78.9199L74.6504 81.2561L71.3288 77.4632L72.1857 76.7123L74.9142 79.8242L75.9492 78.9199C75.496 78.3697 74.9525 77.7293 74.5331 77.1318C73.8746 76.2095 73.5883 75.3797 74.3324 74.7302Z" fill="white"/>
<path d="M68.202 81.8084L69.8842 83.3418L69.3453 81.1275L68.202 81.8084ZM69.6632 84.5573L65.681 81.0598L66.7047 80.451L67.5751 81.2379L69.1446 80.3044L68.8672 79.1656L69.7895 78.6177L70.9418 83.7951L69.6632 84.5573Z" fill="white"/>
<path d="M57.6658 85.6126L57.4268 84.67L58.3513 83.5831L59.3209 83.3396L60.5589 88.2261L59.4517 88.5057L58.4911 84.7129L57.6658 85.6126Z" fill="white"/>
<path d="M54.3689 86.048C54.3103 85.4594 53.9292 85.1437 53.4195 85.1956C52.9144 85.2452 52.6258 85.6353 52.6799 86.1675C52.734 86.7019 53.0948 87.0266 53.5977 86.977C54.1096 86.9251 54.4185 86.5463 54.3689 86.048ZM51.832 88.3007L52.8919 88.1947C53.0046 88.5307 53.2234 88.7291 53.6992 88.6817C54.3508 88.6141 54.644 88.0594 54.5583 87.0289C54.3644 87.4167 54.0329 87.6963 53.4218 87.7595C52.937 87.8068 52.5085 87.7008 52.1793 87.4528C51.8501 87.2002 51.6336 86.8124 51.584 86.3073C51.5321 85.7954 51.6674 85.3354 51.9741 84.9926C52.2808 84.6566 52.7543 84.4334 53.3496 84.3748C54.0442 84.3049 54.5786 84.483 54.9574 84.8618C55.3385 85.2497 55.564 85.8202 55.6362 86.544L55.6587 86.7673C55.8256 88.4224 55.1739 89.4033 53.8209 89.5386C52.725 89.6491 52.0373 89.1936 51.832 88.3007Z" fill="white"/>
<path d="M48.3455 86.2756C48.3838 85.687 48.0636 85.3104 47.5495 85.2789C47.0444 85.2428 46.6971 85.5788 46.661 86.1132C46.6249 86.6499 46.9226 87.0287 47.43 87.0625C47.9441 87.0964 48.3116 86.7762 48.3455 86.2756ZM45.4704 88.075L46.5302 88.1472C46.5843 88.4967 46.767 88.729 47.2473 88.7628C47.9012 88.8034 48.2801 88.3073 48.3703 87.2745C48.1132 87.624 47.7366 87.8473 47.1278 87.8044C46.6407 87.7729 46.2371 87.597 45.953 87.2971C45.6688 86.9949 45.52 86.5755 45.5538 86.0681C45.5899 85.554 45.8019 85.1233 46.1604 84.8369C46.519 84.5573 47.0218 84.4152 47.6194 84.4558C48.3162 84.5009 48.8145 84.767 49.1234 85.2067C49.4346 85.6509 49.5609 86.2508 49.5135 86.9769L49.4978 87.2023C49.3873 88.862 48.58 89.7189 47.2225 89.6287C46.1243 89.5543 45.52 88.9905 45.4704 88.075Z" fill="white"/>
<path d="M40.967 85.2926L41.1745 84.3433L42.4891 83.7886L43.4655 84.0028L42.3854 88.9231L41.2692 88.6773L42.1081 84.8574L40.967 85.2926Z" fill="white"/>
</svg>
