<svg width="100" height="100" viewBox="0 0 100 100" fill="none" xmlns="http://www.w3.org/2000/svg">
<path d="M91.335 13.7066C88.8326 13.5179 87.0886 12.8624 86.1445 11.7519C84.5743 9.97208 84.2149 6.98049 84.1359 5.35557C84.1359 5.15494 83.9759 5 83.7764 5H83.4841C83.3774 5 83.2846 5.04767 83.2036 5.11521C83.1503 5.18077 83.1108 5.27413 83.1108 5.37544C83.1246 6.66663 82.5124 10.0058 80.9422 11.8532C79.9566 13.057 78.2265 13.8 75.9393 14.0006C75.8445 14.0006 75.7655 14.0145 75.6984 14.0344C75.6056 14.0542 75.5127 14.1277 75.4594 14.229C75.4061 14.3145 75.4061 14.4217 75.4456 14.523C75.4851 14.6224 75.4851 14.6839 75.5127 14.7773C75.5127 14.9164 75.6056 15.0375 75.7379 15.0773C75.7932 15.0971 75.9117 15.111 75.9393 15.111C82.0739 15.117 83.1246 20.7068 83.2036 24.0242C83.2036 24.2666 83.4169 24.493 83.8416 24.493C83.9087 24.493 84.0016 24.4871 84.0687 24.4732C84.2149 24.4334 84.3353 24.2983 84.3492 24.1315C84.4815 22.3318 84.7738 18.5913 86.3163 17.173C87.6357 15.8599 89.2315 15.1051 91.2264 14.8766C91.3863 14.8568 91.5206 14.7356 91.5601 14.5687C91.5601 14.4952 91.574 14.4416 91.6135 14.3621C91.6668 14.241 91.6668 14.1615 91.6668 14.0801C91.6668 13.8874 91.5206 13.7324 91.335 13.7066Z" fill="#00AB96"/>
<path d="M43.7762 37.3018C45.2516 35.4544 46.6361 33.6349 47.5269 31.4994C48.4591 29.3243 49.1385 27.0816 49.4052 24.7614C49.7093 22.4253 49.6027 20.0893 49.2037 17.781C49.1247 17.2784 48.9785 17.0123 48.4334 17.052C46.33 17.2268 44.2147 17.6817 42.1527 18.3094C40.1283 18.9192 38.173 19.7953 36.269 20.8401C34.4203 21.8771 32.4512 22.8405 30.7882 24.2648C30.3892 24.5925 30.7487 25.0554 31.122 25.409C34.1004 28.4145 33.889 28.623 36.8832 31.6266C39.8498 34.6241 39.2375 34.197 42.2179 37.2065C42.6307 37.6078 43.4029 37.7567 43.7762 37.3018Z" fill="#00AB96"/>
<path d="M51.0401 45.5911C51.439 46.0123 51.439 45.8394 51.8656 45.4243C54.3266 42.9611 64.0005 32.8977 66.4634 30.4008C68.9361 27.9197 72.1575 24.6123 71.7585 24.2726C70.0422 22.7808 68.2587 21.2214 66.3291 20.1706C64.3599 19.0999 61.978 18.8992 59.8489 18.2954C57.7079 17.6676 55.5373 17.1869 53.3153 17.0518C52.7031 16.9982 52.2646 17.326 52.3969 17.9358C52.7564 20.5122 52.6774 23.4899 52.3969 26.0981C51.998 29.7393 51.4529 30.7961 50.3883 33.2056C49.3376 35.5616 47.5264 37.7288 45.8101 39.7708C45.4506 40.2059 48.8438 43.3902 51.0401 45.5911Z" fill="#00AB96"/>
<path d="M62.047 56.9876C65.0273 59.9732 64.6679 59.9653 67.6344 62.9569C70.6168 65.9405 71.0809 65.6207 74.0356 68.6183C74.4484 69.0334 75.0073 69.099 75.3668 68.6441C76.7632 66.9993 77.6283 65.2453 78.6533 63.3919C79.6764 61.4909 80.8496 59.6057 81.4619 57.5696C82.0722 55.5017 82.246 52.7187 82.4198 50.5773C82.4455 50.0489 82.0998 49.9079 81.5804 49.7867C79.2656 49.4471 76.8698 49.3179 74.5551 49.6C72.2541 49.9019 70.1645 50.5495 68.0077 51.4812C64.5474 52.9531 63.71 54.1231 61.8732 55.6289C61.407 55.9845 61.648 56.5744 62.047 56.9876Z" fill="#00AB96"/>
<path d="M58.6396 53.1733C59.0109 53.5488 59.3704 52.9866 59.797 52.6509C61.8195 50.9247 68.752 44.7289 82.1252 46.187C82.7513 46.2545 81.821 41.5308 81.2068 39.3755C80.5965 37.2341 79.9427 35.1741 78.8663 33.1976C77.8156 31.2509 76.5495 29.5048 75.086 27.7786C74.7404 27.3773 74.3691 26.8747 74.0096 27.2502C71.5467 29.7253 69.9765 31.0642 67.5156 33.5532C64.788 36.3441 56.311 45.0488 53.8363 47.5259C53.8363 47.5259 56.4434 50.9783 58.6396 53.1733Z" fill="#00AB96"/>
<path d="M40.4914 39.8166C38.5736 37.7289 38.6013 37.6892 36.6716 35.5875C34.742 33.5057 34.6353 33.5951 32.7195 31.5192C30.7899 29.4116 30.6971 29.4792 28.7812 27.3835C28.3823 26.9564 27.8095 26.7279 27.4224 27.157C26.1584 28.5336 25.2005 30.1267 24.2169 31.6464C23.2313 33.2057 22.6467 34.9518 21.9534 36.6324C21.2622 38.3387 20.5966 40.0034 20.1976 41.7852C19.7986 43.579 19.3464 45.3708 19.2516 47.1983C19.1587 49.0238 19.3464 50.8653 19.5735 52.6789C19.7315 54.0297 20.2766 56.3856 20.6361 57.6907C20.7427 58.1456 7.96997 72.74 8.34129 73.1274C8.83505 73.6359 24.203 57.1941 26.0655 55.4679C27.9023 53.7416 31.2698 49.9614 33.1323 48.2213C34.9948 46.4951 34.902 46.3958 36.7506 44.6755C38.6131 42.9493 38.4808 42.8162 40.3314 41.0761C40.7561 40.6807 40.8766 40.2457 40.4914 39.8166Z" fill="#00AB96"/>
<path d="M56.4707 55.18C54.4344 53.1538 54.1164 52.987 52.0801 50.9528C51.693 50.5635 51.8668 50.6847 51.5074 50.3827C51.2684 50.1761 51.2151 50.2834 51.0156 50.4165C48.6455 52.1229 34.9662 65.9684 34.3164 65.2453C33.6488 64.5223 49.6844 48.6962 49.2716 48.3029C49.0188 48.0486 48.5803 47.6196 48.1932 47.2382C46.1707 45.1961 46.0384 45.3371 44.0159 43.305C43.617 42.8879 43.3227 42.7488 42.9376 43.156C41.0217 45.0491 40.8499 44.8763 38.9598 46.7773C37.042 48.6764 37.042 48.6764 35.1657 50.5913C33.2499 52.4903 25.4799 60.013 23.576 61.926C23.2165 62.2935 23.2442 62.8358 23.4831 63.3304C24.2021 64.5898 25.2271 66.0618 26.1179 67.2516C26.983 68.4236 28.0614 69.4745 29.1121 70.5313C30.1628 71.5821 31.3874 72.3985 32.5309 73.2626C33.1313 73.7036 33.9569 74.3194 34.9938 74.8816C34.9938 74.8816 31.6263 79.1246 27.7414 83.6736C23.2047 89.0013 18.1208 94.756 18.3203 94.9825C19.0531 95.8267 46.8363 66.1492 48.7265 64.2422C50.6166 62.3292 50.6166 62.3133 52.5186 60.4143C54.4087 58.5133 54.2606 58.3722 56.1507 56.4593C56.5635 56.058 56.8558 55.5832 56.4707 55.18Z" fill="#00AB96"/>
<path d="M58.1733 58.8744C56.4313 60.7138 56.2575 60.5609 54.5412 62.4142C52.7854 64.2537 45.5448 71.3354 43.7889 73.1808C42.0607 75.0282 32.0669 85.7153 32.6792 86.3648C32.9577 86.6568 41.7526 78.4945 41.9659 78.5621C43.4966 79.0825 44.8673 79.6308 46.4651 79.8592C48.2743 80.0996 50.1111 80.3399 51.9321 80.2744C53.7571 80.1949 55.5129 79.5255 57.3083 79.1421C59.0779 78.7686 60.9681 78.6137 62.6567 77.9264C64.3217 77.2351 65.9847 76.367 67.5411 75.3897C69.0579 74.4183 70.5491 73.3019 71.9198 72.0425C72.3444 71.6691 72.0521 71.2142 71.667 70.8526C69.603 68.8781 69.8302 69.0927 67.7406 67.138C65.6786 65.1635 65.6134 64.7821 63.5356 62.8095C61.4737 60.8548 61.5132 60.8012 59.4374 58.8465C59.0266 58.4334 58.5604 58.4453 58.1733 58.8744Z" fill="#00AB96"/>
</svg>
