<svg width="100" height="100" viewBox="0 0 100 100" fill="none" xmlns="http://www.w3.org/2000/svg">
<path d="M30.8494 18.8861C35.7066 15.7755 41.9012 17.1543 47.0622 18.6153C49.8684 19.4102 52.7682 20.1441 55.7042 20.2701C57.2599 20.3312 58.7205 20.1268 60.2012 19.7579C60.2762 19.742 60.481 19.6836 60.6765 19.6332C60.9402 19.5602 61.0313 19.3134 60.8853 19.0798C57.1809 13.1891 50.9876 8.26855 43.8063 7.83329C43.5305 7.81471 43.094 7.87841 42.8383 7.98324C40.2129 8.96126 37.775 10.4343 35.6865 12.3014C34.5672 13.29 33.5497 14.3928 32.6528 15.5804C32.2123 16.163 31.8013 16.7721 31.417 17.3945C31.2176 17.7209 31.0274 18.0567 30.84 18.3937C30.7637 18.5397 30.4062 19.1714 30.8494 18.8861Z" fill="#95569E"/>
<path d="M62.8868 18.3219C63.0314 18.5501 63.3473 18.6563 63.5963 18.5342C65.0704 17.8348 66.8483 16.7945 67.9488 15.9372C68.1938 15.762 68.5138 15.5749 68.4455 15.2259C68.3852 14.8889 67.9715 14.5465 67.7547 14.293C67.2325 13.6985 66.6783 13.1252 66.0932 12.5918C65.5845 12.1658 64.4157 11.205 64.4157 11.205C61.9697 9.34589 59.1301 7.99896 56.1352 7.27042C54.6344 6.89753 53.1002 6.68786 51.5525 6.62549C50.7867 6.60028 50.0129 6.60558 49.2364 6.65734C49.0262 6.67193 47.1546 6.75156 47.1452 6.93601C48.1185 7.1271 49.057 7.3872 49.9526 7.69772C55.3627 9.58077 59.8705 13.534 62.8868 18.3219Z" fill="#95569E"/>
<path d="M66.2234 19.3346C65.89 19.5403 65.554 19.734 65.2166 19.9265C65.0077 20.0485 64.7842 20.156 64.5673 20.2715C64.3236 20.3949 64.2419 20.7227 64.3624 20.9708C64.6596 21.5733 64.9341 22.197 65.1978 22.8247L65.2353 22.9242H65.2367C66.4938 26.0971 67.2435 29.4372 67.3346 32.8517C67.3372 33.121 67.5367 33.2378 67.7764 33.1104C69.0991 32.4098 70.3924 31.6441 71.6134 30.7934C71.8811 30.6077 72.1422 30.4192 72.3832 30.2135C72.6817 29.972 73.0472 29.7345 73.2226 29.3841C73.4087 29.0444 73.3484 28.633 73.335 28.2548C73.315 27.7718 73.2869 27.2928 73.2333 26.8071C72.9428 23.8518 72.0552 20.9934 70.6146 18.3898C70.4031 18.0023 70.2009 17.5285 69.9104 17.1981C69.6507 16.9022 69.4204 17.145 69.1995 17.3281C68.8742 17.5949 68.5248 17.8311 68.1847 18.0699C67.5474 18.5145 66.8887 18.9418 66.2234 19.3346Z" fill="#95569E"/>
<path d="M64.8006 36.7476C63.9518 37.2466 63.1043 37.7296 62.2943 38.287C61.2046 39.0341 60.1683 39.8542 59.1642 40.6968C56.3742 43.035 53.8626 45.6745 50.6294 47.4514C48.2517 48.7505 45.5768 49.6104 42.8429 49.5574C42.5712 49.5574 42.298 49.5441 42.0316 49.5149C41.9995 49.5162 41.3984 49.4671 42.4359 49.8692C43.3102 50.2089 44.1884 50.5009 45.0908 50.7344C46.8834 51.1923 48.7403 51.4417 50.5906 51.4643C53.0138 51.4908 55.433 51.1352 57.7371 50.4013C57.9995 50.3217 58.3917 50.1121 58.6006 49.9382C62.5219 46.7786 64.6359 41.9031 65.1808 36.9878C65.2116 36.7184 65.0402 36.6136 64.8006 36.7476Z" fill="#95569E"/>
<path d="M69.605 41.5474C70.581 40.0532 71.3173 38.4183 71.9573 36.7595C72.308 35.8717 72.5771 34.9455 72.794 34.0179C72.8931 33.572 72.9841 33.1181 73.0551 32.667C73.0832 32.4745 73.3028 31.5523 72.8395 31.9305C71.4592 33.073 69.3024 34.3775 67.6972 35.2772C67.4576 35.4126 67.2407 35.739 67.2153 36.0084C66.7895 40.4115 65.199 44.7601 62.3193 48.1745C62.1439 48.3816 62.1894 48.44 62.4237 48.2966C65.2499 46.6073 67.815 44.2957 69.605 41.5474Z" fill="#95569E"/>
<path d="M18.917 33.4845C19.0174 33.9211 19.3481 34.1653 19.7376 34.3365C20.8381 34.8222 22.1354 34.9257 23.3189 35.0345C24.8037 35.1659 26.3004 35.2057 27.7919 35.1712C27.9284 35.1698 28.065 35.1619 28.1962 35.1632C35.8367 34.9164 43.4009 33.7327 50.7509 31.6599C53.0844 31.003 55.4032 30.2784 57.6845 29.4384C58.8252 29.0217 59.9592 28.5772 61.0771 28.1008C61.634 27.8686 62.1816 27.6284 62.7224 27.3815C63.0786 27.2183 63.4668 27.075 63.8229 26.8906C64.0693 26.7711 64.1951 26.4287 64.1161 26.1687C63.6636 24.6744 63.0879 23.2094 62.3998 21.8027C62.2793 21.5559 61.9741 21.4418 61.713 21.5347C60.3501 22.0283 58.8908 22.38 57.461 22.5472C55.4715 22.7755 53.4566 22.6175 51.4953 22.2898C47.4749 21.6223 43.595 20.2899 39.4876 20.1811C37.0925 20.1148 34.5876 20.4001 32.4495 21.54C31.4093 22.0987 30.4895 22.8604 29.7813 23.8052C29.0088 24.8456 28.5697 26.0121 28.2805 27.2581C28.0623 28.6489 28.1199 30.0807 28.2725 31.4728C28.3341 32.0686 28.4198 32.5251 29.0972 32.6034C29.5591 32.6631 30.025 32.6883 30.4828 32.7135C31.5753 32.7666 32.6691 32.7865 33.7602 32.7878C34.2315 32.7931 34.7041 32.7945 35.1767 32.7905C35.3681 32.7905 35.5663 32.7878 35.7698 32.7892C35.834 32.7852 36.1995 32.8635 35.1298 33.0267C34.6586 33.101 34.194 33.1594 33.7174 33.2098C32.8083 33.312 31.898 33.3863 30.9889 33.4394C29.1521 33.5456 27.3059 33.6132 25.4704 33.5947C24.5613 33.5827 23.6536 33.5522 22.754 33.4527C22.3416 33.4115 21.9306 33.3452 21.537 33.2337C21.2639 33.1541 20.8127 33.0493 20.6895 32.7507C20.4767 32.2345 21.5316 31.697 21.8744 31.5126C22.2399 31.3162 22.6161 31.1463 23.0016 31.0043C23.3578 30.8743 23.3618 30.7018 23.1944 30.7203C23.0619 30.7389 22.7901 30.8079 22.6576 30.8318C22.272 30.9274 21.8904 31.0402 21.5182 31.1729C20.8957 31.3971 20.2772 31.6599 19.7376 32.0487C19.2932 32.3791 18.7817 32.8807 18.917 33.4845Z" fill="#95569E"/>
<path d="M64.3211 28.9768C60.6367 30.7006 56.9095 32.3223 53.043 33.628C47.0586 35.6425 40.8506 36.9775 34.5877 37.7803C32.4751 38.047 30.3745 38.2421 28.2605 38.3881C27.2939 38.4544 26.3233 38.5248 25.3526 38.5699C24.8653 38.5977 24.3726 38.6084 23.8813 38.619C23.4248 38.6243 22.9709 38.6296 22.5197 38.6256C22.3096 38.6256 22.1047 38.623 21.8999 38.6256C21.6201 38.6296 21.6535 38.7371 21.8798 38.7849C22.4193 38.899 23.3043 39.0104 23.6042 39.0529C24.7957 39.248 25.9939 39.4006 27.1922 39.5174C27.9231 39.5957 28.6555 39.6607 29.3878 39.7032C30.0438 39.7483 30.5592 39.7111 30.8779 40.3547C31.0693 40.7435 31.2889 41.1151 31.5459 41.4694C31.6584 41.626 32.0092 41.9326 31.9489 42.1568C31.8793 42.3997 31.2902 42.3333 31.1041 42.3413C30.495 42.3439 29.8818 42.34 29.2686 42.3293C28.95 42.3187 28.6247 42.3108 28.3007 42.2988C27.8923 42.2855 27.8923 42.3877 28.294 42.4554C29.5029 42.6584 32.0051 42.969 33.2395 43.0632C33.9852 43.0831 34.7309 43.095 35.4807 43.0831C35.8502 43.0818 36.225 43.0791 36.5945 43.0725C36.8087 43.0645 37.0109 43.0592 37.2184 43.0552C37.2439 43.0565 38.2172 43.2224 34.6653 43.5117C34.498 43.525 33.5541 43.5157 33.7001 43.8461C33.7683 44.0093 34.5073 44.5508 34.7028 44.6967C36.1139 45.7106 37.7472 46.3847 39.4489 46.7311C42.8414 47.4185 46.3249 46.7351 49.3868 45.2103C53.1916 43.3127 56.137 40.1543 59.5549 37.6848C60.4787 37.0186 61.4453 36.4095 62.4267 35.8243C62.9167 35.531 63.4214 35.247 63.9208 34.971C64.1604 34.8436 64.4014 34.7122 64.637 34.5835C64.7481 34.5238 64.882 34.4747 65.0038 34.415C65.2047 34.3115 65.3345 33.9691 65.3292 33.697C65.297 32.2081 65.1431 30.7192 64.8673 29.2515C64.8137 28.9808 64.5727 28.8601 64.3211 28.9768Z" fill="#95569E"/>
<path d="M77.7773 5C77.6555 5 77.5323 5.17251 77.4466 5.51621C76.9834 7.10997 76.6527 7.84912 76.2591 8.41576C75.8655 8.98107 75.409 9.37519 74.2456 10.1316C74.034 10.255 74.034 10.4687 74.2456 10.5921C75.3688 11.3219 75.8468 11.7532 76.2404 12.2854C76.6594 12.8573 76.9673 13.5566 77.4466 15.2075C77.5323 15.5525 77.6541 15.725 77.776 15.725C77.8978 15.725 78.0183 15.5551 78.1026 15.2181C78.5833 13.5805 78.8992 12.8998 79.3263 12.3252C79.7172 11.7957 80.1871 11.3445 81.305 10.5987C81.5152 10.4713 81.5139 10.2524 81.305 10.125C80.1577 9.3606 79.6985 8.92799 79.3062 8.37595C78.8979 7.80533 78.5712 7.10598 78.1026 5.50692C78.0183 5.16986 77.8991 5 77.7773 5ZM77.7813 7.53727C78.0116 8.10125 78.2459 8.53121 78.5257 8.92401C78.8939 9.44022 79.3156 9.86088 79.989 10.3638C79.3491 10.8442 78.9273 11.2635 78.5552 11.7638C78.262 12.1593 78.0223 12.5919 77.7827 13.1758C77.5417 12.56 77.3047 12.1248 77.0115 11.7267C76.6541 11.241 76.2444 10.8416 75.5937 10.3638C76.3006 9.85425 76.6889 9.46543 77.045 8.95453C77.3154 8.56571 77.5497 8.12248 77.7813 7.53727Z" fill="#95569E"/>
<path d="M21.7032 15.936C21.6148 15.936 21.5264 16.0594 21.4649 16.3063C21.1302 17.4528 20.8932 17.9863 20.6107 18.3924C20.3269 18.7984 19.9989 19.0824 19.1621 19.6265C19.0108 19.7154 19.0108 19.868 19.1621 19.9569C19.9694 20.4824 20.3135 20.7916 20.596 21.1738C20.8986 21.5865 21.1181 22.0894 21.4649 23.2758C21.5251 23.524 21.6135 23.6487 21.7018 23.6487C21.7889 23.6487 21.8759 23.5266 21.9375 23.2838C22.2815 22.1067 22.5091 21.6157 22.8157 21.203C23.0969 20.8221 23.4342 20.4997 24.2389 19.9622C24.3915 19.8707 24.3901 19.7127 24.2389 19.6212C23.4142 19.0718 23.0835 18.7599 22.801 18.3645C22.5078 17.9531 22.2735 17.4502 21.9375 16.2996C21.8759 16.0568 21.7902 15.936 21.7032 15.936ZM21.7072 18.1362C21.8344 18.4043 21.9683 18.6312 22.1195 18.8422C22.3645 19.1859 22.639 19.4726 23.05 19.7937C22.6604 20.1002 22.386 20.3816 22.1423 20.7133C21.9816 20.9296 21.8411 21.1592 21.7099 21.4392C21.5746 21.1433 21.4354 20.9071 21.2707 20.6854C21.0351 20.3656 20.7714 20.0963 20.3804 19.795C20.8048 19.4726 21.0605 19.2071 21.2989 18.8621C21.4475 18.6511 21.5787 18.4162 21.7072 18.1362Z" fill="#95569E"/>
<path d="M37.2721 51.2825C37.2159 51.2825 37.1597 51.3621 37.1209 51.5213C36.9067 52.2552 36.754 52.5962 36.5733 52.855C36.3926 53.1164 36.1824 53.2956 35.6468 53.6432C35.5504 53.7016 35.5504 53.7998 35.6468 53.8569C36.1636 54.1926 36.3832 54.3904 36.5653 54.6332C36.758 54.8973 36.8986 55.2197 37.1209 55.9788C37.1597 56.1367 37.2159 56.2163 37.2708 56.2163C37.327 56.2163 37.3833 56.138 37.4221 55.9828C37.6417 55.2317 37.7876 54.9185 37.9844 54.6531C38.1638 54.4089 38.3807 54.2019 38.8934 53.8582C38.9925 53.8012 38.9912 53.7003 38.8934 53.6406C38.3673 53.2903 38.1557 53.0885 37.975 52.8364C37.7876 52.575 37.6376 52.2525 37.4221 51.516C37.3833 51.3621 37.327 51.2825 37.2721 51.2825Z" fill="#95569E"/>
<path d="M49.7391 92.0592V84.7061C49.715 84.7937 49.6896 84.8813 49.6615 84.9715C48.8917 87.4743 48.1245 89.9757 47.352 92.4785C46.2395 92.6722 45.1323 92.8633 44.0198 93.0611V82.8244C43.906 81.8955 43.7935 80.9745 43.6784 80.0456C43.6784 80.0456 45.9383 79.6528 47.0227 79.4617V86.7935C47.0495 86.7073 47.0763 86.617 47.1044 86.5308C47.8688 84.036 48.6373 81.5372 49.4031 79.0451C50.5344 78.846 51.6723 78.6483 52.8036 78.4492V91.5204C51.7861 91.6982 50.7633 91.876 49.7391 92.0592Z" fill="#202A25"/>
<path d="M65.684 83.9378C65.447 82.3282 65.2073 80.7092 64.9717 79.0969C64.8619 79.1128 64.7562 79.134 64.6531 79.1499C64.4094 80.8499 64.1684 82.5471 63.9248 84.2378C64.5085 84.1382 65.0962 84.0387 65.684 83.9378ZM66.0789 86.5667C65.2355 86.7153 64.38 86.8639 63.5298 87.0126C63.3973 87.911 63.2755 88.8133 63.1483 89.7064C62.1736 89.8816 61.1963 90.0448 60.223 90.22C60.9633 85.736 61.7104 81.2466 62.4507 76.7626C64.0439 76.484 65.6277 76.2106 67.2115 75.9346C67.9398 80.1678 68.6708 84.3957 69.4045 88.6289C68.4245 88.7987 67.4445 88.9686 66.4551 89.1345C66.3279 88.2799 66.2021 87.4239 66.0789 86.5667Z" fill="#202A25"/>
<path d="M18.3333 79.0347V63.6612L20.0912 61.5141L28.0959 60.1167L29.8805 61.6096V67.2441C28.3797 67.5082 26.8802 67.771 25.3848 68.0337V64.4003C25.3848 64.4003 22.5157 64.89 21.8945 64.9882C21.0913 65.1156 21.0913 65.1156 22.3163 65.5867C22.6844 65.7287 22.8518 65.8786 22.8518 66.2436V76.2467L25.4544 75.7862V71.5835C26.9672 71.3168 28.4774 71.0514 29.9916 70.7886V76.9885L28.207 79.1064L20.0912 80.5276L18.3333 79.0347Z" fill="#202A25"/>
<path d="M43.5885 57.3933C42.6915 63.0557 40.8253 75.1064 40.8253 75.1064L39.0661 77.2018L33.3173 78.2077L32.7737 74.5451C32.7737 74.5451 35.6789 74.0421 36.8865 73.8325C36.8865 73.8325 37.1248 72.1936 37.2092 71.6389C36.4594 71.7703 34.5102 72.11 34.5102 72.11L32.9076 70.7445C32.9076 70.7445 31.5822 63.1805 30.953 59.5975C32.427 59.3414 34.0309 59.0601 35.5142 58.8026C35.9561 61.8428 36.3979 64.887 36.837 67.9312C37.1275 67.8794 37.4194 67.825 37.7099 67.7759C38.1423 64.5805 38.5747 61.385 39.0085 58.1895C40.4919 57.9308 42.0998 57.6534 43.5885 57.3933Z" fill="#202A25"/>
<path d="M44.5256 57.2303C44.6862 58.5786 44.8509 59.9189 45.0156 61.2631V76.1616C46.5244 75.8975 48.0372 75.6375 49.5474 75.372V64.0234H49.5501V61.8948C49.5501 61.5325 49.3841 61.3826 49.0132 61.2406C48.1109 60.8929 47.8739 60.8027 48.1336 60.7257C49.3452 60.5213 51.4056 60.1657 52.0924 60.0463V74.9288C53.6106 74.6634 55.1288 74.3954 56.6457 74.1339V55.1204C52.6293 55.817 44.5215 57.2303 44.5256 57.2303Z" fill="#202A25"/>
<path d="M63.9487 68.9546V65.0253C65.4039 64.7652 67.9878 64.3047 67.9878 64.3047L67.9865 60.4073C67.9865 60.4073 65.5258 60.8425 63.9487 61.1146V59.1638C63.9487 58.8002 63.7813 58.649 63.4118 58.507C62.4532 58.1381 62.2444 58.0584 62.5858 57.9801C64.5511 57.6431 67.704 57.0937 69.2235 56.8309V52.9229C65.8149 53.52 58.8827 54.7316 58.8827 54.7316C59.0487 56.0719 59.2133 57.4201 59.3753 58.7604V73.6616C62.6982 73.0777 66.0238 72.5044 69.3561 71.9232V68.0124C67.554 68.3309 65.7493 68.6428 63.9487 68.9546Z" fill="#202A25"/>
<path d="M78.7371 62.1376C78.7371 62.1376 76.8775 62.4694 76.1881 62.5862V59.0377H76.1907V56.9092C76.1907 56.5469 76.0247 56.3969 75.6552 56.255C74.7448 55.9046 74.5119 55.8144 74.781 55.7387C76.2148 55.4919 78.7371 55.058 78.7371 55.058V62.1376ZM81.5245 50.769C81.5245 50.769 74.5936 51.9833 71.1702 52.5778C71.3122 53.9247 71.4554 55.2756 71.5946 56.6265V71.5184C73.1249 71.253 74.6578 70.9836 76.1881 70.7182V66.4146C77.9272 66.1121 81.5084 65.4857 81.5084 65.4857L83.3332 63.3306V52.2606L81.5245 50.769Z" fill="#202A25"/>
<path d="M57.1186 80.6734C58.2874 80.4691 59.9756 80.1758 60.6289 80.063C60.7963 79.0425 60.9636 78.0181 61.139 76.9883C58.9943 77.3678 54.5923 78.1362 54.5923 78.1282C54.7034 79.0558 54.8159 79.9834 54.9283 80.9057V91.141C55.9579 90.9671 56.9887 90.78 58.021 90.6062V82.1026C58.021 82.1 58.021 82.0986 58.021 82.096V81.463C58.021 81.2215 57.9085 81.1193 57.6622 81.0264C57.0182 80.7783 56.883 80.7252 57.1186 80.6734Z" fill="#202A25"/>
<path d="M33.7145 81.7986C33.8591 82.7209 33.997 83.6365 34.1403 84.5628L34.0171 92.0446C33.7132 92.1003 33.0492 92.2131 32.7466 92.2688C32.8309 93.1778 32.9179 94.0868 33.0023 94.9998C33.9033 94.8366 35.7026 94.5248 35.7026 94.5248L36.9705 92.939L37.1231 84.9967C37.1231 84.7539 37.0107 84.653 36.7643 84.5588C36.0909 84.3 35.9744 84.2549 36.2556 84.1979C36.3011 84.1899 38.3789 83.8263 38.6882 83.7719V94.0019C39.7311 93.8201 40.7807 93.6317 41.8236 93.4499V80.3813C39.0791 80.8631 33.7145 81.7986 33.7145 81.7986Z" fill="#202A25"/>
</svg>
