<svg width="100" height="100" viewBox="0 0 100 100" fill="none" xmlns="http://www.w3.org/2000/svg">
<path fill-rule="evenodd" clip-rule="evenodd" d="M60.3454 8.20782H63.9354C66.2913 8.20782 68.2354 9.27692 67.8984 10.5305C67.6742 11.4157 66.852 12.2636 65.6929 12.6687C66.6277 13.0004 67.6003 13.6272 67.2628 14.918C66.852 16.4667 64.1219 17.4252 61.4307 17.4252H58.0272L60.3454 8.20782V8.20782ZM63.8982 14.6602C64.0847 13.8495 63.3364 13.5539 62.7013 13.5539H62.4021L61.8786 15.7293H62.1412C62.8129 15.7293 63.7106 15.3976 63.8982 14.6602V14.6602ZM64.6454 10.9361C64.833 10.1254 63.972 9.94094 63.5612 9.94094H63.337L62.8135 11.9319H63.076C63.4863 11.9313 64.4589 11.7107 64.6454 10.9361ZM45.614 8.2445L45.0911 9.60866C44.3427 11.6002 43.3335 13.5906 43.3335 13.5906C43.3335 13.5906 43.0721 10.8989 43.4457 8.20782H40.2304C39.295 10.8995 37.6873 13.5906 37.6873 13.5906C37.6873 13.5906 37.6501 11.5996 37.8744 9.60866L38.0609 8.2445L34.6586 8.20782C33.9486 12.0791 35.1449 17.4624 35.1449 17.4624H38.0237C38.9958 15.766 40.3042 13.3694 40.7533 12.4848V12.8165C40.7905 13.6272 40.8654 15.8027 41.0153 17.4619H43.8942C43.8942 17.4619 47.7829 12.0786 49.0169 8.20728L45.614 8.2445V8.2445ZM66.9636 17.4624L70.4787 17.4257C70.7029 16.7623 70.9644 16.0983 71.2636 15.5087H73.8061C73.8061 16.1355 73.7683 16.7623 73.6945 17.4257H77.1718L77.2468 16.0616C77.3217 11.7113 75.6008 8.20837 75.6008 8.20837H73.0961C67.8612 13.8856 66.9636 17.4624 66.9636 17.4624V17.4624ZM72.0863 13.7756C72.7219 12.6326 73.2454 11.8213 73.4319 11.5268C73.4697 11.4901 73.5069 11.4901 73.5069 11.4529C73.5818 11.8958 73.7311 12.7804 73.7683 13.7761H72.0863V13.7756V13.7756ZM30.0227 18.7527H29.8356C23.6665 34.4591 16.6369 61.3005 26.8069 87.958C26.844 87.3679 26.9939 86.5561 27.0683 85.8937C27.2926 85.1186 26.8818 83.8294 27.0311 83.6077C29.2 80.5843 30.7327 80.6944 30.8448 80.5466C31.1812 80.3254 31.7425 79.6986 32.1161 79.3296C32.266 79.2196 32.3781 79.2196 32.4902 79.3296C33.6121 78.2978 34.7707 77.0436 35.519 76.1223C36.6409 74.5743 36.9396 73.2834 37.9494 72.4722C39.2578 71.4031 39.6691 71.4403 41.7259 70.7391C41.7631 70.2973 42.4364 68.1219 43.5578 66.3888C44.2678 65.2458 46.9974 59.7886 46.9602 59.7152C46.9602 59.6413 46.7359 59.5674 46.5866 59.6052C46.4367 59.6413 40.0061 68.5275 39.0341 69.4127C38.7349 69.7077 38.3613 70.0028 37.5014 70.2978C37.5014 70.2978 37.2771 71.0719 36.4921 71.477C36.043 71.6981 35.3702 71.8459 34.8845 71.8821L34.1367 72.4722C34.0618 72.6933 33.4262 73.8363 33.2014 74.2792C33.0143 74.5743 32.7156 75.0532 32.4536 75.3122C32.2293 75.57 31.7058 76.1223 30.846 76.3074C30.061 76.4174 29.4626 76.0484 29.2383 75.4961C29.014 74.8693 28.9019 73.763 29.724 72.4361C30.2103 71.6609 31.743 70.7768 32.3037 70.2601C32.3037 70.2601 32.528 69.5961 32.5657 69.3382C32.6407 69.0432 32.9021 67.9741 33.5006 67.4573C34.2111 66.9044 34.7346 66.9044 35.146 66.9044C35.146 66.9044 35.071 66.4616 35.2953 65.5036C35.7066 63.5115 37.6135 60.0092 37.9877 58.7184C37.6512 58.6083 37.5391 58.4972 37.5391 58.4972C38.2491 56.9864 39.6702 54.0369 40.5301 52.6349C44.1945 46.4409 47.9333 44.6345 47.9333 44.6345C47.9333 44.6345 47.8584 44.3027 47.7462 43.5281C47.709 43.0119 47.447 40.5414 47.447 40.5414C47.447 40.5414 46.5122 40.2464 46.1758 39.0667C45.8766 37.9976 46.1758 36.1539 46.1758 36.1539C46.2879 35.3793 46.1386 34.7898 46.1386 34.7898L45.2787 34.6792C44.0074 35.7483 37.8383 37.7759 37.8383 37.7759C36.455 39.1773 32.9033 40.6154 31.37 41.7578C32.9776 42.5685 34.0995 44.1544 34.2861 45.9981C34.3233 46.1826 34.3233 46.3665 34.3233 46.551C34.3233 48.2841 33.3884 49.9794 31.9673 50.9385C31.0508 51.5839 29.9532 51.9318 28.827 51.9337C25.8354 51.9337 23.3684 49.5371 23.3684 46.551C23.3684 43.896 25.3502 41.6839 27.9299 41.2788C28.3035 41.131 28.6404 41.0577 28.7526 40.9838C29.1262 40.7998 29.6497 39.9886 30.1737 39.5829C31.9679 38.071 33.6882 34.9742 37.1655 34.8631C37.3526 34.8264 41.727 32.0609 41.727 32.0609C42.9982 30.6967 43.746 30.3278 44.7558 30.0333C45.8027 29.7382 47.7468 29.5171 47.7468 29.5171L47.784 29.3693L49.2795 29.2215L49.3167 29.4059L51.4112 28.8897C51.5227 28.6686 51.822 27.7834 52.0085 27.2305C52.5703 25.608 49.9895 24.8706 49.2045 23.4698C49.2045 23.4698 49.9529 23.6537 49.8407 23.5437C49.4666 23.1008 49.0552 22.4746 49.0552 22.4746C50.6629 23.0641 51.8592 20.2991 53.766 19.0455C53.9525 18.935 54.1768 18.8244 54.4016 18.7505H30.0227V18.7527V18.7527Z" fill="#376BAE"/>
<path fill-rule="evenodd" clip-rule="evenodd" d="M35.2949 6.88037L78.5554 6.8437C78.6303 5.66402 78.6669 5 78.6669 5H36.3047C36.1925 5.2217 35.8184 5.84849 35.2949 6.88037Z" fill="#C8304D"/>
<path fill-rule="evenodd" clip-rule="evenodd" d="M56.083 8.20776L54.9616 12.5953C54.9616 12.5953 54.9616 12.7059 54.9239 12.8531L52.5307 8.20776H49.764L47.4458 17.4624H50.5484L51.7075 12.817L54.1012 17.4624H56.8302L59.1101 8.20776H56.083V8.20776Z" fill="#376BAE"/>
<path fill-rule="evenodd" clip-rule="evenodd" d="M57.654 18.7529L58.102 18.9741C58.7382 19.4169 59.673 20.191 59.673 20.7806C59.673 21.0389 59.4488 21.1495 59.3361 21.2229C59.3361 21.2229 59.3361 22.1814 59.3738 22.477C59.4105 22.956 58.963 23.3988 58.963 23.3988C58.963 23.3988 59.3361 24.0995 59.1873 24.5418C59.1112 24.763 58.6255 26.3116 58.177 27.3441C58.0271 27.7497 57.8778 28.4871 56.8685 28.3026C56.4955 28.2287 56.1963 28.1181 56.1963 28.1181C56.0836 28.3765 55.972 28.8555 55.972 28.8555C55.972 28.8555 55.8221 29.2611 56.4577 29.5928C56.6076 29.6667 57.2061 29.9985 57.2061 29.9985L57.3176 29.8145L58.7393 30.3302L58.7016 30.5147C58.7016 30.5147 59.5243 30.7731 59.8984 30.9576C60.8409 31.4433 61.5814 32.2389 61.9918 33.2063C62.4026 34.2015 62.5153 35.4923 62.5902 36.1191C62.5902 36.1191 65.02 38.2579 65.02 46.185C65.02 46.9957 59.3366 48.8766 58.4767 48.8766C58.8509 52.6374 56.5327 57.7628 55.1121 60.1222C54.0646 61.9281 52.8677 63.5873 51.7086 65.2104L51.4472 65.0626C48.9796 68.6389 46.325 71.9201 45.4274 72.4368C45.091 72.768 44.829 72.768 44.5675 73.0259C44.0068 73.911 43.0342 74.7962 42.6234 75.2018C42.2498 75.5708 37.6506 79.1098 34.3981 81.4692C34.4353 81.6542 34.4725 81.8015 34.4353 81.8381C34.0617 82.0971 33.5382 82.5022 33.239 82.7233C33.0147 82.9445 33.1269 83.1662 32.9032 83.3501C31.5942 84.3453 30.9958 84.3831 30.9214 84.7143C30.6222 86.1162 31.6691 87.4065 31.6691 88.4017C31.7063 89.2118 31.1084 89.6547 30.9586 89.6919C30.9586 89.6919 29.3137 89.8758 28.5654 89.8758C28.1541 89.8758 27.7433 89.6547 27.4063 89.3969C28.229 91.24 29.0517 93.1209 30.0237 95.0002C30.0237 95.0002 66.5166 77.3395 76.9097 18.7529H57.654V18.7529ZM59.2239 37.8884C58.7005 40.8012 58.8881 40.9856 57.9155 43.5295L58.2147 46L61.4306 44.0457C61.4306 43.9351 61.4672 43.7506 61.4306 43.6767C60.5329 42.7182 59.4105 39.3631 59.5232 37.9623L59.2239 37.8884V37.8884Z" fill="#C8304D"/>
</svg>
