<svg width="200" height="200" viewBox="0 0 200 200" fill="none" xmlns="http://www.w3.org/2000/svg">
<path d="M3 199.5C1.61929 199.5 0.5 198.381 0.5 197V3C0.5 1.61929 1.61929 0.5 3 0.5H197C198.381 0.5 199.5 1.61929 199.5 3V197C199.5 198.381 198.381 199.5 197 199.5H3Z" fill="white" stroke="#86A5D9"/>
<path d="M68.8364 59.5151C72.4081 64.2229 74.7743 69.5949 75.7304 75.3088C75.8032 75.7291 75.8537 76.1466 75.9098 76.567C67.8299 77.4693 59.7921 78.7752 51.8272 80.493C55.7409 72.2038 61.6088 65.0104 68.8364 59.5151ZM99.6279 48.1042V75.079C94.3713 75.1518 89.1174 75.3928 83.8719 75.8048C83.799 75.1995 83.7177 74.5942 83.6168 73.9861C82.4701 67.1653 79.717 60.7509 75.5509 55.1211C82.7589 51.1055 90.9313 48.6171 99.6279 48.1042ZM107.627 48.1995C116.455 48.9169 124.714 51.6603 131.936 55.9786C127.899 61.5243 125.289 67.8883 124.302 74.6979C124.24 75.1238 124.198 75.5497 124.151 75.9757C118.653 75.4937 113.144 75.2079 107.627 75.1014V48.1995ZM132.217 75.8412C133.018 70.2871 135.166 65.0888 138.494 60.5576C145.127 65.9183 150.521 72.7391 154.194 80.5322C146.885 78.9461 139.514 77.7019 132.102 76.8024C132.141 76.4829 132.169 76.1634 132.217 75.8412ZM46.5621 101.115C46.8032 97.1021 47.4676 93.2041 48.5077 89.4575C57.5857 87.2829 66.7786 85.6576 76.0303 84.5899C75.5846 88.9923 74.3061 93.2938 72.3324 97.3515C75.3322 97.046 78.3321 96.7826 81.3319 96.5668C82.8654 92.4503 83.8158 88.1656 84.1018 83.8053C89.2688 83.3877 94.4469 83.1439 99.6279 83.0711V95.7878C102.294 95.757 104.96 95.757 107.627 95.7934V83.0935C113.093 83.2028 118.558 83.4886 124.005 83.9818C124.339 88.2889 125.314 92.5456 126.862 96.6537C129.867 96.8863 132.873 97.1721 135.872 97.4944C133.904 93.4423 132.612 89.1772 132.107 84.8449C140.644 85.9154 149.122 87.4847 157.508 89.4995C158.522 93.1817 159.184 97.0096 159.436 100.944C162.128 101.446 164.816 101.981 167.499 102.558C166.454 67.8883 137.933 40 103.001 40C68.0065 40 39.4466 67.9892 38.499 102.746C41.182 102.16 43.8707 101.625 46.5621 101.115Z" fill="#E94E0F"/>
<path d="M98.9495 105.363C93.5863 105.444 88.2259 105.663 82.8739 106.024C81.6459 107.322 80.4152 108.63 79.1872 109.945V125.78C73.2913 126.246 68.3094 126.736 62.4415 127.54C63.591 126.232 64.7433 124.928 65.8927 123.631C68.9486 123.247 71.1045 123.054 74.1632 122.762C74.7071 122.712 75.251 122.661 75.7921 122.611V108.689C77.6733 106.663 79.5545 104.654 81.4413 102.662C87.7465 102.21 94.0601 101.953 100.377 101.888C99.9027 103.045 99.4233 104.206 98.9495 105.363ZM87.1129 136.32V112.447C89.6557 112.313 92.1985 112.209 94.7442 112.136V136.006C92.1985 136.079 89.6557 136.182 87.1129 136.32ZM99.7766 140.873C94.1863 140.943 88.596 141.162 83.0113 141.535C83.8579 140.335 84.699 139.142 85.5457 137.953C89.1343 137.743 92.7172 137.598 96.3086 137.513V110.55C97.4636 109.37 98.6215 108.199 99.7766 107.03V140.873ZM81.4497 146.778C79.5629 145.024 77.6761 143.289 75.7921 141.568V131.138C76.9247 129.916 78.0546 128.7 79.1872 127.495V139.87C80.418 140.98 81.6487 142.098 82.8795 143.222C82.4029 144.407 81.9263 145.59 81.4497 146.778ZM59.5847 145.654C58.4605 146.974 57.3334 148.299 56.2092 149.631V105.514C59.4361 105.004 62.6658 104.547 65.9011 104.138C64.7489 105.427 63.5938 106.722 62.4415 108.025C61.4883 108.154 60.5351 108.289 59.5847 108.429V145.654ZM101.111 100.333C94.318 100.389 87.5306 100.666 80.7516 101.168C78.5536 103.513 76.3584 105.884 74.1632 108.277V121.215C71.6288 121.456 69.9971 121.585 67.4655 121.891V102.401C63.1648 102.922 58.8726 103.53 54.5916 104.231V151.438C58.8726 150.737 63.1648 150.127 67.4655 149.608V133.576C69.9971 133.271 71.6288 133.142 74.1632 132.901V142.381C76.3584 144.357 78.5536 146.355 80.7516 148.378C87.5306 147.873 94.318 147.596 101.111 147.543C103.306 145.343 105.513 143.163 107.716 141.011V106.904C105.513 104.69 103.306 102.502 101.111 100.333Z" fill="#202A25"/>
<path d="M38.9636 112.032C35.9974 112.677 33.0425 113.364 30.0931 114.092V114.095C28.4446 114.501 26.799 114.924 25.1561 115.359C23.9561 116.894 22.7562 118.438 21.5591 119.988C20.3956 130.934 19.2377 141.888 18.0771 152.848C17.0061 153.159 15.9323 153.478 14.867 153.8V155.476C13.768 156.961 12.6718 158.452 11.5812 159.951C11.5756 157.099 11.57 154.252 11.5672 151.396C12.7082 151.037 13.8493 150.687 14.9903 150.34V150.32C16.0753 140.002 17.1547 129.695 18.2397 119.388C20.076 117.001 21.9151 114.63 23.7571 112.273C30.8613 110.354 38.0104 108.695 45.2015 107.294C44.0605 108.659 42.9251 110.032 41.7868 111.41C40.842 111.607 39.9028 111.803 38.9636 112.007V112.032ZM26.7905 145.483C27.6008 137.303 28.4166 129.126 29.2268 120.955C30.3987 120.675 31.5706 120.397 32.7397 120.131C33.1686 120.027 33.5948 119.929 34.0209 119.828V143.698C31.6071 144.264 29.196 144.856 26.7905 145.483ZM38.9636 139.271V147.557C33.8359 148.667 28.725 149.911 23.6421 151.287C24.472 149.919 25.3019 148.557 26.1317 147.198C29.2661 146.377 32.4089 145.609 35.5573 144.892V117.895C36.6927 116.494 37.8282 115.101 38.9636 113.714V139.271ZM42.7176 146.786C43.5531 145.466 44.3913 144.147 45.2296 142.83C46.6874 142.546 47.5958 142.359 49.0564 142.095L46.1772 146.103C45.0221 146.324 43.8699 146.554 42.7176 146.786ZM46.7884 140.963V136.841C46.7856 136.844 46.7828 136.844 46.7799 136.844V105.441C38.8318 106.949 30.9258 108.773 23.0842 110.912C20.9423 113.677 18.806 116.471 16.6725 119.285C15.5847 129.275 14.4997 139.271 13.4091 149.275C12.2737 149.625 11.1382 149.981 10 150.348V162C12.9101 161.067 15.8286 160.176 18.7583 159.335C18.9602 159.276 19.1564 159.217 19.3583 159.161C19.7143 159.057 20.0704 158.957 20.4265 158.859C22.1478 158.371 23.8748 157.9 25.6046 157.443C30.8165 156.07 36.0563 154.834 41.3158 153.736C42.5718 153.478 43.8306 153.223 45.0894 152.977C46.7659 152.649 47.8958 152.422 49.5751 152.122C49.9284 152.06 50.276 151.999 50.6236 151.937V140.251C49.1602 140.506 48.249 140.686 46.7884 140.963Z" fill="#202A25"/>
<path d="M139.906 123.623C134.647 122.953 127.949 122.261 122.675 121.863C123.533 120.781 124.394 119.7 125.252 118.626C130.155 119.035 136.48 119.725 141.367 120.369C140.879 121.457 140.388 122.538 139.906 123.623ZM140.439 143.051C134.91 142.331 127.949 141.605 122.401 141.185C123.259 140.114 124.111 139.046 124.966 137.982C128.526 138.279 133.508 138.797 137.06 139.22C137.114 135.616 137.17 132.013 137.22 128.412C138.378 127.4 139.539 126.397 140.697 125.399C140.61 131.287 140.523 137.169 140.439 143.051ZM115.156 146.4C115.369 131.775 115.226 116.583 115.442 101.961C125.185 102.471 136.332 103.598 146.004 105.032C144.838 106.008 143.668 106.988 142.497 107.98C135.087 106.963 126.225 106.064 118.776 105.596C118.591 117.926 118.77 130.822 118.591 143.155C117.444 144.231 116.3 145.312 115.156 146.4ZM126.673 128.846C129.191 129.07 133.133 129.482 135.645 129.768C135.608 132.343 135.572 134.924 135.53 137.505C133.018 137.217 129.023 136.684 126.505 136.46L126.673 128.846ZM142.115 118.926C137.509 118.307 131.467 117.634 126.847 117.22L126.878 112.868C133.368 113.448 140.943 114.361 147.4 115.35C147.459 111.475 147.515 107.599 147.571 103.729C136.842 102.082 124.627 100.846 113.811 100.341C113.581 115.992 113.712 132.206 113.48 147.854C115.672 147.958 124.414 148.199 141.291 150.186C143.495 148.308 146.066 146.139 148.266 144.306C148.353 138.335 148.443 132.366 148.53 126.391C146.391 123.881 144.254 121.392 142.115 118.926Z" fill="#202A25"/>
<path d="M182.424 115.989C181.502 115.726 180.577 115.468 179.652 115.216C179.652 115.227 179.652 115.233 179.652 115.244C176.73 114.448 175.076 114.014 172.135 113.305V113.308C170.498 112.91 168.855 112.526 167.212 112.156C165.976 113.095 164.748 114.047 163.514 115.003C161.316 125.725 159.121 136.466 156.923 147.224C155.594 148.031 154.26 148.846 152.928 149.67C155.353 137.348 157.775 125.049 160.2 112.778C162.101 111.301 163.991 109.844 165.883 108.398C167.994 108.863 170.108 109.351 172.211 109.861C173.091 110.071 173.969 110.29 174.846 110.508C178.951 111.542 181.774 112.335 185.842 113.54C184.704 114.35 183.563 115.166 182.424 115.989ZM181.137 152.335L177.7 154.879L176.172 119.428L179.615 116.917L181.137 152.335ZM165.241 106.714C163.04 108.418 160.834 110.15 158.628 111.904C156.068 124.96 153.506 138.038 150.938 151.141C155.499 151.926 159.017 152.64 163.545 153.632C165.732 142.25 167.913 130.886 170.089 119.543L174.622 120.608L176.144 156.028L190 159.548L187.423 112.461C187.423 112.461 173.114 108.423 165.241 106.714Z" fill="#202A25"/>
</svg>
