<svg width="200" height="200" viewBox="0 0 200 200" fill="none" xmlns="http://www.w3.org/2000/svg">
<rect x="0.5" y="0.5" width="199" height="199" rx="2.5" fill="white" stroke="#86A5D9"/>
<path d="M101.524 99.0231H114.86L123.891 64.2822L121.717 59.6135C109.912 67.0951 99.589 76.7407 91.3213 87.9599L94.4523 104.411L101.524 99.0231Z" fill="#F9A50D"/>
<path d="M119.827 55.5552L112.097 38.9529C111.832 38.4565 111.458 38.1172 111.065 38.0182C110.573 37.8944 110.037 38.1581 109.67 38.4069L85.2472 56.0429L90.2081 82.1088C98.4757 71.6659 108.501 62.6554 119.827 55.5552Z" fill="#F9A50D"/>
<path d="M106.708 124.122L111.741 103.46H103.022L95.3798 109.283L97.9227 122.645L106.708 124.122Z" fill="#F9A50D"/>
<path d="M114.05 147.598L107.963 128.833L97.6769 127.103L96.2209 142.675C101.995 144.856 107.956 146.501 114.05 147.598Z" fill="#F9A50D"/>
<path d="M87.7094 109.548L94.4518 104.411L91.3208 87.9601C88.9053 91.2373 86.6645 94.6481 84.6143 98.179L87.7094 109.548Z" fill="#F2581A"/>
<path d="M83.0058 92.2698C85.2256 88.7525 87.6324 85.3627 90.2088 82.1091L85.2467 56.0432L75.1318 63.3477L83.0058 92.2698Z" fill="#F2581A"/>
<path d="M92.5677 121.744L97.9223 122.645L95.3793 109.283L90.619 112.91L92.5677 121.744Z" fill="#F2581A"/>
<path d="M88.5681 139.423C91.0789 140.614 93.6317 141.699 96.2217 142.675L97.6777 127.103L92.3169 126.201L88.5681 139.423Z" fill="#F2581A"/>
<path d="M105.386 156.588C109.227 156.588 112.979 156.2 116.605 155.471L117.462 158.109L115.595 152.356C108.824 151.292 102.203 149.581 95.7946 147.245L95.0096 155.636C98.3734 156.26 101.84 156.588 105.386 156.588Z" fill="#F9A50D"/>
<path d="M117.462 158.109C117.119 158.212 116.776 158.313 116.431 158.41C116.776 158.313 117.119 158.212 117.462 158.109Z" fill="#2A3C90"/>
<path d="M116.604 155.471C112.978 156.201 109.227 156.587 105.385 156.587C101.839 156.587 98.3728 156.259 95.009 155.635L95.7939 147.245C92.9316 146.203 90.1125 145.035 87.3418 143.745L84.7963 152.724L83.2141 158.306C83.7712 158.467 84.3321 158.618 84.8954 158.763C85.0093 158.791 85.1244 158.82 85.2383 158.848C85.7249 158.971 86.2139 159.086 86.7042 159.197C86.7549 159.208 86.8057 159.222 86.8577 159.233C86.9444 159.253 87.0323 159.272 87.1202 159.29C87.2563 159.32 87.3913 159.35 87.5287 159.378C87.7033 159.415 87.8778 159.451 88.0536 159.487C88.1638 159.508 88.274 159.529 88.3842 159.55C88.5934 159.591 88.8014 159.632 89.0107 159.67C89.0478 159.676 89.0849 159.685 89.1221 159.691C89.1815 159.702 89.2409 159.714 89.3004 159.725C89.4365 159.748 89.5727 159.769 89.7089 159.793C89.9887 159.84 90.2685 159.888 90.5496 159.931C90.5991 159.94 90.6486 159.949 90.6981 159.956C90.7538 159.965 90.8083 159.972 90.864 159.981C90.9507 159.995 91.0373 160.006 91.124 160.018C91.4026 160.059 91.6836 160.1 91.9646 160.137C92.0043 160.142 92.0451 160.148 92.086 160.153C92.9056 160.26 93.7301 160.355 94.5608 160.429V160.423C96.356 160.584 98.1735 160.667 100.011 160.667C102.38 160.667 104.718 160.531 107.017 160.267C107.052 160.262 107.086 160.258 107.12 160.255C107.619 160.195 108.115 160.131 108.61 160.06C108.654 160.054 108.697 160.048 108.74 160.043C108.776 160.037 108.813 160.033 108.849 160.027C109.31 159.96 109.767 159.886 110.223 159.808C110.434 159.772 110.643 159.735 110.854 159.696C111.095 159.653 111.336 159.607 111.578 159.56H111.579C112.089 159.461 112.597 159.356 113.103 159.244C113.167 159.229 113.232 159.216 113.296 159.202C113.297 159.202 113.299 159.201 113.3 159.201C114.354 158.965 115.397 158.701 116.43 158.41C116.774 158.313 117.118 158.212 117.461 158.109L116.604 155.471Z" fill="#F2581A"/>
<path d="M62.3725 63.236C70.2676 54.0076 81.0807 47.3531 93.382 44.6962L100.788 39.3478C100.528 39.3441 100.27 39.3367 100.01 39.3367C96.8745 39.3367 93.793 39.5744 90.7858 40.0337C90.7536 40.0387 90.7214 40.0436 90.6892 40.0486C90.2398 40.1179 89.7929 40.1922 89.3472 40.2714C89.1974 40.2987 89.05 40.3271 88.9015 40.3544C88.5759 40.415 88.2515 40.4757 87.9284 40.5413C87.6783 40.5921 87.4294 40.6466 87.1818 40.6998C86.9639 40.7468 86.746 40.7926 86.5294 40.8422C86.1914 40.9189 85.8546 41.0006 85.5191 41.0824C85.3965 41.1133 85.2727 41.1418 85.1502 41.1727C84.7329 41.278 84.3157 41.3881 83.901 41.5033C83.8651 41.5132 83.8292 41.5219 83.792 41.5318C73.9619 44.2629 65.1284 49.412 57.9738 56.2943C59.2353 58.7369 60.7123 61.057 62.3725 63.236Z" fill="#2B378C"/>
<path d="M48.7993 100.003C48.7993 87.6084 52.7871 76.1466 59.5443 66.8253C57.7516 64.5757 56.1385 62.1789 54.7382 59.6557C48.5517 66.59 43.9326 74.9506 41.4354 84.1728C41.3884 84.3474 41.3401 84.5207 41.2943 84.6953C41.2423 84.8958 41.194 85.0964 41.1432 85.297C41.0702 85.5916 40.9971 85.8838 40.929 86.1785C40.8981 86.3085 40.8696 86.4385 40.8411 86.5685C40.7557 86.9411 40.674 87.3138 40.596 87.6901C40.5812 87.7632 40.5663 87.8375 40.5514 87.9117C40.4623 88.3512 40.3781 88.7908 40.2989 89.234C40.2939 89.255 40.2915 89.2773 40.2877 89.2984C39.6687 92.7723 39.3456 96.349 39.3456 100.003C39.3456 103.096 39.5783 106.138 40.0253 109.108C43.0213 107.947 46.0484 106.877 49.1039 105.894C48.9033 103.957 48.7993 101.992 48.7993 100.003Z" fill="#2B378C"/>
<path d="M60.2484 134.131C55.0449 127.259 51.3753 119.164 49.746 110.351C46.7574 111.329 43.7947 112.39 40.8643 113.544C40.8692 113.568 40.8742 113.591 40.8791 113.616C41.0215 114.234 41.1738 114.849 41.3347 115.459C41.3582 115.547 41.383 115.635 41.4065 115.723C41.5638 116.309 41.7272 116.891 41.9017 117.469C41.9129 117.505 41.9228 117.541 41.9339 117.578C44.7158 126.752 49.616 135.014 56.0638 141.793C57.2313 139.095 58.6352 136.534 60.2484 134.131Z" fill="#2B378C"/>
<path d="M78.9952 156.919L80.6938 150.93C74.0307 147.693 68.1004 143.187 63.2126 137.726C61.7554 140.048 60.505 142.522 59.4972 145.124C65.1439 150.2 71.7452 154.234 78.9952 156.919Z" fill="#2B378C"/>
<path d="M141.821 56.7103C141.898 56.5666 141.977 56.4243 142.053 56.2794C141.987 56.2163 141.922 56.1519 141.856 56.09C141.57 55.8176 141.281 55.5477 140.989 55.2815C140.887 55.1862 140.784 55.0921 140.68 54.998C140.301 54.6563 139.918 54.3183 139.531 53.9853C139.51 53.968 139.489 53.9494 139.468 53.9308C133.784 49.0678 127.235 45.2719 120.196 42.7797C120.05 42.7277 119.902 42.6795 119.756 42.6287C119.385 42.5012 119.015 42.3749 118.644 42.2548C118.599 42.2399 118.555 42.2276 118.509 42.2127L119.952 45.3128C128.114 47.4818 135.549 51.4263 141.821 56.7103Z" fill="#2B378C"/>
<path d="M140.517 145.126C140.441 144.931 140.36 144.738 140.28 144.544C134.603 148.998 128.053 152.389 120.93 154.421L121.661 156.676C128.659 153.993 135.037 150.051 140.517 145.126Z" fill="#2B378C"/>
<path d="M62.3732 63.2361C65.446 67.2697 69.1527 70.8093 73.3472 73.684L70.0429 61.5486L93.3826 44.6963C81.0813 47.3532 70.2682 54.0077 62.3732 63.2361Z" fill="#2B378C"/>
<path d="M128.587 63.8551L125.898 74.2014C132.571 69.82 138.08 63.7783 141.821 56.7103C135.549 51.4263 128.114 47.4806 119.952 45.3128L128.587 63.8551Z" fill="#2B378C"/>
<path d="M80.694 150.928L88.438 123.616L87.4736 119.246C77.2956 122.305 68.7369 128.921 63.2128 137.727C68.1006 143.187 74.0308 147.692 80.694 150.928Z" fill="#3D4EA9"/>
<path d="M84.7225 115.466L81.4454 103.429C70.6471 104.666 60.0333 106.988 49.7463 110.351C51.3756 119.164 55.0452 127.259 60.2487 134.131C66.0688 125.46 74.6249 118.858 84.7225 115.466Z" fill="#2B378C"/>
<path d="M49.1036 105.894C59.2284 102.635 69.659 100.355 80.2653 99.0975L75.0507 79.9449C69.0585 76.6343 63.7857 72.1464 59.5441 66.8253C52.7868 76.1465 48.7991 87.6084 48.7991 100.002C48.7991 101.992 48.9031 103.958 49.1036 105.894Z" fill="#3D4EA9"/>
<path d="M112.468 119.224L111.2 124.429L120.93 154.421C128.054 152.391 134.603 148.998 140.281 144.544C135.349 132.417 125.007 122.984 112.468 119.224Z" fill="#3D4EA9"/>
<path d="M116.372 103.194L113.519 114.909C120.561 116.979 127.09 120.676 132.514 125.691C137.334 130.148 141.185 135.561 143.822 141.523C143.863 141.615 143.907 141.705 143.946 141.798C144.975 140.716 145.96 139.592 146.909 138.437C152.761 131.309 157.027 122.832 159.152 113.546C145.45 108.151 131.077 104.674 116.372 103.194Z" fill="#2B378C"/>
<path d="M41.9016 117.469C41.7283 116.891 41.5636 116.309 41.4064 115.723C41.5624 116.309 41.7283 116.891 41.9016 117.469Z" fill="white"/>
<path d="M41.3346 115.46C41.1737 114.849 41.0214 114.234 40.879 113.616C41.0214 114.235 41.1749 114.848 41.3346 115.46Z" fill="white"/>
<path d="M90.8642 159.981C90.8084 159.973 90.7527 159.965 90.6982 159.956C90.7527 159.965 90.8084 159.973 90.8642 159.981Z" fill="white"/>
<path d="M108.849 160.027C108.77 160.038 108.69 160.049 108.61 160.06C108.69 160.049 108.77 160.038 108.849 160.027Z" fill="white"/>
<path d="M110.855 159.696C110.645 159.735 110.435 159.772 110.224 159.808C110.435 159.772 110.645 159.735 110.855 159.696Z" fill="white"/>
<path d="M107.119 160.255C107.085 160.258 107.051 160.262 107.017 160.267C107.051 160.262 107.085 160.258 107.119 160.255Z" fill="white"/>
<path d="M113.104 159.244C112.598 159.356 112.09 159.461 111.579 159.56C112.09 159.461 112.598 159.356 113.104 159.244Z" fill="white"/>
<path d="M89.3011 159.725C89.2417 159.713 89.1822 159.702 89.1228 159.691C89.1822 159.702 89.2417 159.715 89.3011 159.725Z" fill="white"/>
<path d="M88.0548 159.486C87.8616 159.447 87.6685 159.408 87.4753 159.367C87.6685 159.408 87.8616 159.449 88.0548 159.486Z" fill="white"/>
<path d="M90.6896 40.0486C90.7218 40.0436 90.754 40.0387 90.7861 40.0337C90.754 40.0387 90.7218 40.0436 90.6896 40.0486Z" fill="white"/>
<path d="M88.9025 40.3544C89.051 40.3272 89.1984 40.2987 89.3482 40.2715C89.1984 40.2975 89.051 40.3272 88.9025 40.3544Z" fill="white"/>
<path d="M118.644 42.2549C119.015 42.375 119.385 42.5013 119.755 42.6288C119.385 42.5025 119.016 42.375 118.644 42.2549Z" fill="white"/>
<path d="M140.989 55.2815C141.282 55.5477 141.57 55.8176 141.856 56.09C141.57 55.8176 141.28 55.5477 140.989 55.2815Z" fill="white"/>
<path d="M139.531 53.9855C139.919 54.3186 140.301 54.6566 140.68 54.9983C140.301 54.6566 139.919 54.3186 139.531 53.9855Z" fill="white"/>
<path d="M87.1808 40.7C87.4296 40.6467 87.6785 40.5922 87.9286 40.5415C87.6785 40.5922 87.4296 40.6467 87.1808 40.7Z" fill="white"/>
<path d="M85.5195 41.0825C85.855 41.0008 86.1918 40.919 86.5298 40.8423C86.1918 40.919 85.855 41.0008 85.5195 41.0825Z" fill="white"/>
<path d="M83.9015 41.5021C84.3162 41.3882 84.7335 41.2781 85.1507 41.1728C84.7335 41.2781 84.3175 41.3895 83.9015 41.5021Z" fill="white"/>
<path d="M160.62 102.605C160.616 102.695 160.612 102.786 160.607 102.876C160.612 102.786 160.616 102.695 160.62 102.605Z" fill="white"/>
<path d="M160.359 106.215C160.338 106.421 160.318 106.625 160.294 106.829C160.318 106.625 160.338 106.421 160.359 106.215Z" fill="white"/>
<path d="M160.467 105.052C160.453 105.22 160.44 105.387 160.424 105.553C160.44 105.387 160.453 105.22 160.467 105.052Z" fill="white"/>
<path d="M160.554 103.842C160.547 103.975 160.537 104.109 160.528 104.243C160.537 104.109 160.547 103.975 160.554 103.842Z" fill="white"/>
<path d="M122.074 88.9146L119.435 99.0629C133.355 100.687 146.966 104.053 159.995 109.107C160.092 108.463 160.178 107.815 160.255 107.163C160.268 107.052 160.282 106.941 160.295 106.829C160.318 106.625 160.338 106.419 160.359 106.215C160.381 105.995 160.404 105.774 160.425 105.553C160.44 105.387 160.453 105.22 160.467 105.053C160.489 104.783 160.51 104.514 160.529 104.243C160.537 104.109 160.547 103.975 160.555 103.842C160.575 103.52 160.593 103.199 160.608 102.877C160.613 102.786 160.617 102.695 160.62 102.605C160.639 102.193 160.653 101.78 160.661 101.366C160.661 101.361 160.662 101.356 160.662 101.351C160.671 100.901 160.679 100.453 160.679 100.003C160.679 91.2458 158.864 82.8197 155.36 75.0732C146.107 82.6599 134.64 87.6468 122.074 88.9146Z" fill="#2B378C"/>
<path d="M147.362 62.0723C146.693 61.2379 146.001 60.4245 145.29 59.6297C145.289 59.6309 145.288 59.6334 145.287 59.6359C145.257 59.6879 145.226 59.7386 145.196 59.7919C140.364 68.4471 133.082 75.6191 124.312 80.2989L122.073 88.9145C134.64 87.6467 146.106 82.6599 155.36 75.0731C153.281 70.4762 150.607 66.117 147.362 62.0723Z" fill="#3D4EA9"/>
<path fill-rule="evenodd" clip-rule="evenodd" d="M100 165.445C63.8564 165.445 34.5555 136.144 34.5555 100C34.5555 63.8551 63.8564 34.5542 100 34.5542C136.145 34.5542 165.446 63.8551 165.446 100C165.446 136.144 136.145 165.445 100 165.445ZM100 10C50.2948 10 10 50.2936 10 100C10 149.705 50.2948 190 100 190C149.706 190 190 149.705 190 100C190 50.2936 149.706 10 100 10Z" fill="#2B378C"/>
<path fill-rule="evenodd" clip-rule="evenodd" d="M41.0588 143.163L40.9672 143.157L36.3233 151.38L36.3184 151.469L37.4537 152.85L37.5453 152.86L46.5001 149.856L46.51 149.765L45.288 148.289L45.1989 148.279L38.9566 150.452L42.2697 144.733L42.2771 144.644L41.0588 143.163Z" fill="white"/>
<path fill-rule="evenodd" clip-rule="evenodd" d="M47.8318 151.039L47.7401 151.041L46.5987 152.248L46.6011 152.338L48.5053 154.136L43.6348 159.293L43.6372 159.38L44.8443 160.522L44.9347 160.521L49.8052 155.366L51.7118 157.164L51.7997 157.161L52.9412 155.955L52.9387 155.864L47.8318 151.039Z" fill="white"/>
<path fill-rule="evenodd" clip-rule="evenodd" d="M53.0467 162.498L53.8589 163.12C54.3653 163.508 54.5671 163.983 54.1412 164.541C53.7153 165.097 53.204 165.029 52.6976 164.641L51.8855 164.025L53.0467 162.498ZM55.1378 159.756L55.6479 160.143C56.2062 160.568 56.2644 161.017 55.9562 161.423C55.6442 161.831 55.1972 161.889 54.6376 161.462L54.1313 161.074L55.1378 159.756ZM54.8506 157.285L54.7614 157.3L49.4143 164.311L49.4292 164.397L51.7134 166.142C53.0331 167.152 54.6314 167.164 55.7147 165.741C56.2979 164.977 56.3833 163.917 55.9648 163.2C56.5294 163.307 57.1818 163.082 57.6461 162.471C58.5746 161.251 58.0497 159.73 56.7312 158.72L54.8506 157.285Z" fill="white"/>
<path fill-rule="evenodd" clip-rule="evenodd" d="M63.7392 163.353L63.6538 163.382L61.4377 167.773C60.2541 170.111 61.1604 172.286 63.1004 173.264C65.0404 174.244 67.3283 173.681 68.5082 171.342L70.7243 166.951L70.6983 166.864L69.2127 166.117L69.1285 166.144L67.0275 170.31C66.25 171.848 65.0169 172.158 63.9361 171.611C62.8516 171.065 62.3712 169.89 63.1487 168.349L65.2509 164.187L65.2199 164.102L63.7392 163.353Z" fill="white"/>
<path fill-rule="evenodd" clip-rule="evenodd" d="M72.7401 167.693L72.6596 167.735L69.8567 176.093L69.8951 176.173L71.4711 176.702L71.5516 176.663L73.3988 171.151L75.7944 178.084L75.8909 178.184L77.5277 178.734L77.6094 178.693L80.4123 170.334L80.3739 170.253L78.7967 169.723L78.7187 169.767L76.869 175.278L74.4771 168.342L74.3756 168.24L72.7401 167.693Z" fill="white"/>
<path fill-rule="evenodd" clip-rule="evenodd" d="M82.8796 170.851L82.8004 170.897L80.8232 179.488L80.8715 179.568L82.4897 179.942L82.5652 179.893L84.5461 171.299L84.4965 171.225L82.8796 170.851Z" fill="white"/>
<path fill-rule="evenodd" clip-rule="evenodd" d="M86.7355 171.72L86.665 171.775L86.4532 173.421L86.5077 173.494L89.1039 173.828L88.1915 180.862L88.2497 180.935L89.895 181.148L89.9656 181.093L90.878 174.06L93.4742 174.395L93.5485 174.341L93.7602 172.693L93.7057 172.623L86.7355 171.72Z" fill="white"/>
<path fill-rule="evenodd" clip-rule="evenodd" d="M95.7819 172.747L95.7163 172.808L95.5615 181.626L95.6247 181.687L101.759 181.795L101.821 181.732L101.851 180.073L101.789 180.008L97.3802 179.932L97.4161 177.949L100.543 178.005L100.609 177.941L100.639 176.281L100.578 176.216L97.4471 176.16L97.4756 174.564L101.754 174.637L101.817 174.574L101.847 172.914L101.784 172.848L95.7819 172.747Z" fill="white"/>
<path fill-rule="evenodd" clip-rule="evenodd" d="M106.174 174.368L107.447 174.263C109.103 174.129 110.339 175.12 110.464 176.712C110.594 178.303 109.531 179.479 107.879 179.615L106.605 179.714L106.174 174.368ZM104.308 172.722L104.251 172.79L104.959 181.58L105.03 181.637L108.021 181.397C110.758 181.175 112.573 179.018 112.374 176.558C112.177 174.101 110.041 172.26 107.302 172.481L104.308 172.722Z" fill="white"/>
<path fill-rule="evenodd" clip-rule="evenodd" d="M116.454 170.936L116.408 171.014L118.625 179.545L118.706 179.592L123.652 178.307L123.699 178.229L123.278 176.62L123.201 176.573L119.924 177.428L118.138 170.564L118.061 170.519L116.454 170.936Z" fill="white"/>
<path fill-rule="evenodd" clip-rule="evenodd" d="M123.277 169.01L123.241 169.092L126.436 177.311L126.518 177.347L132.237 175.125L132.273 175.041L131.67 173.493L131.588 173.458L127.478 175.054L126.76 173.207L129.679 172.074L129.716 171.992L129.112 170.442L129.03 170.407L126.113 171.542L125.534 170.051L129.525 168.501L129.56 168.417L128.958 166.872L128.878 166.835L123.277 169.01Z" fill="white"/>
<path fill-rule="evenodd" clip-rule="evenodd" d="M134.854 166.467L137.424 168.474L135.541 169.483L134.854 166.467ZM132.782 164.987L132.758 165.072L134.423 174.11L134.518 174.132L136.34 173.155L136.364 173.071L135.983 171.26L138.923 169.688L140.483 170.867L140.575 170.89L142.399 169.914L142.424 169.829L134.521 164.127L134.426 164.106L132.782 164.987Z" fill="white"/>
<path fill-rule="evenodd" clip-rule="evenodd" d="M145.724 159.237L144.414 157.753C143.402 158.051 142.549 158.633 141.64 159.438C139.581 161.255 139.398 164.231 141.091 166.145C142.826 168.109 145.807 168.203 147.867 166.382C148.725 165.622 149.324 164.754 149.701 163.735L146.614 160.242L146.524 160.234L144.226 162.267L144.22 162.357L145.323 163.601L145.408 163.606L146.417 162.717L147.517 163.961C147.361 164.27 146.972 164.697 146.638 164.996C145.297 166.18 143.589 165.983 142.573 164.833C141.559 163.685 141.574 161.967 142.864 160.824C143.68 160.104 144.621 159.53 145.719 159.324L145.724 159.237Z" fill="white"/>
<path fill-rule="evenodd" clip-rule="evenodd" d="M146.643 155.825L146.638 155.914L149.98 159.525C151.757 161.451 154.113 161.361 155.706 159.888C157.304 158.411 157.575 156.07 155.797 154.151L152.457 150.536L152.366 150.532L151.147 151.663L151.144 151.753L154.309 155.174C155.481 156.443 155.342 157.703 154.451 158.525C153.558 159.351 152.291 159.393 151.118 158.124L147.955 154.703L147.863 154.7L146.643 155.825Z" fill="white"/>
<path fill-rule="evenodd" clip-rule="evenodd" d="M154.45 148.32L154.458 148.41L161.335 153.928L161.424 153.921L165.265 149.138L165.253 149.048L163.96 148.008L163.868 148.019L161.107 151.453L159.566 150.215L161.527 147.774L161.516 147.683L160.221 146.644L160.13 146.651L158.169 149.092L156.925 148.093L159.604 144.757L159.597 144.665L158.299 143.626L158.211 143.638L154.45 148.32Z" fill="white"/>
<path fill-rule="evenodd" clip-rule="evenodd" d="M33.1027 52.7164L33.1138 52.808L40.1224 58.1564L40.2115 58.1465L43.9331 53.2698L43.922 53.1819L42.601 52.1729L42.5118 52.1841L39.8376 55.6877L38.2628 54.4868L40.1633 51.9996L40.1484 51.9092L38.8286 50.9002L38.7407 50.9126L36.8391 53.4011L35.5713 52.4329L38.1663 49.0308L38.1564 48.9391L36.8354 47.9314L36.7475 47.945L33.1027 52.7164Z" fill="white"/>
<path fill-rule="evenodd" clip-rule="evenodd" d="M43.6438 43.1029L45.7262 41.1208L49.423 45.0095L46.9705 47.3445C46.7947 47.0672 46.7092 46.9768 46.6226 46.8456L43.6438 43.1029ZM41.3002 42.864L41.2977 42.9519L45.1221 47.867C45.3239 48.2087 45.4588 48.4266 45.5442 48.7002L44.7469 49.4554V49.547L47.4768 52.4205H47.5635L48.7669 51.2766L48.7706 51.1849L47.2305 49.5656L51.3965 45.6013L52.9379 47.2219L53.027 47.2244L54.2329 46.0829L54.2353 45.9913L51.5042 43.1178L51.4151 43.1153L50.7205 43.7752L45.8339 38.6385L45.7436 38.6348L41.3002 42.864Z" fill="white"/>
<path fill-rule="evenodd" clip-rule="evenodd" d="M50.3877 34.8277L50.3691 34.9144L55.3709 42.1768L55.4588 42.1928L56.8825 41.2148L56.9506 41.091L57.3332 33.7667L60.6338 38.5555L60.7217 38.5703L62.0885 37.6269L62.1034 37.5415L57.1066 30.2791L57.015 30.2593L55.595 31.2398L55.5269 31.3649L55.1406 38.6892L51.8424 33.8992L51.7545 33.8855L50.3877 34.8277Z" fill="white"/>
<path fill-rule="evenodd" clip-rule="evenodd" d="M61.5427 27.7226L61.5117 27.8081L65.2779 35.7798L65.362 35.8108L66.8626 35.1026L66.8947 35.0147L65.3125 31.6658L69.0081 29.9177L70.5916 33.2691L70.6782 33.2988L72.1787 32.5906L72.2085 32.504L68.4435 24.5334L68.3594 24.5012L66.8539 25.2131L66.8254 25.2973L68.2455 28.2996L64.5462 30.0477L63.1274 27.0417L63.0432 27.0132L61.5427 27.7226Z" fill="white"/>
<path fill-rule="evenodd" clip-rule="evenodd" d="M77.5677 23.7312L79.3666 26.3447L77.3994 26.9006L77.5677 23.7312ZM76.0808 21.7614L76.0388 21.8407L75.1721 31.2449L75.2526 31.2907L77.1567 30.7522L77.2013 30.6717L77.3325 28.7787L80.4066 27.9121L81.5072 29.4584L81.584 29.503L83.4918 28.9657L83.5339 28.8852L77.8847 21.3195L77.8042 21.2737L76.0808 21.7614Z" fill="white"/>
<path fill-rule="evenodd" clip-rule="evenodd" d="M90.3224 20.6274L90.5502 22.4003L89.9163 22.482C89.2181 22.5724 88.8071 22.3668 88.7266 21.7342C88.6449 21.1028 88.9915 20.7995 89.6898 20.7091L90.3224 20.6274ZM91.8031 18.6316L89.332 18.9511C87.5603 19.1789 86.6355 20.5209 86.8237 21.9793C86.9574 22.9945 87.4254 23.642 88.2995 23.9144L85.78 28.364L85.8518 28.4172L87.8773 28.156L87.933 28.0854L90.1466 24.2586L90.7793 24.1756L91.2287 27.6632L91.3005 27.7165L92.9458 27.5047L93.0016 27.4329L91.8762 18.6873L91.8031 18.6316Z" fill="white"/>
<path fill-rule="evenodd" clip-rule="evenodd" d="M103.98 18.311L103.847 18.3655L102.336 24.3836C102.068 25.1946 101.462 25.5226 100.696 25.4545L100.628 25.5103L100.485 27.0789L100.54 27.1717C102.194 27.3215 103.397 26.7916 103.946 24.9804L105.217 20.2226L108.018 20.4788L107.371 27.5394L107.427 27.6088L109.081 27.7586L109.154 27.7016L109.953 18.9201L109.897 18.852L103.98 18.311Z" fill="white"/>
<path fill-rule="evenodd" clip-rule="evenodd" d="M114.851 19.5825L114.778 19.6308L112.783 28.2204L112.831 28.2971L114.511 28.6846L114.65 28.6512L120.322 23.9986L119.008 29.6627L119.056 29.7395L120.672 30.1158L120.749 30.0675L122.743 21.478L122.695 21.4012L121.012 21.0137L120.876 21.0471L115.205 25.6972L116.518 20.0332L116.47 19.9589L114.851 19.5825Z" fill="white"/>
<path fill-rule="evenodd" clip-rule="evenodd" d="M127.921 23.1702L127.837 23.2086L124.48 31.3599L124.515 31.4441L126.05 32.0743L126.135 32.0396L128.835 25.4841L132.676 27.0639L132.758 27.0292L133.391 25.494L133.356 25.4123L127.921 23.1702Z" fill="white"/>
<path fill-rule="evenodd" clip-rule="evenodd" d="M137.787 30.2101L137.246 33.3349L135.452 32.3544L137.787 30.2101ZM138.1 27.7612L138.016 27.7872L130.824 33.9081L130.847 33.9935L132.587 34.9406L132.675 34.9159L134.089 33.6518L136.895 35.1808L136.601 37.0552L136.623 37.1431L138.362 38.0927L138.45 38.0655L139.7 28.7021L139.671 28.6192L138.1 27.7612Z" fill="white"/>
<path fill-rule="evenodd" clip-rule="evenodd" d="M147.053 39.8381L147.846 40.4807C148.342 40.8831 148.529 41.3634 148.086 41.9094C147.643 42.4566 147.135 42.3724 146.637 41.9688L145.845 41.3263L147.053 39.8381ZM149.226 37.159L149.723 37.5614C150.266 38.0021 150.314 38.4515 149.99 38.8477C149.669 39.2464 149.219 39.2934 148.676 38.8502L148.18 38.4478L149.226 37.159ZM149.012 34.6829L148.924 34.6928L143.37 41.5392L143.379 41.6284L145.611 43.4409C146.904 44.4858 148.498 44.5477 149.625 43.1561C150.229 42.412 150.348 41.3535 149.95 40.6231C150.51 40.7481 151.167 40.5426 151.652 39.9459C152.617 38.7561 152.138 37.2172 150.846 36.1686L149.012 34.6829Z" fill="white"/>
<path fill-rule="evenodd" clip-rule="evenodd" d="M156.131 40.5958L156.042 40.5921L154.842 41.7447L154.841 41.8363L156.657 43.7256L151.543 48.6382V48.7298L152.693 49.927L152.782 49.9282L157.897 45.0119L159.709 46.9012L159.801 46.9024L160.999 45.7523V45.6619L156.131 40.5958Z" fill="white"/>
<path fill-rule="evenodd" clip-rule="evenodd" d="M160.925 53.8134L161.569 54.6887C162.024 55.304 162.084 55.8153 161.516 56.2338C160.901 56.6869 160.432 56.4814 159.973 55.8611L159.33 54.9883L160.925 53.8134ZM164.064 49.3539L163.975 49.3415L156.881 54.5723L156.868 54.6627L158.613 57.0286C159.637 58.4152 161.218 58.8386 162.659 57.7776C164.097 56.7154 164.109 55.1183 163.085 53.7267L162.363 52.7511L163.649 51.8028L165.81 54.7345L165.901 54.7481L167.236 53.7601L167.249 53.6722L164.064 49.3539Z" fill="white"/>
<path d="M142.054 89.3318V89.3553C142.289 89.4395 142.513 89.5905 142.631 89.6858C142.997 89.9867 143.157 90.3841 143.157 90.8991C143.157 91.746 142.706 92.3563 141.967 92.5507C141.742 92.6151 141.507 92.6361 141.067 92.6361H138.825V86.4372H140.809C141.216 86.4372 141.494 86.4582 141.742 86.5239C142.459 86.717 142.932 87.2097 142.932 87.9934C142.932 88.4094 142.783 88.7635 142.536 89.0012C142.429 89.1077 142.278 89.2364 142.054 89.3318ZM140.069 89.9867V91.6172H140.926C141.184 91.6172 141.42 91.5949 141.591 91.434C141.763 91.2743 141.837 91.07 141.837 90.8013C141.837 90.5983 141.784 90.4051 141.678 90.2652C141.494 90.0399 141.269 89.9867 140.885 89.9867H140.069ZM140.058 88.9145H140.754C140.969 88.9145 141.076 88.9145 141.184 88.8823C141.475 88.7969 141.655 88.5394 141.655 88.1853C141.655 87.7669 141.463 87.5849 141.184 87.4994C141.067 87.4673 140.948 87.4573 140.713 87.4573H140.058V88.9145ZM145.023 92.6361V87.4784H143.233V86.4372H148.208L147.854 87.4784H146.267V92.6361H145.023ZM148.595 92.6361V86.4372H152.626L152.272 87.4784H149.826V88.8502H150.826C151.629 88.8502 152.048 89.0433 152.337 89.2897C152.563 89.4828 152.948 89.9124 152.948 90.7592C152.948 91.5949 152.551 92.0567 152.218 92.2919C151.832 92.5618 151.425 92.6361 150.6 92.6361H148.595ZM149.826 91.5949H150.761C151.115 91.5949 151.329 91.5095 151.478 91.3163C151.555 91.221 151.661 91.0489 151.661 90.727C151.661 90.4051 151.555 90.1798 151.341 90.0189C151.211 89.9235 151.04 89.8691 150.75 89.8691H149.826V91.5949Z" fill="white"/>
<path d="M137.792 84.8882H132.581L132.206 85.9207H137.416L137.792 84.8882Z" fill="white"/>
<path d="M137.229 86.4372H132.018L131.64 87.4697H136.853L137.229 86.4372Z" fill="white"/>
<path d="M136.666 87.9859H131.455L131.077 89.0209H136.289L136.666 87.9859Z" fill="white"/>
<path d="M143.947 141.796C141.306 135.726 137.407 130.216 132.514 125.691C127.09 120.675 120.561 116.979 113.519 114.908L116.371 103.194C131.077 104.674 145.451 108.151 159.152 113.545C156.684 124.336 151.329 134.04 143.947 141.796ZM83.2153 158.307L87.3429 143.745C96.3188 147.926 105.801 150.817 115.595 152.356L117.462 158.109C111.932 159.774 106.073 160.673 100.008 160.673C94.1844 160.673 88.55 159.845 83.2153 158.307ZM40.8628 113.544C53.8772 108.42 67.5081 105.025 81.4461 103.429L84.7232 115.466C71.8264 119.798 61.4442 129.366 56.0648 141.791C48.6848 134.035 43.3327 124.334 40.8628 113.544ZM54.7389 59.6556C59.4484 68.1474 66.5251 75.2352 75.0516 79.9447L80.2662 99.0974C66.4583 100.734 52.9487 104.097 40.021 109.109C39.5716 106.138 39.3376 103.097 39.3376 100.002C39.3376 84.5243 45.1663 70.3857 54.7389 59.6556ZM100.797 39.3429L70.0437 61.5485L73.3468 73.6839C66.8879 69.2566 61.5729 63.2571 57.9752 56.2943C68.8873 45.7968 83.7068 39.3317 100.008 39.3317C100.271 39.3317 100.534 39.3392 100.797 39.3429ZM111.068 38.0182C111.459 38.1172 111.834 38.4564 112.098 38.9541L119.828 55.5551C104.974 64.8665 92.3521 77.4637 83.006 92.2695L75.132 63.3474L109.671 38.4069C110.039 38.1581 110.574 37.8944 111.068 38.0182ZM118.508 42.209C127.294 45.028 135.379 49.8675 142.056 56.2757C138.312 63.5319 132.71 69.7296 125.898 74.2027L128.587 63.855L118.508 42.209ZM101.525 99.0231L87.7106 109.548L84.6155 98.1787C93.683 82.5595 106.463 69.2814 121.717 59.6135L123.891 64.2822L114.861 99.0231H101.525ZM106.708 124.122L92.5687 121.744L90.62 112.91L103.023 103.46H111.741L106.708 124.122ZM111.2 124.429L112.468 119.224C125.209 123.045 135.684 132.718 140.517 145.127C135.038 150.051 128.659 153.992 121.662 156.674L111.2 124.429ZM92.3174 126.201L107.964 128.833L114.053 147.598C105.224 146.01 96.6766 143.27 88.5686 139.423L92.3174 126.201ZM87.4742 119.245L88.4374 123.616L78.996 156.919C71.746 154.234 65.1447 150.2 59.498 145.124C64.3301 132.656 74.6121 123.112 87.4742 119.245ZM160.679 100.002C160.679 103.096 160.445 106.136 159.995 109.107C146.966 104.053 133.354 100.686 119.436 99.0627L124.314 80.2988C133.137 75.5893 140.459 68.3591 145.291 59.6296C146.002 60.4244 146.694 61.2378 147.362 62.0722C156.074 72.9324 160.679 86.0483 160.679 100.002ZM150.824 59.2953C141.973 48.2593 129.645 40.3309 116.017 36.8804C115.152 35.2499 113.784 34.1257 112.15 33.7147C110.502 33.3012 108.723 33.6739 107.138 34.7633L106.504 35.2214C104.355 35.0085 102.175 34.8946 100.008 34.8946C64.1072 34.8946 34.9004 64.1014 34.9004 100.002C34.9004 135.902 64.1072 165.11 100.008 165.11C135.909 165.11 165.116 135.902 165.116 100.002C165.116 85.2423 160.04 70.7856 150.824 59.2953Z" fill="white"/>
</svg>
