<svg width="200" height="200" viewBox="0 0 200 200" fill="none" xmlns="http://www.w3.org/2000/svg">
<path d="M3 199.5C1.61929 199.5 0.5 198.381 0.5 197V3C0.5 1.61929 1.61929 0.5 3 0.5H197C198.381 0.5 199.5 1.61929 199.5 3V197C199.5 198.381 198.381 199.5 197 199.5H3Z" fill="white" stroke="#86A5D9"/>
<path d="M61.6992 37.7719C71.4135 31.5508 83.8027 34.3084 94.1249 37.2305C99.7371 38.8203 105.537 40.2879 111.409 40.5401C114.52 40.6622 117.441 40.2534 120.403 39.5156C120.553 39.4838 120.962 39.367 121.353 39.2661C121.881 39.1202 122.063 38.6265 121.771 38.1594C114.362 26.3781 101.976 16.5369 87.613 15.6664C87.0614 15.6292 86.1885 15.7566 85.6771 15.9663C80.4263 17.9223 75.5504 20.8683 71.3733 24.6025C69.1349 26.5798 67.0999 28.7853 65.3059 31.1607C64.425 32.3258 63.603 33.544 62.8345 34.7888C62.4355 35.4417 62.0553 36.1131 61.6804 36.7873C61.5278 37.0792 60.8129 38.3425 61.6992 37.7719Z" fill="#95569E"/>
<path d="M125.774 36.6439C126.063 37.1004 126.695 37.3127 127.193 37.0686C130.141 35.6699 133.697 33.5891 135.898 31.8746C136.388 31.5243 137.028 31.1501 136.891 30.452C136.771 29.7779 135.943 29.0932 135.51 28.5862C134.465 27.3972 133.357 26.2507 132.187 25.1838C131.169 24.3318 128.832 22.4103 128.832 22.4103C123.94 18.692 118.261 15.9981 112.271 14.541C109.269 13.7953 106.201 13.3759 103.105 13.2512C101.574 13.2007 100.026 13.2114 98.4732 13.3149C98.0528 13.3441 94.3095 13.5033 94.2908 13.8722C96.2374 14.2544 98.1144 14.7746 99.9057 15.3956C110.726 19.1617 119.741 27.0681 125.774 36.6439Z" fill="#95569E"/>
<path d="M132.447 38.6692C131.78 39.0805 131.108 39.468 130.433 39.8529C130.016 40.097 129.569 40.312 129.135 40.5429C128.647 40.7898 128.484 41.4453 128.725 41.9416C129.319 43.1465 129.868 44.3939 130.396 45.6493L130.471 45.8484H130.474C132.988 52.1942 134.487 58.8744 134.669 65.7033C134.675 66.242 135.074 66.4756 135.553 66.2208C138.198 64.8195 140.785 63.2881 143.227 61.5868C143.762 61.2153 144.285 60.8384 144.767 60.427C145.364 59.944 146.095 59.4689 146.445 58.7683C146.818 58.0888 146.697 57.2661 146.67 56.5097C146.63 55.5436 146.574 54.5855 146.467 53.6141C145.886 47.7035 144.111 41.9867 141.229 36.7795C140.806 36.0045 140.402 35.057 139.821 34.3962C139.302 33.8043 138.841 34.29 138.399 34.6563C137.749 35.1897 137.05 35.6621 136.37 36.1399C135.095 37.029 133.778 37.8836 132.447 38.6692Z" fill="#95569E"/>
<path d="M129.601 73.4952C127.904 74.4932 126.209 75.4592 124.589 76.5739C122.409 78.0682 120.337 79.7083 118.329 81.3937C112.749 86.0701 107.725 91.349 101.259 94.9028C96.5035 97.5011 91.1537 99.2209 85.6861 99.1147C85.1425 99.1147 84.5963 99.0882 84.0634 99.0298C83.9992 99.0324 82.7969 98.9342 84.8721 99.7384C86.6205 100.418 88.377 101.002 90.1817 101.469C93.767 102.385 97.4809 102.883 101.181 102.929C106.028 102.982 110.866 102.27 115.474 100.803C115.999 100.643 116.784 100.224 117.201 99.8764C125.044 93.5572 129.272 83.8062 130.362 73.9756C130.423 73.4368 130.081 73.2272 129.601 73.4952Z" fill="#95569E"/>
<path d="M139.21 83.095C141.162 80.1065 142.635 76.8368 143.915 73.5192C144.616 71.7436 145.154 69.8911 145.588 68.0359C145.786 67.1442 145.968 66.2365 146.11 65.3341C146.167 64.9493 146.606 63.1047 145.679 63.8611C142.919 66.1463 138.605 68.7552 135.395 70.5546C134.915 70.8253 134.482 71.4782 134.431 72.017C133.579 80.8231 130.398 89.5204 124.639 96.3493C124.288 96.7633 124.379 96.8801 124.848 96.5935C130.5 93.2149 135.63 88.5915 139.21 83.095Z" fill="#95569E"/>
<path d="M37.8341 66.9691C38.0349 67.8422 38.6963 68.3306 39.4755 68.673C41.6765 69.6443 44.2711 69.8513 46.6381 70.069C49.6075 70.3317 52.6011 70.4114 55.5839 70.3423C55.857 70.3397 56.1301 70.3238 56.3925 70.3264C71.6736 69.8328 86.802 67.4654 101.502 63.3197C106.169 62.006 110.807 60.5569 115.369 58.8769C117.651 58.0435 119.919 57.1544 122.154 56.2016C123.268 55.7371 124.363 55.2568 125.445 54.7631C126.157 54.4367 126.934 54.15 127.646 53.7811C128.139 53.5422 128.39 52.8575 128.232 52.3373C127.327 49.3488 126.176 46.4188 124.8 43.6055C124.559 43.1118 123.948 42.8836 123.426 43.0694C120.7 44.0567 117.782 44.76 114.922 45.0944C110.943 45.5509 106.913 45.2351 102.991 44.5795C94.9499 43.2445 87.1903 40.5799 78.9754 40.3622C74.1852 40.2295 69.1754 40.8002 64.8993 43.08C62.8188 44.1973 60.9793 45.7208 59.5628 47.6104C58.0178 49.6912 57.1396 52.0241 56.5612 54.5163C56.1248 57.2977 56.2399 60.1614 56.5452 62.9455C56.6683 64.1372 56.8397 65.0502 58.1946 65.2068C59.1183 65.3262 60.0501 65.3766 60.9659 65.4271C63.1508 65.5332 65.3384 65.573 67.5206 65.5757C68.4631 65.5863 69.4083 65.589 70.3535 65.581C70.7364 65.581 71.1327 65.5757 71.5397 65.5783C71.6682 65.5704 72.3992 65.727 70.2598 66.0534C69.3173 66.202 68.3882 66.3188 67.435 66.4197C65.6169 66.624 63.7961 66.7727 61.978 66.8788C58.3043 67.0911 54.6119 67.2265 50.941 67.1893C49.1229 67.1655 47.3075 67.1044 45.5081 66.9054C44.6834 66.8231 43.8614 66.6904 43.0742 66.4674C42.5279 66.3082 41.6256 66.0985 41.3793 65.5014C40.9535 64.4689 43.0635 63.3941 43.7489 63.0251C44.4799 62.6323 45.2323 62.2926 46.0035 62.0086C46.7157 61.7485 46.7237 61.4035 46.389 61.4407C46.124 61.4778 45.5804 61.6158 45.3153 61.6636C44.5442 61.8547 43.7811 62.0803 43.0367 62.3457C41.7916 62.7942 40.5546 63.3197 39.4755 64.0974C38.5865 64.7582 37.5637 65.7615 37.8341 66.9691Z" fill="#95569E"/>
<path d="M128.642 57.9534C121.274 61.4011 113.819 64.6443 106.086 67.2559C94.1174 71.2847 81.7014 73.9547 69.1756 75.5604C64.9503 76.0938 60.7492 76.484 56.5212 76.7759C54.588 76.9086 52.6467 77.0493 50.7055 77.1395C49.7308 77.1953 48.7455 77.2165 47.7628 77.2377C46.8497 77.2484 45.942 77.259 45.0397 77.251C44.6193 77.251 44.2096 77.2457 43.8 77.251C43.2403 77.259 43.3073 77.474 43.7598 77.5695C44.8389 77.7977 46.6088 78.0207 47.2085 78.1056C49.5916 78.4958 51.9881 78.801 54.3845 79.0345C55.8465 79.1911 57.3111 79.3212 58.7758 79.4061C60.0878 79.4963 61.1187 79.422 61.7559 80.7092C62.1388 81.4869 62.578 82.23 63.0921 82.9386C63.317 83.2518 64.0185 83.8649 63.898 84.3134C63.7588 84.7991 62.5806 84.6664 62.2084 84.6823C60.9901 84.6877 59.7638 84.6797 58.5375 84.6585C57.9002 84.6372 57.2495 84.6213 56.6016 84.5974C55.7849 84.5709 55.7849 84.7752 56.5882 84.9106C59.006 85.3167 64.0105 85.9377 66.4792 86.1261C67.9706 86.166 69.4621 86.1898 70.9615 86.166C71.7005 86.1633 72.4503 86.158 73.1893 86.1447C73.6177 86.1288 74.022 86.1182 74.437 86.1102C74.4879 86.1129 76.4345 86.4446 69.3309 87.0232C68.9962 87.0498 67.1084 87.0312 67.4003 87.692C67.5369 88.0185 69.0149 89.1013 69.4058 89.3933C72.228 91.421 75.4947 92.7692 78.8979 93.4619C85.6829 94.8367 92.6501 93.4699 98.7737 90.4204C106.383 86.6251 112.274 80.3085 119.11 75.3693C120.958 74.037 122.891 72.8188 124.854 71.6483C125.834 71.0618 126.843 70.4938 127.842 69.9418C128.321 69.687 128.803 69.4242 129.274 69.1668C129.496 69.0474 129.764 68.9492 130.008 68.8297C130.41 68.6227 130.669 67.938 130.659 67.3939C130.594 64.416 130.286 61.4382 129.735 58.5028C129.628 57.9614 129.146 57.7199 128.642 57.9534Z" fill="#95569E"/>
<path d="M155.555 10C155.311 10 155.065 10.345 154.893 11.0324C153.967 14.2199 153.305 15.6982 152.518 16.8315C151.731 17.9621 150.818 18.7504 148.491 20.2632C148.068 20.51 148.068 20.9373 148.491 21.1841C150.738 22.6439 151.694 23.5064 152.481 24.5707C153.319 25.7146 153.935 27.1133 154.893 30.4149C155.065 31.105 155.308 31.45 155.552 31.45C155.796 31.45 156.037 31.1103 156.205 30.4361C157.167 27.1611 157.798 25.7995 158.653 24.6503C159.434 23.5914 160.374 22.689 162.61 21.1974C163.03 20.9426 163.028 20.5047 162.61 20.2499C160.315 18.7212 159.397 17.856 158.612 16.7519C157.796 15.6107 157.142 14.212 156.205 11.0138C156.037 10.3397 155.798 10 155.555 10ZM155.563 15.0745C156.023 16.2025 156.492 17.0624 157.051 17.848C157.788 18.8804 158.631 19.7218 159.978 20.7276C158.698 21.6884 157.855 22.5271 157.11 23.5277C156.524 24.3186 156.045 25.1838 155.565 26.3516C155.083 25.1201 154.609 24.2496 154.023 23.4534C153.308 22.482 152.489 21.6831 151.187 20.7276C152.601 19.7085 153.378 18.9309 154.09 17.9091C154.631 17.1314 155.099 16.245 155.563 15.0745Z" fill="#95569E"/>
<path d="M43.4065 31.8721C43.2298 31.8721 43.0531 32.1189 42.9299 32.6126C42.2605 34.9057 41.7866 35.9726 41.2216 36.7848C40.654 37.5969 39.998 38.1649 38.3245 39.253C38.0219 39.4308 38.0219 39.7361 38.3245 39.9139C39.9391 40.9649 40.6272 41.5833 41.1922 42.3476C41.7973 43.173 42.2364 44.1789 42.9299 46.5516C43.0504 47.0479 43.2271 47.2974 43.4039 47.2974C43.5779 47.2974 43.7519 47.0533 43.8751 46.5676C44.5633 44.2134 45.0184 43.2314 45.6316 42.406C46.1939 41.6443 46.8687 40.9994 48.4779 39.9245C48.7831 39.7414 48.7805 39.4255 48.4779 39.2424C46.8285 38.1436 46.1671 37.5199 45.6022 36.729C45.0158 35.9063 44.5472 34.9004 43.8751 32.5993C43.7519 32.1136 43.5806 31.8721 43.4065 31.8721ZM43.4146 36.2725C43.6689 36.8086 43.9367 37.2625 44.2393 37.6845C44.7293 38.3719 45.2782 38.9451 46.1002 39.5874C45.321 40.2005 44.7721 40.7632 44.2848 41.4267C43.9635 41.8593 43.6823 42.3184 43.4199 42.8784C43.1495 42.2866 42.871 41.8142 42.5417 41.3709C42.0704 40.7313 41.5429 40.1925 40.7611 39.5901C41.6099 38.9451 42.1213 38.4143 42.5979 37.7243C42.8951 37.3023 43.1575 36.8325 43.4146 36.2725Z" fill="#95569E"/>
<path d="M74.5445 102.565C74.432 102.565 74.3196 102.724 74.2419 103.043C73.8135 104.511 73.5083 105.193 73.1468 105.71C72.7853 106.233 72.3649 106.591 71.2939 107.287C71.1011 107.403 71.1011 107.6 71.2939 107.714C72.3274 108.385 72.7666 108.781 73.1307 109.267C73.5163 109.795 73.7974 110.44 74.2419 111.958C74.3196 112.274 74.432 112.433 74.5418 112.433C74.6543 112.433 74.7667 112.276 74.8444 111.966C75.2835 110.464 75.5754 109.837 75.969 109.306C76.3278 108.818 76.7615 108.404 77.7871 107.717C77.9852 107.603 77.9825 107.401 77.7871 107.281C76.7348 106.581 76.3117 106.177 75.9502 105.673C75.5754 105.15 75.2755 104.505 74.8444 103.032C74.7667 102.724 74.6543 102.565 74.5445 102.565Z" fill="#95569E"/>
<path d="M99.4787 184.119V169.412C99.4305 169.588 99.3796 169.763 99.3233 169.943C97.7837 174.949 96.2495 179.952 94.7045 184.957C92.4794 185.345 90.265 185.727 88.04 186.122V165.649C87.8124 163.791 87.5875 161.949 87.3572 160.091C87.3572 160.091 91.877 159.306 94.0458 158.924V173.587C94.0994 173.415 94.1529 173.234 94.2091 173.062C95.7381 168.072 97.275 163.075 98.8066 158.09C101.069 157.692 103.345 157.297 105.608 156.899V183.041C103.573 183.397 101.527 183.752 99.4787 184.119Z" fill="#202A25"/>
<path d="M131.368 167.876C130.894 164.657 130.415 161.419 129.944 158.194C129.724 158.226 129.513 158.268 129.306 158.3C128.819 161.7 128.337 165.094 127.85 168.476C129.017 168.277 130.193 168.078 131.368 167.876ZM132.158 173.134C130.471 173.431 128.76 173.728 127.06 174.025C126.795 175.822 126.551 177.627 126.297 179.413C124.347 179.763 122.393 180.09 120.446 180.44C121.927 171.472 123.421 162.493 124.902 153.525C128.088 152.968 131.256 152.421 134.423 151.869C135.88 160.336 137.342 168.792 138.809 177.258C136.849 177.598 134.889 177.937 132.91 178.269C132.656 176.56 132.404 174.848 132.158 173.134Z" fill="#202A25"/>
<path d="M36.6669 158.069V127.322L40.1826 123.028L56.1919 120.233L59.7611 123.219V134.488C56.7596 135.016 53.7606 135.542 50.7698 136.067V128.8C50.7698 128.8 45.0317 129.78 43.7893 129.976C42.1827 130.231 42.1827 130.231 44.6327 131.173C45.3691 131.457 45.7038 131.757 45.7038 132.487V152.493L50.909 151.572V143.167C53.9347 142.633 56.955 142.102 59.9834 141.577V153.977L56.4141 158.213L40.1826 161.055L36.6669 158.069Z" fill="#202A25"/>
<path d="M87.1773 114.787C85.3833 126.112 81.6507 150.213 81.6507 150.213L78.1324 154.404L66.6348 156.416L65.5477 149.09C65.5477 149.09 71.358 148.084 73.7732 147.665C73.7732 147.665 74.2498 144.387 74.4185 143.278C72.9191 143.541 69.0205 144.22 69.0205 144.22L65.8154 141.489C65.8154 141.489 63.1646 126.361 61.9061 119.195C64.8542 118.683 68.0619 118.12 71.0287 117.605C71.9123 123.686 72.7959 129.774 73.6742 135.863C74.2552 135.759 74.8389 135.65 75.4199 135.552C76.2848 129.161 77.1497 122.77 78.0172 116.379C80.984 115.862 84.1998 115.307 87.1773 114.787Z" fill="#202A25"/>
<path d="M89.0515 114.46C89.3728 117.157 89.7022 119.838 90.0315 122.526V152.323C93.0492 151.795 96.0748 151.275 99.0952 150.744V128.046H99.1005V123.789C99.1005 123.065 98.7685 122.765 98.0268 122.481C96.2221 121.786 95.7482 121.605 96.2676 121.451C98.6909 121.042 102.812 120.331 104.185 120.092V149.857C107.222 149.327 110.258 148.79 113.292 148.268V110.24C105.259 111.634 89.0435 114.46 89.0515 114.46Z" fill="#202A25"/>
<path d="M127.898 137.909V130.05C130.808 129.53 135.976 128.609 135.976 128.609L135.973 120.814C135.973 120.814 131.052 121.685 127.898 122.229V118.327C127.898 117.6 127.563 117.298 126.824 117.014C124.907 116.276 124.489 116.117 125.172 115.96C129.102 115.286 135.408 114.187 138.447 113.662V105.846C131.63 107.04 117.766 109.463 117.766 109.463C118.098 112.144 118.427 114.84 118.751 117.521V147.323C125.397 146.155 132.048 145.009 138.712 143.846V136.025C135.108 136.662 131.499 137.285 127.898 137.909Z" fill="#202A25"/>
<path d="M157.474 124.275C157.474 124.275 153.755 124.939 152.376 125.172V118.075H152.382V113.818C152.382 113.094 152.05 112.794 151.311 112.51C149.49 111.809 149.024 111.629 149.562 111.477C152.43 110.984 157.474 110.116 157.474 110.116V124.275ZM163.049 101.538C163.049 101.538 149.187 103.967 142.341 105.156C142.625 107.849 142.911 110.551 143.189 113.253V143.037C146.25 142.506 149.316 141.967 152.376 141.436V132.829C155.855 132.224 163.017 130.971 163.017 130.971L166.667 126.661V104.521L163.049 101.538Z" fill="#202A25"/>
<path d="M114.237 161.347C116.575 160.938 119.951 160.352 121.258 160.126C121.593 158.085 121.927 156.036 122.278 153.977C117.989 154.736 109.185 156.272 109.185 156.256C109.407 158.112 109.632 159.967 109.857 161.811V182.282C111.916 181.934 113.977 181.56 116.042 181.212V164.205C116.042 164.2 116.042 164.197 116.042 164.192V162.926C116.042 162.443 115.817 162.239 115.324 162.053C114.036 161.557 113.766 161.45 114.237 161.347Z" fill="#202A25"/>
<path d="M67.4291 163.597C67.7182 165.442 67.994 167.273 68.2805 169.126L68.0342 184.089C67.4264 184.201 66.0983 184.426 65.4932 184.538C65.6619 186.356 65.8359 188.174 66.0046 190C67.8066 189.673 71.4053 189.05 71.4053 189.05L73.941 185.878L74.2462 169.994C74.2462 169.508 74.0213 169.306 73.5286 169.118C72.1818 168.6 71.9489 168.51 72.5111 168.396C72.6022 168.38 76.7578 167.653 77.3763 167.544V188.004C79.4622 187.64 81.5614 187.264 83.6473 186.9V160.763C78.1582 161.726 67.4291 163.597 67.4291 163.597Z" fill="#202A25"/>
</svg>
