<svg width="216" height="200" viewBox="0 0 216 200" fill="none" xmlns="http://www.w3.org/2000/svg">
<g filter="url(#filter0_dd_3591_268037)">
<path d="M11 199.5C9.61929 199.5 8.5 198.381 8.5 197V3C8.5 1.61929 9.61929 0.5 11 0.5H205C206.381 0.5 207.5 1.61929 207.5 3V197C207.5 198.381 206.381 199.5 205 199.5H11Z" fill="white" stroke="#86A5D9"/>
<path d="M190.67 27.4132C185.665 27.0358 182.177 25.7247 180.289 23.5039C177.149 19.9442 176.43 13.961 176.272 10.7111C176.272 10.3099 175.952 10 175.553 10H174.968C174.755 10 174.569 10.0953 174.407 10.2304C174.301 10.3615 174.222 10.5483 174.222 10.7509C174.249 13.3333 173.025 20.0117 169.884 23.7065C167.913 26.1141 164.453 27.5999 159.879 28.0012C159.689 28.0012 159.531 28.029 159.397 28.0687C159.211 28.1085 159.025 28.2555 158.919 28.4581C158.812 28.6289 158.812 28.8434 158.891 29.0461C158.97 29.2447 158.97 29.3679 159.025 29.5546C159.025 29.8327 159.211 30.075 159.476 30.1545C159.586 30.1942 159.823 30.222 159.879 30.222C172.148 30.234 174.249 41.4137 174.407 48.0484C174.407 48.5331 174.834 48.986 175.683 48.986C175.817 48.986 176.003 48.9741 176.137 48.9463C176.43 48.8668 176.671 48.5967 176.698 48.263C176.963 44.6635 177.548 37.1826 180.633 34.3459C183.271 31.7198 186.463 30.2101 190.453 29.7532C190.773 29.7135 191.041 29.4712 191.12 29.1374C191.12 28.9904 191.148 28.8832 191.227 28.7243C191.334 28.4819 191.334 28.323 191.334 28.1601C191.334 27.7747 191.041 27.4649 190.67 27.4132Z" fill="#00AB96"/>
<path d="M95.5525 74.6037C98.5033 70.9089 101.272 67.2698 103.054 62.9989C104.918 58.6486 106.277 54.1632 106.81 49.5228C107.419 44.8507 107.205 40.1786 106.407 35.5621C106.249 34.5569 105.957 34.0246 104.867 34.104C100.66 34.4536 96.4294 35.3634 92.3055 36.6189C88.2566 37.8385 84.346 39.5906 80.538 41.6803C76.8407 43.7542 72.9024 45.681 69.5764 48.5296C68.7785 49.1851 69.4974 50.1108 70.244 50.818C76.2008 56.829 75.7781 57.2461 81.7665 63.2532C87.6996 69.2483 86.4751 68.3941 92.4359 74.413C93.2614 75.2156 94.8059 75.5135 95.5525 74.6037Z" fill="#00AB96"/>
<path d="M110.08 91.1822C110.878 92.0245 110.878 91.6788 111.731 90.8485C116.653 85.9221 136.001 65.7954 140.927 60.8015C145.872 55.8393 152.315 49.2245 151.517 48.5451C148.084 45.5615 144.517 42.4427 140.658 40.3411C136.72 38.1997 131.956 37.7984 127.698 36.5907C123.416 35.3352 119.075 34.3738 114.631 34.1036C113.406 33.9964 112.529 34.6519 112.794 35.8716C113.513 41.0244 113.355 46.9798 112.794 52.1962C111.996 59.4785 110.906 61.5921 108.777 66.4112C106.675 71.1231 103.053 75.4575 99.6202 79.5416C98.9012 80.4117 105.688 86.7803 110.08 91.1822Z" fill="#00AB96"/>
<path d="M132.094 113.975C138.055 119.947 137.336 119.931 143.269 125.914C149.234 131.881 150.162 131.241 156.071 137.237C156.897 138.067 158.015 138.198 158.734 137.288C161.527 133.999 163.257 130.491 165.307 126.784C167.353 122.982 169.699 119.212 170.924 115.139C172.144 111.004 172.492 105.437 172.84 101.155C172.891 100.098 172.2 99.8158 171.161 99.5735C166.531 98.8941 161.74 98.6359 157.11 99.2C152.508 99.8039 148.329 101.099 144.016 102.962C137.095 105.906 135.42 108.246 131.746 111.258C130.814 111.969 131.296 113.149 132.094 113.975Z" fill="#00AB96"/>
<path d="M125.279 106.347C126.022 107.098 126.741 105.973 127.594 105.302C131.639 101.849 145.504 89.4579 172.25 92.374C173.503 92.5091 171.642 83.0615 170.414 78.7509C169.193 74.4681 167.885 70.3482 165.733 66.3952C163.631 62.5018 161.099 59.0096 158.172 55.5572C157.481 54.7546 156.738 53.7495 156.019 54.5004C151.093 59.4506 147.953 62.1283 143.031 67.1064C137.576 72.6883 120.622 90.0975 115.673 95.0517C115.673 95.0517 120.887 101.957 125.279 106.347Z" fill="#00AB96"/>
<path d="M88.9829 79.6333C85.1473 75.4578 85.2026 75.3783 81.3433 71.175C77.4841 67.0114 77.2708 67.1902 73.4391 63.0385C69.5798 58.8233 69.3942 58.9583 65.5626 54.7669C64.7646 53.9128 63.6191 53.4559 62.8449 54.314C60.3168 57.0672 58.401 60.2535 56.4338 63.2928C54.4627 66.4115 53.2934 69.9037 51.9069 73.2647C50.5244 76.6775 49.1932 80.0067 48.3953 83.5704C47.5974 87.158 46.6928 90.7415 46.5032 94.3966C46.3175 98.0477 46.6928 101.731 47.147 105.358C47.463 108.059 48.5533 112.771 49.2722 115.381C49.4855 116.291 23.94 145.48 24.6826 146.255C25.6702 147.272 56.4062 114.388 60.1311 110.936C63.8048 107.483 70.5397 99.9229 74.2647 96.4426C77.9897 92.9902 77.804 92.7915 81.5013 89.351C85.2263 85.8985 84.9617 85.6324 88.6629 82.1521C89.5122 81.3615 89.7532 80.4914 88.9829 79.6333Z" fill="#00AB96"/>
<path d="M120.942 110.36C116.869 106.307 116.233 105.974 112.16 101.905C111.386 101.127 111.734 101.369 111.015 100.765C110.537 100.352 110.43 100.567 110.031 100.833C105.291 104.245 77.9325 131.937 76.6329 130.49C75.2978 129.044 107.369 97.3922 106.543 96.6056C106.038 96.097 105.161 95.2389 104.387 94.4761C100.342 90.392 100.077 90.674 96.032 86.6098C95.2341 85.7755 94.6455 85.4974 93.8752 86.3118C90.0436 90.098 89.6999 89.7523 85.9197 93.5544C82.0841 97.3525 82.0841 97.3525 78.3315 101.182C74.4998 104.98 58.96 120.026 55.1521 123.852C54.4332 124.587 54.4885 125.671 54.9664 126.661C56.4043 129.179 58.4544 132.123 60.2359 134.503C61.9661 136.847 64.1228 138.949 66.2243 141.062C68.3258 143.164 70.7748 144.797 73.062 146.525C74.2628 147.407 75.914 148.639 77.9878 149.763C77.9878 149.763 71.2528 158.249 63.4829 167.347C54.4094 178.002 44.2418 189.512 44.6408 189.965C46.1063 191.653 101.673 132.298 105.453 128.484C109.233 124.658 109.233 124.626 113.037 120.828C116.818 117.026 116.521 116.744 120.302 112.918C121.127 112.116 121.712 111.166 120.942 110.36Z" fill="#00AB96"/>
<path d="M124.347 117.749C120.863 121.428 120.515 121.122 117.082 124.829C113.571 128.508 99.0896 142.671 95.5779 146.362C92.1215 150.057 72.1339 171.431 73.3584 172.73C73.9154 173.314 91.5053 156.989 91.9319 157.124C94.9933 158.165 97.7347 159.262 100.93 159.719C104.549 160.199 108.222 160.68 111.864 160.549C115.514 160.39 119.026 159.051 122.617 158.284C126.156 157.537 129.936 157.228 133.314 155.853C136.643 154.47 139.969 152.734 143.082 150.78C146.116 148.837 149.098 146.604 151.84 144.085C152.689 143.338 152.104 142.429 151.334 141.705C147.206 137.756 147.66 138.186 143.481 134.276C139.357 130.327 139.227 129.564 135.071 125.619C130.947 121.71 131.026 121.603 126.875 117.693C126.053 116.867 125.121 116.891 124.347 117.749Z" fill="#00AB96"/>
</g>
<defs>
<filter id="filter0_dd_3591_268037" x="0" y="-8" width="216" height="224" filterUnits="userSpaceOnUse" color-interpolation-filters="sRGB">
<feFlood flood-opacity="0" result="BackgroundImageFix"/>
<feColorMatrix in="SourceAlpha" type="matrix" values="0 0 0 0 0 0 0 0 0 0 0 0 0 0 0 0 0 0 127 0" result="hardAlpha"/>
<feOffset dy="8"/>
<feGaussianBlur stdDeviation="4"/>
<feColorMatrix type="matrix" values="0 0 0 0 0 0 0 0 0 0 0 0 0 0 0 0 0 0 0.24 0"/>
<feBlend mode="normal" in2="BackgroundImageFix" result="effect1_dropShadow_3591_268037"/>
<feColorMatrix in="SourceAlpha" type="matrix" values="0 0 0 0 0 0 0 0 0 0 0 0 0 0 0 0 0 0 127 0" result="hardAlpha"/>
<feOffset/>
<feGaussianBlur stdDeviation="4"/>
<feColorMatrix type="matrix" values="0 0 0 0 0 0 0 0 0 0 0 0 0 0 0 0 0 0 0.12 0"/>
<feBlend mode="normal" in2="effect1_dropShadow_3591_268037" result="effect2_dropShadow_3591_268037"/>
<feBlend mode="normal" in="SourceGraphic" in2="effect2_dropShadow_3591_268037" result="shape"/>
</filter>
</defs>
</svg>
