<svg width="200" height="200" viewBox="0 0 200 200" fill="none" xmlns="http://www.w3.org/2000/svg">
<rect x="0.5" y="0.5" width="199" height="199" rx="2.5" fill="white" stroke="#86A5D9"/>
<path d="M183.069 96.4289C182.701 94.7898 181.279 94.3949 180.187 94.2896C177.159 93.9341 174.296 93.5326 171.578 93.1244C162.982 91.6631 149.338 88.6021 134.457 82.5987C118.175 76.0292 98.8838 65.2995 89.8341 54.4644C86.3129 50.1396 84.2068 45.8477 84.2266 41.8388C84.2266 41.8388 81.686 21.4721 117.602 32.5112C117.786 32.8798 130.291 68.5974 173.006 73.3172C175.639 73.6134 178.212 73.3567 178.482 71.9941C166.977 39.7456 136.182 16.6667 99.9895 16.6667C77.2105 16.6667 56.5706 25.81 41.525 40.6276C41.1564 41.0292 40.7879 41.4373 40.4325 41.8388C38.4251 44.1296 32.9952 50.574 32.9755 57.9993C32.9557 66.9188 43.3547 74.7522 56.0506 80.9926H56.123C56.123 80.9926 84.5359 94.8623 104.458 99.2661C105.61 99.4701 105.683 99.7137 105.683 100.036C105.676 100.497 105.354 100.523 104.84 100.688C86.0299 104.657 56.1889 118.948 56.1165 118.981C56.0967 118.994 32.9821 129.237 32.9821 142.001C32.9821 149.433 38.4317 155.87 40.439 158.161C40.7945 158.569 41.1564 158.971 41.5316 159.372C56.5706 174.19 77.2105 183.333 99.9895 183.333C136.182 183.333 166.977 160.255 178.482 128.006C178.212 126.643 175.639 126.393 173.006 126.676C130.291 131.409 117.786 167.12 117.602 167.489C81.686 178.535 84.2266 158.161 84.2266 158.161C84.1476 143.607 112.008 124.906 134.49 115.512C137.439 114.281 156.447 107.007 181.075 104.118C182.655 103.986 183.208 102.636 183.273 101.313C183.379 99.3911 183.359 98.1141 183.069 96.4289Z" fill="#E9540D"/>
<path d="M64.818 100.689C64.7916 100.689 65.6999 100.504 65.6999 100.037C65.6999 99.5695 64.6074 99.2667 64.6074 99.2667C59.2894 97.3972 51.6942 94.3363 45.2574 91.2556C33.6211 85.2127 24.4529 77.794 24.4529 69.4143C24.4529 68.6836 23.7421 68.5717 23.3867 68.5717C22.7746 68.5717 22.406 69.5525 22.406 69.5525C18.7006 78.9789 16.6669 89.2545 16.6669 100.004C16.6669 110.753 18.7006 121.022 22.406 130.455C22.406 130.455 22.7746 131.43 23.3867 131.43C23.7421 131.43 24.4529 131.324 24.4529 130.587C24.4529 122.095 33.8712 114.585 45.7313 108.502C52.0036 105.468 58.651 102.499 64.818 100.689Z" fill="#E9540D"/>
</svg>
