<svg width="200" height="200" viewBox="0 0 200 200" fill="none" xmlns="http://www.w3.org/2000/svg">
<rect x="0.5" y="0.5" width="199" height="199" rx="2.5" fill="white" stroke="#86A5D9"/>
<path fill-rule="evenodd" clip-rule="evenodd" d="M128.958 189.687C129.941 187.848 131.688 181.894 128.412 175.616C129.396 172.153 126.773 171.394 125.682 163.71C126.774 161.437 127.538 158.73 127.43 155.699C127.211 152.994 125.245 151.695 124.153 149.639C122.405 142.711 121.423 135.352 118.801 128.857C117.928 125.717 115.743 123.011 114.213 120.09C112.684 112.296 111.92 103.962 109.517 96.6023C109.97 96.2609 110.374 95.8602 110.718 95.4112C109.079 88.8091 106.676 79.1754 103.181 76.2525C104.054 73.0054 105.366 69.2175 105.803 66.2946C107.331 64.2385 109.078 61.965 112.465 60.4497C114.212 65.2122 114.977 71.1658 115.96 75.9273C118.144 80.6898 121.203 84.9106 122.076 89.2411C116.506 91.4059 112.683 96.4936 112.683 102.445C112.683 110.131 118.909 116.3 126.554 116.3C132.234 116.3 137.149 112.727 139.333 107.857V176.913C139.334 183.083 134.965 188.28 128.958 189.687Z" fill="#CC2229"/>
<path fill-rule="evenodd" clip-rule="evenodd" d="M122.421 189.892C120.236 184.697 121.547 180.367 121.984 174.414C121.438 171.708 121 169.002 120.563 166.405C117.506 161.75 116.414 157.529 115.649 152.55C109.861 147.464 103.088 143.025 98.5015 137.506C90.3093 129.82 84.3026 121.919 80.1522 113.043C78.7328 112.936 77.3134 112.826 75.7833 112.826C73.162 105.791 67.1553 97.2402 67.7009 91.7205C67.9194 86.8493 69.4485 82.412 71.3048 77.433C69.6659 77.1078 68.1378 77.6495 66.3903 76.6749C63.6602 74.9431 64.0971 71.9124 63.9874 69.2059C65.1883 63.794 68.1378 59.248 70.1038 54.3778C72.0698 50.156 73.9271 45.9352 75.7833 41.8221C78.4047 38.8992 80.0435 36.8431 83.3192 35.4356C86.1589 35.1104 88.9997 35.5433 92.0569 34.8948C93.3676 34.4619 95.0064 34.1367 95.553 33.2708C96.8636 31.4303 96.5355 29.482 97.0821 27.2094C95.3345 26.2358 95.553 21.2568 97.519 19.525C97.519 16.0614 98.9383 11.4066 101.888 10.2165L76.5484 10C74.812 9.99698 73.092 10.3337 71.4872 10.9908C69.8824 11.648 68.4243 12.6126 67.1965 13.8294C65.9687 15.0462 64.9954 16.4913 64.3325 18.0817C63.6695 19.6721 63.3298 21.3766 63.333 23.0973V176.903C63.3298 178.623 63.6695 180.328 64.3325 181.918C64.9954 183.509 65.9687 184.954 67.1965 186.171C68.4243 187.387 69.8824 188.352 71.4872 189.009C73.092 189.666 74.812 190.003 76.5484 190L122.421 189.892ZM71.7407 157.855H77.5299L81.7891 171.383V157.855H87.0317V180.476H81.1337L76.7649 166.947V180.476H71.7407V157.855ZM87.9055 157.855H94.6772C103.524 157.855 101.231 168.46 97.9539 168.677C102.868 168.137 103.524 180.476 95.551 180.476H87.9055V157.855ZM93.1481 161.534V166.62H94.4598C96.6442 166.62 96.6442 161.534 94.4598 161.534H93.1481ZM93.1481 170.518V176.796H94.4598C96.9714 176.796 96.6442 170.518 94.4598 170.518H93.1481ZM105.599 157.855H112.59L116.63 180.476H111.279L110.841 176.472H107.129L106.472 180.476H101.231L105.599 157.855ZM107.675 172.466H110.405L108.985 161.209L107.675 172.466Z" fill="#33348E"/>
<path fill-rule="evenodd" clip-rule="evenodd" d="M110.905 10.5648C114.619 14.0285 116.913 19.0074 113.418 25.0688C115.602 26.4754 111.779 28.9654 110.905 30.9137C109.814 33.9443 106.101 35.6761 106.538 36.7585C111.342 39.6814 115.166 42.6034 119.971 46.3913C122.484 49.5307 123.466 62.0854 124.886 71.6103C126.961 77.5639 129.91 82.6506 131.002 89.3614C134.825 90.768 137.774 93.6909 139.303 97.1546V23.1195C139.306 21.3988 138.967 19.6944 138.304 18.104C137.641 16.5137 136.667 15.0687 135.44 13.8519C134.212 12.6352 132.754 11.6706 131.149 11.0136C129.544 10.3566 127.824 10.02 126.088 10.0232L110.905 10.5648Z" fill="#CC2229"/>
</svg>
