<svg width="100" height="100" viewBox="0 0 100 100" fill="none" xmlns="http://www.w3.org/2000/svg">
<path d="M84.1667 11.4585H74.1667C71.1792 11.4585 68.75 13.8877 68.75 16.8752V26.8752C68.75 29.8627 71.1792 32.2918 74.1667 32.2918H84.1667C87.1542 32.2918 89.5833 29.8627 89.5833 26.8752V16.8752C89.5833 13.8877 87.1542 11.4585 84.1667 11.4585ZM85.4167 26.8752C85.4167 27.5647 84.8562 28.1252 84.1667 28.1252H74.1667C73.4771 28.1252 72.9167 27.5647 72.9167 26.8752V16.8752C72.9167 16.1856 73.4771 15.6252 74.1667 15.6252H84.1667C84.8562 15.6252 85.4167 16.1856 85.4167 16.8752V26.8752Z" fill="black"/>
<path d="M78.75 1.04175H21.25C9.53333 1.04175 0 10.6022 0 22.3563V36.4584V40.6251V77.6459C0 89.398 9.53333 98.9584 21.25 98.9584H78.75C90.4667 98.9584 100 89.398 100 77.6459V40.6251V36.4584V22.3563C100 10.6022 90.4667 1.04175 78.75 1.04175ZM95.8333 77.6459C95.8333 87.1001 88.1687 94.7917 78.75 94.7917H21.25C11.8292 94.7917 4.16667 87.1001 4.16667 77.6459V40.6251H29.6271C24.2083 45.923 20.8333 53.3001 20.8333 61.4584C20.8333 77.5417 33.9167 90.6251 50 90.6251C66.0833 90.6251 79.1667 77.5417 79.1667 61.4584C79.1667 53.3001 75.7917 45.923 70.3729 40.6251H95.8333V77.6459ZM75 61.4584C75 75.2438 63.7854 86.4584 50 86.4584C36.2146 86.4584 25 75.2438 25 61.4584C25 47.673 36.2146 36.4584 50 36.4584C63.7854 36.4584 75 47.673 75 61.4584ZM64.9458 36.4584C60.5687 33.8313 55.4667 32.2917 50 32.2917C44.5333 32.2917 39.4312 33.8313 35.0542 36.4584H4.16667V22.3563C4.16667 12.9001 11.8312 5.20841 21.25 5.20841H78.75C88.1687 5.20841 95.8333 12.9001 95.8333 22.3563V36.4584H64.9458Z" fill="black"/>
<path d="M31.25 61.4585C31.25 71.796 39.6604 80.2085 50 80.2085C60.3396 80.2085 68.75 71.796 68.75 61.4585C68.75 51.121 60.3396 42.7085 50 42.7085C39.6604 42.7085 31.25 51.121 31.25 61.4585ZM64.5833 61.4585C64.5833 69.5002 58.0396 76.0418 50 76.0418C41.9604 76.0418 35.4167 69.5002 35.4167 61.4585C35.4167 53.4168 41.9604 46.8752 50 46.8752C58.0396 46.8752 64.5833 53.4168 64.5833 61.4585Z" fill="black"/>
</svg>
