<svg width="100" height="100" viewBox="0 0 100 100" fill="none" xmlns="http://www.w3.org/2000/svg">
<g clip-path="url(#clip0_9_10643)">
<path d="M62.5206 42.9027L62.3173 42.856C50.6515 40.7724 43.8114 37.642 43.7931 37.642C42.6568 36.9977 41.2827 35.9854 41.177 34.8288C41.0814 33.7758 42.0409 32.6354 42.5348 32.1679C53.8836 26.3889 58.9105 33.4668 59.1219 33.7738C62.3072 38.4816 65.5636 41.0591 68.7997 41.4371C71.613 41.7624 73.3144 40.2826 73.4608 40.1464C75.7984 38.0953 76.9855 35.6947 76.9896 33.0156C76.9977 27.8179 72.3549 23.6549 72.1984 23.5166C58.6035 10.8446 37.451 18.1136 36.5891 18.4226C19.4593 24.1773 23.0247 40.2602 23.0613 40.4208L23.1284 40.6464C28.2 54.6783 49.562 56.4997 50.4686 56.5708C60.6769 57.3778 61.1079 62.2584 61.1262 62.5328C61.4941 67.6715 52.4688 69.194 51.1983 69.3831C42.2889 68.8871 40.1931 65.4152 40.1911 65.4152L39.9838 65.0757C35.3248 58.9125 33.5095 56.7741 29.5315 56.6724C26.1978 56.5627 24.2505 57.9205 23.1955 59.0589C20.5306 61.9311 20.8741 66.1734 20.9208 66.647L20.9676 66.9133C24.8928 83.3316 46.4743 83.1568 47.2426 83.1446C48.5029 83.2219 49.7124 83.2585 50.8771 83.2585C77.9023 83.2585 79.7541 63.6203 79.7663 63.4496C80.9351 51.4422 68.9969 44.7586 62.5206 42.9027ZM75.7211 63.0999C75.6663 63.8195 74.0299 80.7033 47.3361 79.0873C47.141 79.0812 28.2448 79.2194 24.9639 66.1307C24.9396 65.5941 24.9091 63.1955 26.1795 61.8274C26.895 61.057 27.9622 60.6891 29.4298 60.7399C31.2776 60.7867 32.0521 61.3314 36.6582 67.4154C37.327 68.5639 40.5509 72.92 51.1841 73.4546L51.3508 73.4628L51.5154 73.4445C56.8473 72.8387 65.7242 69.7998 65.1896 62.3559C65.1835 62.0002 64.8887 53.6315 50.7897 52.5175C50.5946 52.5033 31.2776 50.867 26.9987 39.3841C26.7223 38.0669 24.7464 26.6897 37.9165 22.2665C38.1137 22.1974 57.6197 15.4813 69.4664 26.5251C70.434 27.389 72.9424 30.2429 72.9302 33.0237C72.9241 34.5015 72.2208 35.8329 70.7471 37.1278C70.743 37.1298 70.182 37.5038 69.2733 37.4042C68.1431 37.2721 65.7587 36.3309 62.5023 31.5174C62.4312 31.4117 55.276 20.9696 40.4432 28.6798L40.0976 28.9074C39.7622 29.1798 36.8351 31.674 37.1278 35.1642C37.327 37.516 38.8942 39.5406 41.9291 41.2562C42.2238 41.3924 49.2388 44.6407 61.486 46.8401C62.7361 47.2263 76.8087 51.8854 75.7211 63.0999Z" fill="black"/>
<path d="M97.5099 58.7011C98.2234 54.7637 101.207 33.3306 85.2546 17.6522C83.978 16.1581 69.4603 0.0020349 42.673 3.65078C39.1036 1.79693 22.0896 -5.82376 7.72028 8.71633C7.58612 8.85456 -5.39284 22.7137 3.39464 40.5651C2.76043 43.4069 1.14035 53.294 5.77293 65.4213C6.02296 66.3197 12.1618 87.4987 35.3776 94.4202C35.7983 94.5808 45.6876 98.2905 58.4815 97.144C60.185 97.9022 65.4863 99.998 71.9728 99.998C78.134 99.998 85.3603 98.1075 91.5906 91.3792C92.4606 90.497 104.433 77.8453 97.5099 58.7011ZM88.6797 88.5435L88.6289 88.5964C76.5891 101.63 60.4472 93.6111 59.7662 93.2615L59.2296 92.9871L58.636 93.046C46.5738 94.2474 36.9224 90.6576 36.6866 90.5722C15.53 84.2626 9.74488 64.5269 9.63105 64.1529C4.68745 51.1902 7.47432 40.9798 7.50278 40.8822L7.72841 40.1016L7.35236 39.3821C-0.754155 23.8276 10.19 12.0215 10.6352 11.552C24.3866 -2.36813 40.559 7.09015 41.24 7.4967L41.866 7.87682L42.5897 7.76908C68.1634 3.99431 81.6424 19.6687 82.2014 20.3354L82.3437 20.4899C98.0465 35.8512 93.4688 58.2193 93.4201 58.4429L93.294 59.0304L93.5054 59.5894C100.014 76.8127 89.1473 88.072 88.6797 88.5435Z" fill="black"/>
</g>
<defs>
<clipPath id="clip0_9_10643">
<rect width="100" height="100" fill="white"/>
</clipPath>
</defs>
</svg>
