<svg width="100" height="100" viewBox="0 0 100 100" fill="none" xmlns="http://www.w3.org/2000/svg">
<path d="M50 0C22.4288 0 0 22.4288 0 50C0 59.4058 2.61346 68.5365 7.57115 76.4654C5.59615 83.3846 2.02885 96.4731 1.99038 96.6096C1.80577 97.2865 2.00385 98.0096 2.50962 98.4961C3.01538 98.9827 3.74615 99.1558 4.41154 98.9519L24.2308 92.8558C31.9942 97.5327 40.8846 100 50 100C77.5712 100 100 77.5712 100 50C100 22.4288 77.5712 0 50 0ZM50 96.1538C41.3096 96.1538 32.8442 93.725 25.5173 89.1327C25.2077 88.9385 24.8519 88.8404 24.4962 88.8404C24.3058 88.8404 24.1154 88.8692 23.9308 88.925L6.625 94.2519C7.89615 89.6115 10.1808 81.3115 11.5058 76.6942C11.6596 76.1596 11.5731 75.5827 11.2712 75.1154C6.41346 67.6404 3.84615 58.9558 3.84615 50C3.84615 24.5519 24.5519 3.84615 50 3.84615C75.4481 3.84615 96.1538 24.5519 96.1538 50C96.1538 75.4481 75.4481 96.1538 50 96.1538Z" fill="black"/>
<path d="M82.6635 61.7809C79.1135 59.8097 76.0904 57.8328 73.8846 56.3905C72.2 55.2905 70.9827 54.4962 70.0904 54.0482C67.5962 52.8039 65.7058 53.6828 64.9866 54.4097C64.8962 54.5001 64.8154 54.5982 64.7462 54.702C62.1558 58.5885 58.7731 62.3059 57.7827 62.5059C56.6385 62.327 51.2827 59.2828 45.9596 54.8501C40.525 50.3212 37.1058 45.9847 36.6039 43.0309C40.0904 39.4424 41.3462 37.1847 41.3462 34.6155C41.3462 31.9674 35.1693 20.9116 34.0519 19.7943C32.9308 18.6751 30.4058 18.5001 26.5462 19.2693C26.175 19.3443 25.8327 19.527 25.5635 19.7943C25.0962 20.2616 14.1616 31.4097 19.3577 44.9212C25.0616 59.7501 39.7019 76.9866 58.3673 79.7866C60.4885 80.1039 62.4769 80.2616 64.3385 80.2616C75.3193 80.2616 81.8 74.7366 83.625 63.777C83.7616 62.9751 83.375 62.1751 82.6635 61.7809ZM58.9385 75.9828C39.2 73.0232 26.7673 53.4674 22.9481 43.5405C19.1596 33.6943 26.1462 24.9155 27.9 22.9309C29.3269 22.6885 30.8289 22.5866 31.4558 22.6847C32.7654 24.5059 37.3 33.0732 37.5 34.6155C37.5 35.6251 37.1712 37.0309 33.2558 40.9482C32.8943 41.3078 32.6923 41.7962 32.6923 42.3078C32.6923 52.377 53.9308 66.3462 57.6923 66.3462C60.9635 66.3462 65.2289 60.8482 67.6577 57.2655C67.7981 57.2712 68.0346 57.3193 68.3712 57.4885C69.0635 57.8366 70.2635 58.6193 71.7808 59.6116C73.7846 60.9212 76.4462 62.6597 79.5885 64.4616C78.1616 71.327 74.1731 78.2712 58.9385 75.9828Z" fill="black"/>
</svg>
