<svg width="100" height="100" viewBox="0 0 100 100" fill="none" xmlns="http://www.w3.org/2000/svg">
<path d="M80.1143 13.2654H19.8857C8.92041 13.2654 0 22.2144 0 33.2123V66.7858C0 77.7858 8.92041 86.7327 19.8857 86.7327H80.1143C91.0796 86.7327 100 77.7838 100 66.7858V33.2123C100 22.2144 91.0796 13.2654 80.1143 13.2654ZM95.9184 66.7878C95.9184 75.5368 88.8286 82.6531 80.1143 82.6531H19.8857C11.1714 82.6531 4.08163 75.5348 4.08163 66.7878V33.2123C4.08163 24.4654 11.1714 17.347 19.8857 17.347H80.1143C88.8286 17.347 95.9184 24.4654 95.9184 33.2123V66.7878Z" fill="black"/>
<path d="M68.0816 49.2612L39.8061 32.7C39.1775 32.3327 38.3959 32.3265 37.7612 32.6898C37.1265 33.0531 36.7347 33.7286 36.7347 34.4612V67.5816C36.7347 68.3123 37.1265 68.9898 37.7592 69.3531C38.0735 69.5327 38.4245 69.6225 38.7755 69.6225C39.1326 69.6225 39.4877 69.5286 39.8061 69.3429L68.0816 52.7857C68.7061 52.4204 69.0918 51.749 69.0918 51.0245C69.0918 50.3 68.7081 49.6265 68.0816 49.2612ZM40.8163 64.0204V38.0204L63.0122 51.0225L40.8163 64.0204Z" fill="black"/>
</svg>
